<?xml version="1.0" standalone="no"?>
<!DOCTYPE svg PUBLIC "-//W3C//DTD SVG 1.1//EN" "http://www.w3.org/Graphics/SVG/1.1/DTD/svg11.dtd">
<svg xmlns="http://www.w3.org/2000/svg">
<metadata>Generated by Fontastic.me</metadata>
<defs>
<font id="ic-icons" horiz-adv-x="512">
<font-face font-family="ic-icons" units-per-em="512" ascent="480" descent="-32"/>
<missing-glyph horiz-adv-x="512" />

<glyph glyph-name="x" unicode="&#57344;" d="M279 256l228-228c7-7 7-17 0-23-6-7-16-7-23 0l-228 228-228-228c-7-7-17-7-23 0-7 6-7 16 0 23l228 228-229 229c-6 6-6 16 0 23 7 6 17 6 23 0l229-229 229 229c6 6 16 6 23 0 6-7 6-17 0-23z"/>
<glyph glyph-name="info" unicode="&#57345;" d="M256 512c-141 0-256-115-256-256 0-141 115-256 256-256 141 0 256 115 256 256 0 141-115 256-256 256z m0-480c-124 0-224 100-224 224 0 124 100 224 224 224 124 0 224-100 224-224 0-124-100-224-224-224z m0 256c-18 0-32-14-32-32l0-96c0-18 14-32 32-32 18 0 32 14 32 32l0 96c0 18-14 32-32 32z m32 64c0-18-14-32-32-32-18 0-32 14-32 32 0 18 14 32 32 32 18 0 32-14 32-32z"/>
<glyph glyph-name="lists-and-recipes" unicode="&#57346;" d="M74 375l276 74c14 3 31-5 34-19l23-89 20 0c3 0 8 0 11 0l-26 97c-8 28-39 46-71 40l-273-74c-31-9-48-40-42-71l45-165c3-9 9-17 14-26l0 83-31 116c-3 15 6 32 20 34z m381-62l-284 0c-32 0-57-26-57-57l0-171c0-31 25-57 57-57l284 0c31 0 57 26 57 57l0 171c0 31-26 57-57 57z m29-228c0-17-15-28-29-28l-284 0c-17 0-29 14-29 28l0 171c0 17 14 28 29 28l284 0c17 0 29-14 29-28z m-228 143l171 0 0-29-171 0z m0-86l171 0 0-28-171 0z m-57 0l29 0 0-28-29 0z m0 86l29 0 0-29-29 0z"/>
<glyph glyph-name="location-marker" unicode="&#57347;" d="M256 480c97 0 176-79 176-176 0-67-100-187-176-260-76 73-176 193-176 260 0 97 79 176 176 176m0-256c44 0 80 36 80 80 0 44-36 80-80 80-44 0-80-36-80-80 0-44 36-80 80-80m0 288c-115 0-208-93-208-208 0-115 208-304 208-304 0 0 208 189 208 304 0 115-93 208-208 208z m0-256c-27 0-48 21-48 48 0 27 21 48 48 48 27 0 48-21 48-48 0-27-21-48-48-48z"/>
<glyph glyph-name="logout" unicode="&#57348;" d="M511 262c-1 3-2 5-4 6l-68 68c-7 7-18 7-25 0-6-7-6-17 0-24l40-39-232 0c-10 0-17-7-17-17 0-10 7-17 17-17l232 0-39-39c-7-7-7-17 0-24 7-7 17-7 24 0l68 68c2 2 3 3 4 6 1 4 1 8 0 12z m-118-228l-350 0c-5 0-9 4-9 9l0 426c0 5 4 9 9 9l350 0c9 0 17 7 17 17 0 9-8 17-17 17l-359 0c-19 0-34-15-34-34l0-444c0-19 15-34 34-34l359 0c9 0 17 8 17 17 0 10-8 17-17 17z"/>
<glyph glyph-name="money" unicode="&#57349;" d="M256 352c-35 0-64-42-64-96 0-54 29-96 64-96 35 0 64 42 64 96 0 54-29 96-64 96z m0-160c-13 0-32 26-32 64 0 38 19 64 32 64 13 0 32-26 32-64 0-38-19-64-32-64z m224 256l-448 0c-19 0-32-13-32-32l0-320c0-19 13-32 32-32l448 0c19 0 32 13 32 32l0 320c0 19-13 32-32 32z m-448-32l32 0c0-19-13-32-32-32z m0-320l0 32c19 0 32-13 32-32z m448 0l-32 0c0 19 13 32 32 32z m0 64c-35 0-64-29-64-64l-320 0c0 35-29 64-64 64l0 192c35 0 64 29 64 64l320 0c0-35 29-64 64-64z m0 224c-19 0-32 13-32 32l32 0z"/>
<glyph glyph-name="more" unicode="&#57350;" d="M64 320c-35 0-64-29-64-64 0-35 29-64 64-64 35 0 64 29 64 64 0 35-29 64-64 64z m0-96c-19 0-32 13-32 32 0 19 13 32 32 32 19 0 32-13 32-32 0-19-13-32-32-32z m192 96c-35 0-64-29-64-64 0-35 29-64 64-64 35 0 64 29 64 64 0 35-29 64-64 64z m0-96c-19 0-32 13-32 32 0 19 13 32 32 32 19 0 32-13 32-32 0-19-13-32-32-32z m192 96c-35 0-64-29-64-64 0-35 29-64 64-64 35 0 64 29 64 64 0 35-29 64-64 64z m0-96c-19 0-32 13-32 32 0 19 13 32 32 32 19 0 32-13 32-32 0-19-13-32-32-32z"/>
<glyph glyph-name="order-history" unicode="&#57351;" d="M16 352l0-313 41-38 41 38 46-38 45 38 46-38 46 40 41-40 46 38 0 313c0 18-14 32-32 32l-288 0c-18 0-32-14-32-32z m320-298l-12-10-20 20-21 20-23-19-25-22-25 20-21 17-20-17-26-21-26 21-21 18-21-19-19-18-8 9 0 299 288 0z m-224 234l160 0 0-32-160 0z m0-64l160 0 0-32-160 0z m0-64l160 0 0-32-160 0z m352 352l-288 0c-18 0-32-14-32-32l0-32 32 0 0 32 288 0 0-298-12-10-20 19 0-44 18-18 46 38 0 313c0 18-14 32-32 32z m-64-64l-288 0c-18 0-32-14-32-32l0-32 32 0 0 32 288 0 0-298-12-10-20 19 0-44 18-18 46 38 0 313c0 18-14 32-32 32z"/>
<glyph glyph-name="search" unicode="&#57352;" d="M506 42l-135 134c29 35 45 80 45 128 0 115-93 208-208 208-115 0-208-93-208-208 0-115 93-208 208-208 48 0 93 16 128 45l134-135c10-9 26-9 36 0 9 10 6 26 0 36z m-298 102c-90 0-160 70-160 160 0 90 70 160 160 160 90 0 160-70 160-160 0-90-74-160-160-160z"/>
<glyph glyph-name="store" unicode="&#57353;" d="M448 64l-96 0 0 99c0 19-13 29-32 29l-128 0c-19 0-32-10-32-29l0-99-96 0 0 147c0 0-22 3-32 7l0-151c0-19 13-35 32-35l384 0c19 0 32 16 32 35l0 151c-10-4-32-7-32-7z m-128 0l-128 0 0 96 128 0z m128 416l-384 0c-18 0-32-14-32-32l448 0c0 18-14 32-32 32z m55-119c-11 23-24 55-24 55l-446 0c0 0-13-32-24-55-15-33-11-77 15-103 27-27 67-21 88 9 25-35 71-35 96 0 12-17 30-26 48-26 18 0 36 9 48 26 25-35 71-35 96 0 21-30 61-36 88-9 26 26 30 70 15 103z m-403-21c-4-18-6-38-14-54-6-9-14-14-22-14-24 0-32 23-32 50 0 20 14 43 22 62l54 0z m60-68c-51-3-26 85-20 112l52 0c0-37 11-109-32-112z m128 48c0-18-9-48-32-48-23 0-32 30-32 48l0 64 64 0z m64-48c-43 3-32 75-32 112l52 0c6-27 31-115-20-112z m96 0c-8 0-16 5-22 14-8 16-10 36-14 54l-8 44 55 0c7-19 21-41 21-62 0-27-8-50-32-50z"/>
<glyph glyph-name="ticket" unicode="&#57354;" d="M320 467l10-9c-7-13-10-26-10-42 0-54 42-96 96-96 16 0 29 3 42 10l9-10-275-275-10 9c7 13 10 26 10 42 0 54-42 96-96 96-16 0-29-3-42-10l-9 10 275 275m0 45l-320-320 51-51c13 13 29 19 45 19 35 0 64-29 64-64 0-19-6-35-19-45l51-51 320 320-51 51c-10-13-26-19-45-19-35 0-64 29-64 64 0 19 6 35 19 45z"/>
<glyph glyph-name="help" unicode="&#57355;" d="M211 320c-3-10-13-16-22-16-10 0-13 10-13 16 10 38 42 64 80 64 45 0 80-35 80-80 0-38-29-70-64-77l0-16c0-13-6-19-16-19-10 0-16 6-16 16l0 32c0 10 6 16 16 16 26 0 48 22 48 48 0 26-22 48-48 48-22 0-38-13-45-32z m45 192c-141 0-256-115-256-256 0-141 115-256 256-256 141 0 256 115 256 256 0 141-115 256-256 256z m0-480c-125 0-224 99-224 224 0 125 99 224 224 224 125 0 224-99 224-224 0-125-99-224-224-224z m0 96c10 0 16 6 16 16 0 10-6 16-16 16-10 0-16-6-16-16 0-10 6-16 16-16z"/>
<glyph glyph-name="arrow-up-small" unicode="&#57358;" d="M413 189c-7-7-16-7-23 0l-134 131-131-131c-7-7-16-7-23 0-6 6-6 16-3 22l144 144c7 7 16 7 23 0l144-144c6-6 6-16 3-22z"/>
<glyph glyph-name="arrow-right-small-bold" unicode="&#57359;" d="M166 102c-9 10-9 26 0 36l128 118-128 118c-9 10-9 26 0 36 10 9 26 9 36 0l144-135c9-9 9-25 0-35l-144-138c-10-9-26-9-36 0z"/>
<glyph glyph-name="arrow-right-small" unicode="&#57360;" d="M163 429c-3-7-3-19 0-26l131-131-131-131c-6-7-6-16 0-23 7-6 16-6 23 0l144 144c6 7 6 16 0 23l-144 144c-4 3-16 3-23 0z"/>
<glyph glyph-name="arrow-left-small-bold" unicode="&#57361;" d="M346 102c9 10 9 26 0 36l-128 118 128 118c9 10 9 26 0 36-10 9-26 9-36 0l-144-135c-9-9-9-25 0-35l144-138c10-9 26-9 36 0z"/>
<glyph glyph-name="arrow-left-small" unicode="&#57362;" d="M333 429c6-7 6-16 0-23l-131-131 131-131c6-6 6-16 0-22-7-7-16-7-23 0l-144 144c-6 0-6 12-3 19l144 144c7 3 19 3 26 0z"/>
<glyph glyph-name="arrow-down-small-bold" unicode="&#57363;" d="M410 346c-10 9-26 9-36 0l-118-128-118 128c-10 9-26 9-36 0-9-10-9-26 0-36l135-144c9-9 25-9 35 0l138 144c9 10 9 26 0 36z"/>
<glyph glyph-name="arrow-down-small" unicode="&#57364;" d="M413 355c-7 7-16 7-23 0l-134-131-131 131c-7 7-16 7-23 0-6-6-6-16-3-22l144-144c7-7 16-7 23 0l144 144c6 6 6 16 3 22z"/>
<glyph glyph-name="tip" unicode="&#57366;" d="M256 512c-141 0-256-115-256-256 0-141 115-256 256-256 141 0 256 115 256 256 0 141-115 256-256 256z m0-480c-125 0-224 99-224 224 0 125 99 224 224 224 125 0 224-99 224-224 0-125-99-224-224-224z m138 362c-7 6-16 6-23 0l-249-250c-7-6-7-16 0-22 6-7 16-7 22 0l250 249c6 7 6 16 0 23z m-218-122c35 0 64 29 64 64 0 35-29 64-64 64-35 0-64-29-64-64 0-35 29-64 64-64z m0 96c19 0 32-13 32-32 0-19-13-32-32-32-19 0-32 13-32 32 0 19 13 32 32 32z m160-128c-35 0-64-29-64-64 0-35 29-64 64-64 35 0 64 29 64 64 0 35-29 64-64 64z m0-96c-19 0-32 13-32 32 0 19 13 32 32 32 19 0 32-13 32-32 0-19-13-32-32-32z"/>
<glyph glyph-name="clock" unicode="&#57367;" d="M256 480c125 0 224-99 224-224 0-125-99-224-224-224-125 0-224 99-224 224 0 125 99 224 224 224m0 32c-141 0-256-115-256-256 0-141 115-256 256-256 141 0 256 115 256 256 0 141-115 256-256 256z m-16-288c-10 0-16 6-16 16l0 166c0 10 6 16 16 16 10 0 16-6 16-16l0-166c0-10-6-16-16-16z m176 16c0-10-6-16-16-16l-160 0c-10 0-16 6-16 16 0 10 6 16 16 16l160 0c10 0 16-6 16-16z"/>
<glyph glyph-name="lock" unicode="&#57368;" d="M448 288l0 32c0 106-86 192-192 192-106 0-192-86-192-192l0-32c-19 0-32-13-32-32l0-224c0-19 16-32 32-32l384 0c19 0 32 13 32 32l0 224c0 19-13 32-32 32z m-352 32c0 90 70 160 160 160 90 0 160-70 160-160l0-32-32 0 0 32c0 70-58 128-128 128-70 0-128-58-128-128l0-32-32 0z m256 0l0-32-192 0 0 32c0 54 42 96 96 96 54 0 96-42 96-96z m96-288l-384 0 0 224 384 0z"/>
<glyph glyph-name="bell" unicode="&#57370;" d="M464 160c-10 0-16 6-16 16l0 112c0 86-54 157-131 182-10 26-32 42-61 42-29 0-51-16-61-42-77-25-131-96-131-182l0-112c0-10-6-16-16-16-26 0-48-22-48-48 0-26 22-48 48-48l144 0c0-35 29-64 64-64 35 0 64 29 64 64l144 0c26 0 48 22 48 48 0 26-22 48-48 48z m-208-128c-19 0-32 13-32 32l64 0c0-19-13-32-32-32z m208 64l-416 0c-10 0-16 6-16 16 0 10 6 16 16 16 26 0 48 22 48 48l0 112c0 77 54 141 128 157l0 3c0 19 13 32 32 32 19 0 32-13 32-32l0-3c74-16 128-80 128-157l0-112c0-26 22-48 48-48 10 0 16-6 16-16 0-10-6-16-16-16z"/>
<glyph glyph-name="alcohol" unicode="&#57371;" d="M199 171l-171 0 0 85 165 0-22 28-143 0 0 57 57 0 0 114 57 0 0-114 86 0c0 15-12 29-29 29l-28 0 0 85c0 17-15 29-29 29l-57 0c-17 0-28-15-28-29l0-85-29 0c-17 0-28-12-28-29l0-284c0-14 11-29 28-29l171 0c14 0 29 12 29 29l0 159-29 34z m0-114l-171 0 0 85 171 0z m228 0c0 0-20 0-37 0-12 0-20 0-20 0l0 85 142 171-91 0 34 57-28 0-34-57-194 0 142-171 0-85-57 0c-17 0-28-11-28-29l199 0c0 15-11 29-28 29z m-71 114l-97 113 116 0-34-56 29 0 34 56 48 0z"/>
<glyph glyph-name="pricing-filled" unicode="&#57374;" d="M272 144c48 10 48 45 48 48 0 3-3 38-48 45z m-16 368c-141 0-256-115-256-256 0-141 115-256 256-256 141 0 256 115 256 256 0 141-115 256-256 256z m96-320c0-26-19-74-80-80l0-16c0-10-6-16-16-16-10 0-16 6-16 16l0 16c-26 3-45 13-58 26-22 22-22 54-22 54 0 10 6 16 16 16 10 0 16-6 16-16 0-6 3-42 48-48l0 96c-26 3-45 13-58 26-22 22-22 54-22 54 0 0 0 32 22 54 16 16 36 23 58 26l0 16c0 10 6 16 16 16 10 0 16-6 16-16l0-16c61-10 80-54 80-80 0-10-6-16-16-16-10 0-16 6-16 16 0 3-3 38-48 48l0-96c61-10 80-54 80-80z m-160 128c0-3 3-38 48-45l0 93c-45-10-48-45-48-48z"/>
<glyph glyph-name="pricing-same" unicode="&#57375;" d="M256 512c-141 0-256-115-256-256 0-141 115-256 256-256 141 0 256 115 256 256 0 141-115 256-256 256z m0-480c-125 0-224 99-224 224 0 125 99 224 224 224 125 0 224-99 224-224 0-125-99-224-224-224z m-45 106c7-7 19-7 26 3l137 192c7 6 4 16-3 22-6 7-16 3-22-3l-128-176-71 70c-6 7-16 7-22 0-6-6-6-16 0-22z"/>
<glyph glyph-name="loyalty-card" unicode="&#57377;" d="M256 160c54 0 96 42 96 96 0 54-42 96-96 96-54 0-96-42-96-96 0-54 42-96 96-96z m0 160c35 0 64-29 64-64 0-35-29-64-64-64-35 0-64 29-64 64 0 35 29 64 64 64z m224 128l-448 0c-19 0-32-13-32-32l0-320c0-19 13-32 32-32l448 0c19 0 32 13 32 32l0 320c0 19-13 32-32 32z m0-352l-448 0 0 320 448 0z"/>
<glyph glyph-name="picture" unicode="&#57380;" d="M480 512l-448 0c-19 0-32-13-32-32l0-448c0-19 13-32 32-32l448 0c19 0 32 13 32 32l0 448c0 19-13 32-32 32z m-384-480c3 26 16 45 32 64 0-22 6-45 16-64z m90 0c-16 16-26 38-26 64 0 6 0 16 3 22 10 4 19 7 32 10l32 32 0 67c-6-3-9-3-16-3-25 0-48 22-48 48l0 32c0 26 23 48 48 48 26 0 48-22 48-48l0-160c-38-22-64-64-64-112z m22 352c-16 0-32-6-45-13 7 26 32 45 61 45l32 0c54 0 96-42 96-96l0-163c-10 3-22 3-32 3-10 0-22 0-32-3l0 147c0 45-35 80-80 80z m16-352c0 54 42 96 96 96 54 0 96-42 96-96z m256 0l-32 0c0 48-26 90-64 112l0 176c0 70-58 128-128 128l-32 0c-54 0-96-42-96-96l0-80c0-26 13-48 32-64 10-6 19-13 32-16l0-35c-67-7-118-61-128-128l-32 0 0 448 448 0z"/>
<glyph glyph-name="star" unicode="&#57381;" d="M256 456l54-108c7-16 22-26 39-29l119-17-86-84c-12-12-18-30-15-47l20-119-107 57c-7 3-16 6-24 6-8 0-17-3-24-6l-107-57 20 119c3 17-3 35-15 47l-86 84 119 17c17 3 32 13 39 29l54 108m0 41c-8 0-16-4-20-12l-61-124c-3-6-9-11-16-12l-136-20c-18-2-25-24-12-37l98-96c5-5 8-12 7-19l-24-136c-2-14 9-26 22-26 3 0 7 1 10 3l122 64c3 2 7 2 10 2 4 0 7 0 10-2l122-64c3-2 7-3 10-3 13 0 24 12 22 26l-23 136c-2 7 1 14 6 19l98 96c13 13 6 35-12 37l-136 20c-7 1-13 6-16 12l-61 124c-4 8-12 12-20 12z"/>
<glyph glyph-name="star-filled" unicode="&#57382;" d="M276 485l61-124c3-6 9-11 16-12l136-20c18-2 25-24 12-37l-98-96c-5-5-8-12-7-19l24-136c3-18-16-32-32-23l-122 64c-6 3-14 3-20 0l-122-64c-16-9-35 5-32 23l23 136c2 7-1 14-6 19l-98 96c-13 13-6 35 12 37l136 20c7 1 13 6 16 12l61 124c8 16 32 16 40 0z"/>
<glyph glyph-name="arrow-right" unicode="&#57383;" d="M511 262c-1 2-2 4-4 5l-192 192c-6 7-16 7-23 0-6-6-6-16 0-23l165-164-441 0c-9 0-16-7-16-16 0-9 7-16 16-16l441 0-164-165c-7-6-7-16 0-23 6-6 16-6 23 0l192 192c1 2 2 4 3 6 1 4 1 8 0 12z"/>
<glyph glyph-name="receipt" unicode="&#57384;" d="M448 480l0-417-24-21-35 30-21 18-21-18-35-30-35 30-21 18-21-18-35-30-35 30-21 18-21-18-35-30-24 21 0 417 384 0 0 0m0 32l-384 0c-18 0-32-14-32-32l0-432 56-48 56 48 56-48 56 48 56-48 56 48 56-48 56 48 0 432c0 18-14 32-32 32z m-320-128l256 0 0-32-256 0z m0-96l256 0 0-32-256 0z m0-96l256 0 0-32-256 0z"/>
<glyph glyph-name="happy" unicode="&#57385;" d="M306 507c-179 35-336-122-301-301 19-101 100-182 201-201 179-35 336 122 301 301-19 101-100 182-201 201z m-26-474c-144-14-261 103-247 247 11 104 95 188 199 199 144 14 261-103 247-247-11-104-95-188-199-199z m-104 255c18 0 32 14 32 32 0 18-14 32-32 32-18 0-32-14-32-32 0-18 14-32 32-32z m160 0c18 0 32 14 32 32 0 18-14 32-32 32-18 0-32-14-32-32 0-18 14-32 32-32z m-80-160c50 0 91 38 96 87 0 5-4 9-8 9l-176 0c-4 0-8-4-8-9 5-49 46-87 96-87z"/>
<glyph glyph-name="plus-bold" unicode="&#57387;" d="M288 288l0 160c0 18-14 32-32 32-18 0-32-14-32-32l0-160-160 0c-18 0-32-14-32-32 0-18 14-32 32-32l160 0 0-160c0-18 14-32 32-32 18 0 32 14 32 32l0 160 160 0c18 0 32 14 32 32 0 18-14 32-32 32z m0 0l0 160c0 18-14 32-32 32-18 0-32-14-32-32l0-160-160 0c-18 0-32-14-32-32 0-18 14-32 32-32l160 0 0-160c0-18 14-32 32-32 18 0 32 14 32 32l0 160 160 0c18 0 32 14 32 32 0 18-14 32-32 32z m0 0l0 160c0 18-14 32-32 32-18 0-32-14-32-32l0-160-160 0c-18 0-32-14-32-32 0-18 14-32 32-32l160 0 0-160c0-18 14-32 32-32 18 0 32 14 32 32l0 160 160 0c18 0 32 14 32 32 0 18-14 32-32 32z"/>
<glyph glyph-name="email-filled" unicode="&#57391;" d="M8 428c4 4 11 7 17 7l462 0c7 0 13-3 18-7l-19-18-221-202c-5-5-13-4-18 0l-221 202z m504-29l0-292-26 21-140 115-2 2 142 130z m-9-316c-5-4-10-6-16-6l-462 0c-6 0-11 2-16 6l33 25 141 115c0 0 2 3 5 4l42-38c7-6 16-10 25-10 10 0 20 3 28 10l41 38c3-1 5-4 5-4l141-115z m-503 24l0 293 26-25 142-130-2-2-140-115z"/>
<glyph glyph-name="facebook-filled" unicode="&#57392;" d="M484 512l-456 0c-15 0-28-13-28-28l0-456c0-15 13-28 28-28l245 0 0 198-66 0 0 78 66 0 0 57c0 66 41 102 100 102 28 0 52-2 59-3l0-69-40-1c-33 0-39-15-39-37l0-49 77 0-10-78-67 0 0-198 131 0c15 0 28 13 28 28l0 456c0 15-13 28-28 28z"/>
<glyph glyph-name="share-android-filled" unicode="&#57394;" d="M342 465c-11 11-19 8-19-7l0-107c-209-36-295-167-323-311 71 101 170 161 323 149l0-108c0-15 8-18 18-6l167 198c5 5 5 14 0 20z"/>
<glyph glyph-name="share-android" unicode="&#57395;" d="M350 418l131-136-131-155 0 87-25 2c-13 1-27 1-40 1-86 0-159-23-221-70 49 97 137 155 264 177l22 4 0 23 0 67m-19 54c-5 0-8-5-8-14l0-107c-209-36-295-167-323-311 65 93 154 150 285 150 13 0 25 0 38-1l0-108c0-9 3-13 7-13 3 0 7 2 11 7l167 198c5 5 5 14 0 20l-166 172c-4 5-8 7-11 7z"/>
<glyph glyph-name="twitter-filled" unicode="&#57396;" d="M166 51c-58 0-113 17-159 47 9-1 17-2 25-2 49 0 93 17 129 44-46 1-84 31-97 72 6-1 13-2 19-2 10 0 19 2 28 4-48 10-83 51-83 101 0 1 0 1 0 2 14-8 30-13 47-13-28 18-46 50-46 86 0 19 5 37 14 52 51-63 127-104 213-108-2 7-3 15-3 23 0 58 46 104 103 104 30 0 57-13 76-33 23 5 46 13 66 25-8-24-25-44-46-57 21 3 41 8 59 16-13-20-31-39-51-53 0-5 0-9 0-14 0-136-104-294-294-294"/>
<glyph glyph-name="tobacco" unicode="&#57397;" d="M368 128l-352 0c-9 0-16-7-16-16l0-96c0-9 7-16 16-16l352 0c9 0 16 7 16 16l0 96c0 9-7 16-16 16z m-16-96l-320 0 0 64 320 0z m80 96c-9 0-16-7-16-16l0-96c0-9 7-16 16-16 9 0 16 7 16 16l0 96c0 9-7 16-16 16z m64 0c-9 0-16-7-16-16l0-96c0-9 7-16 16-16 9 0 16 7 16 16l0 96c0 9-7 16-16 16z m-32 128l-96 0c-9 0-16 7-16 16 0 9 7 16 16 16l64 0c26 0 48 22 48 48 0 26-21 48-48 48l-256 0c-9 0-16 7-16 16 0 9 7 16 16 16l208 0c26 0 48 22 48 48 0 26-22 48-48 48l-144 0c-9 0-16-7-16-16 0-9 7-16 16-16l144 0c9 0 16-7 16-16 0-9-7-16-16-16l-208 0c-26 0-48-22-48-48 0-26 21-48 48-48l256 0c9 0 16-7 16-16 0-9-7-16-16-16l-64 0c-26 0-48-22-48-48 0-26 22-48 48-48l96 0c9 0 16-7 16-16l0-32c0-9 7-16 16-16 9 0 16 7 16 16l0 32c0 26-22 48-48 48z m-384 224l96 0c9 0 16 7 16 16 0 9-7 16-16 16l-96 0c-9 0-16-7-16-16 0-9 7-16 16-16z m-48 16c0-9-7-16-16-16-9 0-16 7-16 16 0 9 7 16 16 16 9 0 16-7 16-16z"/>
<glyph glyph-name="ticket-filled" unicode="&#57398;" d="M320 512l-320-320 51-51c13 13 29 19 45 19 35 0 64-29 64-64 0-19-6-35-19-45l51-51 320 320-51 51c-10-13-26-19-45-19-35 0-64 29-64 64 0 19 6 35 19 45z"/>
<glyph glyph-name="bag" unicode="&#57399;" d="M416 384l-32 0 0 48c0 44-36 80-80 80l-96 0c-44 0-80-36-80-80l0-48-32 0c-17 0-32-14-32-32l0-320c0-17 14-32 32-32l320 0c17 0 32 14 32 32l0 320c0 17-14 32-32 32z m0-352l-320 0 0 320 32 0 0-80c0-9 7-16 16-16 9 0 16 7 16 16l0 160c0 27 21 48 48 48l96 0c26 0 48-21 48-48l0-160c0-9 7-16 16-16 9 0 16 7 16 16l0 80 32 0 0-320z m-224 352l128 0 0-32-128 0z"/>
<glyph glyph-name="bag-filled" unicode="&#57400;" d="M384 384l0 48c0 44-36 80-80 80l-96 0c-44 0-80-36-80-80l0-48-32 0c-17 0-32-14-32-32l0-320c0-17 14-32 32-32l320 0c17 0 32 14 32 32l0 320c0 17-14 32-32 32z m-224 0l0 48c0 27 21 48 48 48l96 0c26 0 48-21 48-48l0-48z m0 0l0-112c0-9-7-16-16-16-9 0-16 7-16 16l0 112z m224 0l0-112c0-9-7-16-16-16-9 0-16 7-16 16l0 112z"/>
<glyph glyph-name="share-android-2" unicode="&#57401;" d="M416 160c-24 0-46-11-61-28l-183 100c3 8 4 16 4 24 0 8-1 16-4 24l183 100c15-17 37-28 61-28 44 0 80 36 80 80 0 44-36 80-80 80-44 0-80-36-80-80 0-8 1-16 4-24l-183-100c-15 17-37 28-61 28-44 0-80-36-80-80 0-44 36-80 80-80 24 0 46 11 61 28l183-100c-3-8-4-16-4-24 0-44 36-80 80-80 44 0 80 36 80 80 0 44-36 80-80 80z m0 320c26 0 48-22 48-48 0-26-22-48-48-48-26 0-48 22-48 48 0 26 22 48 48 48z m-320-272c-26 0-48 22-48 48 0 26 22 48 48 48 26 0 48-22 48-48 0-26-22-48-48-48z m320-176c-26 0-48 22-48 48 0 26 22 48 48 48 26 0 48-22 48-48 0-26-22-48-48-48z"/>
<glyph glyph-name="share-android-2-filled" unicode="&#57402;" d="M172 232c3 8 4 16 4 24 0 8-1 16-4 24l183 100c15-17 37-28 61-28 44 0 80 36 80 80 0 44-36 80-80 80-44 0-80-36-80-80 0-8 1-16 4-24l-183-100c-15 17-37 28-61 28-44 0-80-36-80-80 0-44 36-80 80-80 24 0 46 11 61 28l183-100c-3-8-4-16-4-24 0-44 36-80 80-80 44 0 80 36 80 80 0 44-36 80-80 80-24 0-46-11-61-28z"/>
<glyph glyph-name="check" unicode="&#57403;" d="M38 228l160-128c7-6 16-5 22 1l256 288c6 7 5 17-1 23-7 6-17 5-23-1l-246-277-148 118c-7 6-17 5-23-2-5-7-4-17 3-22z"/>
<glyph glyph-name="check-bold" unicode="&#57404;" d="M33 221l160-128c10-8 24-7 33 3l256 288c9 10 8 25-2 34-10 9-25 8-34-2l-241-271-142 114c-10 8-25 6-34-4-8-10-6-25 4-34z"/>
<glyph glyph-name="phone-filled" unicode="&#57405;" d="M0 416c0 51 24 96 96 96 11 0 107-151 94-163-42-38-35-46-35-46 0 0 6-14 67-76l5-5c62-61 77-68 77-68 0 0 7-6 46 36 11 13 162-83 162-94 0-72-45-96-96-96-94 1-160 50-261 150 0 0-5 4-5 4-106 102-149 168-150 262z"/>
<glyph glyph-name="no-filled" unicode="&#57407;" d="M256 512c-139 0-256-112-256-256 0-139 112-256 256-256 144 0 256 117 256 256 0 139-117 256-256 256z m96-288l-192 0c-18 0-32 14-32 32 0 18 14 32 32 32l192 0c18 0 32-14 32-32 0-18-14-32-32-32z"/>
<glyph glyph-name="no" unicode="&#57408;" d="M256 512c-139 0-256-112-256-256 0-139 112-256 256-256 144 0 256 117 256 256 0 139-117 256-256 256z m0-480c-126 0-224 103-224 224 0 126 103 224 224 224 121 0 224-103 224-224 0-121-98-224-224-224z m-128 224c0 18 14 32 32 32l192 0c18 0 32-14 32-32 0-18-14-32-32-32l-192 0c-18 0-32 14-32 32z"/>
<glyph glyph-name="message" unicode="&#57409;" d="M96 96c-53 0-96 43-96 96l0 224c0 53 43 96 96 96l320 0c53 0 96-43 96-96l0-224c0-53-43-96-96-96l-82 0c-2 0-4-1-5-3l-55-82c-10-14-26-15-36 0l-55 82c-1 2-3 3-5 3z m85 32l5 0c7 0 16-5 20-11l2-3 48-72 48 72 2 3c4 6 13 11 20 11l90 0c35 0 64 29 64 64l0 224c0 35-29 64-64 64l-320 0c-35 0-64-29-64-64l0-224c0-35 29-64 64-64z"/>
<glyph glyph-name="bell-filled" unicode="&#57415;" d="M464 160c-10 0-16 6-16 16l0 112c0 86-54 157-131 182-10 26-32 42-61 42-29 0-51-16-61-42-77-25-131-96-131-182l0-112c0-10-6-16-16-16-26 0-48-22-48-48 0-26 22-48 48-48l144 0c0-35 29-64 64-64 35 0 64 29 64 64l144 0c26 0 48 22 48 48 0 26-22 48-48 48z"/>
<glyph glyph-name="alcohol-filled" unicode="&#57417;" d="M126 341l102 0c0 15-12 29-29 29l-28 0 0 85c0 17-15 29-29 29l-57 0c-17 0-28-15-28-29l0-85-29 0c-17 0-28-12-28-29l0-57 172 0z m102-125l-33 40-195 0 0-85 228 0z m-228-74l0-85c0-14 11-29 28-29l171 0c14 0 29 12 29 29l0 85z m427-85c0 0-20 0-37 0-12 0-20 0-20 0l0 85 142 171-91 0 34 57-28 0-34-57-194 0 142-171 0-85-57 0c-17 0-28-11-28-29l199 0c0 15-11 29-28 29z m-57 171l-29 0 52 85 28 0z"/>
<glyph glyph-name="arrow-enter" unicode="&#57418;" d="M272 240l-217 0 164-165c7-6 7-16 0-23-6-6-16-6-23 0l-192 192c-1 2-2 4-3 6-1 4-1 8 0 12 1 2 2 4 4 5l192 192c6 7 16 7 22 0 7-6 7-16 0-23l-164-164 150 0c1 0 2 0 3 0l192 0c44 0 80 36 80 80l0 96c0 9 7 16 16 16 9 0 16-7 16-16l0-96c0-62-50-112-112-112z"/>
<glyph glyph-name="arrow-left" unicode="&#57419;" d="M1 250c1-2 2-4 3-6l192-192c7-6 17-6 23 0 7 7 7 17 0 23l-164 165 441 0c9 0 16 7 16 16 0 9-7 16-16 16l-441 0 164 164c7 7 7 17 0 23-6 7-16 7-22 0l-192-192c-2-1-3-3-4-5-1-4-1-8 0-12z"/>
<glyph glyph-name="clock-filled" unicode="&#57420;" d="M256 512c-141 0-256-115-256-256 0-141 115-256 256-256 141 0 256 115 256 256 0 141-115 256-256 256z m144-288l-160 0c-9 0-16 7-16 16l0 166c0 9 7 16 16 16 9 0 16-7 16-16l0-150 144 0c9 0 16-7 16-16 0-9-7-16-16-16z"/>
<glyph glyph-name="info-filled" unicode="&#57426;" d="M256 512c-141 0-256-115-256-256 0-141 115-256 256-256 141 0 256 115 256 256 0 141-115 256-256 256z m32-352c0-18-14-32-32-32-18 0-32 14-32 32l0 96c0 18 14 32 32 32 18 0 32-14 32-32z m-32 160c-18 0-32 14-32 32 0 18 14 32 32 32 18 0 32-14 32-32 0-18-14-32-32-32z"/>
<glyph glyph-name="help-filled" unicode="&#57427;" d="M256 512c-141 0-256-115-256-256 0-141 115-256 256-256 141 0 256 115 256 256 0 141-115 256-256 256z m0-384c-10 0-16 6-16 16 0 10 6 16 16 16 10 0 16-6 16-16 0-10-6-16-16-16z m16 99l0-16c0-13-6-19-16-19-10 0-16 6-16 16l0 32c0 10 6 16 16 16 26 0 48 22 48 48 0 26-22 48-48 48-22 0-38-13-45-32-3-10-13-16-22-16-10 0-13 10-13 16 10 38 42 64 80 64 45 0 80-35 80-80 0-38-29-70-64-77z"/>
<glyph glyph-name="guaranteed-fresh-filled" unicode="&#57428;" d="M71 132l-2-8c-10-35 18-63 53-53l30 8 8-30c9-35 47-45 72-20l23 24-8 7 29-31c25-25 64-15 72 20l8 31 31-9c34-10 62 18 52 53l-2 8-366 0z m0 248l-2 8c-10 35 18 63 53 53l30-8 8 30c9 35 47 45 72 20l22-23 22 23c25 25 64 15 72-20l9-30 30 8c34 10 62-18 52-53l-2-8-366 0z m-32-124l-25 25c-28 28-12 68 28 68l428 0c40 0 56-40 28-68l-25-25 25-25c28-28 12-68-28-68l-428 0c-39 0-56 40-28 68z"/>
<glyph glyph-name="guaranteed-fresh" unicode="&#57429;" d="M71 132l-2-8c-10-35 18-63 53-53l30 8 8-30c9-35 47-45 72-20l23 24-8 7 29-31c25-25 64-15 72 20l8 31 31-9c34-10 62 18 52 53l-2 8-32 0 5-17c3-11-4-17-15-14l-41 11c-11 3-22-3-25-14l-11-42c-3-11-11-13-19-5l-30 31c-8 8-21 8-29 0l-30-31c-8-8-17-6-20 5l-10 42c-3 11-15 17-26 14l-41-11c-11-3-17 3-14 14l5 17-33 0z m0 248l-2 8c-10 35 18 63 53 53l30-8 8 30c9 35 47 45 72 20l22-23 22 23c25 25 64 15 72-20l9-30 30 8c34 10 62-18 52-53l-2-8-32 0 4 17c4 11-3 17-14 14l-41-11c-11-3-22 3-25 14l-11 42c-3 11-11 13-20 5l-29-31c-8-8-21-8-29 0l-30 31c-8 8-17 6-20-5l-10-42c-3-11-15-17-26-14l-41 11c-11 3-17-3-14-14l5-17-33 0z m-32-124l-25 25c-28 28-12 68 28 68l428 0c40 0 56-40 28-68l-25-25 25-25c28-28 12-68-28-68l-428 0c-39 0-56 40-28 68z m-3-47c-8-8-6-15 6-15l428 0c12 0 15 6 6 15l-32 32c-8 8-8 22 0 30l32 32c8 8 6 15-6 15l-428 0c-12 0-14-6-6-15l32-32c9-8 9-22 0-30z"/>
<glyph glyph-name="loyalty-card-filled" unicode="&#57430;" d="M256 320c-35 0-64-29-64-64 0-35 29-64 64-64 35 0 64 29 64 64 0 35-29 64-64 64z m224 128l-448 0c-19 0-32-13-32-32l0-320c0-19 13-32 32-32l448 0c19 0 32 13 32 32l0 320c0 19-13 32-32 32z m-224-288c-54 0-96 42-96 96 0 54 42 96 96 96 54 0 96-42 96-96 0-54-42-96-96-96z"/>
<glyph glyph-name="minus" unicode="&#57431;" d="M272 240l208 0c9 0 16 7 16 16 0 9-7 16-16 16l-448 0c-9 0-16-7-16-16 0-9 7-16 16-16z"/>
<glyph glyph-name="minus-bold" unicode="&#57432;" d="M288 224l160 0c18 0 32 14 32 32 0 18-14 32-32 32l-384 0c-18 0-32-14-32-32 0-18 14-32 32-32z"/>
<glyph glyph-name="more-filled" unicode="&#57433;" d="M64 320c-35 0-64-29-64-64 0-35 29-64 64-64 35 0 64 29 64 64 0 35-29 64-64 64z m192 0c-35 0-64-29-64-64 0-35 29-64 64-64 35 0 64 29 64 64 0 35-29 64-64 64z m192 0c-35 0-64-29-64-64 0-35 29-64 64-64 35 0 64 29 64 64 0 35-29 64-64 64z"/>
<glyph glyph-name="organic" unicode="&#57434;" d="M80 98c26-20 61-31 106-31 109 0 177 61 188 178 4 38 21 76 47 112 11 15 23 28 34 40 7 7 12 12 15 14 32 30 20 73-21 82-7 2-22 6-42 9-50 9-102 13-150 8-35-4-68-13-96-27-96-47-145-125-145-212 0-59 11-109 37-145-8-34-12-71-12-110 0-9 7-16 16-16 9 0 16 7 16 16 0 29 3 56 7 82z m-15 71c-11 27-17 61-17 102 0 77 44 143 127 184 24 11 53 19 85 23 43 4 91 2 141-7 17-3 32-7 39-9 18-4 21-16 8-28-3-2-9-8-15-14-14-14-26-29-37-44-31-42-49-85-53-128-10-100-63-149-157-149-43 0-76 11-98 35 17 66 50 120 95 164 24 23 49 42 75 57 9 5 17 9 24 12 5 2 8 3 9 4 8 3 13 12 10 20-3 8-12 13-21 10-8-3-21-9-38-18-28-16-56-37-82-62-42-42-75-92-95-152z"/>
<glyph glyph-name="organic-filled" unicode="&#57435;" d="M80 98c26-20 61-31 106-31 109 0 177 61 188 178 4 38 21 76 47 112 11 15 23 28 34 40 7 7 12 12 15 14 32 30 20 73-21 82-7 2-22 6-42 9-50 9-102 13-150 8-35-4-68-13-96-27-96-47-145-125-145-212 0-59 11-109 37-145-8-34-12-71-12-110 0-9 7-16 16-16 9 0 16 7 16 16 0 29 3 56 7 82z m0 0c-10 8-19 17-27 28 18 79 55 144 107 195 26 25 54 46 82 62 17 9 30 15 38 18 9 3 18-2 21-10 3-8-2-17-10-20-1-1-4-2-9-4-7-3-15-7-24-12-26-15-51-34-75-57-53-52-89-117-103-200z"/>
<glyph glyph-name="tip-filled" unicode="&#57437;" d="M336 208c-19 0-32-13-32-32 0-19 13-32 32-32 19 0 32 13 32 32 0 19-13 32-32 32z m-160 96c19 0 32 13 32 32 0 19-13 32-32 32-19 0-32-13-32-32 0-19 13-32 32-32z m80 208c-141 0-256-115-256-256 0-141 115-256 256-256 141 0 256 115 256 256 0 141-115 256-256 256z m-80-112c35 0 64-29 64-64 0-35-29-64-64-64-35 0-64 29-64 64 0 35 29 64 64 64z m-32-278c-6-7-16-7-22 0-7 6-7 16 0 22l249 250c7 6 16 6 23 0 6-7 6-16 0-23z m192-10c-35 0-64 29-64 64 0 35 29 64 64 64 35 0 64-29 64-64 0-35-29-64-64-64z"/>
<glyph glyph-name="note" unicode="&#57440;" d="M294 448l-230 0c-35 0-64-29-64-64l0-320c0-35 29-64 64-64l320 0c35 0 64 29 64 64l0 171c0 16 0 37 0 58l-32-32c0-7 0-16 0-26l0-171c0-18-14-32-32-32l-320 0c-18 0-32 14-32 32l0 320c0 18 14 32 32 32l198 0z m-123-213l266 266c6 6 16 6 22 0l42-42c6-6 6-16 0-22l-266-266c-6-6-18-13-26-16l-66-22c-8-3-13 2-10 10l22 66c3 8 10 20 16 26z m28-50c3 1 11 6 14 9l253 254-18 19-254-254c-3-3-8-11-9-14l-7-21z"/>
<glyph glyph-name="faq" unicode="&#57393;" d="M416 512l-217 0c-9 0-17-3-23-9l-103-103c-6-6-9-15-9-23l0-345c0-18 14-32 32-32l320 0c18 0 32 14 32 32l0 448c0 18-14 32-32 32z m-224-49l0-66c0-7-6-13-13-13l-65 0c-3 0-5 3-3 5l76 76c2 2 5 0 5-2z m216-431l-304 0c-4 0-8 4-8 8l0 304c0 4 4 8 8 8l75 0c25 0 45 20 45 45l0 75c0 4 4 8 8 8l176 0c4 0 8-4 8-8l0-432c0-4-4-8-8-8z m-232 256l160 0c9 0 16 7 16 16 0 9-7 16-16 16l-160 0c-9 0-16-7-16-16 0-9 7-16 16-16z m160-64l-160 0c-9 0-16-7-16-16 0-9 7-16 16-16l160 0c9 0 16 7 16 16 0 9-7 16-16 16z m0-96l-160 0c-9 0-16-7-16-16 0-9 7-16 16-16l160 0c9 0 16 7 16 16 0 9-7 16-16 16z m-32 256l32 0c9 0 16 7 16 16 0 9-7 16-16 16l-32 0c-9 0-16-7-16-16 0-9 7-16 16-16z"/>
<glyph glyph-name="note-filled" unicode="&#57441;" d="M448 342l0-275c0-37-30-67-67-67l-314 0c-37 0-67 30-67 67l0 314c0 37 30 67 67 67l276 0c2 0 4-3 2-5l-190-190c-9-9-19-26-23-37l-20-60c-9-27 17-53 44-44l60 20c11 4 28 14 37 23l189 189c2 2 6 1 6-2z m-259-123l293 290 30-29-294-292c-4-4-12-9-17-10l-35-12 12 35c1 5 7 14 11 18z"/>
<glyph glyph-name="office" unicode="&#57442;" d="M208 448l-32 0c-18 0-32-14-32-32l0-32c0-18 14-32 32-32l32 0c18 0 32 14 32 32l0 32c0 18-14 32-32 32z m0-64l-32 0 0 32 32 0z m128 64l-32 0c-18 0-32-14-32-32l0-32c0-18 14-32 32-32l32 0c18 0 32 14 32 32l0 32c0 18-14 32-32 32z m0-64l-32 0 0 32 32 0z m0-64l-32 0c-18 0-32-14-32-32l0-32c0-18 14-32 32-32l32 0c18 0 32 14 32 32l0 32c0 18-14 32-32 32z m0-64l-32 0 0 32 32 0z m-128 64l-32 0c-18 0-32-14-32-32l0-32c0-18 14-32 32-32l32 0c18 0 32 14 32 32l0 32c0 18-14 32-32 32z m0-64l-32 0 0 32 32 0z m272-224l-48 0 0 208c0 9 0 23 0 32l0 208c0 18-14 32-32 32l-288 0c-18 0-32-14-32-32l0-448c0 0 0 0 0 0l-48 0c-9 0-16-7-16-16 0-9 7-16 16-16l448 0c9 0 16 7 16 16 0 9-7 16-16 16z m-240 0l0 80c0 9 7 16 16 16 9 0 16-7 16-16l0-80z m64 0l0 80c0 27-21 48-48 48-26 0-48-22-48-48l0-80-96 0 0 448 288 0 0-448z"/>
<glyph glyph-name="office-filled" unicode="&#57443;" d="M480 32l-48 0 0 208c0 9 0 23 0 32l0 208c0 18-14 32-32 32l-288 0c-18 0-32-14-32-32l0-448c0 0 0 0 0 0l-48 0c-9 0-16-7-16-16 0-9 7-16 16-16l448 0c9 0 16 7 16 16 0 9-7 16-16 16z m-208 384c0 18 14 32 32 32l32 0c18 0 32-14 32-32l0-32c0-18-14-32-32-32l-32 0c-18 0-32 14-32 32z m0-128c0 18 14 32 32 32l32 0c18 0 32-14 32-32l0-32c0-18-14-32-32-32l-32 0c-18 0-32 14-32 32z m-128 128c0 18 14 32 32 32l32 0c18 0 32-14 32-32l0-32c0-18-14-32-32-32l-32 0c-18 0-32 14-32 32z m0-128c0 18 14 32 32 32l32 0c18 0 32-14 32-32l0-32c0-18-14-32-32-32l-32 0c-18 0-32 14-32 32z m64-176c0 26 22 48 48 48 26 0 48-22 48-48l0-80-96 0z"/>
<glyph glyph-name="order-problem" unicode="&#57444;" d="M192 192c-8 0-16 9-16 17l0 94c0 8 8 17 16 17 8 0 16-9 16-17l0-94c0-8-8-17-16-17z m16-48c0-9-7-16-16-16-9 0-16 7-16 16 0 9 7 16 16 16 9 0 16-7 16-16z m256 368l-288 0c-18 0-32-14-32-32l0-32 32 0 0 32 288 0 0-298-12-10-20 19 0-44 18-18 46 38 0 313c0 18-14 32-32 32z m-64-64l-288 0c-18 0-32-14-32-32l0-32 32 0 0 32 288 0 0-298-12-10-20 19 0-44 18-18 46 38 0 313c0 18-14 32-32 32z m-384-96l0-313 41-38 41 38 46-38 45 38 46-38 46 40 41-40 46 38 0 313c0 18-14 32-32 32l-288 0c-18 0-32-14-32-32z m320-298l-12-10-20 20-21 20-23-19-25-22-25 20-21 17-20-17-26-21-26 21-21 18-21-19-19-18-8 9 0 299 288 0z"/>
<glyph glyph-name="phone-android" unicode="&#57445;" d="M256 128c9 0 16-7 16-16 0-9-7-16-16-16-9 0-16 7-16 16 0 9 7 16 16 16z m68-2l24 0c1 0 2-1 2-2l0-24c0-1-1-2-2-2l-24 0c-1 0-2 1-2 2l0 24c0 1 1 2 2 2z m-161-15c-2 0-2 2 0 2l26 14c2 0 3 0 3-2l0-26c0-2-1-2-3-1z m222 389c0 0-17 6-65 9-48 3-64 5-128 0-64-5-65-8-65-8-17-4-31-22-31-40l0-410c0-18 14-35 31-39 0 0 18-5 67-9 49-3 63-4 125 0 62 5 66 9 66 9 17 3 31 21 31 39l0 410c0 18-14 35-31 39z m-1-449c0-3-4-8-6-8l-9-2c0 0 1-1 4 0 0 0-1 0-3 0-10-2-27-4-53-6-55-4-66-4-121 0-12 1-22 2-31 3-16 2-25 4-28 5-5 1-9 5-9 8l0 13 256 0z m0 45l-256 0 0 32 256 0z m0 64l-256 0 0 256 256 0z m-256 288l0 13c0 3 4 8 6 8l16 4c10 1 24 3 44 4 56 4 69 4 124 0 12-1 22-2 31-3 9-1 16-2 22-4 2 0 4 0 4 0l3-1c2-1 6-5 6-8l0-13z"/>
<glyph glyph-name="phone-android-filled" unicode="&#57446;" d="M385 500c0 0-17 6-65 9-48 3-64 5-128 0-64-5-65-8-65-8-17-4-31-22-31-40l0-410c0-18 14-35 31-39 0 0 18-5 67-9 49-3 63-4 125 0 62 5 66 9 66 9 17 3 31 21 31 39l0 410c0 18-14 35-31 39z m-193-433c0-2-1-2-3-2l-26 14c-2 0-2 2 0 2l26 14c2 0 3 0 3-2z m64-3c-9 0-16 7-16 16 0 9 7 16 16 16 9 0 16-7 16-16 0-9-7-16-16-16z m94 4c0-1-1-2-2-2l-24 0c-1 0-2 1-2 2l0 24c0 1 1 2 2 2l24 0c1 0 2-1 2-2z m34 60l-256 0 0 320 256 0z"/>
<glyph glyph-name="replace" unicode="&#57447;" d="M456 256c0 110-89 199-199 199-58 0-110-25-147-64l19-21c32 35 77 57 128 57 94 0 170-77 170-171l-49 0c-8 0-11-5-6-11l60-70c5-6 14-6 19 0l59 70c5 6 3 11-5 11z m-399 0c0-110 90-199 200-199 57 0 109 25 146 64l-19 21c-32-35-77-57-127-57-95 0-171 77-171 171l49 0c8 0 11 5 5 11l-59 70c-5 6-14 6-19 0l-59-70c-5-6-3-11 5-11z"/>
<glyph glyph-name="specials-filled" unicode="&#57448;" d="M144 513c-6 0-13-6-18-18l-16-41c-8-21-31-44-52-52l-41-16c-24-10-24-26 0-36l41-16c21-8 44-31 52-52l16-40c5-13 12-19 18-19 6 0 13 6 18 18l16 41c8 21 31 44 52 52l40 16c25 10 25 26 0 36l-40 16c-21 8-44 31-52 52l-16 41c-5 12-12 18-18 18z m256-128c-5 0-11-5-15-15l-11-30c-7-16-25-35-42-42l-30-11c-20-8-20-22 0-30l30-11c16-7 35-25 42-42l11-30c4-10 10-15 15-15 5 0 11 5 15 15l11 30c7 16 25 35 42 42l30 11c20 8 20 22 0 30l-30 11c-17 7-35 25-42 42l-11 30c-4 10-10 15-15 15z m-176-193c-4 0-9-4-12-13l-11-27c-5-13-20-28-33-33l-27-11c-17-7-17-17 0-24l27-11c13-5 28-20 33-33l11-27c3-9 8-13 12-13 4 0 9 4 12 13l11 27c5 13 20 28 33 33l27 11c17 7 17 17 0 24l-27 11c-13 5-28 20-33 33l-11 27c-3 9-8 13-12 13z"/>
<glyph glyph-name="specials" unicode="&#57449;" d="M144 452l4-10c11-29 41-59 70-70l10-4-10-4c-29-11-59-41-70-70l-4-10-4 10c-11 29-41 59-70 70l-10 4 10 4c29 11 59 41 70 70l4 10m256-131c10-20 29-39 49-49-20-10-39-29-49-49-10 20-29 39-49 49 20 10 39 29 49 49m-176-194c8-12 19-23 31-31-12-8-23-19-31-31-8 12-19 23-31 31 12 8 23 19 31 31m-80 386c-6 0-13-6-18-18l-16-41c-8-21-31-44-52-52l-41-16c-24-10-24-26 0-36l41-16c21-8 44-31 52-52l16-40c5-13 12-19 18-19 6 0 13 6 18 18l16 41c8 21 31 44 52 52l40 16c25 10 25 26 0 36l-40 16c-21 8-44 31-52 52l-16 41c-5 12-12 18-18 18z m256-128c-5 0-11-5-15-15l-11-30c-7-16-25-35-42-42l-30-11c-20-8-20-22 0-30l30-11c16-7 35-25 42-42l11-30c4-10 10-15 15-15 5 0 11 5 15 15l11 30c7 16 25 35 42 42l30 11c20 8 20 22 0 30l-30 11c-17 7-35 25-42 42l-11 30c-4 10-10 15-15 15z m-176-193c-4 0-9-4-12-13l-11-27c-5-13-20-28-33-33l-27-11c-17-7-17-17 0-24l27-11c13-5 28-20 33-33l11-27c3-9 8-13 12-13 4 0 9 4 12 13l11 27c5 13 20 28 33 33l27 11c17 7 17 17 0 24l-27 11c-13 5-28 20-33 33l-11 27c-3 9-8 13-12 13z"/>
<glyph glyph-name="phone-iphone-filled" unicode="&#57450;" d="M352 512l-192 0c-36 0-64-29-64-64l0-384c0-35 29-64 64-64l192 0c36 0 64 29 64 64l0 384c0 35-29 64-64 64z m-96-472c-13 0-24 11-24 24 0 13 11 24 24 24 13 0 24-11 24-24 0-13-11-24-24-24z m128 56l-256 0 0 320 256 0z"/>
<glyph glyph-name="phone-iphone" unicode="&#57451;" d="M352 512l-192 0c-36 0-64-29-64-64l0-384c0-35 29-64 64-64l192 0c36 0 64 29 64 64l0 384c0 35-29 64-64 64z m32-448c0-18-14-32-32-32l-192 0c-18 0-32 14-32 32l0 32 256 0z m0 64l-256 0 0 256 256 0z m0 288l-256 0 0 32c0 18 14 32 32 32l192 0c18 0 32-14 32-32z m-104-352c0-13-11-24-24-24-13 0-24 11-24 24 0 13 11 24 24 24 13 0 24-11 24-24z"/>
<glyph glyph-name="replace-bold" unicode="&#57452;" d="M461 256c0 113-91 205-205 205-52 0-100-20-136-53l34-37c27 24 63 39 102 39 85 0 154-69 154-154l-45 0c-7 0-9-5-5-10l68-88c4-6 11-6 15 0l66 88c5 5 3 10-5 10z m-409 0c0-113 91-205 204-205 46 0 88 15 122 40l-34 39c-25-18-55-28-88-28-84 0-153 69-153 154l43 0c8 0 10 4 5 10l-67 88c-4 6-11 6-15 0l-67-88c-4-5-2-10 5-10z"/>
<glyph glyph-name="x-circle" unicode="&#57453;" d="M256 279l-85 84c-6 7-16 7-22 0-7-6-7-16 0-22l84-85-84-85c-7-6-7-16 0-22 6-7 16-7 22 0l85 84 85-84c6-7 16-7 22 0 7 6 7 16 0 22l-84 85 84 85c7 6 7 16 0 22-6 7-16 7-22 0z m0 233c-141 0-256-115-256-256 0-141 115-256 256-256 141 0 256 115 256 256 0 141-115 256-256 256z m0-480c-124 0-224 100-224 224 0 124 100 224 224 224 124 0 224-100 224-224 0-124-100-224-224-224z"/>
<glyph glyph-name="x-circle-filled" unicode="&#57454;" d="M256 512c-141 0-256-115-256-256 0-141 115-256 256-256 141 0 256 115 256 256 0 141-115 256-256 256z m107-341c7-6 7-16 0-22-6-7-16-7-22 0l-85 84-85-84c-6-7-16-7-22 0-7 6-7 16 0 22l84 85-84 85c-7 6-7 16 0 22 6 7 16 7 22 0l85-84 85 84c6 7 16 7 22 0 7-6 7-16 0-22l-84-85z"/>
<glyph glyph-name="order-review" unicode="&#57457;" d="M448 512l-384 0c-18 0-32-14-32-32l0-432 56-48 56 48 56-48 56 48 56-48 56 48 56-48 56 48 0 432c0 18-14 32-32 32z m0-32l0-417-24-21-35 30-21 18-21-18-35-30-35 30-21 18-21-18-35-30-35 30-21 18-21-18-35-30-24 21 0 417 384 0z m-237-310c7-7 19-7 26 3l137 192c7 6 4 16-3 22-6 7-16 3-22-3l-128-176-71 70c-6 7-16 7-22 0-6-6-6-16 0-22z"/>
<glyph glyph-name="popular" unicode="&#57458;" d="M58 3l198 153 198-153c7-5 17-4 23 3 5 7 4 17-3 23l-208 160c-6 4-14 4-20 0l-208-160c-7-6-8-16-3-23 6-7 16-8 23-3z m0 320l198 153 198-153c7-5 17-4 23 3 5 7 4 17-3 23l-208 160c-6 4-14 4-20 0l-208-160c-7-6-8-16-3-23 6-7 16-8 23-3z m0-160l198 153 198-153c7-5 17-4 23 3 5 7 4 17-3 23l-208 160c-6 4-14 4-20 0l-208-160c-7-6-8-16-3-23 6-7 16-8 23-3z"/>
<glyph glyph-name="scissors" unicode="&#57460;" d="M504 126l-210 130 210 130c8 5 10 15 6 22-5 8-15 10-22 6l-225-139-88 55c11 15 17 34 17 54 0 53-43 96-96 96-53 0-96-43-96-96 0-53 43-96 96-96 21 0 40 7 56 18l81-50-81-50c-16 11-35 18-56 18-53 0-96-43-96-96 0-53 43-96 96-96 53 0 96 43 96 96 0 20-6 39-17 54l88 55 225-139c7-4 17-2 22 6 4 7 2 17-6 22z m-408 194c-35 0-64 29-64 64 0 35 29 64 64 64 35 0 64-29 64-64 0-35-29-64-64-64z m0-256c-35 0-64 29-64 64 0 35 29 64 64 64 35 0 64-29 64-64 0-35-29-64-64-64z"/>
<glyph glyph-name="store-filled" unicode="&#57461;" d="M448 480l-384 0c-18 0-32-14-32-32l448 0c0 18-14 32-32 32z m55-119c-11 23-24 55-24 55l-446 0c0 0-13-32-24-55-15-33-11-77 15-103 27-27 67-21 88 9 25-35 71-35 96 0 12-17 30-26 48-26 18 0 36 9 48 26 25-35 71-35 96 0 21-30 61-36 88-9 26 26 30 70 15 103z m-314-111l-58 0c9-6 19-9 29-9 10 0 20 3 29 9z m96 0l-58 0c9-6 19-9 29-9 10 0 20 3 29 9z m-192 0l-59 0c9-6 20-9 30-9 10 0 20 3 29 9z m385 0l-59 0c9-6 19-9 30-9 10 0 20 3 29 9z m-29-41c-18 0-34 5-49 14-14-9-31-14-48-14-17 0-34 5-48 14-14-9-31-14-48-14-17 0-34 5-48 14-14-9-31-14-48-14-17 0-34 5-48 14-14-9-31-14-48-14-11 0-22 2-32 6l0-148c0-19 16-35 35-35l93 0c18 0 32 14 32 32l0 64c0 18 14 32 32 32l64 0c18 0 32-14 32-32l0-64c0-18 14-32 32-32l96 0c18 0 32 14 32 32l0 151c-10-4-21-6-31-6z m-68 41l-58 0c9-6 19-9 29-9 10 0 20 3 29 9z"/>
<glyph glyph-name="filter-android" unicode="&#57462;" d="M213 128l86 0 0 43-86 0z m-149 256l0-43 384 0 0 43z m64-149l256 0 0 42-256 0z"/>
<glyph glyph-name="filter" unicode="&#57463;" d="M448 194c37 7 64 39 64 78 0 39-27 71-64 78l0 114c0 9-7 16-16 16-9 0-16-7-16-16l0-114c-37-7-64-39-64-78 0-39 27-71 64-78l0-146c0-9 7-16 16-16 9 0 16 7 16 16z m-176-96c37 7 64 39 64 78 0 39-27 71-64 78l0 210c0 9-7 16-16 16-9 0-16-7-16-16l0-210c-37-7-64-39-64-78 0-39 27-71 64-78l0-50c0-9 7-16 16-16 9 0 16 7 16 16z m-176 160c37 7 64 39 64 78 0 39-27 71-64 78l0 50c0 9-7 16-16 16-9 0-16-7-16-16l0-50c-37-7-64-39-64-78 0-39 27-71 64-78l0-210c0-9 7-16 16-16 9 0 16 7 16 16z m-64 78c0 27 21 48 48 48 27 0 48-21 48-48 0-27-21-48-48-48-27 0-48 21-48 48z m176-160c0 27 21 48 48 48 27 0 48-21 48-48 0-27-21-48-48-48-27 0-48 21-48 48z m176 96c0 27 21 48 48 48 27 0 48-21 48-48 0-27-21-48-48-48-27 0-48 21-48 48z"/>
<glyph glyph-name="filter-filled" unicode="&#57464;" d="M448 194c37 7 64 39 64 78 0 39-27 71-64 78l0 114c0 9-7 16-16 16-9 0-16-7-16-16l0-114c-37-7-64-39-64-78 0-39 27-71 64-78l0-146c0-9 7-16 16-16 9 0 16 7 16 16z m-176-96c37 7 64 39 64 78 0 39-27 71-64 78l0 210c0 9-7 16-16 16-9 0-16-7-16-16l0-210c-37-7-64-39-64-78 0-39 27-71 64-78l0-50c0-9 7-16 16-16 9 0 16 7 16 16z m-176 316l0 50c0 9-7 16-16 16-9 0-16-7-16-16l0-50c-37-7-64-39-64-78 0-39 27-71 64-78l0-210c0-9 7-16 16-16 9 0 16 7 16 16l0 210c37 7 64 39 64 78 0 39-27 71-64 78z"/>
<glyph glyph-name="in-season" unicode="&#57456;" d="M64 256c0 9-7 16-16 16l-32 0c-9 0-16-7-16-16 0-9 7-16 16-16l32 0c9 0 16 7 16 16z m4-90l-28-16c-8-5-10-14-6-22 5-7 15-10 22-6l28 16c8 5 10 14 6 22-5 7-15 10-22 6z m92-76c-7 4-17 1-22-6l-16-28c-4-8-2-17 6-22 7-4 17-1 22 6l16 28c4 8 2 17-6 22z m192 332c7-4 17-1 22 6l16 28c4 8 2 17-6 22-7 4-17 1-22-6l-16-28c-4-8-2-17 6-22z m-214 6c5-8 14-10 22-6 7 5 10 15 6 22l-16 28c-5 8-14 10-22 6-7-5-10-15-6-22z m118 20c9 0 16 7 16 16l0 32c0 9-7 16-16 16-9 0-16-7-16-16l0-32c0-9 7-16 16-16z m-216-86l28-16c8-4 17-2 22 6 4 7 1 17-6 22l-28 16c-8 4-17 2-22-6-4-7-1-17 6-22z m432-212l-28 16c-8 4-17 2-22-6-4-7-1-18 6-22l28-16c8-4 17-2 22 6 4 7 1 17-6 22z m-28 196l28 16c8 5 10 14 6 22-5 7-15 10-22 6l-28-16c-8-5-10-14-6-22 5-7 15-10 22-6z m52-74l-32 0c-9 0-16-7-16-16 0-9 7-16 16-16l32 0c9 0 16 7 16 16 0 9-7 16-16 16z m-122-188c-5 8-14 10-22 6-7-5-10-15-6-22l16-28c5-8 14-10 22-6 7 5 10 15 6 22z m-118-20c-9 0-16-7-16-16l0-32c0-9 7-16 16-16 9 0 16 7 16 16l0 32c0 9-7 16-16 16z m0 352c-88 0-160-72-160-160 0-88 72-160 160-160 88 0 160 72 160 160 0 88-72 160-160 160z m0-288c-71 0-128 57-128 128 0 71 57 128 128 128 71 0 128-57 128-128 0-71-57-128-128-128z"/>
<glyph glyph-name="in-season-filled" unicode="&#57465;" d="M64 256c0 9-7 16-16 16l-32 0c-9 0-16-7-16-16 0-9 7-16 16-16l32 0c9 0 16 7 16 16z m4-90l-28-16c-8-5-10-14-6-22 5-7 15-10 22-6l28 16c8 5 10 14 6 22-5 7-15 10-22 6z m92-76c-7 4-17 1-22-6l-16-28c-4-8-2-17 6-22 7-4 17-1 22 6l16 28c4 8 2 17-6 22z m192 332c7-4 17-1 22 6l16 28c4 8 2 17-6 22-7 4-17 1-22-6l-16-28c-4-8-2-17 6-22z m-214 6c5-8 14-10 22-6 7 5 10 15 6 22l-16 28c-5 8-14 10-22 6-7-5-10-15-6-22z m118 20c9 0 16 7 16 16l0 32c0 9-7 16-16 16-9 0-16-7-16-16l0-32c0-9 7-16 16-16z m-216-86l28-16c8-4 17-2 22 6 4 7 1 17-6 22l-28 16c-8 4-17 2-22-6-4-7-1-17 6-22z m432-212l-28 16c-8 4-17 2-22-6-4-7-1-18 6-22l28-16c8-4 17-2 22 6 4 7 1 17-6 22z m-28 196l28 16c8 5 10 14 6 22-5 7-15 10-22 6l-28-16c-8-5-10-14-6-22 5-7 15-10 22-6z m52-74l-32 0c-9 0-16-7-16-16 0-9 7-16 16-16l32 0c9 0 16 7 16 16 0 9-7 16-16 16z m-122-188c-5 8-14 10-22 6-7-5-10-15-6-22l16-28c5-8 14-10 22-6 7 5 10 15 6 22z m-118-20c-9 0-16-7-16-16l0-32c0-9 7-16 16-16 9 0 16 7 16 16l0 32c0 9-7 16-16 16z m0 352c-88 0-160-72-160-160 0-88 72-160 160-160 88 0 160 72 160 160 0 88-72 160-160 160z"/>
<glyph glyph-name="x-bold" unicode="&#57466;" d="M208 256l-198 198c-13 13-13 35 0 48 13 13 35 13 48 0l198-198 198 198c13 13 35 13 48 0 13-13 13-35 0-48l-198-198 198-198c13-13 13-35 0-48-13-13-35-13-48 0l-198 198-198-198c-13-13-35-13-48 0-13 13-13 35 0 48z"/>
<glyph glyph-name="lightbulb-android" unicode="&#57469;" d="M192 64c0-12 10-21 21-21l86 0c11 0 21 9 21 21l0 21-128 0z m64 405c-82 0-149-67-149-149 0-51 25-95 64-122l0-49c0-11 9-21 21-21l128 0c12 0 21 10 21 21l0 49c39 27 64 71 64 122 0 82-67 149-149 149z m61-236l-18-13 0-49-86 0 0 49-18 13c-29 20-46 52-46 87 0 59 48 107 107 107 59 0 107-48 107-107 0-35-17-67-46-87z m-317 87c0 12 9 21 21 21l22 0c11 0 21-9 21-21 0-12-9-21-21-21l-22 0c-11 0-21 9-21 21z m34 128c6 10 19 14 29 8l19-11c10-6 14-19 8-29-6-10-19-14-29-8l-19 11c-10 6-14 19-8 29z m444 0c6-10 2-23-8-29l-19-11c-10-6-23-2-29 8-6 10-2 23 8 29l19 11c10 6 23 2 29-8z m34-128c0-12-9-21-21-21l-22 0c-11 0-21 9-21 21 0 12 9 21 21 21l22 0c11 0 21-9 21-21z m-34-128c-6-10-19-14-29-8l-19 11c-10 6-14 19-8 29 6 10 19 14 29 8l19-11c10-6 14-19 8-29z m-444 0c-6 10-2 23 8 29l19 11c10 6 23 2 29-8 6-10 2-23-8-29l-19-11c-10-6-23-2-29 8z"/>
<glyph glyph-name="lightbulb-filled" unicode="&#57470;" d="M486 320l-51 0c-7 0-13-6-13-13 0-7 6-13 13-13l51 0c8 0 13 6 13 13 0 7-6 13-13 13z m-166-218l-128 0c-7 0-13-5-13-12 0-7 6-13 13-13l32 0c4 0 6-3 6-7l0-6c0-7 6-13 13-13l26 0c7 0 13 6 13 13l0 6c0 4 3 7 6 7l32 0c7 0 13 6 13 13 0 6-6 12-13 12z m-224 120l-44-25c-7-4-8-12-5-18 4-6 11-8 17-5l45 26c6 4 8 12 5 18-4 6-12 8-18 4z m-44 196l44-26c6-4 14-1 18 5 3 6 1 14-5 17l-45 26c-6 4-13 1-17-5-3-6-1-14 5-17z m364-26l44 26c6 3 8 11 5 17-4 6-11 8-18 5l-44-26c-6-3-8-11-5-17 4-6 12-8 18-5z m-326-85c0 7-6 13-13 13l-52 0c-7 0-12-6-12-13 0-7 5-13 12-13l52 0c7 0 13 6 13 13z m230-166l-128 0c-7 0-13-6-13-13 0-7 6-13 13-13l128 0c7 0 13 6 13 13 0 7-6 13-13 13z m-64 320c-78 0-141-63-141-141 0-42 19-80 48-105 0-1 6-5 6-5 5-4 10-13 10-20l0-11c0-14 12-25 26-25l102 0c14 0 26 11 26 25l0 11c0 7 5 16 11 20 0 0-1-1 3 2 30 26 50 65 50 108 0 78-63 141-141 141z m-10-89c-4-2-13-5-21-11-13-10-20-23-20-41 0-7-6-13-13-13-7 0-13 6-13 13 0 26 12 47 31 61 11 9 22 13 30 15 7 2 14-2 16-9 1-7-3-14-10-15z m214-175l-44 25c-7 4-14 2-18-4-3-6-1-14 5-18l44-26c7-3 14-1 18 5 3 6 1 14-5 18z"/>
<glyph glyph-name="lists-and-recipes-filled" unicode="&#57471;" d="M395 347l-32 120c-3 12-15 19-28 16l-307-82c-13-4-20-16-16-28l58-220c4-12 16-20 28-16l4 1 0 209z m-247-68c0 12 10 23 23 23l318 0c13 0 23-11 23-23l0-228c0-12-10-23-23-23l-318 0c-13 0-23 11-23 23z m80-46l0-45 204 0 0 45z m0-91l0-45 204 0 0 45z"/>
<glyph glyph-name="like" unicode="&#57472;" d="M376 480c-52 0-97-29-120-72-23 43-68 72-120 72-75 0-136-61-136-136 0-2 0-5 0-8l0 0c0-176 229-297 229-297 7-5 17-7 27-7 10 0 20 2 27 7 0 0 229 121 229 297l0 0c0 3 0 6 0 8 0 75-61 136-136 136m104-136c0-2 0-4 0-6l-1-24c-19-143-209-246-212-248-2-1-6-2-11-2-6 0-9 1-11 2l-1 1c-2 1-191 103-210 245l-2 26c0 2 0 4 0 6 0 58 47 104 104 104 38 0 74-21 92-55l13-24c8-16 22-16 30 0l13 24c18 34 54 55 92 55 57 0 104-46 104-104z"/>
<glyph glyph-name="like-filled" unicode="&#57473;" d="M256 408c-23 43-68 72-120 72-75 0-136-61-136-136 0-3 0-5 0-8l0 0c0-176 229-297 229-297 15-10 39-9 54 0 0 0 229 121 229 297l0 0c0 3 0 5 0 8 0 75-61 136-136 136-52 0-97-29-120-72z"/>
<glyph glyph-name="view" unicode="&#57474;" d="M256 427c148 0 227-168 227-170 1 0 1-2 1-2-1-1-80-170-228-170-148 0-227 168-227 170-1 0-1 2 0 2 0 1 79 170 227 170m0 28c-169 0-253-187-253-187-4-6-4-18 0-25 0 0 84-186 253-186 169 0 253 187 253 187 4 6 4 18 0 25 0 0-84 186-253 186z m0-114c-4-8-6-18-6-28 0-37 30-66 67-66 10 0 19 2 28 6-2-46-39-82-85-82-47 0-86 38-86 85 0 46 37 84 82 85m4 29c-63 0-114-51-114-114 0-63 51-114 114-114 62 0 113 51 113 114 0 19-4 37-13 53-1 3-3 4-4 4-1 0-2-2-2-5-2-19-18-33-37-33-21 0-38 17-38 38 0 18 12 33 29 37 7 1 11 4-3 10-14 6-29 10-45 10z"/>
<glyph glyph-name="view-filled" unicode="&#57475;" d="M509 269c0 0-84 186-253 186-169 0-253-187-253-187-4-6-4-18 0-25 0 0 84-186 253-186 169 0 253 187 253 187 4 6 4 18 0 25z m-249-155c-79 0-143 63-143 142 0 79 64 142 143 142 78 0 142-63 142-142 0-79-64-142-142-142z m96 199c-1 0-2-2-2-5-2-19-18-33-37-33-21 0-38 17-38 38 0 18 12 33 29 37 7 1 11 4-3 10-14 6-29 10-45 10-63 0-114-51-114-114 0-63 51-114 114-114 63 0 113 51 113 114 0 19-4 37-13 53-1 3-3 4-4 4z"/>
<glyph glyph-name="lightbulb" unicode="&#57468;" d="M96 222l-44-25c-7-4-8-12-5-18 4-6 11-8 17-5l45 26c6 4 8 12 5 18-4 6-12 8-18 4z m224-120l-128 0c-7 0-13-5-13-12 0-7 6-13 13-13l32 0c4 0 6-3 6-7l0-6c0-7 6-13 13-13l26 0c7 0 13 6 13 13l0 6c0 4 3 7 6 7l32 0c7 0 13 6 13 13 0 6-6 12-13 12z m0 39l-128 0c-7 0-13-6-13-13 0-7 6-13 13-13l128 0c7 0 13 6 13 13 0 7-6 13-13 13z m-268 277l44-26c6-4 14-1 18 5 3 6 1 14-5 17l-45 26c-6 4-13 1-17-5-3-6-1-14 5-17z m38-111c0 7-6 13-13 13l-52 0c-7 0-12-6-12-13 0-7 5-13 12-13l52 0c7 0 13 6 13 13z m166 154c-78 0-141-63-141-141 0-42 19-80 48-105 0-1 6-5 6-5 5-4 10-13 10-20l0-11c0-14 12-25 26-25l102 0c14 0 26 11 26 25l0 11c0 7 5 16 11 20 0 0-1-1 3 2 30 26 50 65 50 108 0 78-63 141-141 141z m69-233c-1-1-1-1-2-1-9-6-16-19-16-29l0-16c0-2-1-3-2-3l-98 0c-1 0-2 1-2 3l0 16c0 10-7 23-16 28-29 21-48 56-48 94 0 64 52 115 115 115 64 0 115-52 115-115 0-38-18-71-46-92z m161 92l-51 0c-7 0-13-6-13-13 0-7 6-13 13-13l51 0c8 0 13 6 13 13 0 7-6 13-13 13z m-297-94c0 0 0 0 0 0 0 0 0 0 0 0z m271-29l-44 25c-7 4-14 2-18-4-3-6-1-14 5-18l44-26c7-3 14-1 18 5 3 6 1 14-5 18z m-44 195l44 26c6 3 8 11 5 17-4 6-11 8-18 5l-44-26c-6-3-8-11-5-17 4-6 12-8 18-5z m-211-72c0 18 7 31 20 41 8 6 17 9 21 11 7 1 11 8 10 15-2 7-9 11-16 9-8-2-19-6-30-15-19-14-31-35-31-61 0-7 6-13 13-13 7 0 13 6 13 13z"/>
<glyph glyph-name="pricing-same-filled" unicode="&#57376;" d="M256 512c-141 0-256-115-256-256 0-141 115-256 256-256 141 0 256 115 256 256 0 141-115 256-256 256z m118-179l-137-192c-7-7-16-10-26-3l-86 86c-7 6-7 16 0 22 6 7 16 7 22 0l71-70 128 176c6 6 16 10 22 3 10-6 13-16 6-22z"/>
<glyph glyph-name="message-filled" unicode="&#57410;" d="M96 96c-53 0-96 43-96 96l0 224c0 53 43 96 96 96l320 0c53 0 96-43 96-96l0-224c0-53-43-96-96-96l-82 0c-2 0-4-1-5-3l-55-82c-10-14-26-15-36 0l-55 82c-1 2-3 3-5 3z"/>
<glyph glyph-name="refund" unicode="&#57477;" d="M352 384l-192 0 0-32 192 0 0-78c0-17 12-23 26-13l123 88c15 11 15 27 0 37l-123 89c-15 10-26 4-26-13z m-192-32c-71 0-128-57-128-128 0-71 57-128 128-128l0-32c-88 0-160 72-160 160 0 88 72 160 160 160z m0-256l16 0c9 0 16-7 16-16 0-9-7-16-16-16l-16 0z"/>
<glyph glyph-name="plus" unicode="&#57386;" d="M272 256l0 208c0 9-7 16-16 16-9 0-16-7-16-16l0-208-208 0c-9 0-16-7-16-16 0-9 7-16 16-16l208 0 0-208c0-9 7-16 16-16 9 0 16 7 16 16l0 208 208 0c9 0 16 7 16 16 0 9-7 16-16 16z"/>
<glyph glyph-name="arrow-up-small-bold" unicode="&#57357;" d="M410 166c-10-9-26-9-36 0l-118 128-118-128c-10-9-26-9-36 0-9 10-9 26 0 36l135 144c9 9 25 9 35 0l138-144c9-10 9-26 0-36z"/>
<glyph glyph-name="account-filled" unicode="&#57412;" d="M368 64c0 0 0 0 0 0-1 1-2 2-4 3-2 1-4 2-6 3-13 6-33 11-44 15-2 1-4 2-5 3-12 9-8 54-8 54l8 8c0 0 2 20 6 28 8 17 17 45 17 45 0 0 8 6 8 18 0 11-8 17-8 17 0 0 0 2 0 4 2 9 6 33 6 50 0 27-10 46-27 57-13 10-30 15-52 15-1 0-2 0-3 0-1 0-2 0-3 0-21 0-39-5-51-15-17-11-28-30-28-57 0-17 5-41 6-50 1-2 1-4 1-4 0 0-9-6-9-17 0-12 9-18 9-18 0 0 8-28 16-45 4-8 6-28 6-28l8-8c0 0 4-45-8-54-1-1-3-2-5-3-15-6-45-12-54-21 0 0 0 0 0 0-13-10-19-26-19-27 38-23 83-37 131-37 48 0 93 14 131 37 0 2-6 17-19 27z m-112 448c-141 0-256-115-256-256 0-81 38-154 98-201 3 6 7 14 14 22l0 0 2 2c2 2 4 5 7 7l0 1c12 11 31 17 48 22 4 2 7 3 10 4 1 4 1 9 1 15l-7 7-2 12c0 6-2 15-2 17-7 13-13 32-17 42-6 9-12 21-12 35 0 10 3 19 7 26-2 13-5 31-5 45 0 46 22 71 41 83 18 14 42 21 70 21l3 0 3 0c28 0 52-7 70-21 19-12 41-37 41-83 0-14-3-32-5-45 4-7 7-16 7-26 0-14-5-26-12-35-3-10-10-28-16-41-1-3-2-11-3-18l-1-12-8-7c0-6 0-11 1-15 3-1 6-2 10-4 18-5 36-11 48-22l0-1c4-3 7-6 9-9l1 0 0 0c6-8 10-16 13-22 60 47 98 120 98 201 0 141-115 256-256 256z"/>
<glyph glyph-name="phone" unicode="&#57406;" d="M84 479c19-23 59-89 72-118-21-20-46-50-28-75 11-19 44-54 72-82l4-4c29-29 65-63 84-73 5-3 11-5 17-5 14 0 29 6 56 34 29-13 95-53 118-72-1-17-7-30-16-38-13-12-32-14-47-14 0 0 0 0 0 0-82 1-143 46-239 140l-5 6c-106 101-140 159-140 238 0 15 2 36 15 49 9 8 21 13 37 14m12 33c-71 0-96-45-96-96 1-94 44-160 150-262 0 0 5-4 5-4 101-100 167-149 261-150 0 0 1 0 1 0 51 0 95 25 95 96 0 10-133 95-159 95-2 0-3 0-3-1-30-32-41-36-45-36-1 0-2 0-2 0 0 0-14 7-76 68l-5 5c-61 62-68 77-68 77 0 0-6 7 36 46 13 11-83 162-94 162z"/>
<glyph glyph-name="request" unicode="&#57478;" d="M128 128l368 0c9 0 16 7 16 16 0 9-7 16-16 16l-368 0 0 62c0 18-11 23-25 12l-98-80c-7-6-7-15 0-20l98-81c14-11 25-5 25 12z m256 256l-368 0c-9 0-16-7-16-16 0-9 7-16 16-16l368 0 0-63c0-17 11-23 25-11l98 80c7 5 7 14 0 20l-98 80c-14 11-25 6-25-12z"/>
<glyph glyph-name="adjustment" unicode="&#57479;" d="M31 250c1 3 3 8 6 13 1 3 2 6 5 11 3 7 9 15 15 22 19 20 45 32 80 32 32 0 56-20 110-82 60-70 89-94 133-94 45 0 79 16 104 42 15 16 23 32 27 43 3 9-2 18-10 21-9 2-18-2-20-11-1-1-2-4-5-9-4-7-9-15-15-22-19-20-45-32-81-32-31 0-55 20-109 82-60 70-89 94-133 94-45 0-79-16-104-42-15-16-23-32-27-43-2-4-4-10-6-13-3-8 1-17 9-21 8-3 17 1 21 9z"/>
<glyph glyph-name="check-progress-complete" unicode="&#57480;" d="M256 512c-141 0-256-115-256-256 0-141 115-256 256-256 141 0 256 115 256 256 0 141-115 256-256 256z m0-494c-131 0-238 107-238 238 0 131 107 238 238 238 131 0 238-107 238-238 0-131-107-238-238-238z m114 318c-4 3-11 3-14-1l-126-138-75 59c-4 3-11 2-14-2-2-2-2-5-2-7 0-3 2-5 4-7l82-64c2-2 4-3 6-3 3 0 6 2 8 4l132 145c1 2 2 5 2 7 0 3-1 5-3 7z"/>
<glyph glyph-name="check-progress-dashed" unicode="&#57481;" d="M370 336c-4 4-11 3-14-1l-126-138-75 59c-4 3-11 2-14-2-2-2-3-4-2-7 0-3 1-5 3-7l83-64c2-2 4-2 6-2 3 0 6 1 8 3l132 145c2 2 3 5 2 7 0 3-1 5-3 7z m-263 109c2 0 4 0 5 1 9 7 19 14 29 19 4 2 6 8 4 12-3 4-8 6-12 3-11-5-21-12-31-19-4-3-5-9-2-13 2-2 4-3 7-3z m62 34c1 0 2 0 3 0 11 4 22 7 33 10 4 1 8 6 6 10-1 5-5 8-10 7-12-2-24-6-35-10-5-2-7-7-5-12 1-3 4-5 8-5z m-27-433c-10 6-20 12-29 19-4 3-9 2-12-2-3-4-2-9 2-12 9-8 20-14 31-20 1-1 2-1 4-1 3 0 6 2 8 5 2 4 0 9-4 11z m-77 67c-3 4-8 4-12 1-4-2-5-8-2-12 7-10 15-19 24-27 2-2 4-3 6-3 3 0 5 1 7 3 3 3 3 9-1 12-8 8-15 17-22 26z m141-90c-11 2-22 6-33 9-5 2-10 0-11-5-2-4 0-9 5-11 11-4 23-8 35-10 1 0 1 0 2 0 4 0 8 2 9 6 1 5-2 10-7 11z m-174 149c-1 5-7 7-11 5-5-1-7-6-5-11 4-11 9-23 15-33 2-3 5-5 8-5 1 0 3 1 4 1 4 3 6 8 4 12-6 10-11 21-15 31z m-9 33c-3 11-4 22-5 33-1 5-5 9-10 9-5-1-8-5-8-10 1-12 3-24 5-36 1-4 5-7 9-7 1 0 1 0 2 0 5 1 8 6 7 11z m-2 129c1-1 2-1 3-1 3 0 7 2 8 6 4 10 9 21 14 31 2 4 1 9-4 12-4 2-9 1-12-4-5-10-10-22-15-33-1-5 1-10 6-11z m36 61c3 0 6 1 7 3 7 9 15 18 23 26 3 4 3 9 0 13-4 3-9 3-13 0-8-9-17-18-24-28-3-4-2-9 2-12 2-2 3-2 5-2z m-52-130c1 0 3-1 4-1 3 0 6 2 8 5l1 4c0 11 2 22 4 33 1 5-2 10-6 11-5 1-10-2-11-7-2-12-4-23-5-36 0-3 1-7 5-9z m270 246c-6 1-13 1-19 1-6 0-13 0-19-1-5 0-8-4-8-9 0-5 4-8 9-8 0 0 0 0 0 0 6 0 12 0 18 0 6 0 12 0 18 0 0 0 0 0 0 0 5 0 9 3 9 8 0 5-3 9-8 9z m104-31c-4 3-9 1-12-3-2-4 0-10 4-12 10-5 20-12 29-19 1-1 3-1 5-1 3 0 5 1 7 3 3 4 2 10-2 13-10 7-20 14-31 19z m-33 16c-11 4-23 8-35 10-5 1-9-2-10-7-2-4 2-9 6-10 11-3 22-6 33-10 1 0 2 0 3 0 4 0 7 2 8 5 2 5 0 10-5 12z m53-431c-9-7-19-13-29-19-4-2-6-7-4-11 2-3 5-5 8-5 2 0 3 0 4 1 11 6 22 12 31 20 4 3 5 8 2 12-3 4-8 5-12 2z m48 48c-7-9-14-18-22-26-4-3-4-9-1-12 2-2 4-3 7-3 2 0 4 1 6 3 9 8 17 17 24 27 3 4 2 10-2 12-4 3-9 3-12-1z m-108-81c-11-3-22-7-33-9-5-1-8-6-7-11 1-4 5-6 9-6 1 0 1 0 2 0 12 2 24 6 35 10 5 2 7 7 5 11-1 5-6 7-11 5z m152 145c-4 2-10 0-11-5-4-10-9-21-15-31-2-4 0-9 4-12 1 0 3-1 4-1 3 0 6 2 8 5 6 10 11 22 15 33 2 5 0 10-5 11z m13 70c-5 0-9-4-10-9-1-11-2-22-5-33-1-5 2-10 7-11 1 0 1 0 2 0 4 0 8 3 9 7 2 12 4 24 5 36 0 5-3 9-8 10z m-231-229c-6 0-12 0-17 0-5 0-11 0-17 0-4 1-9-3-9-8 0-5 3-9 8-9 6-1 12-1 18-1 6 0 12 0 18 1 5 0 8 4 8 9 0 5-5 9-9 8z m207 321c1-4 5-6 8-6 1 0 2 0 3 1 5 1 7 6 6 11-5 11-10 23-15 33-3 5-8 6-12 4-5-3-6-8-4-12 5-10 10-21 14-31z m-42 98c-4 3-9 3-13 0-3-4-3-9 0-13 8-8 16-17 23-26 1-2 4-3 7-3 2 0 3 0 5 2 4 3 5 8 2 12-7 10-16 19-24 28z m52-131c2-11 4-22 4-33l1-4c2-3 5-5 8-5 1 0 3 1 4 1 4 2 5 6 5 9-1 13-3 24-5 36-1 5-6 8-11 7-4-1-7-6-6-11z"/>
<glyph glyph-name="google" unicode="&#57423;" d="M110 205c-5 16-8 33-8 51 0 18 3 35 8 51 21 61 78 106 146 106 48 0 80-21 99-38l72 70c-44 42-102 67-171 67-100 0-187-57-229-141-17-35-27-74-27-115 0-41 10-80 27-115l1 0 0 0c42-84 128-141 228-141 69 0 127 23 170 62 48 45 76 110 76 188 0 21-2 37-6 53l-240 0 0-95 141 0c-3-24-18-60-52-83-22-15-51-26-89-26-68 0-125 45-146 106z"/>
<glyph glyph-name="google-filled" unicode="&#57424;" d="M147 218c-4 12-7 25-7 38 0 13 3 26 7 38 15 46 58 80 109 80 36 0 60-16 74-29l54 53c-33 31-76 50-128 50-75 0-140-43-172-106-13-26-20-55-20-86 0-31 7-60 20-86l1 0 0 0c31-63 96-106 171-106 52 0 95 17 127 47 36 33 57 82 57 141 0 16-1 27-4 39l-180 0 0-71 106 0c-2-18-14-45-39-63-17-11-38-19-67-19-51 0-94 34-109 80z m-147 262c0 18 14 32 32 32l448 0c18 0 32-14 32-32l0-448c0-18-14-32-32-32l-448 0c-18 0-32 14-32 32z"/>
<glyph glyph-name="grid" unicode="&#57482;" d="M0 448c0 35 28 64 64 64 35 0 64-28 64-64 0-35-28-64-64-64-35 0-64 28-64 64z m32 0c0-18 14-32 32-32 18 0 32 14 32 32 0 18-14 32-32 32-18 0-32-14-32-32z m160 0c0 35 28 64 64 64 35 0 64-28 64-64 0-35-28-64-64-64-35 0-64 28-64 64z m32 0c0-18 14-32 32-32 18 0 32 14 32 32 0 18-14 32-32 32-18 0-32-14-32-32z m160 0c0 35 28 64 64 64 35 0 64-28 64-64 0-35-28-64-64-64-35 0-64 28-64 64z m32 0c0-18 14-32 32-32 18 0 32 14 32 32 0 18-14 32-32 32-18 0-32-14-32-32z m-416-192c0 35 28 64 64 64 35 0 64-28 64-64 0-35-28-64-64-64-35 0-64 28-64 64z m32 0c0-18 14-32 32-32 18 0 32 14 32 32 0 18-14 32-32 32-18 0-32-14-32-32z m160 0c0 35 28 64 64 64 35 0 64-28 64-64 0-35-28-64-64-64-35 0-64 28-64 64z m32 0c0-18 14-32 32-32 18 0 32 14 32 32 0 18-14 32-32 32-18 0-32-14-32-32z m160 0c0 35 28 64 64 64 35 0 64-28 64-64 0-35-28-64-64-64-35 0-64 28-64 64z m32 0c0-18 14-32 32-32 18 0 32 14 32 32 0 18-14 32-32 32-18 0-32-14-32-32z m-416-192c0 35 28 64 64 64 35 0 64-28 64-64 0-35-28-64-64-64-35 0-64 28-64 64z m32 0c0-18 14-32 32-32 18 0 32 14 32 32 0 18-14 32-32 32-18 0-32-14-32-32z m160 0c0 35 28 64 64 64 35 0 64-28 64-64 0-35-28-64-64-64-35 0-64 28-64 64z m32 0c0-18 14-32 32-32 18 0 32 14 32 32 0 18-14 32-32 32-18 0-32-14-32-32z m160 0c0 35 28 64 64 64 35 0 64-28 64-64 0-35-28-64-64-64-35 0-64 28-64 64z m32 0c0-18 14-32 32-32 18 0 32 14 32 32 0 18-14 32-32 32-18 0-32-14-32-32z"/>
<glyph glyph-name="grid-filled" unicode="&#57483;" d="M0 448c0 35 28 64 64 64 35 0 64-28 64-64 0-35-28-64-64-64-35 0-64 28-64 64z m192 0c0 35 28 64 64 64 35 0 64-28 64-64 0-35-28-64-64-64-35 0-64 28-64 64z m192 0c0 35 28 64 64 64 35 0 64-28 64-64 0-35-28-64-64-64-35 0-64 28-64 64z m-384-192c0 35 28 64 64 64 35 0 64-28 64-64 0-35-28-64-64-64-35 0-64 28-64 64z m192 0c0 35 28 64 64 64 35 0 64-28 64-64 0-35-28-64-64-64-35 0-64 28-64 64z m192 0c0 35 28 64 64 64 35 0 64-28 64-64 0-35-28-64-64-64-35 0-64 28-64 64z m-384-192c0 35 28 64 64 64 35 0 64-28 64-64 0-35-28-64-64-64-35 0-64 28-64 64z m192 0c0 35 28 64 64 64 35 0 64-28 64-64 0-35-28-64-64-64-35 0-64 28-64 64z m192 0c0 35 28 64 64 64 35 0 64-28 64-64 0-35-28-64-64-64-35 0-64 28-64 64z"/>
<glyph glyph-name="home-filled" unicode="&#57439;" d="M256 484c-8 0-16-3-22-8l-226-198c-12-11-10-24 5-29l58-21 12-171c1-16 15-28 31-28l84-1 0 0c16 0 30 13 30 29l0 128c0 8 5 14 13 14l29 0c8 0 14-6 14-14l0-128c0-16 13-29 29-29l86 0c15 0 29 13 30 29l13 171 57 21c15 5 17 18 5 29l-226 198c-6 5-14 8-22 8z"/>
<glyph glyph-name="icon-exit" unicode="&#57485;" d="M136 322c-12 10-22 5-22-10l0-56-100 0c-8 0-14-6-14-14 0-8 6-15 14-14l100 0 0-56c0-16 10-20 22-10l87 71c6 5 6 13 0 18z m375 95c-1 6-7 10-14 10l-226 0c-1 0-1 0-1 0 0 0 0 0 0 0-7 0-14-7-14-14l0-317c0-8 6-14 14-14 8 0 14 6 14 14l0 302 157 0-65-26c-3-2-6-6-6-10l0-324c0-7 6-12 13-9l123 50c3 1 6 6 6 10l0 324c0 1 0 2-1 4z m-84-232c0-8-7-14-15-14-7 0-14 6-14 14l0 28c0 8 7 15 14 15 8 0 15-7 15-15z"/>
<glyph glyph-name="icon-person" unicode="&#57486;" d="M449 32c0 0 1 52-58 67-28 8-47 19-65 26-2 1-4 2-6 3-15 10-10 64-10 64l10 10c0 0 3 24 7 33 10 20 20 53 20 53 0 0 10 8 10 22 0 13-10 21-10 21 0 0 0 1 0 4 3 11 7 39 7 60 0 32-12 54-32 68-15 11-36 17-62 17l-7 0c-26 0-47-6-62-17-21-14-33-36-33-68 0-21 5-49 7-60 0-3 1-4 1-4 0 0-10-8-10-21 0-14 10-22 10-22 0 0 10-33 20-53 4-9 7-33 7-33l10-10c0 0 4-54-10-63-2-2-4-3-6-4-18-7-37-18-65-25-60-16-58-68-58-68m-31-32l-1 31c0 16 4 35 16 54 14 22 36 38 65 45 11 3 21 7 32 12 4 1 25 11 25 11 0 0 1 4 1 9 0 5 0 16 0 16l0 0-9 8-1 12c-1 4-1 10-3 16 0 4-1 7-1 7-1 2-1 2-2 4-2 5-5 11-8 18-3 8-6 16-8 25-2 5-2 3-2 3 0 0 0 0 0 1-1 1-2 2-3 4-6 9-10 21-10 34 0 11 3 21 8 29 0 2-6 37-6 56 0 41 17 74 46 93 21 16 49 24 81 24l7 0c32 0 60-8 80-23 30-20 46-53 46-94 0-17-2-37-5-55 0 0 0 0 0 0-1-3-3 3-3 3 7-9 11-21 11-33 0-13-4-25-11-34-1-2-2-3-3-5 0 0 0 0 0 0-3-3-6-6-8-8l11 16c-1-3-2-6-4-11-3-9-6-17-9-25-2-7-5-13-7-18-1-2-1-2-2-4 0 0-1-3-2-7-1-6-2-12-2-16l-1-12-9-8-1 0c0 0 0-9 1-16 0-4 0-7 1-9 0-1 20-9 24-11 11-5 21-9 32-12 30-7 51-23 65-45 13-19 17-38 17-53 0-1-1-32-1-32z"/>
<glyph glyph-name="icon-person-add" unicode="&#57487;" d="M294 156c-9 2-17 5-26 9-3 1-19 7-19 8-1 2-1 5-1 8-1 6-1 12-1 12l1 1 7 6 1 10c0 3 1 8 2 12 0 4 1 6 1 6 1 1 1 1 1 3 2 4 4 9 7 15 2 6 4 13 7 19 0 1 0 2 1 3 0 1 1 3 2 4 5 7 9 16 9 27 0 9-3 17-7 24 0 0 0 0 0 0 0 0 0 0 0 0 3 15 5 31 5 44 0 33-14 59-38 76-16 12-38 18-64 18l-5 0c-26 0-48-6-65-19-24-16-37-42-37-75 0-15 5-43 5-44-4-7-7-15-7-24 0-10 3-20 9-27 1-1 1-3 2-4 0 0 0 0 0 0 0 0 0 0 1-3 3-6 5-13 7-19 2-6 4-11 6-15 1-2 1-2 2-3 0 0 1-2 1-6 1-4 2-9 2-12l1-10 7-6 0-1c0 0 0-8 0-12 0-4-1-8-1-8 0 0-16-7-19-8-9-4-17-7-26-9-23-7-41-19-52-36-10-16-13-31-13-44l1-25 357 0c0 0 1 25 1 25 0 13-3 28-13 44-11 17-29 29-52 36z m-268-79c0 0-2 41 46 54 22 6 37 14 52 20 2 1 3 2 4 3 12 8 8 51 8 51l-8 8c0 0-2 19-5 26-8 16-16 43-16 43 0 0-8 6-8 17 0 11 8 17 8 17 0 0 0 1 0 3-2 9-6 31-6 48 0 26 10 43 26 54 12 9 29 14 50 14l5 0c21 0 38-5 50-14 16-11 26-28 26-54 0-17-4-39-6-48 0-2 0-3 0-3 0 0 8-6 8-17 0-11-8-17-8-17 0 0-8-27-16-43-4-7-6-26-6-26l-8-8c0 0-3-43 8-51 2-1 3-2 5-3 15-6 30-14 52-20 47-13 46-54 46-54l-307 0z m473 307l-64 0 0 64c0 7-6 13-13 13-6 0-12-6-12-13l0-64-64 0c-7 0-13-6-13-13 0-7 6-13 13-13l64 0 0-64c0-7 5-12 12-12 7 0 13 5 13 12l0 64 64 0c7 0 13 6 13 13 0 7-6 13-13 13z"/>
<glyph glyph-name="icon-person-add-filled" unicode="&#57488;" d="M294 156c-9 2-17 5-26 9-3 1-19 8-19 8 0 0-1 5-1 8-1 4 0 8 0 13l0 0 7 6 1 10c0 3 1 8 2 12 0 4 1 6 1 6 1 1 1 1 1 3 2 4 4 9 7 15 2 6 4 13 7 19 0 1 0 2 1 3 0 0 0 0 0 1 1 1 1 2 2 3 5 7 9 17 9 27 0 9-3 17-7 24 2 14 5 30 5 44 0 33-14 59-38 76-16 12-38 18-64 18l-5 0c-26 0-48-6-65-19-24-16-37-42-37-75 0-13 2-28 5-44 0 0 0 0 0 0 0 0 0 0 0 0-4-7-7-15-7-24 0-10 3-20 9-27 0-1 1-2 2-3l1-4c3-6 5-13 7-19 2-6 4-11 6-15 1-2 1-2 2-3 0 0 1-2 1-6 1-4 2-9 2-12l1-10 7-6 0-1c0 0 0-8 0-12 0-4-1-8-1-8 0 0-16-7-19-8-9-4-17-7-26-9-23-7-41-19-52-36-10-16-13-31-13-44l1-25 357 0c0 0 1 25 1 25 0 13-3 28-13 44-11 17-29 29-52 36z m205 228l-64 0 0 64c0 7-6 13-13 13-6 0-12-6-12-13l0-64-64 0c-7 0-13-6-13-13 0-7 6-13 13-13l64 0 0-64c0-7 5-12 12-12 7 0 13 5 13 12l0 64 64 0c7 0 13 6 13 13 0 7-6 13-13 13z"/>
<glyph glyph-name="icon-person-filled" unicode="&#57489;" d="M367 356c3-3 7-7 11-13 7-9 11-21 11-33 0-13-4-25-11-34-1-2-2-3-3-4-3-4-6-7-8-9l11 16c-1-3-2-6-4-11-3-9-6-17-9-25-2-7-5-13-7-18-1-2-1-2-2-4 0 0-1-3-2-7-1-6-2-12-2-16l-1-12-9-8-10-9 10 21c0-1 0-3 0-5-1-8-1-16 0-23 0-4 1-9 1-9 0 0 20-9 24-11 11-5 21-9 32-12 30-7 51-23 65-45 13-19 17-38 17-53 0-1-1-32-1-32l-447 0-1 31c0 16 4 35 16 54 14 22 36 38 65 45 11 3 21 7 32 12 4 1 25 11 25 11 0 0 1 4 1 9 0 5 0 16 0 16l0 0-9 8-1 12c-1 4-1 10-3 16 0 4-1 7-1 7-1 2-1 2-2 4-2 5-5 11-8 18-3 8-6 16-8 25l-2 4c-1 1-2 2-3 4-6 9-10 21-10 34 0 11 3 21 8 29 0 2 0-3 0 1-4 20-6 39-6 55 0 41 17 74 46 93 21 16 49 24 81 24l7 0c32 0 60-8 80-23 30-20 46-53 46-94 0-19-3-43-7-63 0-3 0-3 0-4z"/>
<glyph glyph-name="home" unicode="&#57378;" d="M256 455c1 0 3 0 3-1l212-185-39-15-17-6-2-18-12-171c0-1-1-2-2-2l-86 0 0 128c0 24-19 43-43 43l-29 0c-24 0-42-19-42-43l-1-128-84 0c-1 0-3 1-3 2l-11 171-2 18-17 6-40 15 212 185c1 1 2 1 3 1m0 29c-8 0-16-3-22-8l-226-198c-12-11-10-24 5-29l58-21 12-171c1-16 15-28 31-28l84-1 0 0c16 0 30 13 30 29l0 128c0 8 5 14 13 14l29 0c8 0 14-6 14-14l0-128c0-16 13-29 29-29l86 0c15 0 29 13 30 29l13 171 57 21c15 5 17 18 5 29l-226 198c-6 5-14 8-22 8z"/>
<glyph glyph-name="hamburger" unicode="&#57390;" d="M480 384l-448 0c-10 0-16 6-16 16 0 10 6 16 16 16l448 0c10 0 16-6 16-16 0-10-6-16-16-16z m0-160l-448 0c-10 0-16 6-16 16 0 10 6 16 16 16l448 0c10 0 16-6 16-16 0-10-6-16-16-16z m0-160l-448 0c-10 0-16 6-16 16 0 10 6 16 16 16l448 0c10 0 16-6 16-16 0-10-6-16-16-16z"/>
<glyph glyph-name="account" unicode="&#57411;" d="M256 512c-141 0-256-115-256-256 0-141 115-256 256-256 141 0 256 115 256 256 0 141-115 256-256 256z m-113-449c0 0 1 0 1 1 0 0 0 0 0 0 9 9 39 15 54 21 2 1 4 2 5 3 12 9 8 54 8 54l-8 8c0 0-2 20-6 28-8 17-16 45-16 45 0 0-9 6-9 18 0 11 9 17 9 17 0 0 0 2-1 4-1 9-6 33-6 50 0 27 11 46 28 57 12 10 30 15 51 15 1 0 2 0 3 0 1 0 2 0 3 0 22 0 39-5 52-15 17-11 27-30 27-57 0-17-4-41-6-50 0-2 0-4 0-4 0 0 8-6 8-17 0-12-8-18-8-18 0 0-9-28-17-45-4-8-6-28-6-28l-8-8c0 0-4-45 8-54 1-1 3-2 5-3 11-4 31-9 44-15 4-2 8-4 10-6 0 0 0 0 0 0 1-1 1-1 1-1-33-20-72-31-113-31-41 0-80 11-113 31z m253 18c-2 2-3 4-5 5l0 1c-12 11-30 17-48 22-4 2-7 3-10 4-1 4-1 9-1 15l8 7 1 12c1 7 2 15 3 18 6 13 13 31 16 41 7 9 12 21 12 35 0 10-3 19-7 26 3 13 5 31 5 45 0 46-22 70-41 83-18 14-42 21-70 21l-3 0-3 0c-28 0-52-7-70-21-19-13-41-37-41-83 0-15 3-32 5-45-4-7-7-16-7-26 0-15 6-26 12-35 4-10 10-29 17-42 0-2 2-11 2-17l2-12 7-7c0-6 0-11-1-15-3-1-6-2-10-4-17-5-36-11-48-22l0-1c-2-1-3-3-5-5-51 41-84 104-84 175 0 123 100 224 224 224 124 0 224-101 224-224 0-71-33-134-84-175z"/>
<glyph glyph-name="add-to-order-android" unicode="&#57490;" d="M416 416l0 96-64 0 0-96-96 0 0-64 96 0 0-96 64 0 0 96 96 0 0 64z m32-372l-54-44-49 47-54-47-54 44-54-44-54 44-49-44-48 44 0 372c0 18 14 32 32 32l160 0 0-128 96 0 0-96 128 0z"/>
<glyph glyph-name="add-to-order-filled" unicode="&#57491;" d="M256 448l0-64c0-18 14-32 32-32l48 0c9 0 16-7 16-16l0-48c0-18 14-32 32-32l64 0 0-212-54-44-49 47-54-47-54 44-54-44-54 44-49-44-48 44 0 372c0 18 14 32 32 32z m160 48c0 9-7 16-16 16-9 0-16-7-16-16l0-80-80 0c-9 0-16-7-16-16 0-9 7-16 16-16l80 0 0-80c0-9 7-16 16-16 9 0 16 7 16 16l0 80 80 0c9 0 16 7 16 16 0 9-7 16-16 16l-80 0z"/>
<glyph glyph-name="thumbs-up" unicode="&#57493;" d="M453 343l-131 0c0 26 0 60 0 74 0 58-19 93-78 93-11 0-22-1-35-3 0 0 0-79 0-115 0-37-43-81-87-81l-16 0 0-1c0 0-1 1-1 1l-73 0c-18 0-32-15-32-32l0-223c0-18 14-32 32-32l73 0c5 0 10 1 15 3 9-10 23-16 40-16l226 0c36 0 71 29 78 63l43 207c7 34-17 62-54 62z m-348-279c0-4-3-8-8-8l-58 0c-4 0-8 4-8 8l0 207c0 4 4 8 8 8l58 0c5 0 8-4 8-8z m370 223l-42-206c-4-20-26-38-47-38l-226 0c-8 0-14 3-18 7-3 3-4 8-4 14l0 216c54 9 103 60 103 112l0 86c1 0 2 0 3 0 28 0 46-4 46-61l0-106 163 0c9 0 15-2 19-7 3-4 5-10 3-17z"/>
<glyph glyph-name="thumbs-down" unicode="&#57494;" d="M506 241l-42 207c-7 34-42 62-78 62l-226 0c-17 0-31-6-40-16-5 3-10 4-15 4l-73 0c-18 0-32-14-32-32l0-223c0-17 14-32 32-32l73 0c0 0 1 0 1 0l0 0 16 0c44 0 87-45 87-81 0-36 0-115 0-115 13-3 24-4 35-4 59 0 78 36 78 94 0 13 0 47 0 73l131 0c37 0 61 29 53 63z m-401 10c0-4-3-8-8-8l-58 0c-4 0-8 4-8 8l0 207c0 4 4 8 8 8l58 0c5 0 8-4 8-8z m367-33c-4-5-10-8-19-8l-163 0 0-105c0-57-18-62-46-62-1 0-2 0-3 0l0 87c0 52-49 103-103 112l0 215c0 7 1 12 4 15 4 4 10 6 18 6l226 0c21 0 43-17 47-37l42-206c2-7 0-13-3-17z"/>
<glyph glyph-name="add-to-order" unicode="&#57492;" d="M496 416l-80 0 0 80c0 9-7 16-16 16-9 0-16-7-16-16l0-80-80 0c-9 0-16-7-16-16 0-9 7-16 16-16l80 0 0-80c0-9 7-16 16-16 9 0 16 7 16 16l0 80 80 0c9 0 16 7 16 16 0 9-7 16-16 16z m-64-160c-9 0-16-7-16-16l0-181-21-16-28 27-21 20-22-19-34-29-33 27-20 17-20-17-34-28-34 28-21 17-21-18-27-25-16 15 0 358 176 0c9 0 16 7 16 16 0 9-7 16-16 16l-176 0c-18 0-32-14-32-32l0-372 48-44 49 44 54-44 54 44 54-44 54 47 49-47 54 44 0 196c0 9-7 16-16 16z"/>
<glyph glyph-name="instagram" unicode="&#57459;" d="M256 466c68 0 76 0 103-2 25-1 39-5 48-8 12-5 20-11 29-20 9-9 15-17 20-29 3-9 7-23 8-48 2-27 2-35 2-103 0-68 0-76-2-103-1-25-5-39-8-48-5-12-11-20-20-29-9-9-17-15-29-20-9-3-23-7-48-8-27-2-35-2-103-2-68 0-76 0-103 2-25 1-39 5-48 8-12 5-20 11-29 20-9 9-15 17-20 29-3 9-7 23-8 48-2 27-2 35-2 103 0 68 0 76 2 103 1 25 5 39 8 48 5 12 11 20 20 29 9 9 17 15 29 20 9 3 23 7 48 8 27 2 35 2 103 2m0 46c-70 0-78 0-106-2-27-1-45-5-62-11-17-7-31-16-45-30-14-14-23-28-30-45-6-17-10-35-11-62-2-28-2-36-2-106 0-70 0-78 2-106 1-27 5-45 11-62 7-17 16-31 30-45 14-14 28-23 45-30 17-6 35-10 62-11 28-2 36-2 106-2 70 0 78 0 106 2 27 1 45 5 62 11 17 7 31 16 45 30 14 14 23 28 30 45 6 17 10 35 11 62 2 28 2 36 2 106 0 70 0 78-2 106-1 27-5 45-11 62-7 17-16 31-30 45-14 14-28 23-45 30-17 6-35 10-62 11-28 2-36 2-106 2z m0-125c-73 0-131-58-131-131 0-73 58-131 131-131 73 0 131 58 131 131 0 73-58 131-131 131z m0-216c-47 0-85 38-85 85 0 47 38 85 85 85 47 0 85-38 85-85 0-47-38-85-85-85z m167 222c0-17-13-31-30-31-17 0-31 14-31 31 0 17 14 30 31 30 17 0 30-13 30-30z"/>
<glyph glyph-name="bogo" unicode="&#57388;" d="M304 423l-38-125c-4-15 6-28 21-28l86 0-150-181 39 126c4 14-6 27-21 27l-86 0m72-32l-49-159c-9-32 16-47 38-21l194 234c14 17 4 38-18 38l-91 0 49 160c10 32-16 47-38 20l-194-234c-14-17-3-38 18-38z m272-38c8-3 11-13 8-20-3-9-12-13-21-9l-59 25c-8 4-12 13-8 21 3 8 12 12 21 9z m-51-86c7-6 6-16 0-22-6-7-16-7-22 0l-46 45c-6 6-6 16 0 23 7 6 17 6 23 0z m-79-61c3-8-1-17-9-20-8-4-18 0-21 8l-24 60c-3 8 1 17 9 21 8 3 17-1 21-9z m-356 315c-8 3-11 13-8 20 3 9 12 13 21 9l59-25c8-4 12-13 8-21-3-8-12-12-21-9z m51 86c-7 6-6 16 0 22 6 7 16 7 22 0l46-45c6-6 6-16 0-23-7-6-17-6-23 0z m79 61c-3 8 1 17 9 20 8 4 18 0 21-8l24-60c3-8-1-17-9-21-8-3-17 1-21 9z"/>
<glyph glyph-name="bogo-filled" unicode="&#57495;" d="M227 210l-49-159c-9-32 16-47 38-21l194 234c14 17 4 38-18 38l-91 0 49 160c10 32-16 47-38 20l-194-234c-14-17-3-38 18-38z m272-38c8-3 11-13 8-20-3-9-12-13-21-9l-59 25c-8 4-12 13-8 21 3 8 12 12 21 9z m-51-86c7-6 6-16 0-22-6-7-16-7-22 0l-46 45c-6 6-6 16 0 23 7 6 17 6 23 0z m-79-61c3-8-1-17-9-20-8-4-18 0-21 8l-24 60c-3 8 1 17 9 21 8 3 17-1 21-9z m-356 315c-8 3-11 13-8 20 3 9 12 13 21 9l59-25c8-4 12-13 8-21-3-8-12-12-21-9z m51 86c-7 6-6 16 0 22 6 7 16 7 22 0l46-45c6-6 6-16 0-23-7-6-17-6-23 0z m79 61c-3 8 1 17 9 20 8 4 18 0 21-8l24-60c3-8-1-17-9-21-8-3-17 1-21 9z"/>
<glyph glyph-name="weight" unicode="&#57498;" d="M256 99c-13 0-24 10-24 24l0 113c0 13 11 24 24 24 13 0 24-11 24-24l0-113c0-14-11-24-24-24z m208 318c26 0 48 21 48 48l0 46-32 0 0-46c0-9-8-16-16-16l-416 0c-8 0-16 7-16 16l0 47-32 0 0-47c0-27 22-48 48-48l192 0 0-46c-133-9-240-119-240-255l0-116 512 0 0 116c0 136-107 246-240 255l0 46z m16-301l0-85-448 0 0 85c0 123 101 224 224 224 123 0 224-101 224-224z"/>
<glyph glyph-name="browse" unicode="&#57499;" d="M461 486c14 0 25-11 25-25l0-128c0-14-11-26-25-26l-128 0c-14 0-26 12-26 26l0 128c0 14 12 25 26 25l128 0m-282 0c14 0 26-11 26-25l0-128c0-14-12-26-26-26l-128 0c-14 0-25 12-25 26l0 128c0 14 11 25 25 25l128 0m282-281c14 0 25-12 25-26l0-128c0-14-11-25-25-25l-128 0c-14 0-26 11-26 25l0 128c0 14 12 26 26 26l128 0m-282 0c14 0 26-12 26-26l0-128c0-14-12-25-26-25l-128 0c-14 0-25 11-25 25l0 128c0 14 11 26 25 26l128 0m282 307l-128 0c-28 0-51-23-51-51l0-128c0-28 22-51 51-51l128 0c28 0 51 22 51 51l0 128c0 28-23 51-51 51z m-282 0l-128 0c-28 0-51-23-51-51l0-128c0-28 23-51 51-51l128 0c28 0 51 22 51 51l0 128c0 28-22 51-51 51z m282-282l-128 0c-28 0-51-22-51-51l0-128c0-28 23-51 51-51l26 0c28 0 73 0 102 0 28 0 51 23 51 51l0 128c0 28-23 51-51 51z m-282 0l-128 0c-28 0-51-22-51-51l0-128c0-28 23-51 51-51l128 0c28 0 51 23 51 51l0 128c0 28-22 51-51 51z m282-230c0 0 0 0 0 0z"/>
<glyph glyph-name="sort" unicode="&#57501;" d="M512 48c0-9-7-16-16-16l-480 0c-9 0-16 7-16 16 0 9 7 16 16 16l480 0c9 0 16-7 16-16z m0 416c0-9-7-16-16-16l-96 0c-9 0-16 7-16 16 0 9 7 16 16 16l96 0c9 0 16-7 16-16z m0-139c0-8-7-16-16-16l-224 0c-9 0-16 8-16 16 0 9 7 16 16 16l224 0c9 0 16-7 16-16z m0-138c0-9-7-16-16-16l-352 0c-9 0-16 7-16 16 0 8 7 16 16 16l352 0c9 0 16-8 16-16z"/>
<glyph glyph-name="location-marker-filled" unicode="&#57425;" d="M256 512c-115 0-208-93-208-208 0-115 208-304 208-304 0 0 208 189 208 304 0 115-93 208-208 208z m0-288c-44 0-80 36-80 80 0 44 36 80 80 80 44 0 80-36 80-80 0-44-36-80-80-80z"/>
<glyph glyph-name="reaction-add" unicode="&#57504;" d="M437 320c7-20 11-42 11-64 0-106-86-192-192-192-106 0-192 86-192 192 0 106 86 192 192 192 22 0 44-4 64-11l0 34c-20 6-42 9-64 9-124 0-224-100-224-224 0-124 100-224 224-224 124 0 224 100 224 224 0 22-3 44-9 64z m-265-8c0-15-13-28-28-28-15 0-28 13-28 28 0 15 13 28 28 28 15 0 28-13 28-28z m224 0c0-15-13-28-28-28-15 0-28 13-28 28 0 15 13 28 28 28 15 0 28-13 28-28z m-140-190c-63 0-114 47-114 106 0 9 7 16 16 16l196 0c9 0 16-7 16-16 0-59-51-106-114-106z m-80 90c8-33 41-58 80-58 39 0 72 25 80 58z m320 236l-48 0 0 48c0 9-7 16-16 16-9 0-16-7-16-16l0-48-48 0c-9 0-16-7-16-16 0-9 7-16 16-16l48 0 0-48c0-9 7-16 16-16 9 0 16 7 16 16l0 48 48 0c9 0 16 7 16 16 0 9-7 16-16 16z"/>
<glyph glyph-name="browse-filled" unicode="&#57356;" d="M0 461c0 28 23 51 51 51l128 0c29 0 51-23 51-51l0-128c0-29-23-51-51-51l-128 0c-28 0-51 23-51 51z m0-282c0 29 23 51 51 51l128 0c29 0 51-23 51-51l0-128c0-28-23-51-51-51l-128 0c-28 0-51 23-51 51z m282 282c0 28 23 51 51 51l128 0c28 0 51-23 51-51l0-128c0-29-23-51-51-51l-128 0c-29 0-51 23-51 51z m0-282c0 29 23 51 51 51l128 0c28 0 51-23 51-51l0-128c0-28-23-51-51-51l0 0c-28 0-74 0-102 0l-26 0c-28 0-51 23-51 51z"/>
<glyph glyph-name="calendar" unicode="&#57365;" d="M320 448l-128 0 0 32 128 0z m96 0l0 32c35 0 64-29 64-64l0-320c0-35-29-64-64-64l-320 0c-35 0-64 29-64 64l0 320c0 35 29 64 64 64l0-32c-16 0-32-13-32-32l0-64 384 0 0 64c0 16-13 32-32 32z m32-128l-384 0 0-224c0-16 13-32 32-32l320 0c16 0 32 13 32 32z m-320 176c0 10 6 16 16 16 10 0 16-6 16-16l0-64c0-10-6-16-16-16-10 0-16 6-16 16z m224 0c0 10 6 16 16 16 10 0 16-6 16-16l0-64c0-10-6-16-16-16-10 0-16 6-16 16z"/>
<glyph glyph-name="car" unicode="&#57369;" d="M464 167l4 0c12 0 22 10 22 22l0 67c0 12-10 22-23 22l-33 0c-15 0-30 11-36 25l-24 59c-5 15-25 28-40 28l-178 0c-12 0-22-10-22-23l33 0c6 0 11-5 11-11 0-6-5-11-11-11l-156 0c-6 0-11 5-11 11 0 6 5 11 11 11l100 0c0 25 20 45 45 45l178 0c24 0 52-19 61-42l24-59c2-6 9-10 15-10l33 0c25 0 45-20 45-45l0-67c0-25-20-44-44-44l-1 0c0-37-29-67-66-67-37 0-67 30-67 67l-111 0c0-37-30-67-67-67-37 0-67 30-67 67-24 0-44 20-44 44l0 67 22 0 0-67c0-12 10-22 22-22l4 0c9 26 34 44 63 44 29 0 54-18 63-44l119 0c9 26 34 44 63 44 29 0 54-18 63-44z m-63-67c24 0 44 20 44 45 0 24-20 44-44 44-25 0-45-20-45-44 0-25 20-45 45-45z m-245 0c24 0 44 20 44 45 0 24-20 44-44 44-25 0-45-20-45-44 0-25 20-45 45-45z m-22 212l0 11-23 0 0-11c0-7-5-11-11-11l-67 0c-6 0-11-5-11-12 0-6 5-11 11-11l134 0c6 0 11 5 11 11 0 6-5 12-11 12l-35 0c1 3 2 7 2 11z"/>
<glyph glyph-name="car-filled" unicode="&#57372;" d="M11 367c-6 0-11-5-11-11 0-6 5-11 11-11l100 0 0 22z m456-66l-33 0c-6 0-13 4-15 10l-24 59c-9 23-37 42-61 42l-178 0c-25 0-45-20-45-45l56 0c6 0 11-5 11-11 0-6-5-11-11-11l-56 0 0-11c0-6-5-11-11-11l-11 0c-16 0-31-9-39-22l-17 0c-6 0-11-5-11-12 0-6 5-11 11-11l12 0c0 8 2 16 5 23l117 0c6 0 11-6 11-12 0-6-5-11-11-11l-122 0 0-89c0-24 20-44 44-44l0 0c0-37 30-67 67-67 37 0 67 30 67 67l111 0c0-37 30-67 67-67 37 0 66 30 66 67l1 0c24 0 44 19 44 44l0 67c0 25-20 45-45 45z m-311-201c-25 0-45 20-45 45 0 24 20 44 45 44 24 0 44-20 44-44 0-25-20-45-44-45z m245 0c-25 0-45 20-45 45 0 24 20 44 45 44 24 0 44-20 44-44 0-25-20-45-44-45z"/>
<glyph glyph-name="cart" unicode="&#57379;" d="M135 148c-30 0-54-24-54-54 0-29 24-54 54-54 29 0 54 25 54 54 0 30-25 54-54 54z m0-81c-16 0-27 11-27 27 0 16 11 27 27 27 16 0 27-11 27-27 0-16-11-27-27-27z m242 81c-29 0-54-24-54-54 0-29 25-54 54-54 30 0 54 25 54 54 0 30-24 54-54 54z m0-81c-16 0-27 11-27 27 0 16 11 27 27 27 16 0 27-11 27-27 0-16-11-27-27-27z m108 405l-391 0c-13 0-27 0-37 0l-44 0c-8 0-13-6-13-14 0-8 5-13 13-13l33 0c13 0 24-8 27-22l27-148c2-14 2-24-3-38l-16-51c-3-8 5-19 13-16l351 11c8 0 13 5 13 13 0 8-5 13-13 13l-332-10 8 27 367 40c13 3 24 14 24 27l0 154c0 16-11 27-27 27z m0-181l-358-38c0 8 0 19-3 27l-27 148c0 6-3 11-5 17l393 0z"/>
<glyph glyph-name="cart-filled" unicode="&#57389;" d="M135 148c-30 0-54-24-54-54 0-29 24-54 54-54 29 0 54 25 54 54 0 30-25 54-54 54z m242 0c-29 0-54-24-54-54 0-29 25-54 54-54 30 0 54 25 54 54 0 30-24 54-54 54z m108 324l-391 0c-13 0-27 0-37 0l-44 0c-8 0-13-6-13-14 0-8 5-13 13-13l33 0c13 0 24-8 27-22l27-148c2-14 2-24-3-38l-16-51c-3-8 5-19 13-16l351 11c8 0 13 5 13 13 0 8-5 13-13 13l-332-10 8 27 367 40c13 3 24 14 24 27l0 154c0 16-11 27-27 27z"/>
<glyph glyph-name="compass-filled" unicode="&#57414;" d="M256 284c-16 0-28-12-28-28 0-16 12-28 28-28 16 0 28 12 28 28 0 16-12 28-28 28z m0 228c-141 0-256-115-256-256 0-141 115-256 256-256 141 0 256 115 256 256 0 141-115 256-256 256z m56-312l-210-98 98 210 210 98z"/>
<glyph glyph-name="credit-card" unicode="&#57416;" d="M480 448l-448 0c-19 0-32-13-32-32l0-320c0-19 13-32 32-32l448 0c19 0 32 13 32 32l0 320c0 19-13 32-32 32z m0-352l-448 0 0 160 448 0z m-448 256l0 64 448 0 0-64z m0-64l0 32 448 0 0-32z"/>
<glyph glyph-name="credit-card-filled" unicode="&#57421;" d="M480 448l-448 0c-19 0-32-13-32-32l0-320c0-19 13-32 32-32l448 0c19 0 32 13 32 32l0 320c0 19-13 32-32 32z m-448-192l0 96 448 0 0-96z"/>
<glyph glyph-name="deals" unicode="&#57422;" d="M305 373c-1-1-1-2-1-2-10-8-16-21-16-35 0-27 22-48 48-48 27 0 48 22 48 48 0 7-2 14-5 21l-32-32c-6-7-16-7-22 0-7 6-7 16 0 22l160 160c6 7 16 7 22 0 7-6 7-16 0-22l-65-66 19-19c6-6 9-14 9-22l0-116c0-8-3-16-9-22l-227-230c-13-13-33-13-46 0l-179 182c-12 13-12 33 0 45l228 227c6 6 14 10 22 10l109 0c0 0 0 0 0 0 0 0 0 0 0 0l1 0c8-1 15-8 15-16 0-9-7-16-15-16l-106 0c-2 0-5-1-6-3l-219-219c-3-3-3-8 0-11l168-171c3-3 8-3 11 0l219 222c1 1 2 4 2 6l0 108c0 2-1 5-2 6l-17 17-16-17c8-13 13-28 13-44 0-44-36-80-80-80-44 0-80 36-80 80 0 26 12 49 31 63 0 0 1 1 1 1 3 2 6 3 10 3 8 0 16-7 16-16 0-6-4-11-9-14z"/>
<glyph glyph-name="deals-filled" unicode="&#57438;" d="M507 507c-6 7-16 7-22 0 0 0-44-43-65-65l-15 18c-13 14-16 14-36 14l-110 0c-8 0-16-4-22-10l-228-227c-12-12-12-32 0-45l179-182c13-13 33-13 46 0l227 230c6 6 9 14 9 22l0 116c0 8-3 16-9 22l-19 19 65 66c7 6 7 16 0 22z m-91-171c0-44-36-80-80-80-44 0-80 36-80 80 0 26 12 49 31 63 13 11 34-10 21-23-1-2-4-5-4-5-10-8-16-21-16-35 0-27 22-48 48-48 27 0 48 22 48 48 0 7-2 14-5 21l-32-32c-6-7-16-7-22 0-7 6-7 16 0 22l94 95 23-23-39-39c8-13 13-28 13-44z"/>
<glyph glyph-name="deals-icon" unicode="&#57467;" d="M257 25l-40-22-31 34-46-9-19 42-46 5-5 46-42 19 9 45-34 32 23 40-23 40 34 31-9 45 42 20 5 45 46 6 19 42 46-9 31 34 40-23 40 23 31-34 46 9 19-42 46-6 5-45 42-20-9-45 34-31-23-40 23-40-34-32 9-45-42-19-5-46-46-5-19-42-46 9-31-34z"/>
<glyph glyph-name="email" unicode="&#57476;" d="M487 435l-462 0c-13 0-25-11-25-26l0-306c0-15 11-26 25-26l462 0c13 0 25 11 25 26l0 306c0 15-11 26-25 26z m-461-60l142-130-2-2-140-115z m230-273l-221 0c4 3 7 6 7 6l141 115c0 0 2 3 5 4l42-38c7-6 16-10 25-10 10 0 20 3 28 10l41 38c3-1 5-4 5-4l141-115c0 0 4-3 7-6z m230 26l-140 115-2 2 142 130z m-221 80c-5-5-13-4-18 0l-221 202 460 0z"/>
<glyph glyph-name="flag" unicode="&#57484;" d="M33 453c-4 8-13 12-21 8l-3-2c-7-3-11-13-8-21l184-429c3-8 12-11 20-7l3 1c8 4 12 14 8 22z m478-205l-85 213c-3 6-9 10-16 10-2 0-4 0-5 0 0 0-36-11-41-13-19-6-33-8-44-8-55 0-32 62-110 62-22 0-53-5-97-19 0 0-39-11-39-11-8-3-12-11-8-19l103-235c3-6 10-10 16-10 2 0 4 0 6 1 0 0 16 5 28 9 26 9 46 12 61 12 56 0 56-44 113-44 22 0 53 7 99 25l10 5c8 4 12 14 9 22z m-118-20c-18 0-25 6-37 15-16 12-37 29-76 29-20 0-43-4-70-13-6-2-12-4-17-6l-90 204 20 5c37 12 66 18 87 18 25 0 30-7 40-21 11-16 28-41 70-41 15 0 33 3 54 10 3 1 17 5 27 8l75-187c-36-14-64-21-83-21z"/>
<glyph glyph-name="flag-filled" unicode="&#57496;" d="M33 453c-4 8-13 12-21 8l-3-2c-7-3-11-13-8-21l184-429c3-8 12-11 20-7l3 1c8 4 12 14 8 22z m478-205l-85 213c-3 6-9 10-16 10-2 0-4 0-5 0 0 0-36-11-41-13-19-6-33-8-44-8-55 0-32 62-110 62-22 0-53-5-97-19l-39-11c-8-3-12-11-8-19l103-235c3-6 10-10 16-10 2 0 4 0 6 1 0 0 16 5 28 9 26 9 46 12 61 12 56 0 56-44 113-44 22 0 53 7 99 25l10 5c8 4 12 14 9 22z"/>
<glyph glyph-name="gear" unicode="&#57497;" d="M294 480l11-56 3-16 15-7c9-4 17-9 25-14l14-10 15 5 54 19 38-66-43-37-12-11 1-16c1-5 1-10 1-15 0-5 0-10-1-15l-1-16 12-11 43-37-38-66-54 19-15 5-14-10c-8-5-16-10-25-14l-15-7-3-16-11-56-76 0-11 56-3 16-15 7c-9 4-17 9-25 14l-14 10-15-5-54-19-38 66 43 37 12 11-1 16c-1 5-1 10-1 15 0 5 0 10 1 15l1 16-12 11-43 37 38 66 54-19 15-5 14 10c8 5 16 10 25 14l15 7 3 16 11 56 76 0m-38-320c53 0 96 43 96 96 0 53-43 96-96 96-53 0-96-43-96-96 0-53 43-96 96-96m48 352l-96 0c-9 0-17-7-19-16l-13-66c-11-5-21-10-31-17l-63 21c-2 1-4 1-6 1-7 0-14-3-18-9l-48-84c-4-8-2-18 5-24l50-44c-1-6-1-12-1-18 0-6 0-12 1-18l-51-44c-6-6-8-17-4-24l48-84c4-6 11-9 18-9 2 0 4 0 6 1l63 21c10-7 20-12 31-17l13-66c2-9 10-16 19-16l96 0c9 0 17 7 19 16l13 66c11 5 21 10 31 17l63-21c2-1 4-1 6-1 7 0 14 3 18 9l48 84c4 7 2 18-5 24l-50 44c1 6 1 12 1 18 0 6 0 12-1 18l50 44c7 6 9 17 5 24l-48 84c-4 6-11 9-18 9-2 0-4 0-6-1l-63-21c-10 7-20 12-31 17l-13 66c-2 9-10 16-19 16z m-48-320c-35 0-64 29-64 64 0 35 29 64 64 64 35 0 64-29 64-64 0-35-29-64-64-64z"/>
<glyph glyph-name="gear-filled" unicode="&#57500;" d="M65 238c-1 6-1 12-1 18 0 6 0 12 1 18l-51 44c-6 6-8 17-4 24l48 84c5 7 15 11 24 8l63-21c10 7 20 12 31 17l13 66c2 9 10 16 19 16l96 0c9 0 17-7 19-16l13-66c11-5 21-10 31-17l63 21c9 3 19-1 24-8l48-84c4-7 2-18-4-24l-51-44c1-6 1-12 1-18 0-6 0-12-1-18l51-44c6-6 8-17 4-24l-48-84c-5-7-15-11-24-8l-63 21c-10-7-20-12-31-17l-13-66c-2-9-10-16-19-16l-96 0c-9 0-17 7-19 16l-13 66c-11 5-21 10-31 17l-63-21c-9-3-19 1-24 8l-48 84c-4 7-2 18 4 24z m255 18c0 35-29 64-64 64-35 0-64-29-64-64 0-35 29-64 64-64 35 0 64 29 64 64z"/>
<glyph glyph-name="gift" unicode="&#57502;" d="M480 352l-22 0c9 10 16 22 19 35 6 26 3 55-10 77-16 29-48 48-83 48-16 0-35-3-48-13-38-22-67-102-77-137l-3-10-3 10c-10 35-39 115-77 137-16 10-32 13-48 13-35 0-67-19-83-48-13-22-16-51-10-77 3-13 10-25 19-35l-22 0c-19 0-32-13-32-32l0-96c0-19 13-32 32-32l0-160c0-19 16-32 32-32l384 0c19 0 32 13 32 32l0 160c19 0 32 13 32 32l0 96c0 19-13 32-32 32z m-288-320l-128 0 0 160 128 0z m0 192l-160 0 0 96 157 0c0 0 0 0 3 0z m16 128c-29 0-96 0-112 10-32 16-42 57-22 86 12 19 35 32 54 32 10 0 22-3 32-10 32-19 61-118 61-118 0 0-3 0-13 0z m80-320l-64 0 0 288 64 0z m0 320c0 0 32 102 61 118 9 7 22 10 32 10 22 0 45-13 54-32 19-32 10-70-22-86-16-7-80-10-112-10-7 0-13 0-13 0z m160-320l-128 0 0 160 128 0z m32 192l-160 0 0 96c0 0 3 0 3 0l157 0z"/>
<glyph glyph-name="giftcard" unicode="&#57503;" d="M480 448l-448 0c-19 0-32-13-32-32l0-320c0-19 13-32 32-32l448 0c19 0 32 13 32 32l0 320c0 19-13 32-32 32z m-256-352l-192 0 0 128 169 0-68-69c-7-6-7-16 0-22 6-7 16-7 22 0l69 68z m-121 231c10 15 27 25 40 25 6 0 15-3 21-6 9-6 22-28 36-59 4-10 8-20 12-31l-33 1c-31 1-56 4-59 6-23 12-31 43-17 64z m121-16c-12 27-27 52-42 61-12 8-28 12-39 12-24 0-51-16-67-40-18-27-15-63 4-88l-48 0 0 160 192 0z m256-215l-224 0 0 105 69-68c6-7 16-7 22 0 7 6 7 16 0 22l-68 69 201 0z m-212 160c4 11 8 21 12 31 14 31 27 53 35 58 7 4 16 7 22 7 13 0 30-10 40-25 14-21 6-52-15-62-5-4-30-7-61-8-11-1-21-1-33-1z m212 0l-80 0c19 25 22 61 4 88-16 24-43 40-67 40-11 0-27-4-39-12-15-9-30-34-42-61l0 105 224 0z"/>
<glyph glyph-name="giftcard-filled" unicode="&#57505;" d="M133 133c-7 6-7 16 0 22l68 69-201 0 0-128c0-19 13-32 32-32l192 0 0 137-69-68c-6-7-16-7-22 0z m-133 283l0-160 80 0c-19 25-22 61-4 88 16 24 43 40 67 40 11 0 27-4 39-12 15-9 30-34 42-61l0 137-192 0c-19 0-32-13-32-32z m480 32l-224 0 0-137c12 27 27 52 42 61 12 8 28 12 39 12 24 0 51-16 67-40 18-27 15-63-4-88l112 0 0 160c0 19-13 32-32 32z m-133-293c7-6 7-16 0-22-6-7-16-7-22 0l-69 68 0-137 224 0c19 0 32 13 32 32l0 128-233 0z m15 109c21 11 29 42 15 62-10 16-27 26-40 26-6 0-15-3-22-7-8-5-21-27-35-58-4-10-8-20-12-31l33 1c31 1 56 4 61 7z m-183-7l33-1c-4 11-8 21-12 31-14 31-27 53-36 59-6 3-15 6-21 6-13 0-30-10-40-25-14-21-6-52 17-64 3-2 28-5 59-6z"/>
<glyph glyph-name="trash" unicode="&#57508;" d="M107 363l-11 0c-6 0-11 4-11 10l0 43c0 6 5 11 11 11l96 0 0 21c0 12 10 21 21 21l86 0c12 0 21-9 21-21l0-21 96 0c6 0 11-5 11-11l0-43c0-6-5-10-11-10l-11 0 0-278c0-23-19-42-42-42l-214 0c-23 0-42 19-42 42z m192 64l0 19c0 1-1 2-2 2l-82 0c-1 0-2-1-2-2l0-19z m-192-22l0-21 298 0 0 21z m21-45l0-275c0-11 10-21 21-21l214 0c11 0 21 10 21 21l0 275c0 2-1 3-2 3l-252 0c-1 0-2-1-2-3z m64-72c0 6 5 11 11 11 6 0 10-5 10-11l0-149c0-6-5-11-10-11-6 0-11 5-11 11z m107 0c0 6 5 11 10 11 6 0 11-5 11-11l0-149c0-6-5-11-11-11-6 0-10 5-10 11z"/>
<glyph glyph-name="trash-filled" unicode="&#57509;" d="M107 341l298 0 0-256c0-23-19-42-42-42l-214 0c-23 0-42 19-42 42z m0 22l-11 0c-6 0-11 4-11 10l0 43c0 6 5 11 11 11l96 0 0 21c0 12 10 21 21 21l86 0c12 0 21-9 21-21l0-21 96 0c6 0 11-5 11-11l0-43c0-6-5-10-11-10z m85-75l0-149c0-6 5-11 11-11 5 0 10 5 10 11l0 149c0 6-4 11-10 11-6 0-11-5-11-11z m107 0l0-149c0-6 4-11 10-11 6 0 11 5 11 11l0 149c0 6-5 11-11 11-5 0-10-5-10-11z m0 139l0 19c0 1-1 2-2 2l-82 0c-1 0-2-1-2-2l0-19z"/>
<glyph glyph-name="quick-add" unicode="&#57510;" d="M235 277l0 64c0 12 9 22 21 22 12 0 21-10 21-22l0-64 64 0c12 0 22-9 22-21 0-12-10-21-22-21l-64 0 0-64c0-12-9-22-21-22-12 0-21 10-21 22l0 64-64 0c-12 0-22 9-22 21 0 12 10 21 22 21z m21-277c-141 0-256 115-256 256 0 141 115 256 256 256 141 0 256-115 256-256 0-141-115-256-256-256z m0 21c130 0 235 105 235 235 0 130-105 235-235 235-130 0-235-105-235-235 0-130 105-235 235-235z"/>
<glyph glyph-name="pricing" unicode="&#57373;" d="M320 320c0-10 6-16 16-16 10 0 16 6 16 16 0 26-19 70-80 80l0 16c0 10-6 16-16 16-10 0-16-6-16-16l0-16c-22-3-42-10-58-26-22-22-22-54-22-54 0 0 0-32 22-54 13-13 32-23 58-26l0-96c-45 6-48 42-48 48 0 10-6 16-16 16-10 0-16-6-16-16 0 0 0-32 22-54 13-13 32-23 58-26l0-16c0-10 6-16 16-16 10 0 16 6 16 16l0 16c61 6 80 54 80 80 0 26-19 70-80 80l0 96c45-10 48-45 48-48z m-128 0c0 3 3 38 48 48l0-93c-45 7-48 42-48 45z m128-128c0-3 0-38-48-48l0 93c45-7 48-42 48-45z m-64 320c-141 0-256-115-256-256 0-141 115-256 256-256 141 0 256 115 256 256 0 141-115 256-256 256z m0-480c-125 0-224 99-224 224 0 125 99 224 224 224 125 0 224-99 224-224 0-125-99-224-224-224z"/>
<glyph glyph-name="categories" unicode="&#57513;" d="M110 427l295 0c24 0 43-19 43-43l0-213c0-24-19-43-43-43l-295 0c-15 0-29 8-37 21l-70 117c-4 7-4 16 0 22l70 118c8 13 22 21 37 21z m0-22c-8 0-15-4-19-10l-69-118 69-117c4-7 11-11 19-11l295 0c12 0 22 10 22 22l0 213c0 12-10 21-22 21z m402-85l0-213c0-24-19-43-43-43l-295 0c-15 0-29 8-37 21l-13 22 25 0 6-11c4-7 11-11 19-11l295 0c12 0 22 10 22 22l0 213c0 12-10 21-22 21l0 22c24 0 43-19 43-43z"/>
<glyph glyph-name="pinterest-filled" unicode="&#57436;" d="M256 512c-141 0-256-115-256-256 0-108 67-201 163-238-3 20-5 51 1 73 4 20 30 127 30 127 0 0-8 16-8 38 0 36 21 62 46 62 22 0 33-16 33-36 0-22-14-54-22-85-6-25 13-46 38-46 46 0 81 48 81 117 0 61-44 104-107 104-73 0-116-54-116-111 0-22 9-45 19-58 2-3 3-5 2-8-2-8-6-25-7-29-1-4-4-5-9-3-32 15-52 62-52 99 0 81 59 155 170 155 88 0 157-63 157-148 0-88-55-159-132-159-26 0-51 13-59 29 0 0-13-48-16-60-6-23-21-51-32-68 24-7 50-11 76-11 141 0 256 115 256 256 0 141-115 256-256 256z"/>
<glyph glyph-name="items" unicode="&#57506;" d="M399 427l60-90c6-8 10-26 10-38l0-214c0-23-19-42-42-42l-150 0c7 6 15 12 22 21l128 0c12 0 21 11 21 21l0 214c0 8-4 21-9 27l-66 101-62 0-44-69c-7 3-15 3-24 5l43 64c-17 2-30 15-30 32 0 17 15 32 32 32l107 0c17 0 32-15 32-32 0-17-13-30-28-32z m-122 32c0-7 5-11 11-11l107 0c6 0 10 4 10 11 0 6-4 10-10 10l-107 0c-6 0-11-4-11-10z m-49-118c83 0 113-68 113-119 0-79-70-179-108-179-26 0-35 15-60 15-28 0-36-15-62-15-41 0-111 100-111 179 0 40 19 92 70 111-2 6-8 24-8 47 0 6 0 10 0 13 0 6 4 10 11 10l12 0c9 0 20-2 28-4 17-4 30-9 38-15l-2 19c0 7 3 12 9 13 6 1 13-4 13-9l10-78c11 4 28 12 47 12z m-149-27c-36-13-58-49-58-92 0-32 15-73 37-107 19-30 42-51 51-51 6 0 10 2 21 4l2 0c15 7 24 9 39 9l2 0c15 0 23-2 38-9l2 0c11-4 15-4 22-4 8 0 32 19 51 51 23 34 36 75 36 107 0 53-34 98-92 98-6 0-15-2-25-6-2 0-7-3-7-3-4 0-6-2-8-2-7-2-13-4-19-4 0 0 0 0-2 0-7 0-11 2-18 2-19-19-51-19-70 2 0 2-2 5-2 5z m6 42c4-16 9-27 13-32 11-10 30-10 41 0 10 11 10 30 0 41-5 6-14 8-30 13-8 2-18 4-26 4 0-9 1-17 2-26z m139-100c-6 0-11 4-11 11 0 6 5 10 11 10 6 0 13-2 21-4 13-6 22-19 22-38 0-7-5-11-11-11-6 0-11 4-11 11 0 10-4 15-10 19-5 2-9 2-11 2z"/>
<glyph glyph-name="items-filled" unicode="&#57455;" d="M70 333c3-11 8-19 13-24 19-19 52-19 71 0 18 19 19 50 1 69-1 2-2 3-3 4l-3 21c0 7 3 12 9 13 6 1 13-4 13-9l10-78c11 4 28 12 47 12 83 0 113-68 113-119 0-79-70-179-108-179-26 0-35 15-60 15-28 0-36-15-62-15-41 0-111 100-111 179 0 40 19 91 70 111z m328 94l61-91c7-10 10-23 10-35l0-216c0-23-19-42-42-42l-148 0c43 37 84 117 84 179 0 72-44 134-122 140l44 65c-16 2-29 15-29 32 0 17 14 32 32 32l107 0c17 0 32-15 32-32 0-17-13-30-29-32l-14 21-85 0-14-21z m-174-171c2 0 6 0 11-2 6-4 10-9 10-19 0-7 5-11 11-11 6 0 11 4 11 11 0 19-9 32-22 38-8 2-15 4-21 4-6 0-11-4-11-10 0-7 5-11 11-11z m-139 100c-1 9-2 17-2 26 8 0 18-2 26-4 16-5 25-7 30-13 10-11 10-30 0-41-11-10-30-10-41 0-4 5-9 16-13 32z"/>
<glyph glyph-name="items-youve-ordered" unicode="&#57507;" d="M234 234c-2 2-4 6-4 9l0 133c0 7 6 13 13 13 7 0 13-6 13-13l0-120 115 0c7 0 13-6 13-13 0-7-6-13-13-13l-128 0c-3 0-7 2-9 4z m-157 22l-26 0c0 35 9 70 28 102 56 98 181 132 279 75 98-56 132-181 75-279-56-98-181-132-279-75-7 3-9 11-5 17 3 6 11 8 17 5 86-50 196-20 245 65 50 86 20 196-65 245-86 50-196 20-245-65-16-29-24-60-24-90l45 0c7 0 9-4 4-10l-53-63c-5-6-12-6-17 0l-54 63c-4 6-2 10 5 10z"/>
<glyph glyph-name="lists-add" unicode="&#57413;" d="M427 448l-54 0c-5 0-10-5-10-11 0-5 4-10 10-10l54 0 0-54c0-5 4-10 10-10 6 0 11 4 11 10l0 54 53 0c6 0 11 4 11 10 0 6-5 11-11 11l-53 0 0 53c0 6-5 11-11 11-5 0-10-5-10-11z m-384-11c0 6 4 11 10 11l256 0c6 0 11-5 11-11 0-6-5-10-11-10l-256 0c-6 0-10 5-10 10z m0-341c0 6 4 11 10 11l406 0c6 0 10-5 10-11 0-6-4-11-10-11l-406 0c-6 0-10 5-10 11z m0 171c0 6 4 10 10 10l406 0c6 0 10-5 10-10 0-6-4-11-10-11l-406 0c-6 0-10 5-10 11z"/>
<glyph glyph-name="reccuring" unicode="&#57511;" d="M405 469l22 0c23 0 42-19 42-42l0-342c0-23-19-42-42-42l-342 0c-23 0-42 19-42 42l0 342c0 23 19 42 42 42l22 0 0-21-22 0c-12 0-21-9-21-21l0-342c0-12 9-21 21-21l342 0c12 0 21 9 21 21l0 342c0 12-9 21-21 21l-22 0z m-64 0l0-21-170 0 0 21z m-202 22c6 0 10-5 10-11l0-43c0-6-4-10-10-10-7 0-11 4-11 10l0 43c0 6 4 11 11 11z m234 0c7 0 11-5 11-11l0-43c0-6-4-10-11-10-6 0-10 4-10 10l0 43c0 6 4 11 10 11z m-190-154c-2-2-4-4-8-4-4-2-11 4-11 8 0 5 2 7 5 9 23 21 53 32 85 32 70 0 128-58 128-128l-21 0c0 60-47 107-107 107-26 2-51-9-71-24z m128-196c-17-9-36-13-57-13-68 0-126 53-128 122l-24 0c-2 0-4 0-6 2-4 4-6 10-2 15l32 44c0 0 2 3 2 3 4 4 11 2 15-3l32-44c2-2 2-5 2-7 0-6-4-10-11-10l-19 0c2-56 49-101 107-101 17 0 34 5 49 11 2 0 4 2 4 2 7 0 11-4 11-11 0-2-2-6-4-8 0 0 0 0-3 0 3 0 3-2 0-2z m26 115l66 0c7 0 11-4 11-11 0-2 0-4-2-6l-32-45c-5-4-11-6-15-2 0 0-2 2-2 2l-32 45c-5 4-2 11 2 15 0 2 2 2 4 2z"/>
<glyph glyph-name="save" unicode="&#57512;" d="M236 163c12 10 28 10 40 0l108-87 0 351c0 11-10 21-21 21l-214 0c-11 0-21-10-21-21l0-351z m-87 306l214 0c23 0 42-19 42-42l0-373c0-6-4-11-10-11-3 0-5 1-7 2l-125 102c-4 3-10 3-14 0l-125-102c-5-3-11-3-15 2-1 2-2 4-2 7l0 373c0 23 19 42 42 42z"/>
<glyph glyph-name="save-filled" unicode="&#57514;" d="M149 469l214 0c23 0 42-19 42-42l0-373c0-6-4-11-10-11-3 0-5 1-7 2l-125 102c-4 3-10 3-14 0l-125-102c-5-3-11-3-15 2-1 2-2 4-2 7l0 373c0 23 19 42 42 42z"/>
</font>
</defs>
</svg>
