<svg xmlns="http://www.w3.org/2000/svg" xmlns:xlink="http://www.w3.org/1999/xlink" width="24px" height="24px" viewBox="0 0 24 24" version="1.1">
  <path d="M12,23 C5.92486775,23 1,18.0751322 1,12 C1,5.92486775 5.92486775,1 12,1 C18.0751322,1 23,5.92486775 23,12 C23,18.0751322 18.0751322,23 12,23 Z M12,22 C17.5228475,22 22,17.5228475 22,12 C22,6.4771525 17.5228475,2 12,2 C6.4771525,2 2,6.4771525 2,12 C2,17.5228475 6.4771525,22 12,22 Z M12.098387,15.3869979 C12.0885074,15.3326602 12.0364491,15.2966198 11.9821115,15.3064994 C11.9411331,15.31395 11.9090636,15.3460195 11.901613,15.3869979 L11.4918027,17.6409544 L11.2720294,18.8497077 C11.121149,19.67955 10.3319712,20.2345313 9.5,20.0958694 C8.71853773,19.9656257 8.19062078,19.226542 8.32086449,18.4450797 C8.32544999,18.4175667 8.33083698,18.3901932 8.33701858,18.3629943 L8.91641191,15.8136751 C9.13853,14.8363599 9.29176933,13.8446581 9.375,12.8458818 L9.49326744,11.4266608 C9.49719197,11.3795661 9.46761255,11.3361532 9.42234763,11.3225737 L5.94461771,10.2792547 C5.18300428,10.0507707 4.7508175,9.24813811 4.97930153,8.48652467 C4.98570775,8.46517062 4.9926091,8.44396824 5,8.4229347 C5.27727617,7.63384292 6.13692213,7.2137591 6.92984731,7.4798748 L10.0519669,8.52769755 C10.6798292,8.73841606 11.3377211,8.84586941 12,8.84586941 C12.6622789,8.84586941 13.3201708,8.73841606 13.9480331,8.52769755 L17.0701527,7.4798748 C17.8630779,7.2137591 18.7227238,7.63384292 19,8.4229347 C19.2623846,9.16964702 18.8697594,9.98768171 18.1230471,10.2500663 C18.1000237,10.2581564 18.0767975,10.2656571 18.0533911,10.2725611 L14.494968,11.3221532 C14.4484555,11.3358726 14.4184897,11.3809864 14.4238783,11.4291798 L14.5822816,12.8458818 C14.694006,13.8451038 14.8616778,14.8372742 15.0845074,15.81772 L15.6629814,18.3629943 C15.8385596,19.135535 15.354626,19.9041371 14.5820854,20.0797153 C14.5548864,20.0858969 14.527513,20.0912839 14.5,20.0958694 C13.6680288,20.2345313 12.878851,19.67955 12.7279706,18.8497077 L12.5081973,17.6409544 L12.098387,15.3869979 Z M6.61167546,8.42790786 C6.33711852,8.33576308 6.03945896,8.4812206 5.94344978,8.75445019 C5.86734164,9.00649314 5.99934501,9.25164226 6.2319656,9.32142844 L9.70969551,10.3647474 C10.2076095,10.5141216 10.5329831,10.9916638 10.4898133,11.5097056 L10.3715458,12.9289266 C10.2844288,13.9743395 10.1240342,15.0123475 9.89154455,16.0352972 L9.31215122,18.5846164 C9.26780975,18.8461706 9.42770704,19.0700268 9.66439899,19.1094755 C9.95725575,19.1582849 10.2350491,18.9629296 10.2881595,18.6708222 L10.9177431,15.2081124 C10.9996999,14.7573503 11.3524639,14.4045863 11.803226,14.3226295 C12.40094,14.2139542 12.9735816,14.6103984 13.0822569,15.2081124 L13.7118405,18.6708222 C13.7649509,18.9629296 14.0427443,19.1582849 14.335601,19.1094755 C14.594453,19.051403 14.7410285,18.8186061 14.6878488,18.5846164 L14.1093747,16.0393421 C13.8782596,15.0224399 13.7043531,13.9933772 13.5884745,12.9570007 L13.4300712,11.5402986 C13.370797,11.0101714 13.70042,10.5139195 14.2120583,10.3630067 L17.7704813,9.31341453 C18.017191,9.22732287 18.1358439,8.98010958 18.0565502,8.75445019 C17.960541,8.4812206 17.6628815,8.33576308 17.3883245,8.42790786 L14.2662049,9.4757306 C13.535794,9.72086572 12.7704488,9.84586941 12,9.84586941 C11.2295512,9.84586941 10.464206,9.72086572 9.73379509,9.4757306 L6.61167546,8.42790786 Z M12,8 C10.8954305,8 10,7.1045695 10,6 C10,4.8954305 10.8954305,4 12,4 C13.1045695,4 14,4.8954305 14,6 C14,7.1045695 13.1045695,8 12,8 Z M12,7 C12.5522847,7 13,6.55228475 13,6 C13,5.44771525 12.5522847,5 12,5 C11.4477153,5 11,5.44771525 11,6 C11,6.55228475 11.4477153,7 12,7 Z"/>
</svg>
