<svg viewBox="0 0 512 512" width="32" height="32">
  <path d="M368 64c0 0 0 0 0 0-1 1-2 2-4 3-2 1-4 2-6 3-13 6-33 11-44 15-2 1-4 2-5 3-12 9-8 54-8 54l8 8c0 0 2 20 6 28 8 17 17 45 17 45 0 0 8 6 8 18 0 11-8 17-8 17 0 0 0 2 0 4 2 9 6 33 6 50 0 27-10 46-27 57-13 10-30 15-52 15-1 0-2 0-3 0-1 0-2 0-3 0-21 0-39-5-51-15-17-11-28-30-28-57 0-17 5-41 6-50 1-2 1-4 1-4 0 0-9-6-9-17 0-12 9-18 9-18 0 0 8-28 16-45 4-8 6-28 6-28l8-8c0 0 4-45-8-54-1-1-3-2-5-3-15-6-45-12-54-21 0 0 0 0 0 0-13-10-19-26-19-27 38-23 83-37 131-37 48 0 93 14 131 37 0 2-6 17-19 27z m-112 448c-141 0-256-115-256-256 0-81 38-154 98-201 3 6 7 14 14 22l0 0 2 2c2 2 4 5 7 7l0 1c12 11 31 17 48 22 4 2 7 3 10 4 1 4 1 9 1 15l-7 7-2 12c0 6-2 15-2 17-7 13-13 32-17 42-6 9-12 21-12 35 0 10 3 19 7 26-2 13-5 31-5 45 0 46 22 71 41 83 18 14 42 21 70 21l3 0 3 0c28 0 52-7 70-21 19-12 41-37 41-83 0-14-3-32-5-45 4-7 7-16 7-26 0-14-5-26-12-35-3-10-10-28-16-41-1-3-2-11-3-18l-1-12-8-7c0-6 0-11 1-15 3-1 6-2 10-4 18-5 36-11 48-22l0-1c4-3 7-6 9-9l1 0 0 0c6-8 10-16 13-22 60 47 98 120 98 201 0 141-115 256-256 256z"/>
</svg>