<svg xmlns="http://www.w3.org/2000/svg" xmlns:xlink="http://www.w3.org/1999/xlink" width="24px" height="24px" viewBox="0 0 24 24" version="1.1">
  <path d="M5.44116586,19.5488216 C7.19693738,21.0756357 9.49052026,22 12,22 C14.5094797,22 16.8030626,21.0756357 18.5588341,19.5488216 C17.5654019,16.8917731 15.0036246,15 12,15 C8.9963754,15 6.43459808,16.8917731 5.44116586,19.5488216 Z M4.66635811,18.7984253 C5.58301878,16.7016477 7.3725608,15.0736944 9.57560117,14.3739483 C8.03950486,13.5206972 7,11.8817433 7,10 C7,7.23857625 9.23857625,5 12,5 C14.7614237,5 17,7.23857625 17,10 C17,11.8817433 15.9604951,13.5206972 14.4243988,14.3739483 C16.6274392,15.0736944 18.4169812,16.7016477 19.3336419,18.7984253 C20.9883585,17.014276 22,14.6252788 22,12 C22,6.4771525 17.5228475,2 12,2 C6.4771525,2 2,6.4771525 2,12 C2,14.6252788 3.01164151,17.014276 4.66635811,18.7984253 Z M12,23 C5.92486775,23 1,18.0751322 1,12 C1,5.92486775 5.92486775,1 12,1 C18.0751322,1 23,5.92486775 23,12 C23,18.0751322 18.0751322,23 12,23 Z M12,14 C14.209139,14 16,12.209139 16,10 C16,7.790861 14.209139,6 12,6 C9.790861,6 8,7.790861 8,10 C8,12.209139 9.790861,14 12,14 Z"/>
</svg>
