<svg xmlns="http://www.w3.org/2000/svg" xmlns:xlink="http://www.w3.org/1999/xlink" width="24px" height="24px" viewBox="0 0 24 24" version="1.1">
  <path d="M21,3 L23.5,3 C23.7761424,3 24,3.22385763 24,3.5 C24,3.77614237 23.7761424,4 23.5,4 L21,4 L21,6.5 C21,6.77614237 20.7761424,7 20.5,7 C20.2238576,7 20,6.77614237 20,6.5 L20,4 L17.5,4 C17.2238576,4 17,3.77614237 17,3.5 C17,3.22385763 17.2238576,3 17.5,3 L20,3 L20,0.5 C20,0.223857625 20.2238576,5.07265313e-17 20.5,0 C20.7761424,-5.07265313e-17 21,0.223857625 21,0.5 L21,3 Z M20.8321819,20.1491716 L19.0821819,21.7047272 C18.8927389,21.873121 18.6072611,21.873121 18.4178181,21.7047272 L16.5,20 L14.5821819,21.7047272 C14.3927389,21.873121 14.1072611,21.873121 13.9178181,21.7047272 L12,20 L10.0821819,21.7047272 C9.89273891,21.873121 9.60726109,21.873121 9.41781808,21.7047272 L7.5,20 L5.58218192,21.7047272 C5.39273891,21.873121 5.10726109,21.873121 4.91781808,21.7047272 L3.16781808,20.1491716 C3.0610739,20.0542879 3,19.9182859 3,19.775467 L3,5 C3,3.8954305 3.8954305,3 5,3 L14,3 C14.5522847,3 15,3.44771525 15,4 L15,5 C15,5.55228475 15.4477153,6 16,6 L17,6 C17.5522847,6 18,6.44771525 18,7 L18,8 C18,8.55228475 18.4477153,9 19,9 L20,9 C20.5522847,9 21,9.44771525 21,10 L21,19.775467 C21,19.9182859 20.9389261,20.0542879 20.8321819,20.1491716 Z"/>
</svg>
