<svg viewBox="0 0 512 512" width="32" height="32">
  <path d="M496 416l-80 0 0 80c0 9-7 16-16 16-9 0-16-7-16-16l0-80-80 0c-9 0-16-7-16-16 0-9 7-16 16-16l80 0 0-80c0-9 7-16 16-16 9 0 16 7 16 16l0 80 80 0c9 0 16 7 16 16 0 9-7 16-16 16z m-64-160c-9 0-16-7-16-16l0-181-21-16-28 27-21 20-22-19-34-29-33 27-20 17-20-17-34-28-34 28-21 17-21-18-27-25-16 15 0 358 176 0c9 0 16 7 16 16 0 9-7 16-16 16l-176 0c-18 0-32-14-32-32l0-372 48-44 49 44 54-44 54 44 54-44 54 47 49-47 54 44 0 196c0 9-7 16-16 16z"/>
</svg>