<svg xmlns="http://www.w3.org/2000/svg" xmlns:xlink="http://www.w3.org/1999/xlink" width="24px" height="24px" viewBox="0 0 24 24" version="1.1">
  <path d="M19.6658327,11 L22.8981159,11 C23.1742583,11 23.3981159,11.2238576 23.3981159,11.5 C23.3981159,11.6211116 23.3541568,11.7381066 23.2744042,11.8292523 L17,19 L17,22 L19.5,22 C19.7761424,22 20,22.2238576 20,22.5 C20,22.7761424 19.7761424,23 19.5,23 L13.5,23 C13.2238576,23 13,22.7761424 13,22.5 C13,22.2238576 13.2238576,22 13.5,22 L16,22 L16,19 L9.72559577,11.8292523 C9.54375474,11.621434 9.56481349,11.3055527 9.77263181,11.1237117 C9.86377756,11.0439591 9.98077254,11 10.1018841,11 L18.4770244,11 L20.5794108,7.7296212 C20.7287368,7.49733618 21.0380938,7.43008468 21.2703788,7.57941076 C21.5026638,7.72873685 21.5699153,8.03809377 21.4205892,8.2703788 L19.6658327,11 Z M17.8341673,12 L11.2037682,12 L16.5005128,18.0534224 L21.7962318,12 L19.0229756,12 L16.9205892,15.2703788 C16.7712632,15.5026638 16.4619062,15.5699153 16.2296212,15.4205892 C15.9973362,15.2712632 15.9300847,14.9619062 16.0794108,14.7296212 L17.8341673,12 Z M12,16.5 L12,22 C12,22.5522847 11.5522847,23 11,23 L3,23 C2.44771525,23 2,22.5522847 2,22 L2,9 C2,7.8954305 2.8954305,7 4,7 L5,7 L5,2 C5,1.44771525 5.44771525,1 6,1 L8,1 C8.55228475,1 9,1.44771525 9,2 L9,7 L10,7 C11.1045695,7 12,7.8954305 12,9 L12,9.5 L11,9.5 L11,9 C11,8.44771525 10.5522847,8 10,8 L8.1,8 C8.04477153,8 8,7.95522847 8,7.9 L8,2.1 C8,2.04477153 7.95522847,2 7.9,2 L6.1,2 C6.04477153,2 6,2.04477153 6,2.1 L6,7.9 C6,7.95522847 5.95522847,8 5.9,8 L4,8 C3.44771525,8 3,8.44771525 3,9 L3,12 L8,12 C8.27614237,12 8.5,12.2238576 8.5,12.5 C8.5,12.7761424 8.27614237,13 8,13 L3,13 L3,17 L11,17 L11,16.5 C11,16.2238576 11.2238576,16 11.5,16 C11.7761424,16 12,16.2238576 12,16.5 Z M11,18 L3,18 L3,22 L11,22 L11,18 Z"/>
</svg>
