<svg viewBox="0 0 512 512" width="32" height="32">
  <path d="M199 171l-171 0 0 85 165 0-22 28-143 0 0 57 57 0 0 114 57 0 0-114 86 0c0 15-12 29-29 29l-28 0 0 85c0 17-15 29-29 29l-57 0c-17 0-28-15-28-29l0-85-29 0c-17 0-28-12-28-29l0-284c0-14 11-29 28-29l171 0c14 0 29 12 29 29l0 159-29 34z m0-114l-171 0 0 85 171 0z m228 0c0 0-20 0-37 0-12 0-20 0-20 0l0 85 142 171-91 0 34 57-28 0-34-57-194 0 142-171 0-85-57 0c-17 0-28-11-28-29l199 0c0 15-11 29-28 29z m-71 114l-97 113 116 0-34-56 29 0 34 56 48 0z"/>
</svg>