<svg xmlns="http://www.w3.org/2000/svg" xmlns:xlink="http://www.w3.org/1999/xlink" width="24px" height="24px" viewBox="0 0 24 24" version="1.1">
  <path d="M11.6479295,11.6740987 C12.8674106,12.1497462 13.8754255,13.0480157 14.4919724,14.1889053 C15.615078,13.0016112 16.3083344,11.4023628 16.3083344,9.64024961 C16.3083344,5.9245962 13.3772155,3 9.65416719,3 C5.9311189,3 3,5.9245962 3,9.64024961 C3,11.4266514 3.67751879,13.0302029 4.79482794,14.2138035 C5.41009694,13.0611214 6.42384389,12.1532555 7.65213263,11.6741419 C6.74418833,11.0418295 6.1500001,9.99030491 6.1500001,8.80000019 C6.1500001,6.86700357 7.71700347,5.30000019 9.6500001,5.30000019 C11.5829967,5.30000019 13.1500001,6.86700357 13.1500001,8.80000019 C13.1500001,9.99027783 12.5558389,11.0417817 11.6479295,11.6740987 Z M21.0502617,20.1991799 C21.2347056,20.4975893 21.2516831,20.8653696 21.0806409,21.0360312 C20.8615282,21.2546563 20.4888917,21.2546563 20.269779,21.0360312 L14.7605919,15.5391038 L14.4807941,15.7675199 C13.1668757,16.8401517 11.5019679,17.424649 9.73041735,17.424649 C5.44813163,17.424649 2,13.9841906 2,9.71232449 C2,5.4404584 5.44813163,2 9.73041735,2 C14.0127031,2 17.4608347,5.4404584 17.4608347,9.71232449 C17.4608347,11.4793878 16.8751975,13.1401264 15.8003618,14.4508911 L15.5703176,14.7314305 L21.0502617,20.1991799 Z M9.6500001,11.3000002 C11.030712,11.3000002 12.1500001,10.1807121 12.1500001,8.80000019 C12.1500001,7.41928832 11.030712,6.30000019 9.6500001,6.30000019 C8.26928822,6.30000019 7.1500001,7.41928832 7.1500001,8.80000019 C7.1500001,10.1807121 8.26928822,11.3000002 9.6500001,11.3000002 Z M9.64726232,16.3000002 C11.1522123,16.3000002 12.574296,15.7872884 13.7145247,14.8707714 C12.9826995,13.3280344 11.4144673,12.3000002 9.64726232,12.3000002 C7.88005737,12.3000002 6.31182515,13.3280344 5.57999992,14.8707714 C6.7202286,15.7872884 8.14231238,16.3000002 9.64726232,16.3000002 Z"/>
</svg>
