<svg xmlns="http://www.w3.org/2000/svg" xmlns:xlink="http://www.w3.org/1999/xlink" width="24px" height="24px" viewBox="0 0 24 24" version="1.1">
  <path d="M16,11.5 L16,4 C16,2.8954305 15.1045695,2 14,2 L10,2 C8.8954305,2 8,2.8954305 8,4 L8,11.5 C8,11.7761424 7.77614237,12 7.5,12 C7.22385763,12 7,11.7761424 7,11.5 L7,7 L6,7 C5.44771525,7 5,7.44771525 5,8 L5,20 C5,20.5522847 5.44771525,21 6,21 L18,21 C18.5522847,21 19,20.5522847 19,20 L19,8 C19,7.44771525 18.5522847,7 18,7 L17,7 L17,11.5 C17,11.7761424 16.7761424,12 16.5,12 C16.2238576,12 16,11.7761424 16,11.5 Z M7,6 L7,4 C7,2.34314575 8.34314575,1 10,1 L14,1 C15.6568542,1 17,2.34314575 17,4 L17,6 L18,6 C19.1045695,6 20,6.8954305 20,8 L20,20 C20,21.1045695 19.1045695,22 18,22 L6,22 C4.8954305,22 4,21.1045695 4,20 L4,8 C4,6.8954305 4.8954305,6 6,6 L7,6 Z M9.5,6 L14.5,6 C14.7761424,6 15,6.22385763 15,6.5 C15,6.77614237 14.7761424,7 14.5,7 L9.5,7 C9.22385763,7 9,6.77614237 9,6.5 C9,6.22385763 9.22385763,6 9.5,6 Z"/>
</svg>
