<svg viewBox="0 0 512 512" width="32" height="32">
  <path d="M464 160c-10 0-16 6-16 16l0 112c0 86-54 157-131 182-10 26-32 42-61 42-29 0-51-16-61-42-77-25-131-96-131-182l0-112c0-10-6-16-16-16-26 0-48-22-48-48 0-26 22-48 48-48l144 0c0-35 29-64 64-64 35 0 64 29 64 64l144 0c26 0 48 22 48 48 0 26-22 48-48 48z m-208-128c-19 0-32 13-32 32l64 0c0-19-13-32-32-32z m208 64l-416 0c-10 0-16 6-16 16 0 10 6 16 16 16 26 0 48 22 48 48l0 112c0 77 54 141 128 157l0 3c0 19 13 32 32 32 19 0 32-13 32-32l0-3c74-16 128-80 128-157l0-112c0-26 22-48 48-48 10 0 16-6 16-16 0-10-6-16-16-16z"/>
</svg>