<svg viewBox="0 0 512 512" width="32" height="32">
  <path d="M304 423l-38-125c-4-15 6-28 21-28l86 0-150-181 39 126c4 14-6 27-21 27l-86 0m72-32l-49-159c-9-32 16-47 38-21l194 234c14 17 4 38-18 38l-91 0 49 160c10 32-16 47-38 20l-194-234c-14-17-3-38 18-38z m272-38c8-3 11-13 8-20-3-9-12-13-21-9l-59 25c-8 4-12 13-8 21 3 8 12 12 21 9z m-51-86c7-6 6-16 0-22-6-7-16-7-22 0l-46 45c-6 6-6 16 0 23 7 6 17 6 23 0z m-79-61c3-8-1-17-9-20-8-4-18 0-21 8l-24 60c-3 8 1 17 9 21 8 3 17-1 21-9z m-356 315c-8 3-11 13-8 20 3 9 12 13 21 9l59-25c8-4 12-13 8-21-3-8-12-12-21-9z m51 86c-7 6-6 16 0 22 6 7 16 7 22 0l46-45c6-6 6-16 0-23-7-6-17-6-23 0z m79 61c-3 8 1 17 9 20 8 4 18 0 21-8l24-60c3-8-1-17-9-21-8-3-17 1-21 9z"/>
</svg>