<svg viewBox="0 0 512 512" width="32" height="32">
  <path d="M461 486c14 0 25-11 25-25l0-128c0-14-11-26-25-26l-128 0c-14 0-26 12-26 26l0 128c0 14 12 25 26 25l128 0m-282 0c14 0 26-11 26-25l0-128c0-14-12-26-26-26l-128 0c-14 0-25 12-25 26l0 128c0 14 11 25 25 25l128 0m282-281c14 0 25-12 25-26l0-128c0-14-11-25-25-25l-128 0c-14 0-26 11-26 25l0 128c0 14 12 26 26 26l128 0m-282 0c14 0 26-12 26-26l0-128c0-14-12-25-26-25l-128 0c-14 0-25 11-25 25l0 128c0 14 11 26 25 26l128 0m282 307l-128 0c-28 0-51-23-51-51l0-128c0-28 22-51 51-51l128 0c28 0 51 22 51 51l0 128c0 28-23 51-51 51z m-282 0l-128 0c-28 0-51-23-51-51l0-128c0-28 23-51 51-51l128 0c28 0 51 22 51 51l0 128c0 28-22 51-51 51z m282-282l-128 0c-28 0-51-22-51-51l0-128c0-28 23-51 51-51l26 0c28 0 73 0 102 0 28 0 51 23 51 51l0 128c0 28-23 51-51 51z m-282 0l-128 0c-28 0-51-22-51-51l0-128c0-28 23-51 51-51l128 0c28 0 51 23 51 51l0 128c0 28-22 51-51 51z m282-230c0 0 0 0 0 0z"/>
</svg>