<svg xmlns="http://www.w3.org/2000/svg" xmlns:xlink="http://www.w3.org/1999/xlink" width="24px" height="24px" viewBox="0 0 24 24" version="1.1">
  <path d="M2,3.9973917 C2,2.89426273 2.89585781,2 3.9973917,2 L9.0026083,2 C10.1057373,2 11,2.89585781 11,3.9973917 L11,9.0026083 C11,10.1057373 10.1041422,11 9.0026083,11 L3.9973917,11 C2.89426273,11 2,10.1041422 2,9.0026083 L2,3.9973917 Z M2,14.9973917 C2,13.8942627 2.89585781,13 3.9973917,13 L9.0026083,13 C10.1057373,13 11,13.8958578 11,14.9973917 L11,20.0026083 C11,21.1057373 10.1041422,22 9.0026083,22 L3.9973917,22 C2.89426273,22 2,21.1041422 2,20.0026083 L2,14.9973917 Z M13,3.9973917 C13,2.89426273 13.8958578,2 14.9973917,2 L20.0026083,2 C21.1057373,2 22,2.89585781 22,3.9973917 L22,9.0026083 C22,10.1057373 21.1041422,11 20.0026083,11 L14.9973917,11 C13.8942627,11 13,10.1041422 13,9.0026083 L13,3.9973917 Z M20.0231261,21 L19.9998232,22 L14.9996352,22 C13.8952672,22 13,21.1041422 13,20.0026083 L13,14.9973917 C13,13.8942627 13.8958578,13 14.9973917,13 L20.0026083,13 C21.1057373,13 22,13.8958578 22,14.9973917 L22,20.0026083 C22,21.0979214 21.1102884,21.9873176 20.0231261,21.9998656 L20.0231261,21 Z"/>
</svg>
