<svg xmlns="http://www.w3.org/2000/svg" xmlns:xlink="http://www.w3.org/1999/xlink" width="24px" height="24px" viewBox="0 0 24 24" version="1.1">
  <path d="M19,2 L20,2 C21.1045695,2 22,2.8954305 22,4 L22,20 C22,21.1045695 21.1045695,22 20,22 L4,22 C2.8954305,22 2,21.1045695 2,20 L2,4 C2,2.8954305 2.8954305,2 4,2 L5,2 L5,3 L4,3 C3.44771525,3 3,3.44771525 3,4 L3,20 C3,20.5522847 3.44771525,21 4,21 L20,21 C20.5522847,21 21,20.5522847 21,20 L21,4 C21,3.44771525 20.5522847,3 20,3 L19,3 L19,2 Z M16,2 L16,3 L8,3 L8,2 L16,2 Z M6.5,1 C6.77614237,1 7,1.22385763 7,1.5 L7,3.5 C7,3.77614237 6.77614237,4 6.5,4 C6.22385763,4 6,3.77614237 6,3.5 L6,1.5 C6,1.22385763 6.22385763,1 6.5,1 Z M17.5,1 C17.7761424,1 18,1.22385763 18,1.5 L18,3.5 C18,3.77614237 17.7761424,4 17.5,4 C17.2238576,4 17,3.77614237 17,3.5 L17,1.5 C17,1.22385763 17.2238576,1 17.5,1 Z M5,8 L7,8 L7,10 L5,10 L5,8 Z M8,8 L10,8 L10,10 L8,10 L8,8 Z M11,8 L13,8 L13,10 L11,10 L11,8 Z M14,8 L16,8 L16,10 L14,10 L14,8 Z M17,8 L19,8 L19,10 L17,10 L17,8 Z M5,11 L7,11 L7,13 L5,13 L5,11 Z M8,11 L10,11 L10,13 L8,13 L8,11 Z M11,11 L13,11 L13,13 L11,13 L11,11 Z M14,11 L16,11 L16,13 L14,13 L14,11 Z M17,11 L19,11 L19,13 L17,13 L17,11 Z M5,14 L7,14 L7,16 L5,16 L5,14 Z M8,14 L10,14 L10,16 L8,16 L8,14 Z M11,14 L13,14 L13,16 L11,16 L11,14 Z M14,14 L16,14 L16,16 L14,16 L14,14 Z M17,14 L19,14 L19,16 L17,16 L17,14 Z M5,17 L7,17 L7,19 L5,19 L5,17 Z M8,17 L10,17 L10,19 L8,19 L8,17 Z M11,17 L13,17 L13,19 L11,19 L11,17 Z"/>
</svg>
