<svg xmlns="http://www.w3.org/2000/svg" xmlns:xlink="http://www.w3.org/1999/xlink" width="24px" height="24px" viewBox="0 0 24 24" version="1.1">
  <path d="M5.75009674,2 C6.16134429,2 9.91632193,7.895 9.42132488,8.34625 C7.78008465,9.85125 8.03383314,10.14375 8.03383314,10.14375 C8.03383314,10.14375 8.2763317,10.72125 10.6900673,13.1325 L10.8663163,13.30875 C13.2775519,15.7225 13.8550485,15.965 13.8550485,15.965 C13.8550485,15.965 13.8712984,15.97875 13.9162981,15.97875 C14.0612973,15.97875 14.5037946,15.83125 15.6525378,14.5775 C15.6800376,14.54625 15.7287873,14.5325 15.7950369,14.5325 C16.8087809,14.5325 22,17.86375 22,18.25 C22,21.025 20.2750103,22 18.2875221,22 C14.5837941,21.9775 12.0000595,20.0475 8.03758312,16.1575 C8.03758312,16.1575 7.85133423,15.97625 7.84008429,15.965 C3.71885883,12 2.02261892,9.41625 2.00011906,5.75 C1.98761913,3.7475 2.95761336,2 5.75009674,2 Z"/>
</svg>
