<svg xmlns="http://www.w3.org/2000/svg" xmlns:xlink="http://www.w3.org/1999/xlink" width="24px" height="24px" viewBox="0 0 24 24" version="1.1">
  <path d="M4.99979168,6 L4.99979168,5 C5.00279155,3.891 5.90075414,3 7.00870797,3 L15.9913337,3 C17.0982876,3 18.3332361,3.834 18.744219,4.862 L19.8151744,8.539 C19.9141702,8.786 20.2191575,9 20.4901462,9 L22.0000833,9 C23.112037,9 24,9.898 24,11.006 L24,15.994 C24,17.113 23.1070372,18 22.0050831,18 C22.0000833,19.657 20.6571393,21 19.0002083,21 C17.3432774,21 16.0003333,19.657 16.0003333,18 L10.0005833,18 C10.0005833,19.657 8.65763927,21 7.0007083,21 C5.34377734,21 4.0008333,19.657 3.99583351,18 C2.90387901,18 2.00091663,17.102 2.00091663,15.994 L2.00091663,10.4994375 C2.00091663,10.3243257 2.0309344,10.1562248 2.08610499,10 L7.5,10 C7.77614237,10 8,9.77614237 8,9.5 C8,9.22385763 7.77614237,9 7.5,9 L3.99979168,9 L3.75007291,9 L3.99979168,9 C4.55207643,9 4.99979168,8.55228475 4.99979168,8 L4.99979168,7 L0.5,7 C0.223857625,7 3.38176876e-17,6.77614237 0,6.5 C-3.38176876e-17,6.22385763 0.223857625,6 0.5,6 L4.99979168,6 Z M5,6 L5,7 L7.5,7 C7.77614237,7 8,6.77614237 8,6.5 C8,6.22385763 7.77614237,6 7.5,6 L5,6 Z M19.0002083,20 C20.1051623,20 21.000125,19.105 21.000125,18 C21.000125,16.895 20.1051623,16 19.0002083,16 C17.8952544,16 17.0002917,16.895 17.0002917,18 C17.0002917,19.105 17.8952544,20 19.0002083,20 Z M7.0007083,20 C8.10566226,20 9.00062497,19.105 9.00062497,18 C9.00062497,16.895 8.10566226,16 7.0007083,16 C5.89575434,16 5.00079163,16.895 5.00079163,18 C5.00079163,19.105 5.89575434,20 7.0007083,20 Z M9.49962502,6 C9.22348264,6 8.99962502,6.22385763 8.99962502,6.5 C8.99962502,6.77614237 9.22348264,7 9.49962502,7 L10.4995417,7 C10.7756841,7 10.9995417,6.77614237 10.9995417,6.5 C10.9995417,6.22385763 10.7756841,6 10.4995417,6 L9.49962502,6 Z M3.50035415,9 C2.84734953,9 2.29184007,9.41742641 2.08610499,10 L1.5,10 C1.22385763,10 1,9.77614237 1,9.5 C1,9.22385763 1.22385763,9 1.5,9 L3.50035415,9 Z"/>
</svg>
