<svg viewBox="0 0 512 512" width="32" height="32">
  <path d="M11 367c-6 0-11-5-11-11 0-6 5-11 11-11l100 0 0 22z m456-66l-33 0c-6 0-13 4-15 10l-24 59c-9 23-37 42-61 42l-178 0c-25 0-45-20-45-45l56 0c6 0 11-5 11-11 0-6-5-11-11-11l-56 0 0-11c0-6-5-11-11-11l-11 0c-16 0-31-9-39-22l-17 0c-6 0-11-5-11-12 0-6 5-11 11-11l12 0c0 8 2 16 5 23l117 0c6 0 11-6 11-12 0-6-5-11-11-11l-122 0 0-89c0-24 20-44 44-44l0 0c0-37 30-67 67-67 37 0 67 30 67 67l111 0c0-37 30-67 67-67 37 0 66 30 66 67l1 0c24 0 44 19 44 44l0 67c0 25-20 45-45 45z m-311-201c-25 0-45 20-45 45 0 24 20 44 45 44 24 0 44-20 44-44 0-25-20-45-44-45z m245 0c-25 0-45 20-45 45 0 24 20 44 45 44 24 0 44-20 44-44 0-25-20-45-44-45z"/>
</svg>