<svg viewBox="0 0 512 512" width="32" height="32">
  <path d="M135 148c-30 0-54-24-54-54 0-29 24-54 54-54 29 0 54 25 54 54 0 30-25 54-54 54z m0-81c-16 0-27 11-27 27 0 16 11 27 27 27 16 0 27-11 27-27 0-16-11-27-27-27z m242 81c-29 0-54-24-54-54 0-29 25-54 54-54 30 0 54 25 54 54 0 30-24 54-54 54z m0-81c-16 0-27 11-27 27 0 16 11 27 27 27 16 0 27-11 27-27 0-16-11-27-27-27z m108 405l-391 0c-13 0-27 0-37 0l-44 0c-8 0-13-6-13-14 0-8 5-13 13-13l33 0c13 0 24-8 27-22l27-148c2-14 2-24-3-38l-16-51c-3-8 5-19 13-16l351 11c8 0 13 5 13 13 0 8-5 13-13 13l-332-10 8 27 367 40c13 3 24 14 24 27l0 154c0 16-11 27-27 27z m0-181l-358-38c0 8 0 19-3 27l-27 148c0 6-3 11-5 17l393 0z"/>
</svg>