<svg xmlns="http://www.w3.org/2000/svg" xmlns:xlink="http://www.w3.org/1999/xlink" width="24px" height="24px" viewBox="0 0 24 24" version="1.1">
  <path d="M5.13910367,4 L19,4 C20.1045695,4 21,4.8954305 21,6 L21,16 C21,17.1045695 20.1045695,18 19,18 L5.13910367,18 C4.43295249,18 3.77913795,17.6276187 3.41890905,17.02026 L0.150810718,11.51013 C-0.0357261983,11.1956221 -0.0357261983,10.8043779 0.150810718,10.48987 L3.41890905,4.97974001 C3.77913795,4.37238127 4.43295249,4 5.13910367,4 Z M5.13910367,5 C4.78602808,5 4.45912081,5.18619064 4.27900636,5.48987 L1.01090803,11 L4.27900636,16.51013 C4.45912081,16.8138094 4.78602808,17 5.13910367,17 L19,17 C19.5522847,17 20,16.5522847 20,16 L20,6 C20,5.44771525 19.5522847,5 19,5 L5.13910367,5 Z M24,9 L24,19 C24,20.1045695 23.1045695,21 22,21 L8.13910367,21 C7.43295249,21 6.77913795,20.6276187 6.41890905,20.02026 L5.8137854,19 L6.97644454,19 L7.27900636,19.51013 C7.45912081,19.8138094 7.78602808,20 8.13910367,20 L22,20 C22.5522847,20 23,19.5522847 23,19 L23,9 C23,8.44771525 22.5522847,8 22,8 L22,7 C23.1045695,7 24,7.8954305 24,9 Z"/>
</svg>
