<svg xmlns="http://www.w3.org/2000/svg" xmlns:xlink="http://www.w3.org/1999/xlink" width="24px" height="24px" viewBox="0 0 24 24" version="1.1">
  <path d="M12,23 C5.92486775,23 1,18.0751322 1,12 C1,5.92486775 5.92486775,1 12,1 C18.0751322,1 23,5.92486775 23,12 C23,18.0751322 18.0751322,23 12,23 Z M7.19378131,13.2236948 L10.6422313,15.8904638 C10.8574146,16.0564702 11.1691545,16.0311359 11.3519223,15.8324616 L16.8694423,9.83223131 C17.0591071,9.62555671 17.0397958,9.30954458 16.8266816,9.12620421 C16.6128777,8.94286384 16.2859646,8.96153122 16.0962998,9.16753913 L10.9050032,14.8130891 L7.84002084,12.4429982 C7.61725097,12.2703249 7.29171729,12.3056596 7.11308758,12.5210012 C6.93514756,12.7363428 6.97101144,13.0510215 7.19378131,13.2236948 Z"/>
</svg>
