<svg xmlns="http://www.w3.org/2000/svg" xmlns:xlink="http://www.w3.org/1999/xlink" width="24px" height="24px" viewBox="0 0 24 24" version="1.1">
  <path d="M12,12 L14,12 C14.5522847,12 15,12.4477153 15,13 C15,13.5522847 14.5522847,14 14,14 L12,14 L12,16 C12,16.5522847 11.5522847,17 11,17 C10.4477153,17 10,16.5522847 10,16 L10,14 L8,14 C7.44771525,14 7,13.5522847 7,13 C7,12.4477153 7.44771525,12 8,12 L10,12 L10,10 C10,9.44771525 10.4477153,9 11,9 C11.5522847,9 12,9.44771525 12,10 L12,12 Z M5,2.99989086 L17,2.99989086 C18.1045695,2.99989086 19,3.89532136 19,4.99989086 L19,21 C19,22.1045695 18.1045695,23 17,23 L5,23 C3.8954305,23 3,22.1045695 3,21 L3,4.99989086 C3,3.89532136 3.8954305,2.99989086 5,2.99989086 Z M5,3.99994543 C4.44771525,3.99994543 4,4.44766068 4,4.99994543 L4,21 C4,21.5522847 4.44771525,22 5,22 L17,22 C17.5522847,22 18,21.5522847 18,21 L18,4.99994543 C18,4.44766068 17.5522847,3.99994543 17,3.99994543 L5,3.99994543 Z M20,20 L20,19 C20.5522847,19 21,18.5522847 21,18 L21,2 C21,1.44771525 20.5522847,1 20,1 L8,1 C7.44771525,1 7,1.44771525 7,2 L6,2 C6,0.8954305 6.8954305,2.02906125e-16 8,0 L20,0 C21.1045695,-2.02906125e-16 22,0.8954305 22,2 L22,18 C22,19.1045695 21.1045695,20 20,20 Z"/>
</svg>
