<svg xmlns="http://www.w3.org/2000/svg" xmlns:xlink="http://www.w3.org/1999/xlink" width="24px" height="24px" viewBox="0 0 24 24" version="1.1">
  <path d="M19.8541893,4.85418933 L20.6520996,5.65209961 C20.8394737,5.83947372 21,6.22139685 21,6.4945037 L21,11.3054841 C21,11.5797038 20.8417187,11.9582691 20.6464688,12.153519 L11.4155384,21.3844494 C10.6389525,22.1610353 9.36698871,22.1669765 8.58612972,21.3861175 L2.61388249,15.4138703 C1.83288563,14.6328734 1.83377034,13.3662419 2.61555062,12.5844616 L11.846481,3.35353117 C12.0445127,3.15549946 12.4275344,3 12.7081973,3 L17.3786797,3 C17.7765044,3 18.1580353,3.15803526 18.4393398,3.43933983 L18.5,3.5 L16.4861796,5.51382045 C15.5770866,5.2845772 14.5738314,5.52555655 13.8627043,6.23675851 C13.3298438,6.76967507 13.060975,7.46663232 13.056098,8.16509096 L13.0561456,8.16509134 C13.0496432,8.87841422 13.3184961,9.5937815 13.8627043,10.1380469 C14.9382693,11.2137252 16.6821048,11.2137252 17.7576698,10.1380469 C18.301878,9.5937815 18.5707308,8.87841422 18.5642284,8.16509134 C18.5605041,7.62645022 18.3997486,7.08870224 18.0819838,6.6263949 L16.2003644,8.50801423 C16.0083519,8.70002674 15.6868675,8.70445015 15.4913102,8.50889287 C15.3014722,8.31905479 15.2961463,7.99588121 15.4921889,7.79983868 L21.9402576,1.35176991 C22.1322701,1.1597574 22.4537545,1.155334 22.6493118,1.35089128 C22.8391499,1.54072935 22.8444757,1.86390293 22.6484332,2.05994547 L19.8541893,4.85418933 Z"/>
</svg>
