<svg xmlns="http://www.w3.org/2000/svg" xmlns:xlink="http://www.w3.org/1999/xlink" width="24px" height="24px" viewBox="0 0 24 24" version="1.1">
  <path d="M1.375,3 C0.55,3 -1.77635684e-15,3.6 -1.77635684e-15,4.5 L-1.77635684e-15,7.5 L-1.77635684e-15,12 L-1.77635684e-15,19.5 C-1.77635684e-15,20.4 0.55,21 1.375,21 L22.625,21 C23.45,21 24,20.4 24,19.5 L24,12 L24,7.5 L24,4.5 C24,3.6 23.45,3 22.625,3 L1.375,3 Z M1,19.5 L1,12 L23,12 L23,19.5 C23,19.7761424 22.7761424,20 22.5,20 L1.5,20 C1.22385763,20 1,19.7761424 1,19.5 Z M1.5,4 L22.5,4 C22.7761424,4 23,4.22385763 23,4.5 L23,7 L1,7 L1,4.5 C1,4.22385763 1.22385763,4 1.5,4 Z M1,11 L1,8 L23,8 L23,11 L1,11 L1,11 Z"/>
</svg>
