<svg viewBox="0 0 512 512" width="32" height="32">
  <path d="M305 373c-1-1-1-2-1-2-10-8-16-21-16-35 0-27 22-48 48-48 27 0 48 22 48 48 0 7-2 14-5 21l-32-32c-6-7-16-7-22 0-7 6-7 16 0 22l160 160c6 7 16 7 22 0 7-6 7-16 0-22l-65-66 19-19c6-6 9-14 9-22l0-116c0-8-3-16-9-22l-227-230c-13-13-33-13-46 0l-179 182c-12 13-12 33 0 45l228 227c6 6 14 10 22 10l109 0c0 0 0 0 0 0 0 0 0 0 0 0l1 0c8-1 15-8 15-16 0-9-7-16-15-16l-106 0c-2 0-5-1-6-3l-219-219c-3-3-3-8 0-11l168-171c3-3 8-3 11 0l219 222c1 1 2 4 2 6l0 108c0 2-1 5-2 6l-17 17-16-17c8-13 13-28 13-44 0-44-36-80-80-80-44 0-80 36-80 80 0 26 12 49 31 63 0 0 1 1 1 1 3 2 6 3 10 3 8 0 16-7 16-16 0-6-4-11-9-14z"/>
</svg>