<svg viewBox="0 0 512 512" width="32" height="32">
  <path d="M507 507c-6 7-16 7-22 0 0 0-44-43-65-65l-15 18c-13 14-16 14-36 14l-110 0c-8 0-16-4-22-10l-228-227c-12-12-12-32 0-45l179-182c13-13 33-13 46 0l227 230c6 6 9 14 9 22l0 116c0 8-3 16-9 22l-19 19 65 66c7 6 7 16 0 22z m-91-171c0-44-36-80-80-80-44 0-80 36-80 80 0 26 12 49 31 63 13 11 34-10 21-23-1-2-4-5-4-5-10-8-16-21-16-35 0-27 22-48 48-48 27 0 48 22 48 48 0 7-2 14-5 21l-32-32c-6-7-16-7-22 0-7 6-7 16 0 22l94 95 23-23-39-39c8-13 13-28 13-44z"/>
</svg>