<svg xmlns="http://www.w3.org/2000/svg" xmlns:xlink="http://www.w3.org/1999/xlink" width="24px" height="24px" viewBox="0 0 24 24" version="1.1">
  <path d="M5,8 L19,8 L19,20.0059397 C19,21.1072288 18.1029399,22 16.9941413,22 L7.00585866,22 C5.89805351,22 5,21.1054862 5,20.0059397 L5,8 Z M5,7 L4.4963932,7 C4.22224281,7 4,6.7842474 4,6.50461102 L4,4.49538898 C4,4.2217932 4.22618103,4 4.4963932,4 L9,4 L9,2.99895656 C9,2.44724809 9.45097518,2 9.99077797,2 L14.009222,2 C14.5564136,2 15,2.44266033 15,2.99895656 L15,4 L19.5036068,4 C19.7777572,4 20,4.2157526 20,4.49538898 L20,6.50461102 C20,6.7782068 19.773819,7 19.5036068,7 L19,7 L5,7 Z M9,10.5004358 L9,17.4995642 C9,17.7692032 9.22385763,18 9.5,18 C9.76806641,18 10,17.7759472 10,17.4995642 L10,10.5004358 C10,10.2307968 9.77614237,10 9.5,10 C9.23193359,10 9,10.2240528 9,10.5004358 Z M14,10.5004358 L14,17.4995642 C14,17.7692032 14.2238576,18 14.5,18 C14.7680664,18 15,17.7759472 15,17.4995642 L15,10.5004358 C15,10.2307968 14.7761424,10 14.5,10 C14.2319336,10 14,10.2240528 14,10.5004358 Z M14,4 L14,3.10752869 C14,3.04943848 13.9557313,3 13.901123,3 L10.098877,3 C10.0449219,3 10,3.04814223 10,3.10752869 L10,4 L14,4 Z"/>
</svg>
