<svg xmlns="http://www.w3.org/2000/svg" xmlns:xlink="http://www.w3.org/1999/xlink" width="24px" height="24px" viewBox="0 0 24 24" version="1.1">
  <path d="M15,4 L19.5036068,4 C19.7777572,4 20,4.2157526 20,4.49538898 L20,6.50461102 C20,6.7782068 19.773819,7 19.5036068,7 L19,7 L19,20.0059397 C19,21.1072288 18.1029399,22 16.9941413,22 L7.00585866,22 C5.89805351,22 5,21.1054862 5,20.0059397 L5,7 L4.4963932,7 C4.22224281,7 4,6.7842474 4,6.50461102 L4,4.49538898 C4,4.2217932 4.22618103,4 4.4963932,4 L9,4 L9,2.99895656 C9,2.44724809 9.45097518,2 9.99077797,2 L14.009222,2 C14.5564136,2 15,2.44266033 15,2.99895656 L15,4 Z M14.5089948,5 L9.49100518,5 L5,5 L5,6 L5.10464025,6 L18.8953598,6 L19,6 L19,5 L14.5089948,5 Z M6,7.10464025 L6,19.9931545 C6,20.5500512 6.44882258,21 7.00247329,21 L16.9975267,21 C17.544239,21 18,20.5492199 18,19.9931545 L18,7.10464025 C18,7.04016113 17.9535537,7 17.8962593,7 L6.10374069,7 C6.05350113,7 6,7.04684903 6,7.10464025 Z M10,3.10752869 L10,5 L14,5 L14,3.10752869 C14,3.04943848 13.9557313,3 13.901123,3 L10.098877,3 C10.0449219,3 10,3.04814223 10,3.10752869 Z M9,10.5004358 C9,10.2240528 9.23193359,10 9.5,10 C9.77614237,10 10,10.2307968 10,10.5004358 L10,17.4995642 C10,17.7759472 9.76806641,18 9.5,18 C9.22385763,18 9,17.7692032 9,17.4995642 L9,10.5004358 Z M14,10.5004358 C14,10.2240528 14.2319336,10 14.5,10 C14.7761424,10 15,10.2307968 15,10.5004358 L15,17.4995642 C15,17.7759472 14.7680664,18 14.5,18 C14.2238576,18 14,17.7692032 14,17.4995642 L14,10.5004358 Z"/>
</svg>
