<svg xmlns="http://www.w3.org/2000/svg" xmlns:xlink="http://www.w3.org/1999/xlink" width="24px" height="24px" viewBox="0 0 24 24" version="1.1">
  <path d="M2.51093639,18.8724525 L9.136,13.274 C9.136,13.274 9.238,13.19 9.329,13.116 L10.966,14.607 C11.25,14.865 11.613,14.996 11.978,15.002 C12.359,15.008 12.742,14.877 13.038,14.607 L14.675,13.116 C14.765,13.19 14.868,13.274 14.868,13.274 L21.4914632,18.8711001 C21.3463219,18.9531632 21.1786306,19 21,19 L3,19 C2.82235296,19 2.65552512,18.9536775 2.51093639,18.8724525 Z M2.30515785,5.28083643 C2.4850711,5.10697041 2.73004341,5 3,5 L21,5 C21.2699566,5 21.5149289,5.10697041 21.6948421,5.28083643 L12.364,13.868 C12.163,14.051 11.828,14.043 11.636,13.868 L2.30515785,5.28083643 Z M2,6.353 L8.571,12.429 L8.5,12.5 L2,18 L2,6.353 Z M22,18 L15.5,12.5 L15.429,12.429 L22,6.353 L22,18 Z"/>
</svg>
