<svg xmlns="http://www.w3.org/2000/svg" xmlns:xlink="http://www.w3.org/1999/xlink" width="24px" height="24px" viewBox="0 0 24 24" version="1.1">
  <path d="M20.896191,2 L3.103809,2 C2.49412876,2 2,2.4941269 2,3.10380487 L2,20.8961202 C2,21.5057232 2.49412876,22 3.103809,22 L12.682668,22 L12.682668,14.2549317 L10.07624,14.2549317 L10.07624,11.2365162 L12.682668,11.2365162 L12.682668,9.01054722 C12.682668,6.42735907 14.260373,5.02073849 16.5648085,5.02073849 C17.6686924,5.02073849 18.6173837,5.10286817 18.893823,5.13958673 L18.893823,7.83922516 L17.2955855,7.83997452 C16.0423539,7.83997452 15.7996358,8.43548961 15.7996358,9.30939133 L15.7996358,11.2365162 L18.7886127,11.2365162 L18.3994695,14.2549317 L15.7996358,14.2549317 L15.7996358,22 L20.896191,22 C21.5057963,22 22,21.5057232 22,20.8961202 L22,3.10380487 C22,2.4941269 21.5057963,2 20.896191,2"/>
</svg>
