<svg viewBox="0 0 512 512" width="32" height="32">
  <path d="M416 512l-217 0c-9 0-17-3-23-9l-103-103c-6-6-9-15-9-23l0-345c0-18 14-32 32-32l320 0c18 0 32 14 32 32l0 448c0 18-14 32-32 32z m-224-49l0-66c0-7-6-13-13-13l-65 0c-3 0-5 3-3 5l76 76c2 2 5 0 5-2z m216-431l-304 0c-4 0-8 4-8 8l0 304c0 4 4 8 8 8l75 0c25 0 45 20 45 45l0 75c0 4 4 8 8 8l176 0c4 0 8-4 8-8l0-432c0-4-4-8-8-8z m-232 256l160 0c9 0 16 7 16 16 0 9-7 16-16 16l-160 0c-9 0-16-7-16-16 0-9 7-16 16-16z m160-64l-160 0c-9 0-16-7-16-16 0-9 7-16 16-16l160 0c9 0 16 7 16 16 0 9-7 16-16 16z m0-96l-160 0c-9 0-16-7-16-16 0-9 7-16 16-16l160 0c9 0 16 7 16 16 0 9-7 16-16 16z m-32 256l32 0c9 0 16 7 16 16 0 9-7 16-16 16l-32 0c-9 0-16-7-16-16 0-9 7-16 16-16z"/>
</svg>