<svg xmlns="http://www.w3.org/2000/svg" xmlns:xlink="http://www.w3.org/1999/xlink" width="24px" height="24px" viewBox="0 0 24 24" version="1.1">
  <path d="M18.9499909,19 C18.7183558,20.1411202 17.709479,21 16.5,21 C15.290521,21 14.2816442,20.1411202 14.0500091,19 L2.5,19 C2.22385763,19 2,18.7761424 2,18.5 C2,18.2238576 2.22385763,18 2.5,18 L14.0500091,18 C14.2816442,16.8588798 15.290521,16 16.5,16 C17.709479,16 18.7183558,16.8588798 18.9499909,18 L21.5,18 C21.7761424,18 22,18.2238576 22,18.5 C22,18.7761424 21.7761424,19 21.5,19 L18.9499909,19 Z M10.9499909,12 C10.7183558,13.1411202 9.70947896,14 8.5,14 C7.29052104,14 6.28164422,13.1411202 6.05000906,12 L2.5,12 C2.22385763,12 2,11.7761424 2,11.5 C2,11.2238576 2.22385763,11 2.5,11 L6.05000906,11 C6.28164422,9.85887984 7.29052104,9 8.5,9 C9.70947896,9 10.7183558,9.85887984 10.9499909,11 L21.5,11 C21.7761424,11 22,11.2238576 22,11.5 C22,11.7761424 21.7761424,12 21.5,12 L10.9499909,12 Z M18.9499909,5 C18.7183558,6.14112016 17.709479,7 16.5,7 C15.290521,7 14.2816442,6.14112016 14.0500091,5 L2.5,5 C2.22385763,5 2,4.77614237 2,4.5 C2,4.22385763 2.22385763,4 2.5,4 L14.0500091,4 C14.2816442,2.85887984 15.290521,2 16.5,2 C17.709479,2 18.7183558,2.85887984 18.9499909,4 L21.5,4 C21.7761424,4 22,4.22385763 22,4.5 C22,4.77614237 21.7761424,5 21.5,5 L18.9499909,5 Z M16.5,6 C17.3284271,6 18,5.32842712 18,4.5 C18,3.67157288 17.3284271,3 16.5,3 C15.6715729,3 15,3.67157288 15,4.5 C15,5.32842712 15.6715729,6 16.5,6 Z M8.5,13 C9.32842712,13 10,12.3284271 10,11.5 C10,10.6715729 9.32842712,10 8.5,10 C7.67157288,10 7,10.6715729 7,11.5 C7,12.3284271 7.67157288,13 8.5,13 Z M16.5,20 C17.3284271,20 18,19.3284271 18,18.5 C18,17.6715729 17.3284271,17 16.5,17 C15.6715729,17 15,17.6715729 15,18.5 C15,19.3284271 15.6715729,20 16.5,20 Z"/>
</svg>
