<svg viewBox="0 0 512 512" width="32" height="32">
  <path d="M448 194c37 7 64 39 64 78 0 39-27 71-64 78l0 114c0 9-7 16-16 16-9 0-16-7-16-16l0-114c-37-7-64-39-64-78 0-39 27-71 64-78l0-146c0-9 7-16 16-16 9 0 16 7 16 16z m-176-96c37 7 64 39 64 78 0 39-27 71-64 78l0 210c0 9-7 16-16 16-9 0-16-7-16-16l0-210c-37-7-64-39-64-78 0-39 27-71 64-78l0-50c0-9 7-16 16-16 9 0 16 7 16 16z m-176 316l0 50c0 9-7 16-16 16-9 0-16-7-16-16l0-50c-37-7-64-39-64-78 0-39 27-71 64-78l0-210c0-9 7-16 16-16 9 0 16 7 16 16l0 210c37 7 64 39 64 78 0 39-27 71-64 78z"/>
</svg>