<svg xmlns="http://www.w3.org/2000/svg" xmlns:xlink="http://www.w3.org/1999/xlink" width="24px" height="24px" viewBox="0 0 24 24" version="1.1">
  <path d="M11.0752656,0.431914591 C11.1385235,0.467262949 11.2035289,0.50417646 11.270282,0.542655122 C13.8914523,2.05358495 20.1053178,6.78220231 14.8133948,15.5076126 C13.7670582,17.2189915 11.2633345,19.2189273 12.1003287,23.0939994 C12.1010841,23.0974967 12.1021542,23.1020984 12.1035391,23.1078044 L12.103514,23.1078105 C12.1685983,23.3759815 12.0039641,23.6461383 11.7357931,23.7112226 C11.6388467,23.7347512 11.5370766,23.7287213 11.443587,23.6939091 C8.47482146,22.5884481 -0.392056191,18.413521 6.66072708,9.95556515 C10.4877472,6.09251846 11.4648531,2.76907067 10.6728326,0.78523616 C10.6146525,0.639508154 10.6856242,0.474208021 10.8313522,0.416027979 C10.9108962,0.384271061 11.0005216,0.390092506 11.0752891,0.431872428 L11.0752656,0.431914591 Z M15.4026001,16.9529215 C16.8118596,15.2592237 17.862239,11.9298152 17.9092041,10.1292786 C17.9100393,10.0972596 17.9101706,10.064722 17.9095979,10.0316658 L17.9095545,10.0316665 C17.9076871,9.92387727 17.9935537,9.83498301 18.101343,9.83311564 C18.1713315,9.83190313 18.2366111,9.8682593 18.2724306,9.92839936 C19.4864801,11.9667621 22.0739224,17.5188932 16.8846489,21.1277691 C15.3958263,22.1658245 14.545031,22.7974745 14.0611661,23.181823 C14.0363507,23.2015347 14.0122591,23.2207585 13.9888914,23.2394944 C13.7794618,23.4074272 13.4735506,23.3737741 13.305627,23.1643372 C13.2609897,23.1086649 13.2291578,23.0438473 13.212392,22.9744874 C12.942901,21.8596115 12.883775,19.9878773 15.4026001,16.9529215 Z"/>
</svg>
