<svg xmlns="http://www.w3.org/2000/svg" xmlns:xlink="http://www.w3.org/1999/xlink" width="24px" height="24px" viewBox="0 0 24 24" version="1.1">
  <path d="M7.42874795,10.59599 C4.56024424,14.0360046 4.36871429,16.7175911 6.08947518,18.9758364 C7.19488427,20.4265231 8.98262191,21.5868315 10.9754185,22.4318401 C10.7159338,20.2509862 11.3707581,18.5304853 12.7842661,16.6005196 C12.9441947,16.3821574 13.4895663,15.6636785 13.4529736,15.7124111 C13.6852412,15.403086 13.838741,15.1846776 13.9583619,14.9890389 C16.1657612,11.3494424 16.3813372,8.32327983 15.1131927,5.76364526 C14.40018,4.32449398 13.2679742,3.1196616 11.9323744,2.15771881 C11.958471,4.59760966 10.3987062,7.60222664 7.42874795,10.59599 Z M11.270282,0.542655122 C13.8914523,2.05358495 20.1053178,6.78220231 14.8133948,15.5076126 C13.7670582,17.2189915 11.2633345,19.2189273 12.1003287,23.0939994 C12.1685983,23.3759815 12.0039641,23.6461383 11.7357931,23.7112226 C11.6388467,23.7347512 11.5370766,23.7287213 11.443587,23.6939091 C8.47482146,22.5884481 -0.392056191,18.413521 6.66072708,9.95556515 C10.4877472,6.09251846 11.4648531,2.76907067 10.6728326,0.78523616 C10.6146525,0.639508154 10.6856242,0.474208021 10.8313522,0.416027979 C10.9108962,0.384271061 11.0005216,0.390092506 11.0752891,0.431872428 C11.1385235,0.467262949 11.2035289,0.50417646 11.270282,0.542655122 Z M16.1713023,17.5925284 C14.6481076,19.4278412 14.0826589,20.7577133 14.0831524,21.9047595 C14.6395351,21.4890487 15.3750792,20.9612197 16.3136967,20.3067858 C19.1795718,18.3137153 19.5874061,15.5874386 18.4989236,12.6658387 C18.0120867,14.4812458 17.1443029,16.4231419 16.1713023,17.5925284 Z M15.4026001,16.9529215 C16.8118596,15.2592237 17.862239,11.9298152 17.9092041,10.1292786 C17.9100393,10.0972596 17.9101706,10.064722 17.9095979,10.0316658 C17.9076871,9.92387727 17.9935537,9.83498301 18.101343,9.83311564 C18.1713315,9.83190313 18.2366111,9.8682593 18.2724306,9.92839936 C19.4864801,11.9667621 22.0739224,17.5188932 16.8846489,21.1277691 C15.3958263,22.1658245 14.545031,22.7974745 14.0611661,23.181823 C14.0363507,23.2015347 14.0122591,23.2207585 13.9888914,23.2394944 C13.7794618,23.4074272 13.4735506,23.3737741 13.305627,23.1643372 C13.2609897,23.1086649 13.2291578,23.0438473 13.212392,22.9744874 C12.942901,21.8596115 12.883775,19.9878773 15.4026001,16.9529215 Z"/>
</svg>
