<svg viewBox="0 0 512 512" width="32" height="32">
  <path d="M33 453c-4 8-13 12-21 8l-3-2c-7-3-11-13-8-21l184-429c3-8 12-11 20-7l3 1c8 4 12 14 8 22z m478-205l-85 213c-3 6-9 10-16 10-2 0-4 0-5 0 0 0-36-11-41-13-19-6-33-8-44-8-55 0-32 62-110 62-22 0-53-5-97-19 0 0-39-11-39-11-8-3-12-11-8-19l103-235c3-6 10-10 16-10 2 0 4 0 6 1 0 0 16 5 28 9 26 9 46 12 61 12 56 0 56-44 113-44 22 0 53 7 99 25l10 5c8 4 12 14 9 22z m-118-20c-18 0-25 6-37 15-16 12-37 29-76 29-20 0-43-4-70-13-6-2-12-4-17-6l-90 204 20 5c37 12 66 18 87 18 25 0 30-7 40-21 11-16 28-41 70-41 15 0 33 3 54 10 3 1 17 5 27 8l75-187c-36-14-64-21-83-21z"/>
</svg>