<svg viewBox="0 0 512 512" width="32" height="32">
  <path d="M294 480l11-56 3-16 15-7c9-4 17-9 25-14l14-10 15 5 54 19 38-66-43-37-12-11 1-16c1-5 1-10 1-15 0-5 0-10-1-15l-1-16 12-11 43-37-38-66-54 19-15 5-14-10c-8-5-16-10-25-14l-15-7-3-16-11-56-76 0-11 56-3 16-15 7c-9 4-17 9-25 14l-14 10-15-5-54-19-38 66 43 37 12 11-1 16c-1 5-1 10-1 15 0 5 0 10 1 15l1 16-12 11-43 37 38 66 54-19 15-5 14 10c8 5 16 10 25 14l15 7 3 16 11 56 76 0m-38-320c53 0 96 43 96 96 0 53-43 96-96 96-53 0-96-43-96-96 0-53 43-96 96-96m48 352l-96 0c-9 0-17-7-19-16l-13-66c-11-5-21-10-31-17l-63 21c-2 1-4 1-6 1-7 0-14-3-18-9l-48-84c-4-8-2-18 5-24l50-44c-1-6-1-12-1-18 0-6 0-12 1-18l-51-44c-6-6-8-17-4-24l48-84c4-6 11-9 18-9 2 0 4 0 6 1l63 21c10-7 20-12 31-17l13-66c2-9 10-16 19-16l96 0c9 0 17 7 19 16l13 66c11 5 21 10 31 17l63-21c2-1 4-1 6-1 7 0 14 3 18 9l48 84c4 7 2 18-5 24l-50 44c1 6 1 12 1 18 0 6 0 12-1 18l50 44c7 6 9 17 5 24l-48 84c-4 6-11 9-18 9-2 0-4 0-6-1l-63-21c-10 7-20 12-31 17l-13 66c-2 9-10 16-19 16z m-48-320c-35 0-64 29-64 64 0 35 29 64 64 64 35 0 64-29 64-64 0-35-29-64-64-64z"/>
</svg>