<svg xmlns="http://www.w3.org/2000/svg" xmlns:xlink="http://www.w3.org/1999/xlink" width="24px" height="24px" viewBox="0 0 24 24" version="1.1">
  <path d="M9.82156359,2.42749125 L9.89050434,1.87596527 C9.95305794,1.37553644 10.3784589,1 10.8827822,1 L13.1172178,1 C13.6215411,1 14.0469421,1.37553644 14.1094957,1.87596527 L14.1784364,2.42749125 C14.2453226,2.96258069 14.594285,3.42058792 15.0924312,3.62709401 L15.7328855,3.89259375 C16.2313156,4.09921748 16.8023149,4.02222552 17.2282184,3.69096722 L17.6671349,3.3495877 C18.0652236,3.03996316 18.6315719,3.07522273 18.9881823,3.43183314 L20.5681669,5.01181768 C20.9247773,5.36842808 20.9600368,5.93477638 20.6504123,6.33286507 L20.3090328,6.77178159 C19.9777745,7.19768512 19.9007825,7.76868444 20.1074062,8.26711449 L20.372906,8.90756876 C20.5794121,9.40571503 21.0374193,9.75467741 21.5725087,9.82156359 L22.1240347,9.89050434 C22.6244636,9.95305794 23,10.3784589 23,10.8827822 L23,13.1172178 C23,13.6215411 22.6244636,14.0469421 22.1240347,14.1094957 L21.5725087,14.1784364 C21.0374193,14.2453226 20.5794121,14.594285 20.372906,15.0924312 L20.1074062,15.7328855 C19.9007825,16.2313156 19.9777745,16.8023149 20.3090328,17.2282184 L20.6504123,17.6671349 C20.9600368,18.0652236 20.9247773,18.6315719 20.5681669,18.9881823 L18.9881823,20.5681669 C18.6315719,20.9247773 18.0652236,20.9600368 17.6671349,20.6504123 L17.2282184,20.3090328 C16.8023149,19.9777745 16.2313156,19.9007825 15.7328855,20.1074062 L15.0924312,20.372906 C14.594285,20.5794121 14.2453226,21.0374193 14.1784364,21.5725087 L14.1094957,22.1240347 C14.0469421,22.6244636 13.6215411,23 13.1172178,23 L10.8827822,23 C10.3784589,23 9.95305794,22.6244636 9.89050434,22.1240347 L9.82156359,21.5725087 C9.75467741,21.0374193 9.40571503,20.5794121 8.90756876,20.372906 L8.26711449,20.1074062 C7.76868444,19.9007825 7.19768512,19.9777745 6.77178159,20.3090328 L6.33286507,20.6504123 C5.93477638,20.9600368 5.36842808,20.9247773 5.01181768,20.5681669 L3.43183314,18.9881823 C3.07522273,18.6315719 3.03996316,18.0652236 3.3495877,17.6671349 L3.69096722,17.2282184 C4.02222552,16.8023149 4.09921748,16.2313156 3.89259375,15.7328855 L3.62709401,15.0924312 C3.42058792,14.594285 2.96258069,14.2453226 2.42749125,14.1784364 L1.87596527,14.1094957 C1.37553644,14.0469421 1,13.6215411 1,13.1172178 L1,10.8827822 C1,10.3784589 1.37553644,9.95305794 1.87596527,9.89050434 L2.42749125,9.82156359 C2.96258069,9.75467741 3.42058792,9.40571503 3.62709401,8.90756876 L3.89259375,8.26711449 C4.09921748,7.76868444 4.02222552,7.19768512 3.69096722,6.77178159 L3.3495877,6.33286507 C3.03996316,5.93477638 3.07522273,5.36842808 3.43183314,5.01181768 L5.01181768,3.43183314 C5.36842808,3.07522273 5.93477638,3.03996316 6.33286507,3.3495877 L6.77178159,3.69096722 C7.19768512,4.02222552 7.76868444,4.09921748 8.26711449,3.89259375 L8.90756876,3.62709401 C9.40571503,3.42058792 9.75467741,2.96258069 9.82156359,2.42749125 Z M12,16 C14.209139,16 16,14.209139 16,12 C16,9.790861 14.209139,8 12,8 C9.790861,8 8,9.790861 8,12 C8,14.209139 9.790861,16 12,16 Z"/>
</svg>
