<svg viewBox="0 0 512 512" width="32" height="32">
  <path d="M65 238c-1 6-1 12-1 18 0 6 0 12 1 18l-51 44c-6 6-8 17-4 24l48 84c5 7 15 11 24 8l63-21c10 7 20 12 31 17l13 66c2 9 10 16 19 16l96 0c9 0 17-7 19-16l13-66c11-5 21-10 31-17l63 21c9 3 19-1 24-8l48-84c4-7 2-18-4-24l-51-44c1-6 1-12 1-18 0-6 0-12-1-18l51-44c6-6 8-17 4-24l-48-84c-5-7-15-11-24-8l-63 21c-10-7-20-12-31-17l-13-66c-2-9-10-16-19-16l-96 0c-9 0-17 7-19 16l-13 66c-11 5-21 10-31 17l-63-21c-9-3-19 1-24 8l-48 84c-4 7-2 18 4 24z m255 18c0 35-29 64-64 64-35 0-64-29-64-64 0-35 29-64 64-64 35 0 64 29 64 64z"/>
</svg>