<svg viewBox="0 0 512 512" width="32" height="32">
  <path d="M133 133c-7 6-7 16 0 22l68 69-201 0 0-128c0-19 13-32 32-32l192 0 0 137-69-68c-6-7-16-7-22 0z m-133 283l0-160 80 0c-19 25-22 61-4 88 16 24 43 40 67 40 11 0 27-4 39-12 15-9 30-34 42-61l0 137-192 0c-19 0-32-13-32-32z m480 32l-224 0 0-137c12 27 27 52 42 61 12 8 28 12 39 12 24 0 51-16 67-40 18-27 15-63-4-88l112 0 0 160c0 19-13 32-32 32z m-133-293c7-6 7-16 0-22-6-7-16-7-22 0l-69 68 0-137 224 0c19 0 32 13 32 32l0 128-233 0z m15 109c21 11 29 42 15 62-10 16-27 26-40 26-6 0-15-3-22-7-8-5-21-27-35-58-4-10-8-20-12-31l33 1c31 1 56 4 61 7z m-183-7l33-1c-4 11-8 21-12 31-14 31-27 53-36 59-6 3-15 6-21 6-13 0-30-10-40-25-14-21-6-52 17-64 3-2 28-5 59-6z"/>
</svg>