<svg viewBox="0 0 512 512" width="32" height="32">
  <path d="M480 448l-448 0c-19 0-32-13-32-32l0-320c0-19 13-32 32-32l448 0c19 0 32 13 32 32l0 320c0 19-13 32-32 32z m-256-352l-192 0 0 128 169 0-68-69c-7-6-7-16 0-22 6-7 16-7 22 0l69 68z m-121 231c10 15 27 25 40 25 6 0 15-3 21-6 9-6 22-28 36-59 4-10 8-20 12-31l-33 1c-31 1-56 4-59 6-23 12-31 43-17 64z m121-16c-12 27-27 52-42 61-12 8-28 12-39 12-24 0-51-16-67-40-18-27-15-63 4-88l-48 0 0 160 192 0z m256-215l-224 0 0 105 69-68c6-7 16-7 22 0 7 6 7 16 0 22l-68 69 201 0z m-212 160c4 11 8 21 12 31 14 31 27 53 35 58 7 4 16 7 22 7 13 0 30-10 40-25 14-21 6-52-15-62-5-4-30-7-61-8-11-1-21-1-33-1z m212 0l-80 0c19 25 22 61 4 88-16 24-43 40-67 40-11 0-27-4-39-12-15-9-30-34-42-61l0 105 224 0z"/>
</svg>