<svg xmlns="http://www.w3.org/2000/svg" xmlns:xlink="http://www.w3.org/1999/xlink" width="24px" height="24px" viewBox="0 0 24 24" version="1.1">
  <path d="M13,9.02577006 C12.6896833,9.02153564 12.3701613,9.01362263 12.0416082,9.00205824 C11.6835271,9.01446508 11.3362514,9.02252886 11,9.02621266 L11,14 L13,14 L13,9.02577006 Z M19.4064256,8 L21,8 C22.1045695,8 23,8.8954305 23,10 L23,13 C23,13.7402824 22.5978014,14.3866262 22,14.7324356 L22,21 C22,22.1045695 21.1045695,23 20,23 L4,23 C2.8954305,23 2,22.1045695 2,21 L2,14.7324356 C1.40219863,14.3866262 1,13.7402824 1,13 L1,10 C1,8.8954305 1.8954305,8 3,8 L4.70816537,8 C4.6525615,7.96197732 4.59993606,7.92287601 4.550313,7.88269205 C2.8880766,6.53663955 2.6317589,4.09793955 3.9778114,2.43570315 C5.3238639,0.773466742 7.7625639,0.517149043 9.42480031,1.86320154 C10.4222482,2.67091893 11.7914719,4.27677024 12.0550992,7.76678007 C12.3196421,4.27724905 13.6924483,2.67084878 14.6898095,1.86320154 C16.352046,0.517149043 18.790746,0.773466742 20.1367985,2.43570315 C21.482851,4.09793955 21.2265333,6.53663955 19.5642969,7.88269205 C19.5146762,7.92287409 19.4620442,7.96197545 19.4064256,8 Z M14.9128946,9 C14.6199,9.01316593 14.3155267,9.02189548 14,9.02622384 L14,14 L21,14 C21.5522847,14 22,13.5522847 22,13 L22,10 C22,9.44771525 21.5522847,9 21,9 L14.9128946,9 Z M9.21503445,9 L3,9 C2.44771525,9 2,9.44771525 2,10 L2,13 C2,13.5522847 2.44771525,14 3,14 L10,14 L10,9.02367819 C9.72994537,9.01907373 9.46824349,9.01118887 9.21503445,9 Z M13,15 L11,15 L11,22 L13,22 L13,15 Z M14,15 L14,22 L20,22 C20.5522847,22 21,21.5522847 21,21 L21,15 L14,15 Z M10,15 L3,15 L3,21 C3,21.5522847 3.44771525,22 4,22 L10,22 L10,15 Z M8.79547992,2.64034751 C7.56244937,1.64185906 5.75344581,1.831993 4.75495736,3.06502354 C3.75646891,4.29805408 3.94660285,6.10705765 5.17963339,7.10554609 C5.94039153,7.72159588 7.97381406,8.06410921 11.0728393,8.02499435 C10.9144742,5.29242103 10.072976,3.67484347 8.79547992,2.64034751 Z M18.9349765,7.10554609 C20.168007,6.10705765 20.3581409,4.29805408 19.3596525,3.06502354 C18.361164,1.831993 16.5521605,1.64185906 15.3191299,2.64034751 C14.0391386,3.67686409 13.1959815,5.29458626 13.0372395,8.02590687 C16.1367258,8.06488077 18.1741148,7.72167975 18.9349765,7.10554609 Z"/>
</svg>
