<svg viewBox="0 0 512 512" width="32" height="32">
  <path d="M480 352l-22 0c9 10 16 22 19 35 6 26 3 55-10 77-16 29-48 48-83 48-16 0-35-3-48-13-38-22-67-102-77-137l-3-10-3 10c-10 35-39 115-77 137-16 10-32 13-48 13-35 0-67-19-83-48-13-22-16-51-10-77 3-13 10-25 19-35l-22 0c-19 0-32-13-32-32l0-96c0-19 13-32 32-32l0-160c0-19 16-32 32-32l384 0c19 0 32 13 32 32l0 160c19 0 32 13 32 32l0 96c0 19-13 32-32 32z m-288-320l-128 0 0 160 128 0z m0 192l-160 0 0 96 157 0c0 0 0 0 3 0z m16 128c-29 0-96 0-112 10-32 16-42 57-22 86 12 19 35 32 54 32 10 0 22-3 32-10 32-19 61-118 61-118 0 0-3 0-13 0z m80-320l-64 0 0 288 64 0z m0 320c0 0 32 102 61 118 9 7 22 10 32 10 22 0 45-13 54-32 19-32 10-70-22-86-16-7-80-10-112-10-7 0-13 0-13 0z m160-320l-128 0 0 160 128 0z m32 192l-160 0 0 96c0 0 3 0 3 0l157 0z"/>
</svg>