<svg xmlns="http://www.w3.org/2000/svg" xmlns:xlink="http://www.w3.org/1999/xlink" width="24px" height="24px" viewBox="0 0 24 24" version="1.1">
  <path d="M11,13.5403124 L11,20 L23,20 L23,13 L11.9253905,13 L15.8123475,16.1095656 C16.0279785,16.2820704 16.0629392,16.5967166 15.8904344,16.8123475 C15.7179296,17.0279785 15.4032834,17.0629392 15.1876525,16.8904344 L11,13.5403124 Z M10,13.5403124 L5.81234752,16.8904344 C5.59671656,17.0629392 5.28207037,17.0279785 5.1095656,16.8123475 C4.93706082,16.5967166 4.97202151,16.2820704 5.18765248,16.1095656 L9.07460947,13 L1,13 L1,20 L10,20 L10,13.5403124 Z M11,10.1742471 C11.885349,8.20836936 12.7063036,6.97977251 13.4628639,6.48845652 C15.0518812,5.45653658 17.1765707,5.90815327 18.2084906,7.49717063 C19.1650891,8.97020301 18.8468184,10.9035623 17.5294174,12 L23,12 L23,4 L11,4 L11,10.1742471 Z M10,10.1635748 L10,4 L1,4 L1,12 L3.47539158,12 C2.15799056,10.9035623 1.83971992,8.97020301 2.79631833,7.49717063 C3.82823827,5.90815327 5.95292774,5.45653658 7.54194509,6.48845652 C8.29713538,6.97888282 9.11648701,8.20392226 10,10.1635748 Z M1.5,3 L22.5,3 C23.4,3 24,3.6 24,4.5 L24,7.5 L24,12 L24,19.5 C24,20.4 23.4,21 22.5,21 L1.5,21 C0.6,21 0,20.4 0,19.5 L0,12 L0,7.5 L0,4.5 C0,3.6 0.6,3 1.5,3 Z M6.99730606,7.32712709 C5.87147367,6.59600298 4.366113,6.91597727 3.6349889,8.04180966 C2.90386479,9.16764205 3.22383908,10.6730027 4.34967147,11.4041268 C5.05443797,11.8618075 6.86531999,12.0745409 9.67522176,11.9643827 C8.63296619,9.35260441 7.70207255,7.7848078 6.99730606,7.32712709 Z M16.6551375,11.4041268 C17.7809699,10.6730027 18.1009442,9.16764205 17.3698201,8.04180966 C16.638696,6.91597727 15.1333353,6.59600298 14.0075029,7.32712709 C13.3027364,7.7848078 12.3718428,9.35260441 11.3295872,11.9643827 C14.139489,12.0745409 15.950371,11.8618075 16.6551375,11.4041268 Z"/>
</svg>
