<svg xmlns="http://www.w3.org/2000/svg" xmlns:xlink="http://www.w3.org/1999/xlink" width="24px" height="24px" viewBox="0 0 24 24" version="1.1">
  <path d="M6.69705628,3.89860147 C6.2415389,5.05068427 5.04054412,6.25107422 3.89376221,6.70378152 L2.59731174,7.2154219 L3.89366715,7.72702507 C5.04571501,8.18154161 6.24397456,9.38428112 6.69632421,10.5338609 L7.20550653,11.828253 L7.7141118,10.5353283 C8.16770709,9.38189926 9.36850921,8.18170295 10.5167111,7.72843509 L11.8131625,7.21679436 L10.514602,6.70431889 C9.36516646,6.24768099 8.16711163,5.04463805 7.71551942,3.89698317 L7.20660676,2.60327701 L6.69705628,3.89860147 Z M7.20592181,1 C7.47998171,1 7.7540416,1.26352237 7.96095682,1.78919458 L8.64610656,3.53091272 C8.99553292,4.41892819 9.98900004,5.41948967 10.8838056,5.77497037 L12.6227156,6.46122653 C13.6792165,6.87847027 13.6668838,7.55923638 12.6227156,7.97236259 L10.8838056,8.65861875 C9.99722184,9.0086094 8.99827352,10.0023083 8.64473626,10.9013039 L7.95958652,12.643022 C7.7526713,13.1700668 7.47861141,13.4322166 7.20592181,13.4322166 C6.93186192,13.4322166 6.65780202,13.1686942 6.4508868,12.6416495 L5.76573707,10.8999314 C5.4163107,10.0119159 4.42421388,9.01135442 3.52666773,8.65724624 L1.7877577,7.97099008 C0.731256804,7.55374633 0.743589499,6.87298022 1.7877577,6.45985401 L3.52666773,5.77359785 C4.41325149,5.42360721 5.4121998,4.42853578 5.76710737,3.53091272 L6.4522571,1.78919458 C6.65917232,1.26214985 6.93323222,1 7.20592181,1 Z M17.9669072,8.80130053 C17.5926749,9.75164392 16.5944026,10.7542118 15.6427302,11.1287532 L15.1231769,11.3338066 L15.6416711,11.5386602 C16.5909559,11.9136839 17.5919094,12.9135703 17.9655261,13.8659627 L18.1676324,14.379157 L18.369728,13.86599 C18.7439603,12.9156466 19.7422326,11.9130788 20.6935665,11.538671 L21.2124964,11.3336453 L20.6935938,11.1286304 C19.744309,10.7536066 18.7433555,9.75372022 18.3697388,8.80132786 L18.1683185,8.28987112 L17.9669072,8.80130053 Z M18.1683176,6.49279431 C18.3957873,6.49279431 18.623257,6.71239628 18.7931742,7.14748269 L19.300185,8.43489925 C19.5742449,9.13350802 20.3731294,9.92682014 21.0610198,10.1985776 L22.3463607,10.7064071 C23.2233524,11.0536528 23.21239,11.6191278 22.3463607,11.9608834 L21.0610198,12.468713 C20.3635374,12.7432154 19.5715043,13.5433901 19.300185,14.2323913 L18.7931742,15.5198078 C18.6218867,15.9576393 18.394417,16.1744962 18.1683176,16.1744962 C17.9408479,16.1744962 17.7133782,15.9548943 17.5420907,15.5198078 L17.0350799,14.2323913 C16.76102,13.5337825 15.9621354,12.7404704 15.2742451,12.468713 L13.9889042,11.9608834 C13.1119125,11.6136378 13.1228749,11.0481627 13.9889042,10.7064071 L15.2756154,10.1985776 C15.9730978,9.92407511 16.7651309,9.12390043 17.0364502,8.43489925 L17.543461,7.14748269 C17.7147485,6.70965126 17.9422182,6.49279431 18.1683176,6.49279431 Z M10.5724588,16.8683479 C10.2573279,17.6666111 9.42600989,18.5021037 8.62146354,18.8216264 L8.46565211,18.8831495 L8.62242085,18.9450507 C9.41986948,19.2608776 10.254018,20.093541 10.5726909,20.8985392 L10.6314346,21.0476199 L10.6908822,20.8965782 C11.0060131,20.098315 11.8373311,19.2628223 12.6418774,18.9432997 L12.7976889,18.8817765 L12.6409201,18.8198753 C11.8434715,18.5040484 11.009323,17.671385 10.6906501,16.8663869 L10.6319064,16.7173062 L10.5724588,16.8683479 Z M10.6316705,14.7649261 C10.8207718,14.7649261 11.0098731,14.9488427 11.1537546,15.313931 L11.6210267,16.4997816 C11.8389043,17.0501591 12.4719827,17.6773972 13.0091401,17.8901366 L14.1944491,18.3581633 C14.926189,18.6477634 14.9248187,19.1171626 14.1944491,19.4053902 L13.0091401,19.8734169 C12.45965,20.0916464 11.8334231,20.7257471 11.6210267,21.2637719 L11.1537546,22.4509951 C11.0098731,22.8174559 10.8207718,23 10.6316705,23 C10.4425692,23 10.2534678,22.8160833 10.1095864,22.4509951 L9.64231428,21.2651444 C9.42443666,20.714767 8.7913583,20.0875289 8.25420091,19.8747894 L7.06889187,19.4067627 C6.33715195,19.1171626 6.33852225,18.6477634 7.06889187,18.3595358 L8.25420091,17.8915091 C8.803691,17.6732797 9.42991786,17.039179 9.64231428,16.5011542 L10.1095864,15.313931 C10.2534678,14.9474702 10.4425692,14.7649261 10.6316705,14.7649261 Z"/>
</svg>
