<svg xmlns="http://www.w3.org/2000/svg" xmlns:xlink="http://www.w3.org/1999/xlink" width="24px" height="24px" viewBox="0 0 24 24" version="1.1">
  <path d="M7.20592181,1 C6.93323222,1 6.65917232,1.26214985 6.4522571,1.78919458 L5.76710737,3.53091272 C5.4121998,4.42853578 4.41325149,5.42360721 3.52666773,5.77359785 L1.7877577,6.45985401 C0.743589499,6.87298022 0.731256804,7.55374633 1.7877577,7.97099008 L3.52666773,8.65724624 C4.42421388,9.01135442 5.4163107,10.0119159 5.76573707,10.8999314 L6.4508868,12.6416495 C6.65780202,13.1686942 6.93186192,13.4322166 7.20592181,13.4322166 C7.47861141,13.4322166 7.7526713,13.1700668 7.95958652,12.643022 L8.64473626,10.9013039 C8.99827352,10.0023083 9.99722184,9.0086094 10.8838056,8.65861875 L12.6227156,7.97236259 C13.6668838,7.55923638 13.6792165,6.87847027 12.6227156,6.46122653 L10.8838056,5.77497037 C9.98900004,5.41948967 8.99553292,4.41892819 8.64610656,3.53091272 L7.96095682,1.78919458 C7.7540416,1.26352237 7.47998171,1 7.20592181,1 Z M18.1683176,6.49279431 C17.9422182,6.49279431 17.7147485,6.70965126 17.543461,7.14748269 L17.0364502,8.43489925 C16.7651309,9.12390043 15.9730978,9.92407511 15.2756154,10.1985776 L13.9889042,10.7064071 C13.1228749,11.0481627 13.1119125,11.6136378 13.9889042,11.9608834 L15.2742451,12.468713 C15.9621354,12.7404704 16.76102,13.5337825 17.0350799,14.2323913 L17.5420907,15.5198078 C17.7133782,15.9548943 17.9408479,16.1744962 18.1683176,16.1744962 C18.394417,16.1744962 18.6218867,15.9576393 18.7931742,15.5198078 L19.300185,14.2323913 C19.5715043,13.5433901 20.3635374,12.7432154 21.0610198,12.468713 L22.3463607,11.9608834 C23.21239,11.6191278 23.2233524,11.0536528 22.3463607,10.7064071 L21.0610198,10.1985776 C20.3731294,9.92682014 19.5742449,9.13350802 19.300185,8.43489925 L18.7931742,7.14748269 C18.623257,6.71239628 18.3957873,6.49279431 18.1683176,6.49279431 Z M10.6316705,14.7649261 C10.4425692,14.7649261 10.2534678,14.9474702 10.1095864,15.313931 L9.64231428,16.5011542 C9.42991786,17.039179 8.803691,17.6732797 8.25420091,17.8915091 L7.06889187,18.3595358 C6.33852225,18.6477634 6.33715195,19.1171626 7.06889187,19.4067627 L8.25420091,19.8747894 C8.7913583,20.0875289 9.42443666,20.714767 9.64231428,21.2651444 L10.1095864,22.4509951 C10.2534678,22.8160833 10.4425692,23 10.6316705,23 C10.8207718,23 11.0098731,22.8174559 11.1537546,22.4509951 L11.6210267,21.2637719 C11.8334231,20.7257471 12.45965,20.0916464 13.0091401,19.8734169 L14.1944491,19.4053902 C14.9248187,19.1171626 14.926189,18.6477634 14.1944491,18.3581633 L13.0091401,17.8901366 C12.4719827,17.6773972 11.8389043,17.0501591 11.6210267,16.4997816 L11.1537546,15.313931 C11.0098731,14.9488427 10.8207718,14.7649261 10.6316705,14.7649261 Z"/>
</svg>
