<svg viewBox="0 0 512 512" width="32" height="32">
  <path d="M0 448c0 35 28 64 64 64 35 0 64-28 64-64 0-35-28-64-64-64-35 0-64 28-64 64z m32 0c0-18 14-32 32-32 18 0 32 14 32 32 0 18-14 32-32 32-18 0-32-14-32-32z m160 0c0 35 28 64 64 64 35 0 64-28 64-64 0-35-28-64-64-64-35 0-64 28-64 64z m32 0c0-18 14-32 32-32 18 0 32 14 32 32 0 18-14 32-32 32-18 0-32-14-32-32z m160 0c0 35 28 64 64 64 35 0 64-28 64-64 0-35-28-64-64-64-35 0-64 28-64 64z m32 0c0-18 14-32 32-32 18 0 32 14 32 32 0 18-14 32-32 32-18 0-32-14-32-32z m-416-192c0 35 28 64 64 64 35 0 64-28 64-64 0-35-28-64-64-64-35 0-64 28-64 64z m32 0c0-18 14-32 32-32 18 0 32 14 32 32 0 18-14 32-32 32-18 0-32-14-32-32z m160 0c0 35 28 64 64 64 35 0 64-28 64-64 0-35-28-64-64-64-35 0-64 28-64 64z m32 0c0-18 14-32 32-32 18 0 32 14 32 32 0 18-14 32-32 32-18 0-32-14-32-32z m160 0c0 35 28 64 64 64 35 0 64-28 64-64 0-35-28-64-64-64-35 0-64 28-64 64z m32 0c0-18 14-32 32-32 18 0 32 14 32 32 0 18-14 32-32 32-18 0-32-14-32-32z m-416-192c0 35 28 64 64 64 35 0 64-28 64-64 0-35-28-64-64-64-35 0-64 28-64 64z m32 0c0-18 14-32 32-32 18 0 32 14 32 32 0 18-14 32-32 32-18 0-32-14-32-32z m160 0c0 35 28 64 64 64 35 0 64-28 64-64 0-35-28-64-64-64-35 0-64 28-64 64z m32 0c0-18 14-32 32-32 18 0 32 14 32 32 0 18-14 32-32 32-18 0-32-14-32-32z m160 0c0 35 28 64 64 64 35 0 64-28 64-64 0-35-28-64-64-64-35 0-64 28-64 64z m32 0c0-18 14-32 32-32 18 0 32 14 32 32 0 18-14 32-32 32-18 0-32-14-32-32z"/>
</svg>