<svg viewBox="0 0 512 512" width="32" height="32">
  <path d="M0 448c0 35 28 64 64 64 35 0 64-28 64-64 0-35-28-64-64-64-35 0-64 28-64 64z m192 0c0 35 28 64 64 64 35 0 64-28 64-64 0-35-28-64-64-64-35 0-64 28-64 64z m192 0c0 35 28 64 64 64 35 0 64-28 64-64 0-35-28-64-64-64-35 0-64 28-64 64z m-384-192c0 35 28 64 64 64 35 0 64-28 64-64 0-35-28-64-64-64-35 0-64 28-64 64z m192 0c0 35 28 64 64 64 35 0 64-28 64-64 0-35-28-64-64-64-35 0-64 28-64 64z m192 0c0 35 28 64 64 64 35 0 64-28 64-64 0-35-28-64-64-64-35 0-64 28-64 64z m-384-192c0 35 28 64 64 64 35 0 64-28 64-64 0-35-28-64-64-64-35 0-64 28-64 64z m192 0c0 35 28 64 64 64 35 0 64-28 64-64 0-35-28-64-64-64-35 0-64 28-64 64z m192 0c0 35 28 64 64 64 35 0 64-28 64-64 0-35-28-64-64-64-35 0-64 28-64 64z"/>
</svg>