<svg viewBox="0 0 512 512" width="32" height="32">
  <path d="M71 132l-2-8c-10-35 18-63 53-53l30 8 8-30c9-35 47-45 72-20l23 24-8 7 29-31c25-25 64-15 72 20l8 31 31-9c34-10 62 18 52 53l-2 8-32 0 5-17c3-11-4-17-15-14l-41 11c-11 3-22-3-25-14l-11-42c-3-11-11-13-19-5l-30 31c-8 8-21 8-29 0l-30-31c-8-8-17-6-20 5l-10 42c-3 11-15 17-26 14l-41-11c-11-3-17 3-14 14l5 17-33 0z m0 248l-2 8c-10 35 18 63 53 53l30-8 8 30c9 35 47 45 72 20l22-23 22 23c25 25 64 15 72-20l9-30 30 8c34 10 62-18 52-53l-2-8-32 0 4 17c4 11-3 17-14 14l-41-11c-11-3-22 3-25 14l-11 42c-3 11-11 13-20 5l-29-31c-8-8-21-8-29 0l-30 31c-8 8-17 6-20-5l-10-42c-3-11-15-17-26-14l-41 11c-11 3-17-3-14-14l5-17-33 0z m-32-124l-25 25c-28 28-12 68 28 68l428 0c40 0 56-40 28-68l-25-25 25-25c28-28 12-68-28-68l-428 0c-39 0-56 40-28 68z m-3-47c-8-8-6-15 6-15l428 0c12 0 15 6 6 15l-32 32c-8 8-8 22 0 30l32 32c8 8 6 15-6 15l-428 0c-12 0-14-6-6-15l32-32c9-8 9-22 0-30z"/>
</svg>