<svg viewBox="0 0 512 512" width="32" height="32">
  <path d="M306 507c-179 35-336-122-301-301 19-101 100-182 201-201 179-35 336 122 301 301-19 101-100 182-201 201z m-26-474c-144-14-261 103-247 247 11 104 95 188 199 199 144 14 261-103 247-247-11-104-95-188-199-199z m-104 255c18 0 32 14 32 32 0 18-14 32-32 32-18 0-32-14-32-32 0-18 14-32 32-32z m160 0c18 0 32 14 32 32 0 18-14 32-32 32-18 0-32-14-32-32 0-18 14-32 32-32z m-80-160c50 0 91 38 96 87 0 5-4 9-8 9l-176 0c-4 0-8-4-8-9 5-49 46-87 96-87z"/>
</svg>