<svg viewBox="0 0 512 512" width="32" height="32">
  <path d="M211 320c-3-10-13-16-22-16-10 0-13 10-13 16 10 38 42 64 80 64 45 0 80-35 80-80 0-38-29-70-64-77l0-16c0-13-6-19-16-19-10 0-16 6-16 16l0 32c0 10 6 16 16 16 26 0 48 22 48 48 0 26-22 48-48 48-22 0-38-13-45-32z m45 192c-141 0-256-115-256-256 0-141 115-256 256-256 141 0 256 115 256 256 0 141-115 256-256 256z m0-480c-125 0-224 99-224 224 0 125 99 224 224 224 125 0 224-99 224-224 0-125-99-224-224-224z m0 96c10 0 16 6 16 16 0 10-6 16-16 16-10 0-16-6-16-16 0-10 6-16 16-16z"/>
</svg>