<svg viewBox="0 0 512 512" width="32" height="32">
  <path d="M256 455c1 0 3 0 3-1l212-185-39-15-17-6-2-18-12-171c0-1-1-2-2-2l-86 0 0 128c0 24-19 43-43 43l-29 0c-24 0-42-19-42-43l-1-128-84 0c-1 0-3 1-3 2l-11 171-2 18-17 6-40 15 212 185c1 1 2 1 3 1m0 29c-8 0-16-3-22-8l-226-198c-12-11-10-24 5-29l58-21 12-171c1-16 15-28 31-28l84-1 0 0c16 0 30 13 30 29l0 128c0 8 5 14 13 14l29 0c8 0 14-6 14-14l0-128c0-16 13-29 29-29l86 0c15 0 29 13 30 29l13 171 57 21c15 5 17 18 5 29l-226 198c-6 5-14 8-22 8z"/>
</svg>