<svg viewBox="0 0 512 512" width="32" height="32">
  <path d="M367 356c3-3 7-7 11-13 7-9 11-21 11-33 0-13-4-25-11-34-1-2-2-3-3-4-3-4-6-7-8-9l11 16c-1-3-2-6-4-11-3-9-6-17-9-25-2-7-5-13-7-18-1-2-1-2-2-4 0 0-1-3-2-7-1-6-2-12-2-16l-1-12-9-8-10-9 10 21c0-1 0-3 0-5-1-8-1-16 0-23 0-4 1-9 1-9 0 0 20-9 24-11 11-5 21-9 32-12 30-7 51-23 65-45 13-19 17-38 17-53 0-1-1-32-1-32l-447 0-1 31c0 16 4 35 16 54 14 22 36 38 65 45 11 3 21 7 32 12 4 1 25 11 25 11 0 0 1 4 1 9 0 5 0 16 0 16l0 0-9 8-1 12c-1 4-1 10-3 16 0 4-1 7-1 7-1 2-1 2-2 4-2 5-5 11-8 18-3 8-6 16-8 25l-2 4c-1 1-2 2-3 4-6 9-10 21-10 34 0 11 3 21 8 29 0 2 0-3 0 1-4 20-6 39-6 55 0 41 17 74 46 93 21 16 49 24 81 24l7 0c32 0 60-8 80-23 30-20 46-53 46-94 0-19-3-43-7-63 0-3 0-3 0-4z"/>
</svg>