<svg viewBox="0 0 512 512" width="32" height="32">
  <path d="M294 156c-9 2-17 5-26 9-3 1-19 7-19 8-1 2-1 5-1 8-1 6-1 12-1 12l1 1 7 6 1 10c0 3 1 8 2 12 0 4 1 6 1 6 1 1 1 1 1 3 2 4 4 9 7 15 2 6 4 13 7 19 0 1 0 2 1 3 0 1 1 3 2 4 5 7 9 16 9 27 0 9-3 17-7 24 0 0 0 0 0 0 0 0 0 0 0 0 3 15 5 31 5 44 0 33-14 59-38 76-16 12-38 18-64 18l-5 0c-26 0-48-6-65-19-24-16-37-42-37-75 0-15 5-43 5-44-4-7-7-15-7-24 0-10 3-20 9-27 1-1 1-3 2-4 0 0 0 0 0 0 0 0 0 0 1-3 3-6 5-13 7-19 2-6 4-11 6-15 1-2 1-2 2-3 0 0 1-2 1-6 1-4 2-9 2-12l1-10 7-6 0-1c0 0 0-8 0-12 0-4-1-8-1-8 0 0-16-7-19-8-9-4-17-7-26-9-23-7-41-19-52-36-10-16-13-31-13-44l1-25 357 0c0 0 1 25 1 25 0 13-3 28-13 44-11 17-29 29-52 36z m-268-79c0 0-2 41 46 54 22 6 37 14 52 20 2 1 3 2 4 3 12 8 8 51 8 51l-8 8c0 0-2 19-5 26-8 16-16 43-16 43 0 0-8 6-8 17 0 11 8 17 8 17 0 0 0 1 0 3-2 9-6 31-6 48 0 26 10 43 26 54 12 9 29 14 50 14l5 0c21 0 38-5 50-14 16-11 26-28 26-54 0-17-4-39-6-48 0-2 0-3 0-3 0 0 8-6 8-17 0-11-8-17-8-17 0 0-8-27-16-43-4-7-6-26-6-26l-8-8c0 0-3-43 8-51 2-1 3-2 5-3 15-6 30-14 52-20 47-13 46-54 46-54l-307 0z m473 307l-64 0 0 64c0 7-6 13-13 13-6 0-12-6-12-13l0-64-64 0c-7 0-13-6-13-13 0-7 6-13 13-13l64 0 0-64c0-7 5-12 12-12 7 0 13 5 13 12l0 64 64 0c7 0 13 6 13 13 0 7-6 13-13 13z"/>
</svg>