<svg viewBox="0 0 512 512" width="32" height="32">
  <path d="M294 156c-9 2-17 5-26 9-3 1-19 8-19 8 0 0-1 5-1 8-1 4 0 8 0 13l0 0 7 6 1 10c0 3 1 8 2 12 0 4 1 6 1 6 1 1 1 1 1 3 2 4 4 9 7 15 2 6 4 13 7 19 0 1 0 2 1 3 0 0 0 0 0 1 1 1 1 2 2 3 5 7 9 17 9 27 0 9-3 17-7 24 2 14 5 30 5 44 0 33-14 59-38 76-16 12-38 18-64 18l-5 0c-26 0-48-6-65-19-24-16-37-42-37-75 0-13 2-28 5-44 0 0 0 0 0 0 0 0 0 0 0 0-4-7-7-15-7-24 0-10 3-20 9-27 0-1 1-2 2-3l1-4c3-6 5-13 7-19 2-6 4-11 6-15 1-2 1-2 2-3 0 0 1-2 1-6 1-4 2-9 2-12l1-10 7-6 0-1c0 0 0-8 0-12 0-4-1-8-1-8 0 0-16-7-19-8-9-4-17-7-26-9-23-7-41-19-52-36-10-16-13-31-13-44l1-25 357 0c0 0 1 25 1 25 0 13-3 28-13 44-11 17-29 29-52 36z m205 228l-64 0 0 64c0 7-6 13-13 13-6 0-12-6-12-13l0-64-64 0c-7 0-13-6-13-13 0-7 6-13 13-13l64 0 0-64c0-7 5-12 12-12 7 0 13 5 13 12l0 64 64 0c7 0 13 6 13 13 0 7-6 13-13 13z"/>
</svg>