<svg viewBox="0 0 512 512" width="32" height="32">
  <path d="M449 32c0 0 1 52-58 67-28 8-47 19-65 26-2 1-4 2-6 3-15 10-10 64-10 64l10 10c0 0 3 24 7 33 10 20 20 53 20 53 0 0 10 8 10 22 0 13-10 21-10 21 0 0 0 1 0 4 3 11 7 39 7 60 0 32-12 54-32 68-15 11-36 17-62 17l-7 0c-26 0-47-6-62-17-21-14-33-36-33-68 0-21 5-49 7-60 0-3 1-4 1-4 0 0-10-8-10-21 0-14 10-22 10-22 0 0 10-33 20-53 4-9 7-33 7-33l10-10c0 0 4-54-10-63-2-2-4-3-6-4-18-7-37-18-65-25-60-16-58-68-58-68m-31-32l-1 31c0 16 4 35 16 54 14 22 36 38 65 45 11 3 21 7 32 12 4 1 25 11 25 11 0 0 1 4 1 9 0 5 0 16 0 16l0 0-9 8-1 12c-1 4-1 10-3 16 0 4-1 7-1 7-1 2-1 2-2 4-2 5-5 11-8 18-3 8-6 16-8 25-2 5-2 3-2 3 0 0 0 0 0 1-1 1-2 2-3 4-6 9-10 21-10 34 0 11 3 21 8 29 0 2-6 37-6 56 0 41 17 74 46 93 21 16 49 24 81 24l7 0c32 0 60-8 80-23 30-20 46-53 46-94 0-17-2-37-5-55 0 0 0 0 0 0-1-3-3 3-3 3 7-9 11-21 11-33 0-13-4-25-11-34-1-2-2-3-3-5 0 0 0 0 0 0-3-3-6-6-8-8l11 16c-1-3-2-6-4-11-3-9-6-17-9-25-2-7-5-13-7-18-1-2-1-2-2-4 0 0-1-3-2-7-1-6-2-12-2-16l-1-12-9-8-1 0c0 0 0-9 1-16 0-4 0-7 1-9 0-1 20-9 24-11 11-5 21-9 32-12 30-7 51-23 65-45 13-19 17-38 17-53 0-1-1-32-1-32z"/>
</svg>