<svg viewBox="0 0 512 512" width="32" height="32">
  <path d="M64 256c0 9-7 16-16 16l-32 0c-9 0-16-7-16-16 0-9 7-16 16-16l32 0c9 0 16 7 16 16z m4-90l-28-16c-8-5-10-14-6-22 5-7 15-10 22-6l28 16c8 5 10 14 6 22-5 7-15 10-22 6z m92-76c-7 4-17 1-22-6l-16-28c-4-8-2-17 6-22 7-4 17-1 22 6l16 28c4 8 2 17-6 22z m192 332c7-4 17-1 22 6l16 28c4 8 2 17-6 22-7 4-17 1-22-6l-16-28c-4-8-2-17 6-22z m-214 6c5-8 14-10 22-6 7 5 10 15 6 22l-16 28c-5 8-14 10-22 6-7-5-10-15-6-22z m118 20c9 0 16 7 16 16l0 32c0 9-7 16-16 16-9 0-16-7-16-16l0-32c0-9 7-16 16-16z m-216-86l28-16c8-4 17-2 22 6 4 7 1 17-6 22l-28 16c-8 4-17 2-22-6-4-7-1-17 6-22z m432-212l-28 16c-8 4-17 2-22-6-4-7-1-18 6-22l28-16c8-4 17-2 22 6 4 7 1 17-6 22z m-28 196l28 16c8 5 10 14 6 22-5 7-15 10-22 6l-28-16c-8-5-10-14-6-22 5-7 15-10 22-6z m52-74l-32 0c-9 0-16-7-16-16 0-9 7-16 16-16l32 0c9 0 16 7 16 16 0 9-7 16-16 16z m-122-188c-5 8-14 10-22 6-7-5-10-15-6-22l16-28c5-8 14-10 22-6 7 5 10 15 6 22z m-118-20c-9 0-16-7-16-16l0-32c0-9 7-16 16-16 9 0 16 7 16 16l0 32c0 9-7 16-16 16z m0 352c-88 0-160-72-160-160 0-88 72-160 160-160 88 0 160 72 160 160 0 88-72 160-160 160z m0-288c-71 0-128 57-128 128 0 71 57 128 128 128 71 0 128-57 128-128 0-71-57-128-128-128z"/>
</svg>