<svg xmlns="http://www.w3.org/2000/svg" xmlns:xlink="http://www.w3.org/1999/xlink" width="24px" height="24px" viewBox="0 0 24 24" version="1.1">
  <path d="M16,3 L15,4 L5.00087166,4 C4.44463086,4 4,4.4481055 4,5.00087166 L4,18.9991283 C4,19.5553691 4.4481055,20 5.00087166,20 L18.9991283,20 C19.5553691,20 20,19.5518945 20,18.9991283 L20,9 L21,8 L21,19.0049107 C21,20.1067681 20.1073772,21 19.0049107,21 L4.99508929,21 C3.8932319,21 3,20.1073772 3,19.0049107 L3,4.99508929 C3,3.8932319 3.89208723,3 4.99710766,3 L16,3 Z M11.7353932,14.4736555 C11.5209819,14.6855545 11.364488,14.7466433 10.9359056,14.8780783 C10.8695654,14.8984231 10.7986443,14.9191964 10.7236194,14.940367 C10.4885265,15.0067056 10.2575834,15.065219 10.0992652,15.1030509 L8.52085003,15.4802307 L8.89358064,13.900759 C8.93114764,13.7415662 8.98940713,13.5097304 9.05600777,13.2734912 C9.07946239,13.1902953 9.10249284,13.1121066 9.12508648,13.039506 C9.25162269,12.6329047 9.31695107,12.4699223 9.52378246,12.2630909 L20.2456357,1.53853771 C20.6837735,1.10028951 21.384304,1.11888325 21.8064385,1.54842362 L22.4379534,2.19101767 C22.852215,2.61254699 22.8696069,3.30432261 22.4356461,3.73965217 L11.7353932,14.4736555 Z M11.0271739,13.767663 L21.7274268,3.03365968 C21.7654068,2.99555989 21.7629182,2.93081267 21.7247248,2.8919492 L21.09321,2.24935515 C21.0537377,2.2091904 20.9907842,2.20759317 20.9528315,2.24555546 L10.2309783,12.9701087 C10.1127717,13.0883152 9.86684783,14.1304348 9.86684783,14.1304348 C9.86684783,14.1304348 10.9130435,13.8804348 11.0271739,13.767663 Z"/>
</svg>
