<svg viewBox="0 0 512 512" width="32" height="32">
  <path d="M256 466c68 0 76 0 103-2 25-1 39-5 48-8 12-5 20-11 29-20 9-9 15-17 20-29 3-9 7-23 8-48 2-27 2-35 2-103 0-68 0-76-2-103-1-25-5-39-8-48-5-12-11-20-20-29-9-9-17-15-29-20-9-3-23-7-48-8-27-2-35-2-103-2-68 0-76 0-103 2-25 1-39 5-48 8-12 5-20 11-29 20-9 9-15 17-20 29-3 9-7 23-8 48-2 27-2 35-2 103 0 68 0 76 2 103 1 25 5 39 8 48 5 12 11 20 20 29 9 9 17 15 29 20 9 3 23 7 48 8 27 2 35 2 103 2m0 46c-70 0-78 0-106-2-27-1-45-5-62-11-17-7-31-16-45-30-14-14-23-28-30-45-6-17-10-35-11-62-2-28-2-36-2-106 0-70 0-78 2-106 1-27 5-45 11-62 7-17 16-31 30-45 14-14 28-23 45-30 17-6 35-10 62-11 28-2 36-2 106-2 70 0 78 0 106 2 27 1 45 5 62 11 17 7 31 16 45 30 14 14 23 28 30 45 6 17 10 35 11 62 2 28 2 36 2 106 0 70 0 78-2 106-1 27-5 45-11 62-7 17-16 31-30 45-14 14-28 23-45 30-17 6-35 10-62 11-28 2-36 2-106 2z m0-125c-73 0-131-58-131-131 0-73 58-131 131-131 73 0 131 58 131 131 0 73-58 131-131 131z m0-216c-47 0-85 38-85 85 0 47 38 85 85 85 47 0 85-38 85-85 0-47-38-85-85-85z m167 222c0-17-13-31-30-31-17 0-31 14-31 31 0 17 14 30 31 30 17 0 30-13 30-30z"/>
</svg>