<svg viewBox="0 0 512 512" width="32" height="32">
  <path d="M399 427l60-90c6-8 10-26 10-38l0-214c0-23-19-42-42-42l-150 0c7 6 15 12 22 21l128 0c12 0 21 11 21 21l0 214c0 8-4 21-9 27l-66 101-62 0-44-69c-7 3-15 3-24 5l43 64c-17 2-30 15-30 32 0 17 15 32 32 32l107 0c17 0 32-15 32-32 0-17-13-30-28-32z m-122 32c0-7 5-11 11-11l107 0c6 0 10 4 10 11 0 6-4 10-10 10l-107 0c-6 0-11-4-11-10z m-49-118c83 0 113-68 113-119 0-79-70-179-108-179-26 0-35 15-60 15-28 0-36-15-62-15-41 0-111 100-111 179 0 40 19 92 70 111-2 6-8 24-8 47 0 6 0 10 0 13 0 6 4 10 11 10l12 0c9 0 20-2 28-4 17-4 30-9 38-15l-2 19c0 7 3 12 9 13 6 1 13-4 13-9l10-78c11 4 28 12 47 12z m-149-27c-36-13-58-49-58-92 0-32 15-73 37-107 19-30 42-51 51-51 6 0 10 2 21 4l2 0c15 7 24 9 39 9l2 0c15 0 23-2 38-9l2 0c11-4 15-4 22-4 8 0 32 19 51 51 23 34 36 75 36 107 0 53-34 98-92 98-6 0-15-2-25-6-2 0-7-3-7-3-4 0-6-2-8-2-7-2-13-4-19-4 0 0 0 0-2 0-7 0-11 2-18 2-19-19-51-19-70 2 0 2-2 5-2 5z m6 42c4-16 9-27 13-32 11-10 30-10 41 0 10 11 10 30 0 41-5 6-14 8-30 13-8 2-18 4-26 4 0-9 1-17 2-26z m139-100c-6 0-11 4-11 11 0 6 5 10 11 10 6 0 13-2 21-4 13-6 22-19 22-38 0-7-5-11-11-11-6 0-11 4-11 11 0 10-4 15-10 19-5 2-9 2-11 2z"/>
</svg>