<svg xmlns="http://www.w3.org/2000/svg" xmlns:xlink="http://www.w3.org/1999/xlink" width="24px" height="24px" viewBox="0 0 24 24" version="1.1">
  <path d="M3.27093552,8.41100037 C3.43908358,8.88318986 3.64836363,9.26257719 3.89289322,9.50710678 C4.78341751,10.3976311 6.31658249,10.3976311 7.20710678,9.50710678 C8.07503773,8.63917583 8.09705786,7.16079921 7.27316718,6.26189323 C7.22664964,6.1997119 7.17761502,6.14255294 7.12554425,6.08964676 L7,5.1 C7,4.8 7.10560303,4.54837036 7.4,4.5 C7.69439697,4.45162964 8,4.7 8,4.9 L8.5,8.6 C9,8.4 9.8,8 10.7,8 C14.6,8 16,11.2 16,13.6 C16,17.3 12.7,22 10.9,22 C9.7,22 9.3,21.3 8.1,21.3 C6.8,21.3 6.4,22 5.2,22 C3.3,22 0,17.3 0,13.6 C0,11.7076892 0.892730206,9.31941724 3.27093552,8.41100037 Z M18.6666667,4 L21.4961509,8.24422632 C21.8246859,8.73702888 22,9.31605196 22,9.90832691 L22,20 C22,21.1045695 21.1045695,22 20,22 L13.0600788,22 C15.1035362,20.2452441 17,16.5206816 17,13.6 C17,10.2056515 14.9378323,7.31873299 11.3169008,7.02464878 L13.3390244,3.99146336 C12.5862947,3.91115177 12,3.27404411 12,2.5 C12,1.67157288 12.6715729,1 13.5,1 L18.5,1 C19.3284271,1 20,1.67157288 20,2.5 C20,3.27347011 19.4145746,3.91020677 18.6626499,3.99128377 L18.0091553,3 L14.0007172,3 L13.33638,4 L18.6666667,4 Z M10.5,12 C10.6,12 10.8,12 11,12.1 C11.3,12.3 11.5,12.5 11.5,13 C11.5,13.3 11.7,13.5 12,13.5 C12.3,13.5 12.5,13.3 12.5,13 C12.5,12.1 12.1,11.5 11.5,11.2 C11.1,11.1 10.8,11 10.5,11 C10.2,11 10,11.2 10,11.5 C10,11.8 10.2,12 10.5,12 Z M4,7.3 C3.91808298,6.90906407 3.9,6.5 3.9,6.1 C4.25823975,6.1 4.71730058,6.18153336 5.11468506,6.29211426 C5.84222412,6.49456787 6.3,6.6 6.5,6.9 C7,7.4 7,8.3 6.5,8.8 C6,9.3 5.1,9.3 4.6,8.8 C4.4,8.6 4.16064453,8.06665039 4,7.3 Z"/>
</svg>
