<svg viewBox="0 0 512 512" width="32" height="32">
  <path d="M70 333c3-11 8-19 13-24 19-19 52-19 71 0 18 19 19 50 1 69-1 2-2 3-3 4l-3 21c0 7 3 12 9 13 6 1 13-4 13-9l10-78c11 4 28 12 47 12 83 0 113-68 113-119 0-79-70-179-108-179-26 0-35 15-60 15-28 0-36-15-62-15-41 0-111 100-111 179 0 40 19 91 70 111z m328 94l61-91c7-10 10-23 10-35l0-216c0-23-19-42-42-42l-148 0c43 37 84 117 84 179 0 72-44 134-122 140l44 65c-16 2-29 15-29 32 0 17 14 32 32 32l107 0c17 0 32-15 32-32 0-17-13-30-29-32l-14 21-85 0-14-21z m-174-171c2 0 6 0 11-2 6-4 10-9 10-19 0-7 5-11 11-11 6 0 11 4 11 11 0 19-9 32-22 38-8 2-15 4-21 4-6 0-11-4-11-10 0-7 5-11 11-11z m-139 100c-1 9-2 17-2 26 8 0 18-2 26-4 16-5 25-7 30-13 10-11 10-30 0-41-11-10-30-10-41 0-4 5-9 16-13 32z"/>
</svg>