<svg xmlns="http://www.w3.org/2000/svg" xmlns:xlink="http://www.w3.org/1999/xlink" width="24px" height="24px" viewBox="0 0 24 24" version="1.1">
  <path d="M18.7,4 L21.5,8.2 C21.8,8.6 22,9.4 22,10 L22,20 C22,21.1 21.1,22 20,22 L13,22 C13.3,21.7 13.7,21.4 14,21 L20,21 C20.6,21 21,20.5 21,20 L21,10 C21,9.6 20.8,9 20.6,8.7 L17.5,4 L14.6,4 L12.5,7.2 C12.2,7.1 11.8,7.1 11.4,7 L13.4,4 C12.6,3.9 12,3.3 12,2.5 C12,1.7 12.7,1 13.5,1 L18.5,1 C19.3,1 20,1.7 20,2.5 C20,3.3 19.4,3.9 18.7,4 L18.7,4 Z M13,2.5 C13,2.8 13.2,3 13.5,3 L18.5,3 C18.8,3 19,2.8 19,2.5 C19,2.2 18.8,2 18.5,2 L13.5,2 C13.2,2 13,2.2 13,2.5 Z M8.5,8.6 C9,8.4 9.8,8 10.7,8 C14.6,8 16,11.2 16,13.6 C16,17.3 12.7,22 10.9,22 C9.7,22 9.3,21.3 8.1,21.3 C6.8,21.3 6.4,22 5.2,22 C3.3,22 0,17.3 0,13.6 C0,11.7 0.9,9.3 3.3,8.4 C3.2,8.1 3.1,7.8 3.1,7.5 C3,7.1 2.9,6.6 2.9,6.2 L2.9,5.6 C2.9,5.3 3.1,5.1 3.4,5.1 L4,5.1 C4.4,5.1 4.9,5.2 5.3,5.3 C6.1,5.5 6.7,5.7 7.1,6 L7,5.1 C7,4.8 7.2,4.6 7.4,4.5 C7.6,4.4 8,4.7 8,4.9 L8.5,8.6 L8.5,8.6 Z M3.7,9.3 C2,9.9 1,11.6 1,13.6 C1,15.1 1.7,17 2.7,18.6 C3.6,20 4.7,21 5.1,21 C5.4,21 5.6,20.9 6.1,20.8 L6.2,20.8 C6.9,20.5 7.3,20.4 8,20.4 L8.1,20.4 C8.8,20.4 9.2,20.5 9.9,20.8 L10,20.8 C10.5,21 10.7,21 11,21 C11.4,21 12.5,20.1 13.4,18.6 C14.5,17 15.1,15.1 15.1,13.6 C15.1,11.1 13.5,9 10.8,9 C10.5,9 10.1,9.1 9.6,9.3 C9.5,9.3 9.3,9.4 9.3,9.4 C9.1,9.4 9,9.5 8.9,9.5 C8.6,9.6 8.3,9.7 8,9.7 C8,9.7 8,9.7 7.9,9.7 C7.6,9.7 7.4,9.6 7.1,9.6 C6.2,10.5 4.7,10.5 3.8,9.5 C3.8,9.4 3.7,9.3 3.7,9.3 L3.7,9.3 Z M4,7.3 C4.2,8 4.4,8.6 4.6,8.8 C5.1,9.3 6,9.3 6.5,8.8 C7,8.3 7,7.4 6.5,6.9 C6.3,6.6 5.8,6.4 5.1,6.3 C4.7,6.2 4.3,6.2 3.9,6.1 C3.9,6.5 4,6.9 4,7.3 Z M10.5,12 C10.2,12 10,11.8 10,11.5 C10,11.2 10.2,11 10.5,11 C10.8,11 11.1,11.1 11.5,11.2 C12.1,11.5 12.5,12.1 12.5,13 C12.5,13.3 12.3,13.5 12,13.5 C11.7,13.5 11.5,13.3 11.5,13 C11.5,12.5 11.3,12.3 11,12.1 C10.8,12 10.6,12 10.5,12 Z"/>
</svg>
