<svg xmlns="http://www.w3.org/2000/svg" xmlns:xlink="http://www.w3.org/1999/xlink" width="24px" height="24px" viewBox="0 0 24 24" version="1.1">
  <path d="M17.9335345,10.9889219 C18.032425,10.8695441 18.0445306,10.8948069 17.8801296,10.8948069 L13.7125518,10.8948069 C13.0408857,10.8948069 12.5601972,10.2458259 12.7559753,9.60332577 L14.9893253,2.27396519 C14.9924223,2.24838555 12.0181357,5.82742317 6.0664655,13.0110781 C5.96757499,13.1304559 5.95546943,13.1051931 6.12022291,13.1051932 L10.2878007,13.1066622 C10.9593428,13.106899 11.4397862,13.7558262 11.2440084,14.3981968 L9.01067466,21.7260348 C9.00757769,21.7516144 11.9818643,18.1725768 17.9335345,10.9889219 Z M6.11987041,14.1051931 C5.1166465,14.1051931 4.6526002,13.1502904 5.29637237,12.3731466 L14.2031151,1.62241173 C15.2048658,0.411888975 16.3937083,1.09648073 15.9458667,2.56556174 L13.7125518,9.89480691 L17.8801296,9.89480691 C18.8833535,9.89480691 19.3473998,10.8497096 18.7036276,11.6268534 L9.79688493,22.3775883 C8.79513418,23.588111 7.60629175,22.9035193 8.05413326,21.4344383 L10.2874482,14.1066622 L6.11987041,14.1051931 Z"/>
</svg>
