<svg viewBox="0 0 512 512" width="32" height="32">
  <path d="M192 64c0-12 10-21 21-21l86 0c11 0 21 9 21 21l0 21-128 0z m64 405c-82 0-149-67-149-149 0-51 25-95 64-122l0-49c0-11 9-21 21-21l128 0c12 0 21 10 21 21l0 49c39 27 64 71 64 122 0 82-67 149-149 149z m61-236l-18-13 0-49-86 0 0 49-18 13c-29 20-46 52-46 87 0 59 48 107 107 107 59 0 107-48 107-107 0-35-17-67-46-87z m-317 87c0 12 9 21 21 21l22 0c11 0 21-9 21-21 0-12-9-21-21-21l-22 0c-11 0-21 9-21 21z m34 128c6 10 19 14 29 8l19-11c10-6 14-19 8-29-6-10-19-14-29-8l-19 11c-10 6-14 19-8 29z m444 0c6-10 2-23-8-29l-19-11c-10-6-23-2-29 8-6 10-2 23 8 29l19 11c10 6 23 2 29-8z m34-128c0-12-9-21-21-21l-22 0c-11 0-21 9-21 21 0 12 9 21 21 21l22 0c11 0 21-9 21-21z m-34-128c-6-10-19-14-29-8l-19 11c-10 6-14 19-8 29 6 10 19 14 29 8l19-11c10-6 14-19 8-29z m-444 0c-6 10-2 23 8 29l19 11c10 6 23 2 29-8 6-10 2-23-8-29l-19-11c-10-6-23-2-29 8z"/>
</svg>