<svg xmlns="http://www.w3.org/2000/svg" xmlns:xlink="http://www.w3.org/1999/xlink" width="24px" height="24px" viewBox="0 0 24 24" version="1.1">
  <path d="M3.759,11.315 C3.996,11.178 4.304,11.268 4.438,11.499 C4.576,11.738 4.501,12.04 4.259,12.18 L2.519,13.185 C2.282,13.322 1.974,13.232 1.84,13 C1.702,12.761 1.777,12.459 2.019,12.32 L3.759,11.315 Z M15.509,20 C15.78,20 16,20.232 16,20.5 C16,20.776 15.772,21 15.509,21 L13.249,21 C13.118,21 13,21.111 13,21.247 L13,21.495 C13,21.774 12.786,22 12.496,22 L11.505,22 C11.226,22 11,21.786 11,21.496 L11,21.248 C11,21.115 10.888,21 10.751,21 L8.491,21 C8.22,21 8,20.768 8,20.5 C8,20.224 8.228,20 8.491,20 L15.509,20 Z M8.5,18 L15.5,18 C15.7761424,18 16,18.2238576 16,18.5 C16,18.7761424 15.7761424,19 15.5,19 L8.5,19 C8.22385763,19 8,18.7761424 8,18.5 C8,18.2238576 8.22385763,18 8.5,18 Z M14.7395455,17 L9.26045455,17 C8.52226638,17 7.90909091,16.4092873 7.90909091,15.6653333 L7.90909091,15.0986667 C7.90909091,14.7322302 7.65174923,14.2672576 7.31148432,14.0497571 C7.24950666,14.0073115 7.22316571,13.9874654 7.16454545,13.94 C5.47473131,12.5449096 4.5,10.5077343 4.5,8.33333333 C4.5,4.27867953 7.86131799,1 12,1 C16.138682,1 19.5,4.27867953 19.5,8.33333333 C19.5,10.5077343 18.5252687,12.5449096 16.8349069,13.9404518 C16.7768343,13.9874654 16.7504933,14.0073115 16.6609091,14.068 C16.3482508,14.2672576 16.0909091,14.7322302 16.0909091,15.0986667 L16.0909091,15.6653333 C16.0909091,16.4092873 15.4777336,17 14.7395455,17 Z M9.26045455,16 L14.7395455,16 C14.9356123,16 15.0909091,15.846567 15.0909091,15.6653333 L15.0909091,15.0986667 C15.0909091,14.3849731 15.5274357,13.604551 16.1234707,13.224697 C16.167406,13.1946077 16.1819701,13.1827253 16.1988018,13.1688494 C17.6498793,11.9708571 18.5,10.2201592 18.5,8.33333333 C18.5,4.84004373 15.5954098,2 12,2 C8.40459018,2 5.5,4.84004373 5.5,8.33333333 C5.5,10.2201592 6.3501207,11.9708571 7.80119822,13.1688494 C7.8180299,13.1827253 7.83259398,13.1946077 7.87652927,13.224697 C8.47256428,13.604551 8.90909091,14.3849731 8.90909091,15.0986667 L8.90909091,15.6653333 C8.90909091,15.846567 9.06438766,16 9.26045455,16 Z M9,7.5 C9,7.776 8.776,8 8.5,8 C8.224,8 8,7.776 8,7.5 C8,6.47 8.456,5.676 9.197,5.112 C9.632,4.783 10.064,4.598 10.371,4.516 C10.638,4.445 10.912,4.604 10.983,4.871 C11.054,5.138 10.895,5.412 10.628,5.483 C10.436,5.534 10.117,5.671 9.802,5.91 C9.294,6.295 9,6.807 9,7.5 Z M2.019,3.681 C1.782,3.544 1.706,3.232 1.84,3 C1.978,2.761 2.277,2.675 2.519,2.814 L4.259,3.819 C4.496,3.956 4.572,4.268 4.438,4.5 C4.3,4.739 4.001,4.825 3.759,4.686 L2.019,3.681 Z M3.5,8 C3.5,8.276 3.284,8.5 3.004,8.5 L0.995,8.5 C0.722,8.5 0.5,8.268 0.5,8 C0.5,7.724 0.716,7.5 0.995,7.5 L3.005,7.5 C3.278,7.5 3.5,7.732 3.5,8 Z M23.001,7.5 C23.275,7.5 23.497,7.732 23.496,8 C23.496,8.276 23.281,8.5 23.001,8.5 L20.992,8.5 C20.719,8.5 20.497,8.268 20.497,8 C20.497,7.724 20.712,7.5 20.992,7.5 L23.001,7.5 Z M21.978,12.319 C22.215,12.456 22.291,12.768 22.157,13 C22.019,13.239 21.72,13.325 21.478,13.185 L19.738,12.18 C19.501,12.043 19.425,11.731 19.559,11.499 C19.697,11.26 19.996,11.174 20.238,11.314 L21.978,12.319 Z M20.238,4.685 C20.001,4.822 19.693,4.732 19.559,4.501 C19.421,4.262 19.496,3.96 19.738,3.82 L21.478,2.815 C21.715,2.678 22.023,2.768 22.157,3 C22.295,3.239 22.22,3.541 21.978,3.68 L20.238,4.685 Z"/>
</svg>
