<svg viewBox="0 0 512 512" width="32" height="32">
  <path d="M96 222l-44-25c-7-4-8-12-5-18 4-6 11-8 17-5l45 26c6 4 8 12 5 18-4 6-12 8-18 4z m224-120l-128 0c-7 0-13-5-13-12 0-7 6-13 13-13l32 0c4 0 6-3 6-7l0-6c0-7 6-13 13-13l26 0c7 0 13 6 13 13l0 6c0 4 3 7 6 7l32 0c7 0 13 6 13 13 0 6-6 12-13 12z m0 39l-128 0c-7 0-13-6-13-13 0-7 6-13 13-13l128 0c7 0 13 6 13 13 0 7-6 13-13 13z m-268 277l44-26c6-4 14-1 18 5 3 6 1 14-5 17l-45 26c-6 4-13 1-17-5-3-6-1-14 5-17z m38-111c0 7-6 13-13 13l-52 0c-7 0-12-6-12-13 0-7 5-13 12-13l52 0c7 0 13 6 13 13z m166 154c-78 0-141-63-141-141 0-42 19-80 48-105 0-1 6-5 6-5 5-4 10-13 10-20l0-11c0-14 12-25 26-25l102 0c14 0 26 11 26 25l0 11c0 7 5 16 11 20 0 0-1-1 3 2 30 26 50 65 50 108 0 78-63 141-141 141z m69-233c-1-1-1-1-2-1-9-6-16-19-16-29l0-16c0-2-1-3-2-3l-98 0c-1 0-2 1-2 3l0 16c0 10-7 23-16 28-29 21-48 56-48 94 0 64 52 115 115 115 64 0 115-52 115-115 0-38-18-71-46-92z m161 92l-51 0c-7 0-13-6-13-13 0-7 6-13 13-13l51 0c8 0 13 6 13 13 0 7-6 13-13 13z m-297-94c0 0 0 0 0 0 0 0 0 0 0 0z m271-29l-44 25c-7 4-14 2-18-4-3-6-1-14 5-18l44-26c7-3 14-1 18 5 3 6 1 14-5 18z m-44 195l44 26c6 3 8 11 5 17-4 6-11 8-18 5l-44-26c-6-3-8-11-5-17 4-6 12-8 18-5z m-211-72c0 18 7 31 20 41 8 6 17 9 21 11 7 1 11 8 10 15-2 7-9 11-16 9-8-2-19-6-30-15-19-14-31-35-31-61 0-7 6-13 13-13 7 0 13 6 13 13z"/>
</svg>