<svg viewBox="0 0 512 512" width="32" height="32">
  <path d="M486 320l-51 0c-7 0-13-6-13-13 0-7 6-13 13-13l51 0c8 0 13 6 13 13 0 7-6 13-13 13z m-166-218l-128 0c-7 0-13-5-13-12 0-7 6-13 13-13l32 0c4 0 6-3 6-7l0-6c0-7 6-13 13-13l26 0c7 0 13 6 13 13l0 6c0 4 3 7 6 7l32 0c7 0 13 6 13 13 0 6-6 12-13 12z m-224 120l-44-25c-7-4-8-12-5-18 4-6 11-8 17-5l45 26c6 4 8 12 5 18-4 6-12 8-18 4z m-44 196l44-26c6-4 14-1 18 5 3 6 1 14-5 17l-45 26c-6 4-13 1-17-5-3-6-1-14 5-17z m364-26l44 26c6 3 8 11 5 17-4 6-11 8-18 5l-44-26c-6-3-8-11-5-17 4-6 12-8 18-5z m-326-85c0 7-6 13-13 13l-52 0c-7 0-12-6-12-13 0-7 5-13 12-13l52 0c7 0 13 6 13 13z m230-166l-128 0c-7 0-13-6-13-13 0-7 6-13 13-13l128 0c7 0 13 6 13 13 0 7-6 13-13 13z m-64 320c-78 0-141-63-141-141 0-42 19-80 48-105 0-1 6-5 6-5 5-4 10-13 10-20l0-11c0-14 12-25 26-25l102 0c14 0 26 11 26 25l0 11c0 7 5 16 11 20 0 0-1-1 3 2 30 26 50 65 50 108 0 78-63 141-141 141z m-10-89c-4-2-13-5-21-11-13-10-20-23-20-41 0-7-6-13-13-13-7 0-13 6-13 13 0 26 12 47 31 61 11 9 22 13 30 15 7 2 14-2 16-9 1-7-3-14-10-15z m214-175l-44 25c-7 4-14 2-18-4-3-6-1-14 5-18l44-26c7-3 14-1 18 5 3 6 1 14-5 18z"/>
</svg>