<svg viewBox="0 0 512 512" width="32" height="32">
  <path d="M74 375l276 74c14 3 31-5 34-19l23-89 20 0c3 0 8 0 11 0l-26 97c-8 28-39 46-71 40l-273-74c-31-9-48-40-42-71l45-165c3-9 9-17 14-26l0 83-31 116c-3 15 6 32 20 34z m381-62l-284 0c-32 0-57-26-57-57l0-171c0-31 25-57 57-57l284 0c31 0 57 26 57 57l0 171c0 31-26 57-57 57z m29-228c0-17-15-28-29-28l-284 0c-17 0-29 14-29 28l0 171c0 17 14 28 29 28l284 0c17 0 29-14 29-28z m-228 143l171 0 0-29-171 0z m0-86l171 0 0-28-171 0z m-57 0l29 0 0-28-29 0z m0 86l29 0 0-29-29 0z"/>
</svg>