<svg xmlns="http://www.w3.org/2000/svg" xmlns:xlink="http://www.w3.org/1999/xlink" width="24px" height="24px" viewBox="0 0 24 24" version="1.1">
  <path d="M21,10 C21,5.03033924 16.9700536,1 12,1 C7.02943725,1 3,5.02943725 3,10 C3,13.8375339 5.96264205,18.1700416 11.9999999,22.9329444 C18.0373579,18.1700416 21,13.8375339 21,10 Z M12.6193693,23.7180442 C12.2561651,24.0045778 11.7438348,24.0045778 11.3806306,23.7180442 C5.12687689,18.7844256 2,14.2117442 2,10 C2,4.4771525 6.4771525,0 12,0 C17.5228475,0 22,4.47856369 22,10 C22,14.2117442 18.8731231,18.7844256 12.6193693,23.7180442 Z M12,13 C13.6568542,13 15,11.6568542 15,10 C15,8.34314575 13.6568542,7 12,7 C10.3431458,7 9,8.34314575 9,10 C9,11.6568542 10.3431458,13 12,13 Z M12,14 C9.790861,14 8,12.209139 8,10 C8,7.790861 9.790861,6 12,6 C14.209139,6 16,7.790861 16,10 C16,12.209139 14.209139,14 12,14 Z"/>
</svg>
