<svg viewBox="0 0 512 512" width="32" height="32">
  <path d="M256 352c-35 0-64-42-64-96 0-54 29-96 64-96 35 0 64 42 64 96 0 54-29 96-64 96z m0-160c-13 0-32 26-32 64 0 38 19 64 32 64 13 0 32-26 32-64 0-38-19-64-32-64z m224 256l-448 0c-19 0-32-13-32-32l0-320c0-19 13-32 32-32l448 0c19 0 32 13 32 32l0 320c0 19-13 32-32 32z m-448-32l32 0c0-19-13-32-32-32z m0-320l0 32c19 0 32-13 32-32z m448 0l-32 0c0 19 13 32 32 32z m0 64c-35 0-64-29-64-64l-320 0c0 35-29 64-64 64l0 192c35 0 64 29 64 64l320 0c0-35 29-64 64-64z m0 224c-19 0-32 13-32 32l32 0z"/>
</svg>