<svg xmlns="http://www.w3.org/2000/svg" xmlns:xlink="http://www.w3.org/1999/xlink" width="24px" height="24px" viewBox="0 0 24 24" version="1.1">
  <path d="M1.375,3 L22.625,3 C23.45,3 24,3.6 24,4.5 L24,19.5 C24,20.4 23.45,21 22.625,21 L1.375,21 C0.55,21 0,20.4 0,19.5 L0,4.5 C0,3.6 0.55,3 1.375,3 Z M23,18 C21.8954305,18 21,18.8954305 21,20 L22.5,20 C22.7761424,20 23,19.7761424 23,19.5 L23,18 Z M1,18 L1,19.5 C1,19.7761424 1.22385763,20 1.5,20 L3,20 C3,18.8954305 2.1045695,18 1,18 Z M1,6 C2.1045695,6 3,5.1045695 3,4 L1.5,4 C1.22385763,4 1,4.22385763 1,4.5 L1,6 Z M23,6 L23,4.5 C23,4.22385763 22.7761424,4 22.5,4 L21,4 C21,5.1045695 21.8954305,6 23,6 Z M12,17 C13.6568542,17 15,14.7614237 15,12 C15,9.23857625 13.6568542,7 12,7 C10.3431458,7 9,9.23857625 9,12 C9,14.7614237 10.3431458,17 12,17 Z M12,16 C11.0313996,16 10,14.2810007 10,12 C10,9.71899932 11.0313996,8 12,8 C12.9686004,8 14,9.71899932 14,12 C14,14.2810007 12.9686004,16 12,16 Z"/>
</svg>
