<svg viewBox="0 0 512 512" width="32" height="32">
  <path d="M64 320c-35 0-64-29-64-64 0-35 29-64 64-64 35 0 64 29 64 64 0 35-29 64-64 64z m0-96c-19 0-32 13-32 32 0 19 13 32 32 32 19 0 32-13 32-32 0-19-13-32-32-32z m192 96c-35 0-64-29-64-64 0-35 29-64 64-64 35 0 64 29 64 64 0 35-29 64-64 64z m0-96c-19 0-32 13-32 32 0 19 13 32 32 32 19 0 32-13 32-32 0-19-13-32-32-32z m192 96c-35 0-64-29-64-64 0-35 29-64 64-64 35 0 64 29 64 64 0 35-29 64-64 64z m0-96c-19 0-32 13-32 32 0 19 13 32 32 32 19 0 32-13 32-32 0-19-13-32-32-32z"/>
</svg>