<svg viewBox="0 0 512 512" width="32" height="32">
  <path d="M208 448l-32 0c-18 0-32-14-32-32l0-32c0-18 14-32 32-32l32 0c18 0 32 14 32 32l0 32c0 18-14 32-32 32z m0-64l-32 0 0 32 32 0z m128 64l-32 0c-18 0-32-14-32-32l0-32c0-18 14-32 32-32l32 0c18 0 32 14 32 32l0 32c0 18-14 32-32 32z m0-64l-32 0 0 32 32 0z m0-64l-32 0c-18 0-32-14-32-32l0-32c0-18 14-32 32-32l32 0c18 0 32 14 32 32l0 32c0 18-14 32-32 32z m0-64l-32 0 0 32 32 0z m-128 64l-32 0c-18 0-32-14-32-32l0-32c0-18 14-32 32-32l32 0c18 0 32 14 32 32l0 32c0 18-14 32-32 32z m0-64l-32 0 0 32 32 0z m272-224l-48 0 0 208c0 9 0 23 0 32l0 208c0 18-14 32-32 32l-288 0c-18 0-32-14-32-32l0-448c0 0 0 0 0 0l-48 0c-9 0-16-7-16-16 0-9 7-16 16-16l448 0c9 0 16 7 16 16 0 9-7 16-16 16z m-240 0l0 80c0 9 7 16 16 16 9 0 16-7 16-16l0-80z m64 0l0 80c0 27-21 48-48 48-26 0-48-22-48-48l0-80-96 0 0 448 288 0 0-448z"/>
</svg>