<svg xmlns="http://www.w3.org/2000/svg" xmlns:xlink="http://www.w3.org/1999/xlink" width="24px" height="24px" viewBox="0 0 24 24" version="1.1">
  <path d="M5,3 L19,3 C20.1045695,3 21,3.8954305 21,5 L21,19.775467 C21,19.9182859 20.9389261,20.0542879 20.8321819,20.1491716 L19.0821819,21.7047272 C18.8927389,21.873121 18.6072611,21.873121 18.4178181,21.7047272 L16.5,20 L14.5821819,21.7047272 C14.3927389,21.873121 14.1072611,21.873121 13.9178181,21.7047272 L12,20 L10.0821819,21.7047272 C9.89273891,21.873121 9.60726109,21.873121 9.41781808,21.7047272 L7.5,20 L5.58218192,21.7047272 C5.39273891,21.873121 5.10726109,21.873121 4.91781808,21.7047272 L3.16781808,20.1491716 C3.0610739,20.0542879 3,19.9182859 3,19.775467 L3,5 C3,3.8954305 3.8954305,3 5,3 Z M19,4 L5,4 C4.44771525,4 4,4.44771525 4,5 L4,19.5857864 L5.14285714,20.5857864 L7.09931912,18.8738822 C7.28783212,18.7089333 7.56931074,18.7089333 7.75782373,18.8738822 L9.71428571,20.5857864 L11.6707477,18.8738822 C11.8592607,18.7089333 12.1407393,18.7089333 12.3292523,18.8738822 L14.2857143,20.5857864 L16.2421763,18.8738822 C16.4306893,18.7089333 16.7121679,18.7089333 16.9006809,18.8738822 L18.8571429,20.5857864 L20,19.5857864 L20,5 C20,4.44771525 19.5522847,4 19,4 Z M12,13.5 C11.4477153,13.5 11,13.0522847 11,12.5 L11,8 C11,7.44771525 11.4477153,7 12,7 C12.5522847,7 13,7.44771525 13,8 L13,12.5 C13,13.0522847 12.5522847,13.5 12,13.5 Z M12,15 C12.5522847,15 13,15.4477153 13,16 C13,16.5522847 12.5522847,17 12,17 C11.4477153,17 11,16.5522847 11,16 C11,15.4477153 11.4477153,15 12,15 Z"/>
</svg>
