<svg viewBox="0 0 512 512" width="32" height="32">
  <path d="M192 192c-8 0-16 9-16 17l0 94c0 8 8 17 16 17 8 0 16-9 16-17l0-94c0-8-8-17-16-17z m16-48c0-9-7-16-16-16-9 0-16 7-16 16 0 9 7 16 16 16 9 0 16-7 16-16z m256 368l-288 0c-18 0-32-14-32-32l0-32 32 0 0 32 288 0 0-298-12-10-20 19 0-44 18-18 46 38 0 313c0 18-14 32-32 32z m-64-64l-288 0c-18 0-32-14-32-32l0-32 32 0 0 32 288 0 0-298-12-10-20 19 0-44 18-18 46 38 0 313c0 18-14 32-32 32z m-384-96l0-313 41-38 41 38 46-38 45 38 46-38 46 40 41-40 46 38 0 313c0 18-14 32-32 32l-288 0c-18 0-32-14-32-32z m320-298l-12-10-20 20-21 20-23-19-25-22-25 20-21 17-20-17-26-21-26 21-21 18-21-19-19-18-8 9 0 299 288 0z"/>
</svg>