<svg xmlns="http://www.w3.org/2000/svg" xmlns:xlink="http://www.w3.org/1999/xlink" width="24px" height="24px" viewBox="0 0 24 24" version="1.1">
  <path d="M5,3 L19,3 C20.1045695,3 21,3.8954305 21,5 L21,19.775467 C21,19.9182859 20.9389261,20.0542879 20.8321819,20.1491716 L19.0821819,21.7047272 C18.8927389,21.873121 18.6072611,21.873121 18.4178181,21.7047272 L16.5,20 L14.5821819,21.7047272 C14.3927389,21.873121 14.1072611,21.873121 13.9178181,21.7047272 L12,20 L10.0821819,21.7047272 C9.89273891,21.873121 9.60726109,21.873121 9.41781808,21.7047272 L7.5,20 L5.58218192,21.7047272 C5.39273891,21.873121 5.10726109,21.873121 4.91781808,21.7047272 L3.16781808,20.1491716 C3.0610739,20.0542879 3,19.9182859 3,19.775467 L3,5 C3,3.8954305 3.8954305,3 5,3 Z M7.19378131,12.2236948 L10.6422313,14.8904638 C10.8574146,15.0564702 11.1691545,15.0311359 11.3519223,14.8324616 L16.8694423,8.83223131 C17.0591071,8.62555671 17.0397958,8.30954458 16.8266816,8.12620421 C16.6128777,7.94286384 16.2859646,7.96153122 16.0962998,8.16753913 L10.9050032,13.8130891 L7.84002084,11.4429982 C7.61725097,11.2703249 7.29171729,11.3056596 7.11308758,11.5210012 C6.93514756,11.7363428 6.97101144,12.0510215 7.19378131,12.2236948 Z"/>
</svg>
