<svg xmlns="http://www.w3.org/2000/svg" xmlns:xlink="http://www.w3.org/1999/xlink" width="24px" height="24px" viewBox="0 0 24 24" version="1.1">
  <path d="M4.07379351,18.0481677 L4.08200159,18.0565539 C3.88384888,19.4278285 3.85602221,20.8935638 3.9979466,22.4547321 C4.02294736,22.7297404 3.82027619,22.9729458 3.54526787,22.9979466 C3.27025956,23.0229474 3.02705415,22.8202762 3.0020534,22.5452679 C2.82184265,20.5629497 2.90400686,18.7196503 3.24755135,17.0170515 C2.37903855,15.528117 2,13.581272 2,11.3445289 C2,7.59861381 4.12657715,4.26613159 8.34154854,2.23527208 C9.58141191,1.63788053 10.9921747,1.27347872 12.5392531,1.10726405 C14.6637378,0.87901413 16.9052709,1.03001254 19.0872775,1.41837678 C19.9673099,1.57500928 20.639084,1.73332723 20.9576318,1.82510153 C22.7271988,2.21833781 23.2448914,4.0569289 21.8666187,5.34011383 C21.7511629,5.43516274 21.5254317,5.63792379 21.2265826,5.93624379 C20.7196384,6.44229067 20.2113238,7.02086143 19.7384729,7.65835426 C18.5856568,9.21256975 17.840854,10.8462556 17.6783179,12.4751705 C17.175118,17.5181727 14.2252894,20.1333918 9.4335927,20.1333918 C7.56341427,20.1333918 6.09790311,19.7007131 4.98077332,18.9209876 C5.46218388,13.5997902 8.3661701,9.62593194 13.7236068,6.9472136 C13.970596,6.82371897 14.0707082,6.52338245 13.9472136,6.2763932 C13.823719,6.02940395 13.5233825,5.92929178 13.2763932,6.0527864 C7.86976113,8.75610244 4.79325973,12.7697251 4.07379351,18.0481677 Z M4.07379351,18.0481677 L3.61570888,17.580143 Z"/>
</svg>
