<svg viewBox="0 0 512 512" width="32" height="32">
  <path d="M80 98c26-20 61-31 106-31 109 0 177 61 188 178 4 38 21 76 47 112 11 15 23 28 34 40 7 7 12 12 15 14 32 30 20 73-21 82-7 2-22 6-42 9-50 9-102 13-150 8-35-4-68-13-96-27-96-47-145-125-145-212 0-59 11-109 37-145-8-34-12-71-12-110 0-9 7-16 16-16 9 0 16 7 16 16 0 29 3 56 7 82z m-15 71c-11 27-17 61-17 102 0 77 44 143 127 184 24 11 53 19 85 23 43 4 91 2 141-7 17-3 32-7 39-9 18-4 21-16 8-28-3-2-9-8-15-14-14-14-26-29-37-44-31-42-49-85-53-128-10-100-63-149-157-149-43 0-76 11-98 35 17 66 50 120 95 164 24 23 49 42 75 57 9 5 17 9 24 12 5 2 8 3 9 4 8 3 13 12 10 20-3 8-12 13-21 10-8-3-21-9-38-18-28-16-56-37-82-62-42-42-75-92-95-152z"/>
</svg>