<svg viewBox="0 0 512 512" width="32" height="32">
  <path d="M80 98c26-20 61-31 106-31 109 0 177 61 188 178 4 38 21 76 47 112 11 15 23 28 34 40 7 7 12 12 15 14 32 30 20 73-21 82-7 2-22 6-42 9-50 9-102 13-150 8-35-4-68-13-96-27-96-47-145-125-145-212 0-59 11-109 37-145-8-34-12-71-12-110 0-9 7-16 16-16 9 0 16 7 16 16 0 29 3 56 7 82z m0 0c-10 8-19 17-27 28 18 79 55 144 107 195 26 25 54 46 82 62 17 9 30 15 38 18 9 3 18-2 21-10 3-8-2-17-10-20-1-1-4-2-9-4-7-3-15-7-24-12-26-15-51-34-75-57-53-52-89-117-103-200z"/>
</svg>