<svg xmlns="http://www.w3.org/2000/svg" xmlns:xlink="http://www.w3.org/1999/xlink" width="24px" height="24px" viewBox="0 0 24 24" version="1.1">
  <path d="M7,6 L15,6 L15,20.8246095 C15,20.9381452 14.9613596,21.0483005 14.8904344,21.136957 L11.1561738,25.8047828 C11.0871719,25.8910352 10.9613134,25.9050195 10.875061,25.8360176 C10.863528,25.8267912 10.8530526,25.8163157 10.8438262,25.8047828 L7.1095656,21.136957 C7.03864038,21.0483005 7,20.9381452 7,20.8246095 L7,6 Z M7,4 L7,1 C7,0.44771525 7.44771525,-4.92205977e-15 8,-9.30298865e-15 L14,-6.18513206e-17 C14.5522847,4.62493763e-16 15,0.44771525 15,1 L15,4 L7,4 Z" transform="translate(11.000000, 12.939926) rotate(-315.000000) translate(-11.000000, -12.939926) "/>
</svg>
