<svg xmlns="http://www.w3.org/2000/svg" xmlns:xlink="http://www.w3.org/1999/xlink" width="24px" height="24px" viewBox="0 0 24 24" version="1.1">
  <path d="M12,13 C14.7614237,13 17,10.7614237 17,8 C17,5.23857625 14.7614237,3 12,3 C9.23857625,3 7,5.23857625 7,8 C7,10.7614237 9.23857625,13 12,13 Z M20,22 C20,17.581722 16.418278,14 12,14 C7.581722,14 4,17.581722 4,22 C4,22.2761424 3.77614237,22.5 3.5,22.5 C3.22385763,22.5 3,22.2761424 3,22 C3,17.9462773 5.68004048,14.5185116 9.3649218,13.3919025 C7.3721955,12.4162049 6,10.3683491 6,8 C6,4.6862915 8.6862915,2 12,2 C15.3137085,2 18,4.6862915 18,8 C18,10.3683491 16.6278045,12.4162049 14.6350782,13.3919025 C18.3199595,14.5185116 21,17.9462773 21,22 C21,22.2761424 20.7761424,22.5 20.5,22.5 C20.2238576,22.5 20,22.2761424 20,22 Z"/>
</svg>
