<svg viewBox="0 0 512 512" width="32" height="32">
  <path d="M256 128c9 0 16-7 16-16 0-9-7-16-16-16-9 0-16 7-16 16 0 9 7 16 16 16z m68-2l24 0c1 0 2-1 2-2l0-24c0-1-1-2-2-2l-24 0c-1 0-2 1-2 2l0 24c0 1 1 2 2 2z m-161-15c-2 0-2 2 0 2l26 14c2 0 3 0 3-2l0-26c0-2-1-2-3-1z m222 389c0 0-17 6-65 9-48 3-64 5-128 0-64-5-65-8-65-8-17-4-31-22-31-40l0-410c0-18 14-35 31-39 0 0 18-5 67-9 49-3 63-4 125 0 62 5 66 9 66 9 17 3 31 21 31 39l0 410c0 18-14 35-31 39z m-1-449c0-3-4-8-6-8l-9-2c0 0 1-1 4 0 0 0-1 0-3 0-10-2-27-4-53-6-55-4-66-4-121 0-12 1-22 2-31 3-16 2-25 4-28 5-5 1-9 5-9 8l0 13 256 0z m0 45l-256 0 0 32 256 0z m0 64l-256 0 0 256 256 0z m-256 288l0 13c0 3 4 8 6 8l16 4c10 1 24 3 44 4 56 4 69 4 124 0 12-1 22-2 31-3 9-1 16-2 22-4 2 0 4 0 4 0l3-1c2-1 6-5 6-8l0-13z"/>
</svg>