<svg viewBox="0 0 512 512" width="32" height="32">
  <path d="M480 512l-448 0c-19 0-32-13-32-32l0-448c0-19 13-32 32-32l448 0c19 0 32 13 32 32l0 448c0 19-13 32-32 32z m-384-480c3 26 16 45 32 64 0-22 6-45 16-64z m90 0c-16 16-26 38-26 64 0 6 0 16 3 22 10 4 19 7 32 10l32 32 0 67c-6-3-9-3-16-3-25 0-48 22-48 48l0 32c0 26 23 48 48 48 26 0 48-22 48-48l0-160c-38-22-64-64-64-112z m22 352c-16 0-32-6-45-13 7 26 32 45 61 45l32 0c54 0 96-42 96-96l0-163c-10 3-22 3-32 3-10 0-22 0-32-3l0 147c0 45-35 80-80 80z m16-352c0 54 42 96 96 96 54 0 96-42 96-96z m256 0l-32 0c0 48-26 90-64 112l0 176c0 70-58 128-128 128l-32 0c-54 0-96-42-96-96l0-80c0-26 13-48 32-64 10-6 19-13 32-16l0-35c-67-7-118-61-128-128l-32 0 0 448 448 0z"/>
</svg>