<svg viewBox="0 0 512 512" width="32" height="32">
  <path d="M256 512c-141 0-256-115-256-256 0-108 67-201 163-238-3 20-5 51 1 73 4 20 30 127 30 127 0 0-8 16-8 38 0 36 21 62 46 62 22 0 33-16 33-36 0-22-14-54-22-85-6-25 13-46 38-46 46 0 81 48 81 117 0 61-44 104-107 104-73 0-116-54-116-111 0-22 9-45 19-58 2-3 3-5 2-8-2-8-6-25-7-29-1-4-4-5-9-3-32 15-52 62-52 99 0 81 59 155 170 155 88 0 157-63 157-148 0-88-55-159-132-159-26 0-51 13-59 29 0 0-13-48-16-60-6-23-21-51-32-68 24-7 50-11 76-11 141 0 256 115 256 256 0 141-115 256-256 256z"/>
</svg>