<svg viewBox="0 0 512 512" width="32" height="32">
  <path d="M288 288l0 160c0 18-14 32-32 32-18 0-32-14-32-32l0-160-160 0c-18 0-32-14-32-32 0-18 14-32 32-32l160 0 0-160c0-18 14-32 32-32 18 0 32 14 32 32l0 160 160 0c18 0 32 14 32 32 0 18-14 32-32 32z m0 0l0 160c0 18-14 32-32 32-18 0-32-14-32-32l0-160-160 0c-18 0-32-14-32-32 0-18 14-32 32-32l160 0 0-160c0-18 14-32 32-32 18 0 32 14 32 32l0 160 160 0c18 0 32 14 32 32 0 18-14 32-32 32z m0 0l0 160c0 18-14 32-32 32-18 0-32-14-32-32l0-160-160 0c-18 0-32-14-32-32 0-18 14-32 32-32l160 0 0-160c0-18 14-32 32-32 18 0 32 14 32 32l0 160 160 0c18 0 32 14 32 32 0 18-14 32-32 32z"/>
</svg>