<svg viewBox="0 0 512 512" width="32" height="32">
  <path d="M320 320c0-10 6-16 16-16 10 0 16 6 16 16 0 26-19 70-80 80l0 16c0 10-6 16-16 16-10 0-16-6-16-16l0-16c-22-3-42-10-58-26-22-22-22-54-22-54 0 0 0-32 22-54 13-13 32-23 58-26l0-96c-45 6-48 42-48 48 0 10-6 16-16 16-10 0-16-6-16-16 0 0 0-32 22-54 13-13 32-23 58-26l0-16c0-10 6-16 16-16 10 0 16 6 16 16l0 16c61 6 80 54 80 80 0 26-19 70-80 80l0 96c45-10 48-45 48-48z m-128 0c0 3 3 38 48 48l0-93c-45 7-48 42-48 45z m128-128c0-3 0-38-48-48l0 93c45-7 48-42 48-45z m-64 320c-141 0-256-115-256-256 0-141 115-256 256-256 141 0 256 115 256 256 0 141-115 256-256 256z m0-480c-125 0-224 99-224 224 0 125 99 224 224 224 125 0 224-99 224-224 0-125-99-224-224-224z"/>
</svg>