<svg viewBox="0 0 512 512" width="32" height="32">
  <path d="M272 144c48 10 48 45 48 48 0 3-3 38-48 45z m-16 368c-141 0-256-115-256-256 0-141 115-256 256-256 141 0 256 115 256 256 0 141-115 256-256 256z m96-320c0-26-19-74-80-80l0-16c0-10-6-16-16-16-10 0-16 6-16 16l0 16c-26 3-45 13-58 26-22 22-22 54-22 54 0 10 6 16 16 16 10 0 16-6 16-16 0-6 3-42 48-48l0 96c-26 3-45 13-58 26-22 22-22 54-22 54 0 0 0 32 22 54 16 16 36 23 58 26l0 16c0 10 6 16 16 16 10 0 16-6 16-16l0-16c61-10 80-54 80-80 0-10-6-16-16-16-10 0-16 6-16 16 0 3-3 38-48 48l0-96c61-10 80-54 80-80z m-160 128c0-3 3-38 48-45l0 93c-45-10-48-45-48-48z"/>
</svg>