<svg xmlns="http://www.w3.org/2000/svg" xmlns:xlink="http://www.w3.org/1999/xlink" width="24px" height="24px" viewBox="0 0 24 24" version="1.1">
  <path d="M12,23 C5.92486775,23 1,18.0751322 1,12 C1,5.92486775 5.92486775,1 12,1 C18.0751322,1 23,5.92486775 23,12 C23,18.0751322 18.0751322,23 12,23 Z M12,22 C17.5228475,22 22,17.5228475 22,12 C22,6.4771525 17.5228475,2 12,2 C6.4771525,2 2,6.4771525 2,12 C2,17.5228475 6.4771525,22 12,22 Z M6.5,10 C5.67157288,10 5,9.32842712 5,8.5 C5,7.67157288 5.67157288,7 6.5,7 C7.32842712,7 8,7.67157288 8,8.5 C8,9.32842712 7.32842712,10 6.5,10 Z M17.5,10 C16.6715729,10 16,9.32842712 16,8.5 C16,7.67157288 16.6715729,7 17.5,7 C18.3284271,7 19,7.67157288 19,8.5 C19,9.32842712 18.3284271,10 17.5,10 Z M12,19 C9.17986632,19 6.81416272,17.0543536 6.17198981,14.4321613 C6.15293687,14.3543622 6.13502181,14.2654782 6.11824465,14.1655094 C6.10906603,14.1108174 6.10445287,14.0554568 6.10445287,14 C6.10445287,13.4477152 6.55216812,13 7.10445287,13 L16.8933186,13 C16.9479127,13 17.002415,13.0044707 17.0562792,13.0133674 C17.6011814,13.1033681 17.9699519,13.6180585 17.8799512,14.1629606 C17.8587554,14.291289 17.8358274,14.4033847 17.8111674,14.4992476 C17.1453649,17.0874702 14.7960301,19 12,19 Z M12,18 C14.2948495,18 16.2792417,16.4404799 16.8426979,14.2501155 C16.8594845,14.1848594 16.8766347,14.1010117 16.8933186,14 L7.10445286,14 C7.11736008,14.0769092 7.13047373,14.1419715 7.14328683,14.1942914 C7.68639196,16.411959 9.68408645,18 12,18 Z"/>
</svg>
