<svg viewBox="0 0 512 512" width="32" height="32">
  <path d="M437 320c7-20 11-42 11-64 0-106-86-192-192-192-106 0-192 86-192 192 0 106 86 192 192 192 22 0 44-4 64-11l0 34c-20 6-42 9-64 9-124 0-224-100-224-224 0-124 100-224 224-224 124 0 224 100 224 224 0 22-3 44-9 64z m-265-8c0-15-13-28-28-28-15 0-28 13-28 28 0 15 13 28 28 28 15 0 28-13 28-28z m224 0c0-15-13-28-28-28-15 0-28 13-28 28 0 15 13 28 28 28 15 0 28-13 28-28z m-140-190c-63 0-114 47-114 106 0 9 7 16 16 16l196 0c9 0 16-7 16-16 0-59-51-106-114-106z m-80 90c8-33 41-58 80-58 39 0 72 25 80 58z m320 236l-48 0 0 48c0 9-7 16-16 16-9 0-16-7-16-16l0-48-48 0c-9 0-16-7-16-16 0-9 7-16 16-16l48 0 0-48c0-9 7-16 16-16 9 0 16 7 16 16l0 48 48 0c9 0 16 7 16 16 0 9-7 16-16 16z"/>
</svg>