<svg viewBox="0 0 512 512" width="32" height="32">
  <path d="M405 469l22 0c23 0 42-19 42-42l0-342c0-23-19-42-42-42l-342 0c-23 0-42 19-42 42l0 342c0 23 19 42 42 42l22 0 0-21-22 0c-12 0-21-9-21-21l0-342c0-12 9-21 21-21l342 0c12 0 21 9 21 21l0 342c0 12-9 21-21 21l-22 0z m-64 0l0-21-170 0 0 21z m-202 22c6 0 10-5 10-11l0-43c0-6-4-10-10-10-7 0-11 4-11 10l0 43c0 6 4 11 11 11z m234 0c7 0 11-5 11-11l0-43c0-6-4-10-11-10-6 0-10 4-10 10l0 43c0 6 4 11 10 11z m-190-154c-2-2-4-4-8-4-4-2-11 4-11 8 0 5 2 7 5 9 23 21 53 32 85 32 70 0 128-58 128-128l-21 0c0 60-47 107-107 107-26 2-51-9-71-24z m128-196c-17-9-36-13-57-13-68 0-126 53-128 122l-24 0c-2 0-4 0-6 2-4 4-6 10-2 15l32 44c0 0 2 3 2 3 4 4 11 2 15-3l32-44c2-2 2-5 2-7 0-6-4-10-11-10l-19 0c2-56 49-101 107-101 17 0 34 5 49 11 2 0 4 2 4 2 7 0 11-4 11-11 0-2-2-6-4-8 0 0 0 0-3 0 3 0 3-2 0-2z m26 115l66 0c7 0 11-4 11-11 0-2 0-4-2-6l-32-45c-5-4-11-6-15-2 0 0-2 2-2 2l-32 45c-5 4-2 11 2 15 0 2 2 2 4 2z"/>
</svg>