<svg xmlns="http://www.w3.org/2000/svg" xmlns:xlink="http://www.w3.org/1999/xlink" width="24px" height="24px" viewBox="0 0 24 24" version="1.1">
  <path d="M17,2 L17,3.5 C17,3.77614237 17.2238576,4 17.5,4 C17.7761424,4 18,3.77614237 18,3.5 L18,2 L20,2 C21.1045695,2 22,2.8954305 22,4 L22,20 C22,21.1045695 21.1045695,22 20,22 L4,22 C2.8954305,22 2,21.1045695 2,20 L2,4 C2,2.8954305 2.8954305,2 4,2 L5,2 L5,1.5 C5,1.22385763 5.22385763,1 5.5,1 C5.77614237,1 6,1.22385763 6,1.5 L6,2 L6,3.5 C6,3.77614237 6.22385763,4 6.5,4 C6.77614237,4 7,3.77614237 7,3.5 L7,2 L16,2 L16,1.5 C16,1.22385763 16.2238576,1 16.5,1 C16.7761424,1 17,1.22385763 17,1.5 L17,2 Z M8.64598341,8.23248387 C9.52488543,7.46496582 10.6747996,7 11.9333124,7 C14.6947361,7 16.9333124,9.23857625 16.9333124,12 L17.9333124,12 C17.9333124,8.6862915 15.2470209,6 11.9333124,6 C10.3883298,6 8.97973474,6.5839447 7.91619623,7.54316519 L7.92532984,7.55613578 C7.8084644,7.64765929 7.73336118,7.7900651 7.73336118,7.95001221 C7.73336118,8.22615458 7.95721881,8.45001221 8.23336118,8.45001221 C8.40468527,8.45001221 8.5558839,8.36384488 8.64598341,8.23248387 Z M14.6083673,17.3721434 C14.6520246,17.3568827 14.6929196,17.3357376 14.7301016,17.3096587 C14.7479702,17.3002271 14.7657855,17.2907081 14.7835468,17.281102 L14.7772568,17.2721697 C14.8791993,17.1806335 14.9433221,17.0478173 14.9433221,16.9000244 C14.9433221,16.623882 14.7194645,16.4000244 14.4433221,16.4000244 C14.3572079,16.4000244 14.2761784,16.4217943 14.2054366,16.4601307 L14.2028402,16.4564435 C13.5217439,16.8039974 12.7504176,17 11.9333124,17 C9.25965774,17 7.07614244,14.9014642 6.94004165,12.2616677 L7.81977865,12.2616677 C8.09592103,12.2616677 8.31977865,12.0378101 8.31977865,11.7616677 C8.31977865,11.6574642 8.28722202,11.5558642 8.22665884,11.4710675 L6.69844295,9.33135578 C6.53794886,9.10664205 6.22567622,9.05458175 6.0009625,9.21507584 C5.95605061,9.24715263 5.91675935,9.28644389 5.88468257,9.33135578 L4.35646667,11.4710675 C4.19597258,11.6957812 4.24803288,12.0080538 4.4727466,12.1685479 C4.55754335,12.2291111 4.65914328,12.2616677 4.76334686,12.2616677 L5.93891569,12.2616677 C6.07590003,15.4539765 8.70727836,18 11.9333124,18 C12.8945423,18 13.8029785,17.7739632 14.6083673,17.3721434 Z M15.7633469,12 C15.6591433,12 15.5575434,12.0325566 15.4727466,12.0931198 C15.2480329,12.2536139 15.1959726,12.5658865 15.3564667,12.7906003 L16.8846826,14.930312 C16.9167593,14.9752239 16.9560506,15.0145151 17.0009625,15.0465919 C17.2256762,15.207086 17.5379489,15.1550257 17.6984429,14.930312 L19.2266588,12.7906003 C19.287222,12.7058035 19.3197787,12.6042036 19.3197787,12.5 C19.3197787,12.2238576 19.095921,12 18.8197787,12 L15.7633469,12 Z"/>
</svg>
