<svg xmlns="http://www.w3.org/2000/svg" xmlns:xlink="http://www.w3.org/1999/xlink" width="24px" height="24px" viewBox="0 0 24 24" version="1.1">
  <path d="M11.5281747,12.5 L7.52809731,10.0999536 C6.83905207,10.6625638 5.95893226,11 5,11 C2.790861,11 1,9.209139 1,7 C1,4.790861 2.790861,3 5,3 C7.209139,3 9,4.790861 9,7 C9,7.88102775 8.71516394,8.69552848 8.23255574,9.35643825 L12.5,11.9169048 L22.2427521,6.07125354 C22.8144141,5.72825637 23.3289098,6.58574929 22.7572479,6.92874646 L13.4718253,12.5 L22.7572479,18.0712535 C22.994038,18.2133276 23.0708205,18.5204577 22.9287465,18.7572479 C22.7866724,18.994038 22.4795423,19.0708205 22.2427521,18.9287465 L12.5,13.0830952 L8.23255574,15.6435617 C8.71516394,16.3044715 9,17.1189722 9,18 C9,20.209139 7.209139,22 5,22 C2.790861,22 1,20.209139 1,18 C1,15.790861 2.790861,14 5,14 C5.95893226,14 6.83905207,14.3374362 7.52809731,14.9000464 L11.5281747,12.5 Z M5,10 C6.65685425,10 8,8.65685425 8,7 C8,5.34314575 6.65685425,4 5,4 C3.34314575,4 2,5.34314575 2,7 C2,8.65685425 3.34314575,10 5,10 Z M5,21 C6.65685425,21 8,19.6568542 8,18 C8,16.3431458 6.65685425,15 5,15 C3.34314575,15 2,16.3431458 2,18 C2,19.6568542 3.34314575,21 5,21 Z"/>
</svg>
