<svg viewBox="0 0 512 512" width="32" height="32">
  <path d="M504 126l-210 130 210 130c8 5 10 15 6 22-5 8-15 10-22 6l-225-139-88 55c11 15 17 34 17 54 0 53-43 96-96 96-53 0-96-43-96-96 0-53 43-96 96-96 21 0 40 7 56 18l81-50-81-50c-16 11-35 18-56 18-53 0-96-43-96-96 0-53 43-96 96-96 53 0 96 43 96 96 0 20-6 39-17 54l88 55 225-139c7-4 17-2 22 6 4 7 2 17-6 22z m-408 194c-35 0-64 29-64 64 0 35 29 64 64 64 35 0 64-29 64-64 0-35-29-64-64-64z m0-256c-35 0-64 29-64 64 0 35 29 64 64 64 35 0 64-29 64-64 0-35-29-64-64-64z"/>
</svg>