<svg viewBox="0 0 512 512" width="32" height="32">
  <path d="M416 160c-24 0-46-11-61-28l-183 100c3 8 4 16 4 24 0 8-1 16-4 24l183 100c15-17 37-28 61-28 44 0 80 36 80 80 0 44-36 80-80 80-44 0-80-36-80-80 0-8 1-16 4-24l-183-100c-15 17-37 28-61 28-44 0-80-36-80-80 0-44 36-80 80-80 24 0 46 11 61 28l183-100c-3-8-4-16-4-24 0-44 36-80 80-80 44 0 80 36 80 80 0 44-36 80-80 80z m0 320c26 0 48-22 48-48 0-26-22-48-48-48-26 0-48 22-48 48 0 26 22 48 48 48z m-320-272c-26 0-48 22-48 48 0 26 22 48 48 48 26 0 48-22 48-48 0-26-22-48-48-48z m320-176c-26 0-48 22-48 48 0 26 22 48 48 48 26 0 48-22 48-48 0-26-22-48-48-48z"/>
</svg>