<svg viewBox="0 0 512 512" width="32" height="32">
  <path d="M144 452l4-10c11-29 41-59 70-70l10-4-10-4c-29-11-59-41-70-70l-4-10-4 10c-11 29-41 59-70 70l-10 4 10 4c29 11 59 41 70 70l4 10m256-131c10-20 29-39 49-49-20-10-39-29-49-49-10 20-29 39-49 49 20 10 39 29 49 49m-176-194c8-12 19-23 31-31-12-8-23-19-31-31-8 12-19 23-31 31 12 8 23 19 31 31m-80 386c-6 0-13-6-18-18l-16-41c-8-21-31-44-52-52l-41-16c-24-10-24-26 0-36l41-16c21-8 44-31 52-52l16-40c5-13 12-19 18-19 6 0 13 6 18 18l16 41c8 21 31 44 52 52l40 16c25 10 25 26 0 36l-40 16c-21 8-44 31-52 52l-16 41c-5 12-12 18-18 18z m256-128c-5 0-11-5-15-15l-11-30c-7-16-25-35-42-42l-30-11c-20-8-20-22 0-30l30-11c16-7 35-25 42-42l11-30c4-10 10-15 15-15 5 0 11 5 15 15l11 30c7 16 25 35 42 42l30 11c20 8 20 22 0 30l-30 11c-17 7-35 25-42 42l-11 30c-4 10-10 15-15 15z m-176-193c-4 0-9-4-12-13l-11-27c-5-13-20-28-33-33l-27-11c-17-7-17-17 0-24l27-11c13-5 28-20 33-33l11-27c3-9 8-13 12-13 4 0 9 4 12 13l11 27c5 13 20 28 33 33l27 11c17 7 17 17 0 24l-27 11c-13 5-28 20-33 33l-11 27c-3 9-8 13-12 13z"/>
</svg>