<svg viewBox="0 0 512 512" width="32" height="32">
  <path d="M256 456l54-108c7-16 22-26 39-29l119-17-86-84c-12-12-18-30-15-47l20-119-107 57c-7 3-16 6-24 6-8 0-17-3-24-6l-107-57 20 119c3 17-3 35-15 47l-86 84 119 17c17 3 32 13 39 29l54 108m0 41c-8 0-16-4-20-12l-61-124c-3-6-9-11-16-12l-136-20c-18-2-25-24-12-37l98-96c5-5 8-12 7-19l-24-136c-2-14 9-26 22-26 3 0 7 1 10 3l122 64c3 2 7 2 10 2 4 0 7 0 10-2l122-64c3-2 7-3 10-3 13 0 24 12 22 26l-23 136c-2 7 1 14 6 19l98 96c13 13 6 35-12 37l-136 20c-7 1-13 6-16 12l-61 124c-4 8-12 12-20 12z"/>
</svg>