<svg xmlns="http://www.w3.org/2000/svg" xmlns:xlink="http://www.w3.org/1999/xlink" width="24px" height="24px" viewBox="0 0 24 24" version="1.1">
  <path d="M21.9511293,12.6909764 C21.9827187,12.7882934 21.999791,12.892153 21.999791,13 L21.999791,20 C21.999791,21.1045695 21.1043605,22 19.999791,22 L3.99999005,22 C2.89542055,22 1.99999005,21.1045695 1.99999005,20 L1.99999005,13 C1.99999005,12.8921142 2.01707464,12.7882187 2.04868593,12.6908714 C2.66655489,13.0422007 3.38127311,13.2428571 4.14285714,13.2428571 C5.11359853,13.2428571 6.02920352,12.9138228 6.76190476,12.3385593 C7.494606,12.9138228 8.41021099,13.2428571 9.38095238,13.2428571 C10.3516938,13.2428571 11.2672988,12.9138228 12,12.3385593 C12.7327012,12.9138228 13.6483062,13.2428571 14.6190476,13.2428571 C15.589789,13.2428571 16.505394,12.9138228 17.2380952,12.3385593 C17.9707965,12.9138228 18.8864015,13.2428571 19.8571429,13.2428571 C20.618651,13.2428571 21.3333026,13.0422407 21.9511293,12.6909764 Z M19.8570646,12.1428571 C18.7639004,12.1428571 17.8010917,11.5847332 17.2380431,10.7378927 C16.6749946,11.5847332 15.7121859,12.1428571 14.6190216,12.1428571 C13.5258573,12.1428571 12.5630486,11.5847332 12.0000001,10.7378927 C11.4369515,11.5847332 10.4741428,12.1428571 9.38097855,12.1428571 C8.28781429,12.1428571 7.32500556,11.5847332 6.76195703,10.7378927 C6.1989085,11.5847332 5.23609977,12.1428571 4.14293551,12.1428571 C2.41104592,12.1428571 1.00634557,10.7419795 1.00013038,9.01153083 C1.00007261,9.00897652 1.00002919,8.92179958 1.00000015,8.75 C0.999812424,8.5085051 1.05594814,8.27029426 1.16394711,8.05429417 L3.04803144,4.28608168 C3.08667148,4.20456989 3.1467083,4.13517544 3.22610492,4.08165197 C3.31030603,4.02661972 3.40981394,3.99787883 3.51091671,4 C6.17198864,3.99992387 7.50458037,3.99992387 7.50869189,4 C13.5052977,3.99992579 16.5056237,3.99992579 16.50967,4 L20.4890834,4 C20.5901862,3.99787883 20.6896941,4.02661972 20.7791125,4.08515262 C20.8532919,4.13517544 20.9133287,4.20456989 20.9519687,4.28608168 L22.8398399,8.06186169 C22.9466285,8.27544337 23.0014997,8.5112142 22.99999,8.75 L22.99999,9.00000498 C22.9939445,10.7416903 21.589133,12.1428571 19.8570646,12.1428571 Z M9,15 C8.44771525,15 8,15.4477153 8,16 L8,22 L16,22 L16,16 C16,15.4477153 15.5522847,15 15,15 L9,15 Z M9,16 L15,16 L15,22 L9,22 L9,16 Z M3.50008963,2 L20.4999105,2 C20.7760529,2 20.9999105,2.22385763 20.9999105,2.5 C20.9999105,2.77614237 20.7760529,3 20.4999105,3 L3.50008963,3 C3.22394725,3 3.00008963,2.77614237 3.00008963,2.5 C3.00008963,2.22385763 3.22394725,2 3.50008963,2 Z"/>
</svg>
