<svg viewBox="0 0 512 512" width="32" height="32">
  <path d="M448 64l-96 0 0 99c0 19-13 29-32 29l-128 0c-19 0-32-10-32-29l0-99-96 0 0 147c0 0-22 3-32 7l0-151c0-19 13-35 32-35l384 0c19 0 32 16 32 35l0 151c-10-4-32-7-32-7z m-128 0l-128 0 0 96 128 0z m128 416l-384 0c-18 0-32-14-32-32l448 0c0 18-14 32-32 32z m55-119c-11 23-24 55-24 55l-446 0c0 0-13-32-24-55-15-33-11-77 15-103 27-27 67-21 88 9 25-35 71-35 96 0 12-17 30-26 48-26 18 0 36 9 48 26 25-35 71-35 96 0 21-30 61-36 88-9 26 26 30 70 15 103z m-403-21c-4-18-6-38-14-54-6-9-14-14-22-14-24 0-32 23-32 50 0 20 14 43 22 62l54 0z m60-68c-51-3-26 85-20 112l52 0c0-37 11-109-32-112z m128 48c0-18-9-48-32-48-23 0-32 30-32 48l0 64 64 0z m64-48c-43 3-32 75-32 112l52 0c6-27 31-115-20-112z m96 0c-8 0-16 5-22 14-8 16-10 36-14 54l-8 44 55 0c7-19 21-41 21-62 0-27-8-50-32-50z"/>
</svg>