<svg xmlns="http://www.w3.org/2000/svg" xmlns:xlink="http://www.w3.org/1999/xlink" width="24px" height="24px" viewBox="0 0 24 24" version="1.1">
  <path d="M6.90226494,5 L3.80909868,5 L2.21691737,8.27492439 C2.10703763,8.50093373 2.04922038,8.74870033 2.04771829,9 C2.04771829,10.157168 2.98577899,11.0952381 4.14293551,11.0952381 C5.30009202,11.0952381 6.23815272,10.157168 6.23815272,9 L6.90226494,5 Z M9.38097855,11.0952381 C10.5381351,11.0952381 11.4761958,10.157168 11.4761958,9 L11.5000051,5 L7.91825066,5 L7.28792434,8.99857918 C7.28576133,10.157168 8.22382203,11.0952381 9.38097855,11.0952381 Z M16.0804771,5 L12.4999951,5 L12.5238044,9 C12.5238044,10.157168 13.4618651,11.0952381 14.6190216,11.0952381 C15.7761781,11.0952381 16.7142388,10.157168 16.7142388,9 L16.0804771,5 Z M21.783074,8.27488696 L20.1909015,5 L17.0959219,5 L17.7618474,9 C17.7618474,10.157168 18.6999081,11.0952381 19.8570646,11.0952381 C21.0142212,11.0952381 21.9522819,10.157168 21.9522819,9 C21.9507802,8.74868729 21.89296,8.50090777 21.783074,8.27488696 Z M19.8570646,12.1428571 C18.7639004,12.1428571 17.8010917,11.5847332 17.2380431,10.7378927 C16.6749946,11.5847332 15.7121859,12.1428571 14.6190216,12.1428571 C13.5258573,12.1428571 12.5630486,11.5847332 12.0000001,10.7378927 C11.4369515,11.5847332 10.4741428,12.1428571 9.38097855,12.1428571 C8.28781429,12.1428571 7.32500556,11.5847332 6.76195703,10.7378927 C6.1989085,11.5847332 5.23609977,12.1428571 4.14293551,12.1428571 C2.41104592,12.1428571 1.00634557,10.7419795 1.00013038,9.01153083 C1.00007261,9.00897652 1.00002919,8.92179958 1.00000015,8.75 C0.999812424,8.5085051 1.05594814,8.27029426 1.16394711,8.05429417 L3.04803144,4.28608168 C3.08667148,4.20456989 3.1467083,4.13517544 3.22610492,4.08165197 C3.31030603,4.02661972 3.40981394,3.99787883 3.51091671,4 C6.17198864,3.99992387 7.50458037,3.99992387 7.50869189,4 C13.5052977,3.99992579 16.5056237,3.99992579 16.50967,4 L20.4890834,4 C20.5901862,3.99787883 20.6896941,4.02661972 20.7791125,4.08515262 C20.8532919,4.13517544 20.9133287,4.20456989 20.9519687,4.28608168 L22.8398399,8.06186169 C22.9466285,8.27544337 23.0014997,8.5112142 22.99999,8.75 L22.99999,9.00000498 C22.9939445,10.7416903 21.589133,12.1428571 19.8570646,12.1428571 Z M8.00003993,21 L8.00003993,16 C8.00003993,15.4477153 8.44775072,15 9.00002997,15 L14.9999702,15 C15.5522494,15 15.9999602,15.4477153 15.9999602,16 L15.9999602,21 L19.9999204,21 C20.5521996,21 20.9999104,20.5522847 20.9999104,20 L20.9999104,13.5 C20.9999104,13.2238576 21.2237658,13 21.4999054,13 C21.776045,13 21.9999004,13.2238576 21.9999004,13.5 L21.9999004,20 C21.9999004,21.1045695 21.1044789,22 19.9999204,22 L4.00007979,22 C2.89552129,22 2.00009971,21.1045695 2.00009971,20 L2.00009971,13.5 C2.00009971,13.2238576 2.22395511,13 2.50009473,13 C2.77623436,13 3.00008975,13.2238576 3.00008975,13.5 L3.00008975,20 C3.00008975,20.5522847 3.44780054,21 4.00007979,21 L8.00003993,21 Z M9.00002997,16 L9.00002997,21 L14.9999702,21 L14.9999702,16 L9.00002997,16 Z M3.50008975,2 L20.4999104,2 C20.7760528,2 20.9999104,2.22385763 20.9999104,2.5 C20.9999104,2.77614237 20.7760528,3 20.4999104,3 L3.50008975,3 C3.22394737,3 3.00008975,2.77614237 3.00008975,2.5 C3.00008975,2.22385763 3.22394737,2 3.50008975,2 Z"/>
</svg>
