<svg viewBox="0 0 512 512" width="32" height="32">
  <path d="M448 480l-384 0c-18 0-32-14-32-32l448 0c0 18-14 32-32 32z m55-119c-11 23-24 55-24 55l-446 0c0 0-13-32-24-55-15-33-11-77 15-103 27-27 67-21 88 9 25-35 71-35 96 0 12-17 30-26 48-26 18 0 36 9 48 26 25-35 71-35 96 0 21-30 61-36 88-9 26 26 30 70 15 103z m-314-111l-58 0c9-6 19-9 29-9 10 0 20 3 29 9z m96 0l-58 0c9-6 19-9 29-9 10 0 20 3 29 9z m-192 0l-59 0c9-6 20-9 30-9 10 0 20 3 29 9z m385 0l-59 0c9-6 19-9 30-9 10 0 20 3 29 9z m-29-41c-18 0-34 5-49 14-14-9-31-14-48-14-17 0-34 5-48 14-14-9-31-14-48-14-17 0-34 5-48 14-14-9-31-14-48-14-17 0-34 5-48 14-14-9-31-14-48-14-11 0-22 2-32 6l0-148c0-19 16-35 35-35l93 0c18 0 32 14 32 32l0 64c0 18 14 32 32 32l64 0c18 0 32-14 32-32l0-64c0-18 14-32 32-32l96 0c18 0 32 14 32 32l0 151c-10-4-21-6-31-6z m-68 41l-58 0c9-6 19-9 29-9 10 0 20 3 29 9z"/>
</svg>