<svg xmlns="http://www.w3.org/2000/svg" xmlns:xlink="http://www.w3.org/1999/xlink" width="24px" height="24px" viewBox="0 0 24 24" version="1.1">
  <path d="M6.76499764,21 L3.5,21 C2.67157288,21 2,20.3843915 2,19.625 L2,11.375 C2,10.6156085 2.67157288,10 3.5,10 L6.90696242,10 C8.72894389,9.6661282 10.3456193,7.90975328 10.3456193,6.27519216 L10.3456193,1.63751439 L11.3162202,1.6089673 C11.3675134,1.60745868 11.4096463,1.60714658 11.4822733,1.60718204 C13.5175263,1.60718204 14.4373727,2.54116596 14.4373727,5.1981962 L14.4373727,8.66989425 L20.3471948,8.66989425 C20.9690588,8.66989425 21.5339502,8.89282075 21.9026734,9.3445096 C22.2557178,9.77528849 22.3604528,10.3307717 22.2442302,10.8986775 L20.4581571,19.6287855 C20.1892617,20.9393857 18.8375228,22 17.4747546,22 L9.00110415,22 C8.11260434,22 7.3143182,21.6137494 6.76499764,21 Z M21.2645356,10.6981819 C21.324068,10.4072847 21.2767127,10.1583309 21.1292346,9.97838053 C20.9668734,9.77948806 20.6895063,9.66989425 20.3471948,9.66989425 L13.4373727,9.66989425 L13.4373727,5.1981962 C13.4373727,2.78713237 12.663451,2.60718204 11.4822733,2.60718204 C11.4376239,2.60718204 11.3916216,2.60718204 11.3456193,2.60853505 L11.3456193,6.27519216 C11.3456193,8.46842137 9.28498503,10.6251193 7.00110415,10.9985501 L7.00110415,19 C7.00110415,20.1045695 7.89653465,21 9.00110415,21 L17.4747546,21 C18.3704472,21 19.3067301,20.2653156 19.4785624,19.4278024 L21.2645356,10.6981819 Z M3.5,11 C3.22385763,11 3,11.2014719 3,11.45 L3,19.55 C3,19.7985281 3.22385763,20 3.5,20 L5.5,20 C5.77614237,20 6,19.7761424 6,19.5 L6,11.5 C6,11.2238576 5.77614237,11 5.5,11 L3.5,11 Z" transform="translate(12.144797, 11.803590) scale(1, -1) translate(-12.144797, -11.803590) "/>
</svg>
