<svg viewBox="0 0 512 512" width="32" height="32">
  <path d="M453 343l-131 0c0 26 0 60 0 74 0 58-19 93-78 93-11 0-22-1-35-3 0 0 0-79 0-115 0-37-43-81-87-81l-16 0 0-1c0 0-1 1-1 1l-73 0c-18 0-32-15-32-32l0-223c0-18 14-32 32-32l73 0c5 0 10 1 15 3 9-10 23-16 40-16l226 0c36 0 71 29 78 63l43 207c7 34-17 62-54 62z m-348-279c0-4-3-8-8-8l-58 0c-4 0-8 4-8 8l0 207c0 4 4 8 8 8l58 0c5 0 8-4 8-8z m370 223l-42-206c-4-20-26-38-47-38l-226 0c-8 0-14 3-18 7-3 3-4 8-4 14l0 216c54 9 103 60 103 112l0 86c1 0 2 0 3 0 28 0 46-4 46-61l0-106 163 0c9 0 15-2 19-7 3-4 5-10 3-17z"/>
</svg>