<svg xmlns="http://www.w3.org/2000/svg" xmlns:xlink="http://www.w3.org/1999/xlink" width="24px" height="24px" viewBox="0 0 24 24" version="1.1">
  <path d="M14.75,2.41421356 L2.41421356,14.75 L3.2902209,15.6260073 C3.85173385,15.298322 4.4805593,15.125 5.125,15.125 C7.18978475,15.125 8.875,16.8102153 8.875,18.875 C8.875,19.5744727 8.71884939,20.2142823 8.40924552,20.745032 L9.25,21.5857864 L21.5857864,9.25 L20.745032,8.40924552 C20.2142823,8.71884939 19.5744727,8.875 18.875,8.875 C16.8102153,8.875 15.125,7.18978475 15.125,5.125 C15.125,4.42552729 15.2811506,3.78571774 15.5907545,3.25496804 L14.75,2.41421356 Z M14.75,1 L16.95,3.2 C16.4,3.6125 16.125,4.3 16.125,5.125 C16.125,6.6375 17.3625,7.875 18.875,7.875 C19.7,7.875 20.3875,7.6 20.8,7.05 L23,9.25 L9.25,23 L7.05,20.8 C7.6,20.3875 7.875,19.7 7.875,18.875 C7.875,17.3625 6.6375,16.125 5.125,16.125 C4.4375,16.125 3.75,16.4 3.2,16.95 L1,14.75 L14.75,1 Z"/>
</svg>
