<svg viewBox="0 0 512 512" width="32" height="32">
  <path d="M256 512c-141 0-256-115-256-256 0-141 115-256 256-256 141 0 256 115 256 256 0 141-115 256-256 256z m0-480c-125 0-224 99-224 224 0 125 99 224 224 224 125 0 224-99 224-224 0-125-99-224-224-224z m138 362c-7 6-16 6-23 0l-249-250c-7-6-7-16 0-22 6-7 16-7 22 0l250 249c6 7 6 16 0 23z m-218-122c35 0 64 29 64 64 0 35-29 64-64 64-35 0-64-29-64-64 0-35 29-64 64-64z m0 96c19 0 32-13 32-32 0-19-13-32-32-32-19 0-32 13-32 32 0 19 13 32 32 32z m160-128c-35 0-64-29-64-64 0-35 29-64 64-64 35 0 64 29 64 64 0 35-29 64-64 64z m0-96c-19 0-32 13-32 32 0 19 13 32 32 32 19 0 32-13 32-32 0-19-13-32-32-32z"/>
</svg>