<svg viewBox="0 0 512 512" width="32" height="32">
  <path d="M336 208c-19 0-32-13-32-32 0-19 13-32 32-32 19 0 32 13 32 32 0 19-13 32-32 32z m-160 96c19 0 32 13 32 32 0 19-13 32-32 32-19 0-32-13-32-32 0-19 13-32 32-32z m80 208c-141 0-256-115-256-256 0-141 115-256 256-256 141 0 256 115 256 256 0 141-115 256-256 256z m-80-112c35 0 64-29 64-64 0-35-29-64-64-64-35 0-64 29-64 64 0 35 29 64 64 64z m-32-278c-6-7-16-7-22 0-7 6-7 16 0 22l249 250c7 6 16 6 23 0 6-7 6-16 0-23z m192-10c-35 0-64 29-64 64 0 35 29 64 64 64 35 0 64-29 64-64 0-35-29-64-64-64z"/>
</svg>