<svg viewBox="0 0 512 512" width="32" height="32">
  <path d="M368 128l-352 0c-9 0-16-7-16-16l0-96c0-9 7-16 16-16l352 0c9 0 16 7 16 16l0 96c0 9-7 16-16 16z m-16-96l-320 0 0 64 320 0z m80 96c-9 0-16-7-16-16l0-96c0-9 7-16 16-16 9 0 16 7 16 16l0 96c0 9-7 16-16 16z m64 0c-9 0-16-7-16-16l0-96c0-9 7-16 16-16 9 0 16 7 16 16l0 96c0 9-7 16-16 16z m-32 128l-96 0c-9 0-16 7-16 16 0 9 7 16 16 16l64 0c26 0 48 22 48 48 0 26-21 48-48 48l-256 0c-9 0-16 7-16 16 0 9 7 16 16 16l208 0c26 0 48 22 48 48 0 26-22 48-48 48l-144 0c-9 0-16-7-16-16 0-9 7-16 16-16l144 0c9 0 16-7 16-16 0-9-7-16-16-16l-208 0c-26 0-48-22-48-48 0-26 21-48 48-48l256 0c9 0 16-7 16-16 0-9-7-16-16-16l-64 0c-26 0-48-22-48-48 0-26 22-48 48-48l96 0c9 0 16-7 16-16l0-32c0-9 7-16 16-16 9 0 16 7 16 16l0 32c0 26-22 48-48 48z m-384 224l96 0c9 0 16 7 16 16 0 9-7 16-16 16l-96 0c-9 0-16-7-16-16 0-9 7-16 16-16z m-48 16c0-9-7-16-16-16-9 0-16 7-16 16 0 9 7 16 16 16 9 0 16-7 16-16z"/>
</svg>