<svg xmlns="http://www.w3.org/2000/svg" xmlns:xlink="http://www.w3.org/1999/xlink" width="24px" height="24px" viewBox="0 0 24 24" version="1.1">
  <path d="M16.4166667,16 L3.58333333,16 C3.26133333,16 3,16.28 3,16.625 L3,20.375 C3,20.72 3.26133333,21 3.58333333,21 L16.4166667,21 C16.7386667,21 17,20.72 17,20.375 L17,16.625 C17,16.28 16.7386667,16 16.4166667,16 Z M16,20 L4,20 L4,17 L16,17 L16,20 Z M18.5,16 C18.776,16 19,16.28 19,16.625 L19,20.375 C19,20.72 18.776,21 18.5,21 C18.224,21 18,20.72 18,20.375 L18,16.625 C18,16.28 18.224,16 18.5,16 Z M20.5,16 C20.776,16 21,16.28 21,16.625 L21,20.375 C21,20.72 20.776,21 20.5,21 C20.224,21 20,20.72 20,20.375 L20,16.625 C20,16.28 20.224,16 20.5,16 Z M19.5,12 C20.327,12 21,12.673 21,13.5 L21,14.5 C21,14.776 20.776,15 20.5,15 C20.224,15 20,14.776 20,14.5 L20,13.5 C20,13.22 19.78,13 19.5,13 L16.5,13 C15.673,13 15,12.327 15,11.5 C15,10.673 15.678,10 16.51,10 L18.49,10 C18.771,10 19,9.776 19,9.5 C19,9.229 18.774,9 18.505,9 L10.496,9 C9.671,9 9,8.327 9,7.5 C9,6.673 9.676,6 10.508,6 L16.991,6 C17.276,6 17.5,5.78 17.5,5.5 C17.5,5.224 17.271,5 16.991,5 L12.5,5 C12.224,5 12,4.776 12,4.5 C12,4.224 12.224,4 12.5,4 L16.991,4 C17.823,4 18.5,4.673 18.5,5.5 C18.5,6.327 17.823,7 16.991,7 L10.508,7 C10.233,7 10,7.229 10,7.5 C10,7.78 10.218,8 10.496,8 L18.505,8 C19.329,8 20,8.673 20,9.5 C20,10.327 19.322,11 18.49,11 L16.51,11 C16.224,11 16,11.22 16,11.5 C16,11.78 16.22,12 16.5,12 L19.5,12 Z M7.5,5 C7.224,5 7,4.776 7,4.5 C7,4.224 7.224,4 7.5,4 L10.5,4 C10.776,4 11,4.224 11,4.5 C11,4.776 10.776,5 10.5,5 L7.5,5 Z M5.5,5 C5.22385763,5 5,4.77614237 5,4.5 C5,4.22385763 5.22385763,4 5.5,4 C5.77614237,4 6,4.22385763 6,4.5 C6,4.77614237 5.77614237,5 5.5,5 Z"/>
</svg>
