<svg viewBox="0 0 512 512" width="32" height="32">
  <path d="M107 363l-11 0c-6 0-11 4-11 10l0 43c0 6 5 11 11 11l96 0 0 21c0 12 10 21 21 21l86 0c12 0 21-9 21-21l0-21 96 0c6 0 11-5 11-11l0-43c0-6-5-10-11-10l-11 0 0-278c0-23-19-42-42-42l-214 0c-23 0-42 19-42 42z m192 64l0 19c0 1-1 2-2 2l-82 0c-1 0-2-1-2-2l0-19z m-192-22l0-21 298 0 0 21z m21-45l0-275c0-11 10-21 21-21l214 0c11 0 21 10 21 21l0 275c0 2-1 3-2 3l-252 0c-1 0-2-1-2-3z m64-72c0 6 5 11 11 11 6 0 10-5 10-11l0-149c0-6-5-11-10-11-6 0-11 5-11 11z m107 0c0 6 5 11 10 11 6 0 11-5 11-11l0-149c0-6-5-11-11-11-6 0-10 5-10 11z"/>
</svg>