<svg xmlns="http://www.w3.org/2000/svg" xmlns:xlink="http://www.w3.org/1999/xlink" width="24px" height="24px" viewBox="0 0 24 24" version="1.1">
  <path d="M15,7 L15,5 C15,2.790861 16.790861,1 19,1 C21.209139,1 23,2.790861 23,5 L23,7 L22,7 L22,5 C22,3.34314575 20.6568542,2 19,2 C17.3431458,2 16,3.34314575 16,5 L16,7 L18,7 C19.1045695,7 20,7.8954305 20,9 L20,19 C20,20.1045695 19.1045695,21 18,21 L6,21 C4.8954305,21 4,20.1045695 4,19 L4,9 C4,7.8954305 4.8954305,7 6,7 L15,7 Z M11,14.7324356 L11,17 L13,17 L13,14.7324356 C13.5978014,14.3866262 14,13.7402824 14,13 C14,11.8954305 13.1045695,11 12,11 C10.8954305,11 10,11.8954305 10,13 C10,13.7402824 10.4021986,14.3866262 11,14.7324356 Z"/>
</svg>
