<svg xmlns="http://www.w3.org/2000/svg" xmlns:xlink="http://www.w3.org/1999/xlink" width="24px" height="24px" viewBox="0 0 24 24" version="1.1">
  <path d="M12,21 C7.4283736,21 3.47508014,18.1691752 0.14011961,12.5075255 C-0.0443792737,12.194308 -0.0443790092,11.8056403 0.1401203,11.492423 C3.47509809,5.83081199 7.42838398,3 12,3 C16.5716264,3 20.5249199,5.83082484 23.8598804,11.4924745 C24.0443793,11.805692 24.044379,12.1943597 23.8598797,12.507577 C20.5249019,18.169188 16.571616,21 12,21 Z M12,20 C16.1724463,20 19.8276076,17.3826647 22.9982645,11.9999646 C19.8276247,6.61734748 16.1724559,4 12,4 C7.82755372,4 4.17239235,6.61733528 1.0017355,12.0000354 C4.17237529,17.3826525 7.82754411,20 12,20 Z M12,9.5 C12,10.8807119 13.1192881,12 14.5,12 C15.5144235,12 16.3877306,11.3958088 16.7796954,10.5276524 C16.9229103,10.9931201 17,11.4875574 17,12 C17,14.7614237 14.7614237,17 12,17 C9.23857625,17 7,14.7614237 7,12 C7,9.23857625 9.23857625,7 12,7 C12.5124426,7 13.0068799,7.07708968 13.4723476,7.22030463 C12.6041912,7.61226942 12,8.48557651 12,9.5 Z M8,12 C8,14.209139 9.790861,16 12,16 C13.9737486,16 15.6136078,14.5704496 15.9406626,12.6902639 C15.4977581,12.8903627 15.0088466,13 14.5,13 C12.5670034,13 11,11.4329966 11,9.5 C11,8.99115344 11.1096373,8.50224187 11.3097361,8.05933736 C9.42955039,8.38639216 8,10.0262514 8,12 Z"/>
</svg>
