<svg viewBox="0 0 512 512" width="32" height="32">
  <path d="M256 427c148 0 227-168 227-170 1 0 1-2 1-2-1-1-80-170-228-170-148 0-227 168-227 170-1 0-1 2 0 2 0 1 79 170 227 170m0 28c-169 0-253-187-253-187-4-6-4-18 0-25 0 0 84-186 253-186 169 0 253 187 253 187 4 6 4 18 0 25 0 0-84 186-253 186z m0-114c-4-8-6-18-6-28 0-37 30-66 67-66 10 0 19 2 28 6-2-46-39-82-85-82-47 0-86 38-86 85 0 46 37 84 82 85m4 29c-63 0-114-51-114-114 0-63 51-114 114-114 62 0 113 51 113 114 0 19-4 37-13 53-1 3-3 4-4 4-1 0-2-2-2-5-2-19-18-33-37-33-21 0-38 17-38 38 0 18 12 33 29 37 7 1 11 4-3 10-14 6-29 10-45 10z"/>
</svg>