<svg xmlns="http://www.w3.org/2000/svg" xmlns:xlink="http://www.w3.org/1999/xlink" width="24px" height="24px" viewBox="0 0 24 24" version="1.1">
  <path d="M18.488,6.981 L12.5,6.981 L12.5,8.412 C16.671,8.672 19.988,12.138 19.988,16.374 L19.988,20.015 L4.012,20.015 L4.012,16.374 C4.012,12.139 7.329,8.672 11.5,8.412 L11.5,6.981 L5.512,6.981 C4.685,6.981 4.012,6.308 4.012,5.481 L4.012,4 L5.012,4 L5.012,5.481 C5.012,5.757 5.236,5.981 5.512,5.981 L18.488,5.981 C18.763,5.981 18.988,5.757 18.988,5.481 L18.988,4.022 L19.988,4.022 L19.988,5.481 C19.988,6.308 19.315,6.981 18.488,6.981 Z M12,16.917 C12.414,16.917 12.75,16.581 12.75,16.167 L12.75,12.625 C12.75,12.211 12.414,11.875 12,11.875 C11.586,11.875 11.25,12.211 11.25,12.625 L11.25,16.167 C11.25,16.581 11.586,16.917 12,16.917 Z"/>
</svg>
