<svg xmlns="http://www.w3.org/2000/svg" xmlns:xlink="http://www.w3.org/1999/xlink" width="24px" height="24px" viewBox="0 0 24 24" version="1.1">
  <path d="M12,23 C5.92486775,23 1,18.0751322 1,12 C1,5.92486775 5.92486775,1 12,1 C18.0751322,1 23,5.92486775 23,12 C23,18.0751322 18.0751322,23 12,23 Z M17.6519045,7.76230906 C18.045763,7.36845058 18.0471772,6.73346869 17.6568542,6.34314575 C17.2637029,5.94999438 16.6308423,5.95494413 16.2376909,6.3480955 L12,10.5857864 L7.76230906,6.3480955 C7.36845058,5.95423702 6.73346869,5.95282281 6.34314575,6.34314575 C5.94999438,6.73629712 5.95494413,7.36915769 6.3480955,7.76230906 L10.5857864,12 L6.3480955,16.2376909 C5.95423702,16.6315494 5.95282281,17.2665313 6.34314575,17.6568542 C6.73629712,18.0500056 7.36915769,18.0450559 7.76230906,17.6519045 L12,13.4142136 L16.2376909,17.6519045 C16.6315494,18.045763 17.2665313,18.0471772 17.6568542,17.6568542 C18.0500056,17.2637029 18.0450559,16.6308423 17.6519045,16.2376909 L13.4142136,12 L17.6519045,7.76230906 Z"/>
</svg>
