
<svg width="35px" height="38px" viewBox="0 0 35 38" version="1.1" xmlns="http://www.w3.org/2000/svg" xmlns:xlink="http://www.w3.org/1999/xlink">
    <!-- Generator: Sketch 50.2 (55047) - http://www.bohemiancoding.com/sketch -->
    <desc>Created with Sketch.</desc>
    <defs>
        <filter x="-2.9%" y="-0.6%" width="105.8%" height="101.8%" filterUnits="objectBoundingBox" id="filter-1">
            <feOffset dx="0" dy="1.2" in="SourceAlpha" result="shadowOffsetOuter1"></feOffset>
            <feGaussianBlur stdDeviation="1" in="shadowOffsetOuter1" result="shadowBlurOuter1"></feGaussianBlur>
            <feColorMatrix values="0 0 0 0 0   0 0 0 0 0   0 0 0 0 0  0 0 0 0.5 0" type="matrix" in="shadowBlurOuter1" result="shadowMatrixOuter1"></feColorMatrix>
            <feMerge>
                <feMergeNode in="shadowMatrixOuter1"></feMergeNode>
                <feMergeNode in="SourceGraphic"></feMergeNode>
            </feMerge>
        </filter>
    </defs>
    <g id="Intoduction" stroke="none" stroke-width="1" fill="none" fill-rule="evenodd">
        <g id="Desktop---Snacks---Introduction" transform="translate(-20.000000, -29.000000)" fill="#FF8200">
            <g id="Menu" filter="url(#filter-1)">
                <g id="Web/Logo/Color" transform="translate(24.000000, 31.000000)">
                    <g id="instacart-logo-white-copy">
                        <g id="Logo">
                            <path d="M17.8764692,12.0371421 C19.6420683,13.8139937 21.0855762,16.7233331 20.2592969,18.4517014 C18.049323,23.0743072 1.56123771,31.1807715 0.160477144,29.7780147 C-1.24019882,28.3751628 6.86042789,11.8563795 11.4761647,9.64312565 C13.2021994,8.8154049 16.1077089,10.2616738 17.8819389,12.0302403 C17.8819389,12.0302403 17.8800941,12.0325625 17.8764692,12.0371421 L17.8764692,12.0371421 L17.8764692,12.0371421 Z" id="Carrot_2_"></path>
                            <path d="M26.611596,10.0856395 C26.6117116,10.0855764 26.6117643,10.0855444 26.6117643,10.0855444 C26.3246691,9.02229769 25.5929358,7.94814986 24.5006052,7.82090403 C22.4973227,7.5875317 19.3392616,11.1347014 19.5646047,11.9766804 C19.789864,12.8186697 24.2511727,14.3026478 25.9177782,13.1030801 C26.7768202,12.4847853 26.8976483,11.1492337 26.6154841,10.0845942 L26.611596,10.0856395 L26.611596,10.0856395 L26.611596,10.0856395 Z M20.4111802,0.257867723 C21.8995374,0.661174928 23.4028689,1.68852795 23.5809282,3.22208646 C23.9075835,6.03495562 18.9416967,10.4691683 17.762997,10.1528447 C16.5842128,9.83652104 14.5067332,3.57223487 16.1860375,1.2320732 C17.0516446,0.0259305476 18.9214012,-0.143782133 20.411813,0.25247464 C20.4118121,0.25247464 20.4116015,0.254289337 20.4111802,0.257867723 L20.4111802,0.257867723 L20.4111802,0.257867723 Z" id="Leaves_2_"></path>
                        </g>
                    </g>
                </g>
            </g>
        </g>
    </g>
</svg>