<svg xmlns="http://www.w3.org/2000/svg" xmlns:xlink="http://www.w3.org/1999/xlink" width="24px" height="24px" viewBox="0 0 24 24" version="1.1">
  <path d="M5.14012872,20.5994909 C5.78890389,17.4046081 8.61363878,15 12,15 C15.3863612,15 18.2110961,17.4046081 18.8598713,20.5994909 C16.9790072,22.1018388 14.594392,23 12,23 C9.40560798,23 7.02099276,22.1018388 5.14012966,20.5994917 Z M4.29266047,19.8483743 C2.26046622,17.8524727 1,15.0734352 1,12 C1,5.92486775 5.92486775,1 12,1 C18.0751322,1 23,5.92486775 23,12 C23,15.0734352 21.7395338,17.8524727 19.7073395,19.8483743 C18.9838656,17.2513224 16.9830047,15.1866317 14.4243988,14.3739483 C15.9604951,13.5206972 17,11.8817433 17,10 C17,7.23857625 14.7614237,5 12,5 C9.23857625,5 7,7.23857625 7,10 C7,11.8817433 8.03950486,13.5206972 9.57560117,14.3739483 C7.01699529,15.1866317 5.01613438,17.2513224 4.29266246,19.8483763 Z M12,14 C9.790861,14 8,12.209139 8,10 C8,7.790861 9.790861,6 12,6 C14.209139,6 16,7.790861 16,10 C16,12.209139 14.209139,14 12,14 Z"/>
</svg>
