<svg xmlns="http://www.w3.org/2000/svg" xmlns:xlink="http://www.w3.org/1999/xlink" width="24px" height="24px" viewBox="0 0 24 24" version="1.1">
  <path d="M1.96816459,12.6755617 C1.87120453,12.9341219 1.58299844,13.0651246 1.32443828,12.9681646 C1.06587812,12.8712045 0.93487535,12.5829984 1.03183541,12.3244383 C2.1007502,9.47399884 3.94324875,8 6.5,8 C9.03892705,8 11.0347827,9.45153136 12.4504212,12.2829269 C13.6572436,14.7870528 15.325046,16 17.5,16 C19.6569902,16 21.1446264,14.809891 22.0290978,12.3319192 C22.1219263,12.0718471 22.4080087,11.9362694 22.6680808,12.0290978 C22.9281529,12.1219263 23.0637306,12.4080087 22.9709022,12.6680808 C21.9517277,15.5234423 20.1060306,17 17.5,17 C14.9119332,17 12.9130689,15.5462805 11.5527864,12.7236068 C10.2985507,10.2151353 8.62773961,9 6.5,9 C4.39008458,9 2.8992498,10.1926678 1.96816459,12.6755617 Z"/>
</svg>
