<svg xmlns="http://www.w3.org/2000/svg" xmlns:xlink="http://www.w3.org/1999/xlink" width="24px" height="24px" viewBox="0 0 24 24" version="1.1">
  <path d="M19.6658327,11 L22.8981159,11 C23.1742583,11 23.3981159,11.2238576 23.3981159,11.5 C23.3981159,11.6211116 23.3541568,11.7381066 23.2744042,11.8292523 L17,19 L17,22 L19.5,22 C19.7761424,22 20,22.2238576 20,22.5 C20,22.7761424 19.7761424,23 19.5,23 L13.5,23 C13.2238576,23 13,22.7761424 13,22.5 C13,22.2238576 13.2238576,22 13.5,22 L16,22 L16,19 L9.72559577,11.8292523 C9.54375474,11.621434 9.56481349,11.3055527 9.77263181,11.1237117 C9.86377756,11.0439591 9.98077254,11 10.1018841,11 L18.4770244,11 L16.0794108,14.7296212 C15.9300847,14.9619062 15.9973362,15.2712632 16.2296212,15.4205892 C16.4619062,15.5699153 16.7712632,15.5026638 16.9205892,15.2703788 L19.6658327,11 Z M8.16494473,12 L2.1,12 C2.04477153,12 2,11.9552285 2,11.9 L2,9 C2,7.8954305 2.8954305,7 4,7 L5,7 L5,2 C5,1.44771525 5.44771525,1 6,1 L8,1 C8.55228475,1 9,1.44771525 9,2 L9,7 L10,7 C11.1045695,7 12,7.8954305 12,9 L12,9.5 L10.1018841,9.5 C9.61743782,9.5 9.14945789,9.6758365 8.7848749,9.99484661 C8.19698596,10.5092494 7.98273051,11.2918149 8.16494473,12 Z M8.75684766,13 L12,16.7064598 L12,16.9 C12,16.9552285 11.9552285,17 11.9,17 L2.1,17 C2.04477153,17 2,16.9552285 2,16.9 L2,13.1 C2,13.0447715 2.04477153,13 2.1,13 L8.75684766,13 Z M2.1,18 L11.9,18 C11.9552285,18 12,18.0447715 12,18.1 L12,22 C12,22.5522847 11.5522847,23 11,23 L3,23 C2.44771525,23 2,22.5522847 2,22 L2,18.1 C2,18.0447715 2.04477153,18 2.1,18 Z M18.4770244,11 L20.5794108,7.7296212 C20.7287368,7.49733618 21.0380938,7.43008468 21.2703788,7.57941076 C21.5026638,7.72873685 21.5699153,8.03809377 21.4205892,8.2703788 L19.6658327,11 L18.4770244,11 Z"/>
</svg>
