<svg xmlns="http://www.w3.org/2000/svg" xmlns:xlink="http://www.w3.org/1999/xlink" width="24px" height="24px" viewBox="0 0 24 24" version="1.1">
  <path d="M6.44444444,2 L17.5555556,2 C20.0101544,2 22,3.98984556 22,6.44444444 L22,17.5555556 C22,20.0101544 20.0101544,22 17.5555556,22 L6.44444444,22 C3.98984556,22 2,20.0101544 2,17.5555556 L2,6.44444444 C2,3.98984556 3.98984556,2 6.44444444,2 Z M18.1666667,13.445 L15.8973333,13.445 L13.2988889,8.94444444 C12.569112,9.75050588 12.4270637,10.9291944 12.9444444,11.8855556 C12.9644444,11.9223333 12.9844444,11.9577778 13.0066667,11.9933333 L16.2545556,17.6201111 C16.4122103,17.8974007 16.706354,18.0689584 17.0253274,18.0696596 C17.3443008,18.0703609 17.6391959,17.9000981 17.7980683,17.6235044 C17.9569407,17.3469106 17.9554306,17.0063959 17.7941111,16.7312222 L16.9236667,15.2233333 L18.1666667,15.2233333 C18.6577399,15.2233333 19.0558333,14.8252399 19.0558333,14.3341667 C19.0558333,13.8430935 18.6577399,13.445 18.1666667,13.445 Z M7.39011111,15.5561111 C7.19158289,15.5562538 6.99527558,15.5978844 6.81377778,15.6783333 L6.20588889,16.7311111 C6.04456944,17.0062848 6.04305928,17.3467995 6.20193168,17.6233933 C6.36080408,17.899987 6.65569921,18.0702498 6.97467262,18.0695485 C7.29364603,18.0688473 7.58778971,17.8972896 7.74544444,17.62 L8.57455556,16.184 C8.30836472,15.7911566 7.86464607,15.5559358 7.39011111,15.5561111 Z M12.6836667,13.445 L10.1555556,13.445 L13.912,6.93855556 C14.1535025,6.51379114 14.0068814,5.97373737 13.5837283,5.72942264 C13.1605751,5.4851079 12.6195607,5.62814345 12.3724444,6.04966667 L12,6.695 L11.6274444,6.04966667 C11.3819845,5.62449949 10.8383339,5.47881795 10.4131667,5.72427783 C9.98799951,5.96973771 9.84231793,6.51338835 10.0877778,6.93855556 L10.9735556,8.47277778 L8.10288889,13.445 L5.83333333,13.445 C5.34241356,13.445 4.94444444,13.8429691 4.94444444,14.3338889 C4.94444444,14.8248087 5.34241356,15.2227778 5.83333333,15.2227778 L13.8718889,15.2227778 C14.0361656,14.8259902 13.9915184,14.3733843 13.7528804,14.0163422 C13.5142424,13.6593 13.1131165,13.4449555 12.6836667,13.445 Z"/>
</svg>
