<svg xmlns="http://www.w3.org/2000/svg" xmlns:xlink="http://www.w3.org/1999/xlink" width="24px" height="24px" viewBox="0 0 24 24" version="1.1">
  <path d="M8,6 L16,6 L16,4 C16,2.8954305 15.1045695,2 14,2 L10,2 C8.8954305,2 8,2.8954305 8,4 L8,6 Z M7,6 L7,4 C7,2.34314575 8.34314575,1 10,1 L14,1 C15.6568542,1 17,2.34314575 17,4 L17,6 L18,6 C19.1045695,6 20,6.8954305 20,8 L20,20 C20,21.1045695 19.1045695,22 18,22 L6,22 C4.8954305,22 4,21.1045695 4,20 L4,8 C4,6.8954305 4.8954305,6 6,6 L7,6 Z M16,6 L16,11.5 C16,11.7761424 16.2238576,12 16.5,12 C16.7761424,12 17,11.7761424 17,11.5 L17,6 L16,6 Z M7,6 L7,11.5 C7,11.7761424 7.22385763,12 7.5,12 C7.77614237,12 8,11.7761424 8,11.5 L8,6 L7,6 Z"/>
</svg>
