<svg xmlns="http://www.w3.org/2000/svg" xmlns:xlink="http://www.w3.org/1999/xlink" width="24px" height="24px" viewBox="0 0 24 24" version="1.1">
  <path d="M5.5,4 C5.77614237,4 6,4.22385763 6,4.5 L6,19.5 C6,19.7761424 5.77614237,20 5.5,20 C5.22385763,20 5,19.7761424 5,19.5 L5,4.5 C5,4.22385763 5.22385763,4 5.5,4 Z M8,4 C8.55228475,4 9,4.44771525 9,5 L9,19 C9,19.5522847 8.55228475,20 8,20 C7.44771525,20 7,19.5522847 7,19 L7,5 C7,4.44771525 7.44771525,4 8,4 Z M11.5,4 C11.7761424,4 12,4.22385763 12,4.5 L12,19.5 C12,19.7761424 11.7761424,20 11.5,20 C11.2238576,20 11,19.7761424 11,19.5 L11,4.5 C11,4.22385763 11.2238576,4 11.5,4 Z M2,4 L3,4 C3.55228475,4 4,4.44771525 4,5 L4,19 C4,19.5522847 3.55228475,20 3,20 L2,20 C1.44771525,20 1,19.5522847 1,19 L1,5 C1,4.44771525 1.44771525,4 2,4 Z M18,4 C18.5522847,4 19,4.44771525 19,5 L19,19 C19,19.5522847 18.5522847,20 18,20 C17.4477153,20 17,19.5522847 17,19 L17,5 C17,4.44771525 17.4477153,4 18,4 Z M20.5,4 C20.7761424,4 21,4.22385763 21,4.5 L21,19.5 C21,19.7761424 20.7761424,20 20.5,20 C20.2238576,20 20,19.7761424 20,19.5 L20,4.5 C20,4.22385763 20.2238576,4 20.5,4 Z M22.5,4 C22.7761424,4 23,4.22385763 23,4.5 L23,19.5 C23,19.7761424 22.7761424,20 22.5,20 C22.2238576,20 22,19.7761424 22,19.5 L22,4.5 C22,4.22385763 22.2238576,4 22.5,4 Z M14,4 L15,4 C15.5522847,4 16,4.44771525 16,5 L16,19 C16,19.5522847 15.5522847,20 15,20 L14,20 C13.4477153,20 13,19.5522847 13,19 L13,5 C13,4.44771525 13.4477153,4 14,4 Z"/>
</svg>
