<svg xmlns="http://www.w3.org/2000/svg" xmlns:xlink="http://www.w3.org/1999/xlink" width="24px" height="24px" viewBox="0 0 24 24" version="1.1">
  <path d="M9.70802184,21 L14.2919782,21 C13.9061998,21.8829524 13.0251595,22.5 12,22.5 C10.9748405,22.5 10.0938002,21.8829524 9.70802184,21 Z M9.5,20 L4,20 C2.8954305,20 2,19.1045695 2,18 C2,16.8954305 2.8954305,16 4,16 L4,11 C4,7.21455145 6.62918105,4.04318104 10.1610632,3.21236872 C10.4668305,2.49940733 11.1750938,2 12,2 C12.8249062,2 13.5331695,2.49940733 13.8389368,3.21236872 C17.3708189,4.04318104 20,7.21455145 20,11 L20,16 C21.1045695,16 22,16.8954305 22,18 C22,19.1045695 21.1045695,20 20,20 L14.5,20 L9.5,20 Z"/>
</svg>
