<svg xmlns="http://www.w3.org/2000/svg" xmlns:xlink="http://www.w3.org/1999/xlink" width="24px" height="24px" viewBox="0 0 24 24" version="1.1">
  <path d="M14.5,20 C14.5,21.3807119 13.3807119,22.5 12,22.5 C10.6192881,22.5 9.5,21.3807119 9.5,20 L4,20 C2.8954305,20 2,19.1045695 2,18 C2,16.8954305 2.8954305,16 4,16 L4,11 C4,7.21455145 6.62918105,4.04318104 10.1610632,3.21236872 C10.4668305,2.49940733 11.1750938,2 12,2 C12.8249062,2 13.5331695,2.49940733 13.8389368,3.21236872 C17.3708189,4.04318104 20,7.21455145 20,11 L20,16 C21.1045695,16 22,16.8954305 22,18 C22,19.1045695 21.1045695,20 20,20 L14.5,20 Z M20,17 C19.4477153,17 19,16.5522847 19,16 L19,11 C19,7.7344332 16.7451884,4.92330719 13.6099546,4.18579933 C13.3010496,4.11313494 13.0449692,3.89816601 12.9198909,3.60651929 C12.7633413,3.24149065 12.4039923,3 12,3 C11.5960077,3 11.2366587,3.24149065 11.0801091,3.60651929 C10.9550308,3.89816601 10.6989504,4.11313494 10.3900454,4.18579933 C7.25481161,4.92330719 5,7.7344332 5,11 L5,16 C5,16.5522847 4.55228475,17 4,17 C3.44771525,17 3,17.4477153 3,18 C3,18.5522847 3.44771525,19 4,19 L20,19 C20.5522847,19 21,18.5522847 21,18 C21,17.4477153 20.5522847,17 20,17 Z M10.5,20 C10.5,20.8284271 11.1715729,21.5 12,21.5 C12.8284271,21.5 13.5,20.8284271 13.5,20 L10.5,20 Z"/>
</svg>
