<svg xmlns="http://www.w3.org/2000/svg" xmlns:xlink="http://www.w3.org/1999/xlink" width="24px" height="24px" viewBox="0 0 24 24" version="1.1">
  <path d="M3,3.9973917 L3,9.0026083 C3,9.55253175 3.44722156,10 3.9973917,10 L9.0026083,10 C9.55253175,10 10,9.55277844 10,9.0026083 L10,3.9973917 C10,3.44746825 9.55277844,3 9.0026083,3 L3.9973917,3 C3.44746825,3 3,3.44722156 3,3.9973917 Z M2,3.9973917 C2,2.89426273 2.89585781,2 3.9973917,2 L9.0026083,2 C10.1057373,2 11,2.89585781 11,3.9973917 L11,9.0026083 C11,10.1057373 10.1041422,11 9.0026083,11 L3.9973917,11 C2.89426273,11 2,10.1041422 2,9.0026083 L2,3.9973917 Z M3,14.9973917 L3,20.0026083 C3,20.5525317 3.44722156,21 3.9973917,21 L9.0026083,21 C9.55253175,21 10,20.5527784 10,20.0026083 L10,14.9973917 C10,14.4474683 9.55277844,14 9.0026083,14 L3.9973917,14 C3.44746825,14 3,14.4472216 3,14.9973917 Z M2,14.9973917 C2,13.8942627 2.89585781,13 3.9973917,13 L9.0026083,13 C10.1057373,13 11,13.8958578 11,14.9973917 L11,20.0026083 C11,21.1057373 10.1041422,22 9.0026083,22 L3.9973917,22 C2.89426273,22 2,21.1041422 2,20.0026083 L2,14.9973917 Z M14,3.9973917 L14,9.0026083 C14,9.55253175 14.4472216,10 14.9973917,10 L20.0026083,10 C20.5525317,10 21,9.55277844 21,9.0026083 L21,3.9973917 C21,3.44746825 20.5527784,3 20.0026083,3 L14.9973917,3 C14.4474683,3 14,3.44722156 14,3.9973917 Z M13,3.9973917 C13,2.89426273 13.8958578,2 14.9973917,2 L20.0026083,2 C21.1057373,2 22,2.89585781 22,3.9973917 L22,9.0026083 C22,10.1057373 21.1041422,11 20.0026083,11 L14.9973917,11 C13.8942627,11 13,10.1041422 13,9.0026083 L13,3.9973917 Z M19.9998232,22 L19.9998232,21 C20.5485058,21 21,20.5502132 21,20.0026083 L21,14.9973917 C21,14.4474683 20.5527784,14 20.0026083,14 L14.9973917,14 C14.4474683,14 14,14.4472216 14,14.9973917 L14,20.0026083 C14,20.5522804 14.4479753,21 14.9996352,21 L20.0231261,21 L20.0231261,21.9998656 C20.0153684,21.9999551 20.0076007,22 19.9998232,22 L20.0231261,22 L19.9998232,22 Z M20.0231261,21 L19.9998232,22 L14.9996352,22 C13.8952672,22 13,21.1041422 13,20.0026083 L13,14.9973917 C13,13.8942627 13.8958578,13 14.9973917,13 L20.0026083,13 C21.1057373,13 22,13.8958578 22,14.9973917 L22,20.0026083 C22,21.0979214 21.1102884,21.9873176 20.0231261,21.9998656 L20.0231261,21 Z"/>
</svg>
