<svg xmlns="http://www.w3.org/2000/svg" xmlns:xlink="http://www.w3.org/1999/xlink" width="24px" height="24px" viewBox="0 0 24 24" version="1.1">
  <path d="M3.00010023,5.74386309 C3.01967627,8.93368945 4.38608739,11.2542678 8.54719318,15.2578953 C8.56564261,15.2758841 8.56564261,15.2758841 8.63617231,15.3446178 C8.71033874,15.416835 8.71033874,15.416835 8.73813364,15.4438972 C13.0119779,19.6395699 15.2210729,20.9813922 18.2500223,21 C19.9347555,21 20.8694861,20.2836076 20.9872965,18.6223984 C20.8809885,18.5358193 20.7445818,18.4314568 20.5836473,18.3140437 C20.1018885,17.9625669 19.441498,17.5235607 18.7516432,17.0968727 C17.6281062,16.4019443 16.5400301,15.8252951 16.0482283,15.6164369 C15.1255574,16.5698665 14.4894502,16.97875 13.9162981,16.97875 C13.7851756,16.97875 13.7258625,16.969012 13.5343868,16.9143021 C13.5091709,16.9034953 13.4874494,16.8941861 13.4683565,16.8858796 C13.0219053,16.6997371 12.0559554,15.9145807 10.1592074,14.0158547 L9.98332491,13.839971 C8.08424421,11.9428459 7.29909265,10.9768904 7.11182171,10.5309127 C7.10533109,10.5136298 7.0970207,10.4948212 7.08762244,10.4735505 C6.83802167,9.7912441 7.23221506,9.06597288 8.37177655,7.96102501 C8.32932116,7.85435116 8.27472494,7.72912735 8.20891931,7.58876283 C7.95190581,7.04054867 7.54689102,6.3077237 7.07057974,5.52257909 C6.62335201,4.78537539 6.14449237,4.05416037 5.75470277,3.5116247 C5.60946142,3.30946791 5.48128443,3.14017039 5.37753531,3.01274176 C3.70662011,3.13153334 2.98970379,4.07834279 3.00010023,5.74386309 Z M5.75009674,2 C6.16134429,2 9.91632193,7.895 9.42132488,8.34625 C7.78008465,9.85125 8.03383314,10.14375 8.03383314,10.14375 C8.03383314,10.14375 8.2763317,10.72125 10.6900673,13.1325 L10.8663163,13.30875 C13.2775519,15.7225 13.8550485,15.965 13.8550485,15.965 C13.8550485,15.965 13.8712984,15.97875 13.9162981,15.97875 C14.0612973,15.97875 14.5037946,15.83125 15.6525378,14.5775 C15.6800376,14.54625 15.7287873,14.5325 15.7950369,14.5325 C16.8087809,14.5325 22,17.86375 22,18.25 C22,21.025 20.2750103,22 18.2875221,22 C14.5837941,21.9775 12.0000595,20.0475 8.03758312,16.1575 C8.03758312,16.1575 7.85133423,15.97625 7.84008429,15.965 C3.71885883,12 2.02261892,9.41625 2.00011906,5.75 C1.98761913,3.7475 2.95761336,2 5.75009674,2 Z"/>
</svg>
