<svg xmlns="http://www.w3.org/2000/svg" xmlns:xlink="http://www.w3.org/1999/xlink" width="24px" height="24px" viewBox="0 0 24 24" version="1.1">
  <path d="M22.0050831,17 C22.5580601,17 23.0000417,16.558 23.0000417,15.994 L23.0000417,11.006 C23.0000417,10.446 22.5560602,10 22.0000833,10 L20.4901462,10 C19.8101746,10 19.1372026,9.536 18.8862131,8.91 L17.8152577,5.233 C17.5562685,4.586 16.6893046,4 15.9903337,4 L7.00770801,4 C6.45073122,4 6.00174993,4.446 5.99875005,5 L5.99875005,6 L7.49868755,6 C7.77467606,6 7.99866672,6.232 7.99866672,6.5 C7.99866672,6.776 7.76767635,7 7.49868755,7 L0.499979168,7 C0.223990667,7 0,6.768 0,6.5 C0,6.224 0.230990375,6 0.499979168,6 L4.99979168,6 L4.99979168,5 C5.00279155,3.891 5.90075414,3 7.00870797,3 L15.9913337,3 C17.0982876,3 18.3332361,3.834 18.744219,4.862 L19.8151744,8.539 C19.9141702,8.786 20.2191575,9 20.4901462,9 L22.0000833,9 C23.112037,9 24,9.898 24,11.006 L24,15.994 C24,17.113 23.1070372,18 22.0050831,18 C22.0000833,19.657 20.6571393,21 19.0002083,21 C17.3432774,21 16.0003333,19.657 16.0003333,18 L10.0005833,18 C10.0005833,19.657 8.65763927,21 7.0007083,21 C5.34377734,21 4.0008333,19.657 3.99583351,18 C2.90387901,18 2.00091663,17.102 2.00091663,15.994 L2.00091663,11.4999792 C2.00091663,11.2238483 2.22476493,11 2.5008958,11 L2.5008958,11 C2.77702667,11 3.00087496,11.2238483 3.00087496,11.4999792 L3.00087496,15.994 C3.00087496,16.547 3.45285613,17 3.99583351,17 L4.17182617,17 C4.58380901,15.835 5.69476272,15 7.0007083,15 C8.30665389,15 9.4176076,15.835 9.82959043,17 L16.1703262,17 C16.5823091,15.835 17.6932628,15 18.9992084,15 C20.305154,15 21.4171076,15.835 21.8290905,17 L22.0050831,17 Z M19.0002083,20 C20.1051623,20 21.000125,19.105 21.000125,18 C21.000125,16.895 20.1051623,16 19.0002083,16 C17.8952544,16 17.0002917,16.895 17.0002917,18 C17.0002917,19.105 17.8952544,20 19.0002083,20 Z M7.0007083,20 C8.10566226,20 9.00062497,19.105 9.00062497,18 C9.00062497,16.895 8.10566226,16 7.0007083,16 C5.89575434,16 5.00079163,16.895 5.00079163,18 C5.00079163,19.105 5.89575434,20 7.0007083,20 Z M6.00074997,8.502 C6.00074997,8.677 5.97075122,8.844 5.91675347,9 L7.4976876,9 C7.77567601,9 8.00066664,9.232 8.00066664,9.5 C8.00066664,9.776 7.76867631,10 7.4976876,10 L1.50493729,10 C1.22694888,10 1.00195825,9.768 1.00195825,9.5 C1.00195825,9.224 1.23394859,9 1.50493729,9 L4.50581226,9 C4.78480063,9 5.00079163,8.777 5.00079163,8.502 L5.00079163,8.49997917 C5.00079163,8.2238483 5.22463993,8 5.5007708,8 C5.77690167,8 6.00074997,8.2238483 6.00074997,8.49997917 L6.00074997,8.502 Z M9.49962502,6 L10.4995417,6 C10.7756841,6 10.9995417,6.22385763 10.9995417,6.5 C10.9995417,6.77614237 10.7756841,7 10.4995417,7 L9.49962502,7 C9.22348264,7 8.99962502,6.77614237 8.99962502,6.5 C8.99962502,6.22385763 9.22348264,6 9.49962502,6 Z"/>
</svg>
