<svg xmlns="http://www.w3.org/2000/svg" xmlns:xlink="http://www.w3.org/1999/xlink" width="24px" height="24px" viewBox="0 0 24 24" version="1.1">
  <path d="M6.31578947,18 C7.70526316,18 8.84210526,19.125 8.84210526,20.5 C8.84210526,21.875 7.70526316,23 6.31578947,23 C4.92631579,23 3.78947368,21.875 3.78947368,20.5 C3.78947368,19.125 4.92631579,18 6.31578947,18 Z M6.31578947,19 C5.47627012,19 4.78947368,19.6796423 4.78947368,20.5 C4.78947368,21.3203577 5.47627012,22 6.31578947,22 C7.15530882,22 7.84210526,21.3203577 7.84210526,20.5 C7.84210526,19.6796423 7.15530882,19 6.31578947,19 Z M17.6842105,18 C19.0736842,18 20.2105263,19.125 20.2105263,20.5 C20.2105263,21.875 19.0736842,23 17.6842105,23 C16.2947368,23 15.1578947,21.875 15.1578947,20.5 C15.1578947,19.125 16.2947368,18 17.6842105,18 Z M17.6842105,19 C16.8446912,19 16.1578947,19.6796423 16.1578947,20.5 C16.1578947,21.3203577 16.8446912,22 17.6842105,22 C18.5237299,22 19.2105263,21.3203577 19.2105263,20.5 C19.2105263,19.6796423 18.5237299,19 17.6842105,19 Z M5.30526316,15.75 L20.8421053,15.25 C21.2210526,15.25 21.4736842,15.5 21.4736842,15.875 C21.4736842,16.25 21.2210526,16.5 20.8421053,16.5 L4.42105263,17 C4.04210526,17.125 3.66315789,16.625 3.78947368,16.25 L4.54736842,13.875 C4.8,13.25 4.8,12.75 4.67368421,12.125 L3.41052632,5.25 C3.28421053,4.625 2.77894737,4.25 2.14736842,4.25 L0.631578947,4.25 C0.252631579,4.25 0,4 0,3.625 C0,3.25 0.252631579,3 0.631578947,3 L22.7368421,3 C23.4947368,3 24,3.5 24,4.25 L24,11.375 C24,12 23.4947368,12.5 22.8631579,12.625 L5.68421053,14.5 L5.30526316,15.75 Z M22.6690072,11.6440283 C22.8790051,11.6024662 23,11.4735213 23,11.375 L23,4.25 C23,4.05464231 22.9447825,4 22.7368421,4 L3.87155164,4 C4.12640195,4.28836452 4.30946487,4.65040788 4.39406324,5.06929274 L5.65386604,11.9269001 C5.77149938,12.50894 5.79205372,13.009659 5.70352507,13.4919814 L22.6690072,11.6440283 Z"/>
</svg>
