<svg xmlns="http://www.w3.org/2000/svg" xmlns:xlink="http://www.w3.org/1999/xlink" width="24px" height="24px" viewBox="0 0 24 24" version="1.1">
  <path d="M5.13910367,3 L19,3 C20.1045695,3 21,3.8954305 21,5 L21,15 C21,16.1045695 20.1045695,17 19,17 L5.13910367,17 C4.43295249,17 3.77913795,16.6276187 3.41890905,16.02026 L0.150810718,10.51013 C-0.0357261983,10.1956221 -0.0357261983,9.80437788 0.150810718,9.48987 L3.41890905,3.97974001 C3.77913795,3.37238127 4.43295249,3 5.13910367,3 Z M24,8 L24,18 C24,19.1045695 23.1045695,20 22,20 L8.13910367,20 C7.43295249,20 6.77913795,19.6276187 6.41890905,19.02026 L5.8137854,18 L19,18 C20.6568542,18 22,16.6568542 22,15 L22,6 C23.1045695,6 24,6.8954305 24,8 Z"/>
</svg>
