<svg xmlns="http://www.w3.org/2000/svg" xmlns:xlink="http://www.w3.org/1999/xlink" width="24px" height="24px" viewBox="0 0 24 24" version="1.1">
  <path d="M19,7 L8,7 C6.8954305,7 6,7.8954305 6,9 L6,16 L5,16 L1.85355339,19.1464466 C1.65829124,19.3417088 1.34170876,19.3417088 1.14644661,19.1464466 C1.05267842,19.0526784 1,18.9255015 1,18.7928932 L1,4 C1,2.8954305 1.8954305,2 3,2 L17,2 C18.1045695,2 19,2.8954305 19,4 L19,7 Z M23,10 L23,21.7928932 C23,22.0690356 22.7761424,22.2928932 22.5,22.2928932 C22.3673918,22.2928932 22.2402148,22.2402148 22.1464466,22.1464466 L20,20 L9,20 C7.8954305,20 7,19.1045695 7,18 L7,10 C7,8.8954305 7.8954305,8 9,8 L21,8 C22.1045695,8 23,8.8954305 23,10 Z M11,15 C11.5522847,15 12,14.5522847 12,14 C12,13.4477153 11.5522847,13 11,13 C10.4477153,13 10,13.4477153 10,14 C10,14.5522847 10.4477153,15 11,15 Z M15,15 C15.5522847,15 16,14.5522847 16,14 C16,13.4477153 15.5522847,13 15,13 C14.4477153,13 14,13.4477153 14,14 C14,14.5522847 14.4477153,15 15,15 Z M19,15 C19.5522847,15 20,14.5522847 20,14 C20,13.4477153 19.5522847,13 19,13 C18.4477153,13 18,13.4477153 18,14 C18,14.5522847 18.4477153,15 19,15 Z"/>
</svg>
