<svg xmlns="http://www.w3.org/2000/svg" xmlns:xlink="http://www.w3.org/1999/xlink" width="24px" height="24px" viewBox="0 0 24 24" version="1.1">
  <path d="M19,8 L21,8 C22.1045695,8 23,8.8954305 23,10 L23,21.7928932 C23,22.0690356 22.7761424,22.2928932 22.5,22.2928932 C22.3673918,22.2928932 22.2402148,22.2402148 22.1464466,22.1464466 L20,20 L9,20 C7.8954305,20 7,19.1045695 7,18 L7,16 L5,16 L1.85355339,19.1464466 C1.65829124,19.3417088 1.34170876,19.3417088 1.14644661,19.1464466 C1.05267842,19.0526784 1,18.9255015 1,18.7928932 L1,4 C1,2.8954305 1.8954305,2 3,2 L17,2 C18.1045695,2 19,2.8954305 19,4 L19,8 Z M7,15 L7,10 C7,8.8954305 7.8954305,8 9,8 L18,8 L18,4 C18,3.44771525 17.5522847,3 17,3 L3,3 C2.44771525,3 2,3.44771525 2,4 L2,17.5857864 L4.29289322,15.2928932 C4.4804296,15.1053568 4.73478351,15 5,15 L7,15 Z M22,10 C22,9.44771525 21.5522847,9 21,9 L9,9 C8.44771525,9 8,9.44771525 8,10 L8,18 C8,18.5522847 8.44771525,19 9,19 L20.4142136,19 L22,20.5857864 L22,10 Z M11,15 C10.4477153,15 10,14.5522847 10,14 C10,13.4477153 10.4477153,13 11,13 C11.5522847,13 12,13.4477153 12,14 C12,14.5522847 11.5522847,15 11,15 Z M15,15 C14.4477153,15 14,14.5522847 14,14 C14,13.4477153 14.4477153,13 15,13 C15.5522847,13 16,13.4477153 16,14 C16,14.5522847 15.5522847,15 15,15 Z M19,15 C18.4477153,15 18,14.5522847 18,14 C18,13.4477153 18.4477153,13 19,13 C19.5522847,13 20,13.4477153 20,14 C20,14.5522847 19.5522847,15 19,15 Z"/>
</svg>
