<svg xmlns="http://www.w3.org/2000/svg" xmlns:xlink="http://www.w3.org/1999/xlink" width="24px" height="24px" viewBox="0 0 24 24" version="1.1">
  <path d="M7.194 13.224l3.448 2.666a.53.53 0 0 0 .71-.058l5.517-6a.489.489 0 0 0-.042-.706.53.53 0 0 0-.73.042l-5.192 5.645-3.065-2.37a.53.53 0 0 0-.727.078.49.49 0 0 0 .08.703z" fill-rule="nonzero"/><path d="M12 23a.5.5 0 1 1 0-1c.642 0 1.276-.06 1.897-.18a.5.5 0 1 1 .188.982c-.682.132-1.38.198-2.085.198zM16.115 22.204a.5.5 0 0 1-.374-.927 9.968 9.968 0 0 0 1.69-.878.5.5 0 0 1 .543.839c-.587.38-1.21.704-1.86.966zM19.63 19.924a.5.5 0 1 1-.694-.72c.459-.442.874-.926 1.241-1.446a.5.5 0 1 1 .817.576c-.403.572-.86 1.104-1.364 1.59zM22.082 16.405a.5.5 0 1 1-.916-.4 9.92 9.92 0 0 0 .592-1.81.5.5 0 0 1 .976.218 10.92 10.92 0 0 1-.652 1.992zM22.992 12.416a.5.5 0 1 1-.999-.038 10.182 10.182 0 0 0-.11-1.908.5.5 0 1 1 .99-.152 11.107 11.107 0 0 1 .12 2.098zM22.353 8.274a.5.5 0 1 1-.941.338 9.952 9.952 0 0 0-.814-1.721.5.5 0 0 1 .86-.512c.357.601.657 1.235.895 1.895zM20.206 4.675a.5.5 0 1 1-.746.666 10.062 10.062 0 0 0-1.398-1.295.5.5 0 0 1 .607-.794c.556.424 1.071.9 1.537 1.423zM16.791 2.096a.5.5 0 1 1-.436.9 9.925 9.925 0 0 0-1.785-.663.5.5 0 0 1 .256-.966c.679.18 1.336.424 1.965.729zM12.83 1.03a.5.5 0 1 1-.074.998 10.143 10.143 0 0 0-1.917.039.5.5 0 0 1-.115-.994 11.176 11.176 0 0 1 2.106-.042zM8.665 1.515a.5.5 0 0 1 .303.953 9.938 9.938 0 0 0-1.751.748.5.5 0 0 1-.48-.878 10.938 10.938 0 0 1 1.928-.823zM4.989 3.524a.5.5 0 1 1 .638.77c-.49.406-.941.857-1.346 1.348a.5.5 0 0 1-.772-.636c.445-.54.94-1.036 1.48-1.482zM2.288 6.83a.5.5 0 0 1 .883.47c-.3.561-.544 1.15-.732 1.759a.5.5 0 0 1-.956-.294c.206-.67.476-1.318.805-1.935zM1.07 10.756a.5.5 0 0 1 .993.112 10.108 10.108 0 0 0-.032 1.923.5.5 0 0 1-.997.078 11.284 11.284 0 0 1 .036-2.113zM1.397 14.94a.5.5 0 0 1 .964-.268c.17.615.398 1.21.681 1.779a.5.5 0 1 1-.895.445 10.927 10.927 0 0 1-.75-1.957zM3.266 18.688a.5.5 0 1 1 .793-.609c.387.505.822.972 1.298 1.395a.5.5 0 1 1-.665.748c-.523-.465-1-.98-1.426-1.534zM6.461 21.506a.5.5 0 0 1 .504-.864c.55.32 1.128.588 1.729.799a.5.5 0 0 1-.33.943 10.949 10.949 0 0 1-1.903-.878z"/>
  <path d="M10.345 22.876a.5.5 0 0 1 .15-.989c.486.074.98.112 1.48.113a.5.5 0 1 1-.002 1 11.08 11.08 0 0 1-1.628-.124z"/>
</svg>
