<svg xmlns="http://www.w3.org/2000/svg" xmlns:xlink="http://www.w3.org/1999/xlink" width="24px" height="24px" viewBox="0 0 24 24" version="1.1">
  <path d="M12,23 C5.92486775,23 1,18.0751322 1,12 C1,5.92486775 5.92486775,1 12,1 C18.0751322,1 23,5.92486775 23,12 C23,18.0751322 18.0751322,23 12,23 Z M12,22 C17.5228475,22 22,17.5228475 22,12 C22,6.4771525 17.5228475,2 12,2 C6.4771525,2 2,6.4771525 2,12 C2,17.5228475 6.4771525,22 12,22 Z M7.19378131,13.2236948 C6.97101144,13.0510215 6.93514756,12.7363428 7.11308758,12.5210012 C7.29171729,12.3056596 7.61725097,12.2703249 7.84002084,12.4429982 L10.9050032,14.8130891 L16.0962998,9.16753913 C16.2859646,8.96153122 16.6128777,8.94286384 16.8266816,9.12620421 C17.0397958,9.30954458 17.0591071,9.62555671 16.8694423,9.83223131 L11.3519223,15.8324616 C11.1691545,16.0311359 10.8574146,16.0564702 10.6422313,15.8904638 L7.19378131,13.2236948 Z"/>
</svg>
