<svg xmlns="http://www.w3.org/2000/svg" xmlns:xlink="http://www.w3.org/1999/xlink" width="24px" height="24px" viewBox="0 0 24 24" version="1.1">
  <path d="M12,12 L19.5,12 C19.7761424,12 20,12.2238576 20,12.5 C20,12.7761424 19.7761424,13 19.5,13 L11.5,13 C11.2238576,13 11,12.7761424 11,12.5 L11,4.5 C11,4.22385763 11.2238576,4 11.5,4 C11.7761424,4 12,4.22385763 12,4.5 L12,12 Z M12,1 C18.0775,1 23,5.9225 23,12 C23,18.0775 18.0775,23 12,23 C5.9225,23 1,18.0775 1,12 C1,5.9225 5.9225,1 12,1 Z M12,2 C6.475,2 2,6.475 2,12 C2,17.525 6.475,22 12,22 C17.525,22 22,17.525 22,12 C22,6.475 17.525,2 12,2 Z"/>
</svg>
