<svg xmlns="http://www.w3.org/2000/svg" xmlns:xlink="http://www.w3.org/1999/xlink" width="24px" height="24px" viewBox="0 0 24 24" version="1.1">
  <path d="M12,12 L12,4.5 C12,4.22385763 11.7761424,4 11.5,4 C11.2238576,4 11,4.22385763 11,4.5 L11,12.5 C11,12.7761424 11.2238576,13 11.5,13 L19.5,13 C19.7761424,13 20,12.7761424 20,12.5 C20,12.2238576 19.7761424,12 19.5,12 L12,12 Z M12,1 C18.0775,1 23,5.9225 23,12 C23,18.0775 18.0775,23 12,23 C5.9225,23 1,18.0775 1,12 C1,5.9225 5.9225,1 12,1 Z"/>
</svg>
