<svg xmlns="http://www.w3.org/2000/svg" xmlns:xlink="http://www.w3.org/1999/xlink" width="24px" height="24px" viewBox="0 0 24 24" version="1.1">
  <path d="M20,9 L23,9 L23,13 C23,14.1045695 22.1045695,15 21,15 L19.9291111,15 C19.4438815,18.3922941 16.5264719,21 13,21 L10,21 C6.13400675,21 3,17.8659932 3,14 L3,9 L20,9 Z M19,10 L4,10 L4,14 C4,17.3137085 6.6862915,20 10,20 L13,20 C16.3137085,20 19,17.3137085 19,14 L19,10 Z M3.5,22 L19.5,22 C19.7761424,22 20,22.2238576 20,22.5 C20,22.7761424 19.7761424,23 19.5,23 L3.5,23 C3.22385763,23 3,22.7761424 3,22.5 C3,22.2238576 3.22385763,22 3.5,22 Z M20,14 L21,14 C21.5522847,14 22,13.5522847 22,13 L22,10 L20,10 L20,14 Z M10.49,8 L8.51,8 C7.678,8 7,7.327 7,6.5 C7,5.673 7.671,5 8.495,5 L17.504,5 C17.782,5 18,4.78 18,4.5 C18,4.229 17.767,4 17.492,4 L4.5,4 C3.668,4 3,3.327 3,2.5 C3,1.673 3.668,1 4.5,1 L14.5,1 C14.776,1 15,1.224 15,1.5 C15,1.776 14.776,2 14.5,2 L4.509,2 C4.229,2 4,2.224 4,2.5 C4,2.78 4.224,3 4.509,3 L17.492,3 C18.324,3 19,3.673 19,4.5 C19,5.327 18.329,6 17.504,6 L8.495,6 C8.226,6 8,6.229 8,6.5 C8,6.776 8.229,7 8.51,7 L10.49,7 C11.8266667,7 13.1633333,7 14.5,7 C14.7761424,7 15,7.22385763 15,7.5 C15,7.77614237 14.7761424,8 14.5,8 C13.1633333,8 11.8266667,8 10.49,8 Z M19.5,2 L16.5,2 C16.224,2 16,1.776 16,1.5 C16,1.224 16.224,1 16.5,1 L19.5,1 C19.776,1 20,1.224 20,1.5 C20,1.776 19.776,2 19.5,2 Z M21.5,2 C21.2238576,2 21,1.77614237 21,1.5 C21,1.22385763 21.2238576,1 21.5,1 C21.7761424,1 22,1.22385763 22,1.5 C22,1.77614237 21.7761424,2 21.5,2 Z"/>
</svg>
