<svg xmlns="http://www.w3.org/2000/svg" xmlns:xlink="http://www.w3.org/1999/xlink" width="24px" height="24px" viewBox="0 0 24 24" version="1.1">
  <path d="M7.69805469,8.93892045 L11.5,11.1339746 L11.5,6.74386629 L8.54012625,4.43135948 C8.32252309,4.26134925 8.28394139,3.94712652 8.45395161,3.72952336 C8.62396183,3.5119202 8.93818456,3.4733385 9.15578772,3.64334872 L11.5,5.47484808 L11.5,1.5 C11.5,1.22385763 11.7238576,1 12,1 C12.2761424,1 12.5,1.22385763 12.5,1.5 L12.5,5.47484808 L14.8442123,3.64334872 C15.0618154,3.4733385 15.3760382,3.5119202 15.5460484,3.72952336 C15.7160586,3.94712652 15.6774769,4.26134925 15.4598738,4.43135948 L12.5,6.74386629 L12.5,11.1339746 L16.3019453,8.93892045 L16.8246981,5.21934117 C16.8631297,4.9458862 17.1159637,4.7553621 17.3894187,4.79379369 C17.6628737,4.83222528 17.8533977,5.0850593 17.8149662,5.35851428 L17.4009473,8.30441134 L20.8432667,6.3169873 C21.0824131,6.17891611 21.3882083,6.26085369 21.5262794,6.5 C21.6643506,6.73914631 21.5824131,7.04494151 21.3432667,7.1830127 L17.9009473,9.17043674 L20.6591784,10.2848344 C20.9152132,10.3882792 21.0389118,10.6796949 20.9354671,10.9357297 C20.8320223,11.1917644 20.5406066,11.3154631 20.2845718,11.2120183 L16.8019453,9.80494585 L13,12 L16.8019453,14.1950542 L20.2845718,12.7879817 C20.5406066,12.6845369 20.8320223,12.8082356 20.9354671,13.0642703 C21.0389118,13.3203051 20.9152132,13.6117208 20.6591784,13.7151656 L17.9009473,14.8295633 L21.3432667,16.8169873 C21.5824131,16.9550585 21.6643506,17.2608537 21.5262794,17.5 C21.3882083,17.7391463 21.0824131,17.8210839 20.8432667,17.6830127 L17.4009473,15.6955887 L17.8149662,18.6414857 C17.8533977,18.9149407 17.6628737,19.1677747 17.3894187,19.2062063 C17.1159637,19.2446379 16.8631297,19.0541138 16.8246981,18.7806588 L16.3019453,15.0610796 L12.5,12.8660254 L12.5,17.2561337 L15.4598738,19.5686405 C15.6774769,19.7386507 15.7160586,20.0528735 15.5460484,20.2704766 C15.3760382,20.4880798 15.0618154,20.5266615 14.8442123,20.3566513 L12.5,18.5251519 L12.5,22.5 C12.5,22.7761424 12.2761424,23 12,23 C11.7238576,23 11.5,22.7761424 11.5,22.5 L11.5,18.5251519 L9.15578772,20.3566513 C8.93818456,20.5266615 8.62396183,20.4880798 8.45395161,20.2704766 C8.28394139,20.0528735 8.32252309,19.7386507 8.54012625,19.5686405 L11.5,17.2561337 L11.5,12.8660254 L7.69805469,15.0610796 L7.17530191,18.7806588 C7.13687032,19.0541138 6.8840363,19.2446379 6.61058132,19.2062063 C6.33712635,19.1677747 6.14660225,18.9149407 6.18503384,18.6414857 L6.59905267,15.6955887 L3.15673326,17.6830127 C2.91758695,17.8210839 2.61179175,17.7391463 2.47372056,17.5 C2.33564937,17.2608537 2.41758695,16.9550585 2.65673326,16.8169873 L6.09905267,14.8295633 L3.34082156,13.7151656 C3.08478681,13.6117208 2.96108818,13.3203051 3.06453293,13.0642703 C3.16797769,12.8082356 3.45939341,12.6845369 3.71542816,12.7879817 L7.19805469,14.1950542 L11,12 L7.19805469,9.80494585 L3.71542816,11.2120183 C3.45939341,11.3154631 3.16797769,11.1917644 3.06453293,10.9357297 C2.96108818,10.6796949 3.08478681,10.3882792 3.34082156,10.2848344 L6.09905267,9.17043674 L2.65673326,7.1830127 C2.41758695,7.04494151 2.33564937,6.73914631 2.47372056,6.5 C2.61179175,6.26085369 2.91758695,6.17891611 3.15673326,6.3169873 L6.59905267,8.30441134 L6.18503384,5.35851428 C6.14660225,5.0850593 6.33712635,4.83222528 6.61058132,4.79379369 C6.8840363,4.7553621 7.13687032,4.9458862 7.17530191,5.21934117 L7.69805469,8.93892045 Z"/>
</svg>
