<svg xmlns="http://www.w3.org/2000/svg" xmlns:xlink="http://www.w3.org/1999/xlink" width="24px" height="24px" viewBox="0 0 24 24" version="1.1">
  <path d="M5.67273876,5.56066017 L4.87419254,6.35920639 C4.87247996,6.36091898 4.81918537,6.48925609 4.81918537,6.4945037 L4.81918537,11.3054841 C4.81918537,11.3131624 4.87117791,11.4377668 4.87982332,11.4464122 L14.1107537,20.6773426 C14.4991955,21.0657844 15.1379901,21.0669695 15.5259489,20.6790107 L21.4981961,14.7067635 C21.8884236,14.316536 21.8880288,13.6830692 21.496528,13.2915684 L12.2655976,4.06063795 C12.2572211,4.05226153 12.1294255,4 12.1109881,4 L7.31918537,4 C7.043043,4 6.81918537,3.77614237 6.81918537,3.5 C6.81918537,3.22385763 7.043043,3 7.31918537,3 L12.1109881,3 C12.3916509,3 12.7746726,3.15549946 12.9727043,3.35353117 L22.2036348,12.5844616 C22.985415,13.3662419 22.9862997,14.6328734 22.2053029,15.4138703 L16.2330557,21.3861175 C15.4521967,22.1669765 14.1802329,22.1610353 13.403647,21.3844494 L4.17271654,12.153519 C3.97746667,11.9582691 3.81918537,11.5797038 3.81918537,11.3054841 L3.81918537,6.4945037 C3.81918537,6.22139685 3.97971165,5.83947372 4.16708576,5.65209961 L4.96563198,4.85355339 L2.17357877,2.06150018 C1.9778527,1.86577411 1.98318719,1.54310496 2.17273876,1.35355339 C2.36800091,1.15829124 2.688983,1.16269085 2.88068555,1.3543934 L9.31834537,7.79205321 C9.51407143,7.98777928 9.50873695,8.31044843 9.31918537,8.5 C9.12392323,8.69526215 8.80294113,8.69086254 8.61123858,8.49915999 L7.46141943,7.34934083 C7.10239661,8.01261374 7.20316647,8.85885483 7.76372902,9.41941738 C8.44714653,10.1028349 9.55518525,10.1028349 10.2386028,9.41941738 C10.9220203,8.73599987 10.9220203,7.62796116 10.2386028,6.94454365 C10.0433406,6.7492815 10.0433406,6.43269901 10.2386028,6.23743687 C10.4338649,6.04217472 10.7504474,6.04217472 10.9457095,6.23743687 C12.0196513,7.31137867 12.0196513,9.05258236 10.9457095,10.1265242 C9.87176773,11.200466 8.13056404,11.200466 7.05662224,10.1265242 C6.10341768,9.1733196 5.99625425,7.69445248 6.73513194,6.62305335 L5.67273876,5.56066017 Z" transform="translate(12.409593, 11.589092) scale(-1, 1) translate(-12.409593, -11.589092) "/>
</svg>
