<svg xmlns="http://www.w3.org/2000/svg" xmlns:xlink="http://www.w3.org/1999/xlink" width="24px" height="24px" viewBox="0 0 24 24" version="1.1">
  <path d="M11.5033 2.5C11.5033 2.22386 11.7272 2 12.0033 2C12.2795 2 12.5033 2.22386 12.5033 2.5L12.5033 14.2929L14.7778 12.0184C14.9726 11.8236 15.2829 11.8299 15.4782 12.0251C15.6678 12.2147 15.6765 12.534 15.4849 12.7255L12.3501 15.8603C12.2539 15.9565 12.1294 16.0037 12.0045 16.0032C11.877 16.0007 11.7511 15.9549 11.6565 15.8603L8.52172 12.7255C8.32697 12.5307 8.33319 12.2204 8.52845 12.0251C8.718 11.8356 9.03728 11.8268 9.22883 12.0184L11.5033 14.2929L11.5033 2.5ZM10 6.49996C10 6.7761 9.77614 6.99996 9.5 6.99996L6 6.99996C5.44771 6.99996 5 7.44767 5 7.99996L5 20C5 20.5522 5.44771 21 6 21H18C18.5523 21 19 20.5522 19 20L19 7.99996C19 7.44767 18.5523 6.99996 18 6.99996L14.5 6.99996C14.2239 6.99996 14 6.7761 14 6.49996C14 6.22381 14.2239 5.99996 14.5 5.99996L18 5.99996C19.1046 5.99996 20 6.89539 20 7.99996L20 20C20 21.1045 19.1046 22 18 22H6C4.89543 22 4 21.1045 4 20L4 7.99996C4 6.89539 4.89543 5.99996 6 5.99996H9.5C9.77614 5.99996 10 6.22381 10 6.49996Z"/>
</svg>
