<svg xmlns="http://www.w3.org/2000/svg" xmlns:xlink="http://www.w3.org/1999/xlink" width="24px" height="24px" viewBox="0 0 24 24" version="1.1">
  <path d="M21.008,5 L2.992,5 C2.456,5 2,5.451 2,6.007 L2,17.993 C2,18.55 2.444,19 2.992,19 L21.008,19 C21.544,19 22,18.549 22,17.993 L22,6.007 C22,5.45 21.556,5 21.008,5 Z M3,7.353 L8.571,12.429 L8.5,12.5 L3,17 L3,7.353 Z M12.002,18 L3.36,18 C3.508,17.879 3.636,17.774 3.636,17.774 L9.136,13.274 C9.136,13.274 9.238,13.19 9.329,13.116 L10.966,14.607 C11.25,14.865 11.613,14.996 11.978,15.002 C12.359,15.008 12.742,14.877 13.038,14.607 L14.675,13.116 C14.765,13.19 14.868,13.274 14.868,13.274 L20.368,17.774 C20.368,17.774 20.497,17.879 20.644,18 L12.002,18 Z M21,17 L15.5,12.5 L15.429,12.429 L21,7.353 L21,17 Z M12.364,13.868 C12.163,14.051 11.828,14.043 11.636,13.868 L3,6 L21,6 L12.364,13.868 Z"/>
</svg>
