<svg width="24" height="24" viewBox="0 0 24 24" xmlns="http://www.w3.org/2000/svg">
    <path fill-rule="evenodd" clip-rule="evenodd" d="M20 18C20 19.1046 19.1046 20 18 20H6C4.89543 20 4 19.1046 4 18V6C4 4.89543 4.89543 4 6 4H18C19.1046 4 20 4.89543 20 6V18ZM18 12.3333V16.6667C18 17.403 17.403 18 16.6667 18H12.3333C12.1492 18 12 17.8508 12 17.6667C12 17.4826 12.1492 17.3333 12.3333 17.3333H16.6667C17.0349 17.3333 17.3333 17.0349 17.3333 16.6667V12.3333C17.3333 12.1492 17.4826 12 17.6667 12C17.8508 12 18 12.1492 18 12.3333ZM13.1907 10.812C13.321 10.9423 13.5323 10.9423 13.6627 10.812L17.3333 7.138V9.28267C17.337 9.46415 17.4851 9.60937 17.6667 9.60933C17.7543 9.61076 17.8389 9.57702 17.9016 9.51564C17.9642 9.45426 17.9997 9.37036 18 9.28267V6.32667C17.9998 6.24029 17.9661 6.15735 17.906 6.09533C17.8449 6.03403 17.7619 5.9997 17.6753 6H14.72C14.5385 6.00363 14.3933 6.15181 14.3933 6.33333C14.3919 6.42101 14.4257 6.50561 14.487 6.56825C14.5484 6.63088 14.6323 6.66632 14.72 6.66667H16.8667L13.1907 10.34C13.0603 10.4703 13.0603 10.6817 13.1907 10.812ZM10.34 13.1907C10.4703 13.0603 10.6817 13.0603 10.812 13.1907C10.9423 13.321 10.9423 13.5323 10.812 13.6627L7.138 17.3333H9.28267C9.37036 17.3337 9.45426 17.3691 9.51564 17.4318C9.57702 17.4944 9.61076 17.579 9.60933 17.6667C9.60937 17.8482 9.46415 17.9964 9.28267 18H6.32667C6.24035 18.0002 6.15753 17.9659 6.09667 17.9047C6.03605 17.8436 6.00141 17.7614 6 17.6753V14.72C6.00034 14.6323 6.03579 14.5484 6.09842 14.487C6.16105 14.4257 6.24565 14.3919 6.33333 14.3933C6.51486 14.3933 6.66304 14.5385 6.66667 14.72V16.8667L10.34 13.1907ZM6 7.33333V11.6667C6 11.8508 6.14924 12 6.33333 12C6.51743 12 6.66667 11.8508 6.66667 11.6667V7.33333C6.66667 6.96514 6.96514 6.66667 7.33333 6.66667H11.6667C11.8508 6.66667 12 6.51743 12 6.33333C12 6.14924 11.8508 6 11.6667 6H7.33333C6.59695 6 6 6.59695 6 7.33333 Z"/>
</svg>
