<svg xmlns="http://www.w3.org/2000/svg" xmlns:xlink="http://www.w3.org/1999/xlink" width="24px" height="24px" viewBox="0 0 24 24" version="1.1">
  <path d="M21.9548468,12.875266 C22.0860388,13.2111663 21.9201195,13.6168811 21.6024291,13.7696828 L21.1985635,13.9672713 C19.3451549,14.727328 18.1078342,15 17.2165003,15 C14.9296436,15 14.9244988,13.2032627 12.6736556,13.2032627 C12.0601401,13.2032627 11.2781328,13.3363056 10.2376002,13.6774749 C9.74112848,13.8394974 9.08259607,14.0700172 9.08259607,14.0700172 C9.01185528,14.0937278 8.9385421,14.1055831 8.86651512,14.1055831 C8.59512774,14.1055831 8.33017134,13.9422434 8.21698608,13.6814267 L4.05356924,4.02462256 C3.91080147,3.69267403 4.06128642,3.34623569 4.41113176,3.24217246 L5.96357048,2.78113284 C7.72180058,2.21734725 8.96555222,2 9.8697481,2 C12.9771979,2 12.0832916,4.56996656 14.282687,4.56996656 C14.7277108,4.56996656 15.2987819,4.46458608 16.053779,4.21299017 C16.2454223,4.14976188 17.6872481,3.70057757 17.6872481,3.70057757 C17.7528441,3.67950147 17.8197263,3.67028068 17.8866085,3.67028068 C18.1644269,3.67028068 18.4319557,3.84152396 18.5399961,4.11814774 L21.9548468,12.875266 Z M17.7095768,4.74110236 C17.468183,4.8164323 17.4613942,4.8185547 17.1586157,4.91321216 C16.7289566,5.04763471 16.4378525,5.13929429 16.3699279,5.16169978 C15.5480666,5.43557754 14.8672916,5.56996656 14.282687,5.56996656 C13.069355,5.56996656 12.4337247,5.10109114 11.7523268,4.08870272 C11.6685765,3.96360251 11.6280384,3.90313684 11.591598,3.84991169 C11.1475935,3.20139439 10.8236473,3 9.8697481,3 C9.02241539,3 7.84275165,3.22871591 6.24825921,3.73975285 L5.15917651,4.06318601 L9.02564633,13.0312454 C9.20624451,12.9688986 9.38826498,12.9066888 9.5615844,12.8483154 C9.58704505,12.8397448 9.58704505,12.8397448 9.61255564,12.8311758 C9.72585561,12.7931399 9.8312604,12.7581786 9.92604039,12.7272484 C11.0078726,12.3725378 11.9049219,12.2032627 12.6736556,12.2032627 C13.8774791,12.2032627 14.5374804,12.515771 15.5379654,13.3062777 C16.2408621,13.8616533 16.5342716,14 17.2165003,14 C18.0305812,14 19.190709,13.7098447 20.7590967,13.0690124 L20.9253441,12.9876872 L17.7095768,4.74110236 Z M2.03766095,4.6903749 C1.9325198,4.4350321 2.05428229,4.14280211 2.3096251,4.03766095 C2.5649679,3.9325198 2.85719789,4.05428229 2.96233905,4.3096251 L9.96233905,21.3096251 C10.0674802,21.5649679 9.94571771,21.8571979 9.6903749,21.962339 C9.4350321,22.0674802 9.14280211,21.9457177 9.03766095,21.6903749 L2.03766095,4.6903749 Z"/>
</svg>
