<svg xmlns="http://www.w3.org/2000/svg" xmlns:xlink="http://www.w3.org/1999/xlink" width="24px" height="24px" viewBox="0 0 24 24" version="1.1">
  <path d="M21.9548468,12.875266 C22.0860388,13.2111663 21.9201195,13.6168811 21.6024291,13.7696828 L21.1985635,13.9672713 C19.3451549,14.727328 18.1078342,15 17.2165003,15 C14.9296436,15 14.9244988,13.2032627 12.6736556,13.2032627 C12.0601401,13.2032627 11.2781328,13.3363056 10.2376002,13.6774749 C9.74112848,13.8394974 9.08259607,14.0700172 9.08259607,14.0700172 C9.01185528,14.0937278 8.9385421,14.1055831 8.86651512,14.1055831 C8.59512774,14.1055831 8.33017134,13.9422434 8.21698608,13.6814267 L4.05356924,4.02462256 C3.91080147,3.69267403 4.06128642,3.34623569 4.41113176,3.24217246 L5.96357048,2.78113284 C7.72180058,2.21734725 8.96555222,2 9.8697481,2 C12.9771979,2 12.0832916,4.56996656 14.282687,4.56996656 C14.7277108,4.56996656 15.2987819,4.46458608 16.053779,4.21299017 C16.2454223,4.14976188 17.6872481,3.70057757 17.6872481,3.70057757 C17.7528441,3.67950147 17.8197263,3.67028068 17.8866085,3.67028068 C18.1644269,3.67028068 18.4319557,3.84152396 18.5399961,4.11814774 L21.9548468,12.875266 Z M2.03766095,4.6903749 C1.9325198,4.4350321 2.05428229,4.14280211 2.3096251,4.03766095 C2.5649679,3.9325198 2.85719789,4.05428229 2.96233905,4.3096251 L9.96233905,21.3096251 C10.0674802,21.5649679 9.94571771,21.8571979 9.6903749,21.962339 C9.4350321,22.0674802 9.14280211,21.9457177 9.03766095,21.6903749 L2.03766095,4.6903749 Z"/>
</svg>
