<svg width="24px" height="24px" viewBox="0 0 24 24" version="1.1" xmlns="http://www.w3.org/2000/svg" xmlns:xlink="http://www.w3.org/1999/xlink">
    <path d="M10.6666561,6.79365045 C10.4568158,6.79365045 10.2592318,6.6948506 10.1333282,6.52697816 L8.93332785,4.92697772 C8.55452819,4.42469008 7.96244785,4.12864202 7.33332743,4.1269775 L4,4.1269775 C2.89542369,4.1269775 2,5.0224012 2,6.1269775 L2,18.1269775 C2,19.2315538 2.89542369,20.1269775 4,20.1269775 L20,20.1269775 C21.1045605,20.1269775 22,19.2315538 22,18.1269775 L22,8.79364924 C22,7.68907328 21.1045597,6.79364957 20,6.79364957 L10.6666561,6.79365045 Z M21,8.79364924 L21,18.1269775 C21,18.6792624 20.5522824,19.1269775 20,19.1269775 L4,19.1269775 C3.44770845,19.1269775 3,18.6792691 3,18.1269775 L3,6.1269775 C3,5.57468595 3.44770845,5.1269775 4,5.1269775 L7.33332743,5.1269775 C7.64690129,5.12781065 7.94451563,5.27661889 8.13492066,5.52909561 L9.33332816,7.1269775 C9.64808305,7.54665353 10.142055,7.79365045 10.6666561,7.79365045 L20,7.79365045 C20.5522819,7.79364957 21,8.24136504 21,8.79364924 Z"></path>
</svg>
