<svg xmlns="http://www.w3.org/2000/svg" xmlns:xlink="http://www.w3.org/1999/xlink" width="24px" height="24px" viewBox="0 0 24 24" version="1.1">
  <path d="M10.8138415,2.55152598 C10.7023645,3.44334172 10.1207605,4.2066871 9.29051674,4.55086392 L8.65006247,4.81636366 C7.81934572,5.16073654 6.86768019,5.0324166 6.15784098,4.48031943 L5.71892446,4.13893992 L4.13893992,5.71892446 L4.48031943,6.15784098 C5.0324166,6.86768019 5.16073654,7.81934572 4.81636366,8.65006247 L4.55086392,9.29051674 C4.2066871,10.1207605 3.44334172,10.7023645 2.55152598,10.8138415 L2,10.8827822 L2,13.1172178 L2.55152598,13.1861585 C3.44334172,13.2976355 4.2066871,13.8792395 4.55086392,14.7094833 L4.81636366,15.3499375 C5.16073654,16.1806543 5.0324166,17.1323198 4.48031943,17.842159 L4.13893992,18.2810755 L5.71892446,19.8610601 L6.15784098,19.5196806 C6.86768019,18.9675834 7.81934572,18.8392635 8.65006247,19.1836363 L9.29051674,19.4491361 C10.1207605,19.7933129 10.7023645,20.5566583 10.8138415,21.448474 L10.8827822,22 L13.1172178,22 L13.1861585,21.448474 C13.2976355,20.5566583 13.8792395,19.7933129 14.7094833,19.4491361 L15.3499375,19.1836363 C16.1806543,18.8392635 17.1323198,18.9675834 17.842159,19.5196806 L18.2810755,19.8610601 L19.8610601,18.2810755 L19.5196806,17.842159 C18.9675834,17.1323198 18.8392635,16.1806543 19.1836363,15.3499375 L19.4491361,14.7094833 C19.7933129,13.8792395 20.5566583,13.2976355 21.448474,13.1861585 L22,13.1172178 L22,10.8827822 L21.448474,10.8138415 C20.5566583,10.7023645 19.7933129,10.1207605 19.4491361,9.29051674 L19.1836363,8.65006247 C18.8392635,7.81934572 18.9675834,6.86768019 19.5196806,6.15784098 L19.8610601,5.71892446 L18.2810755,4.13893992 L17.842159,4.48031943 C17.1323198,5.0324166 16.1806543,5.16073654 15.3499375,4.81636366 L14.7094833,4.55086392 C13.8792395,4.2066871 13.2976355,3.44334172 13.1861585,2.55152598 L13.1172178,2 L10.8827822,2 L10.8138415,2.55152598 Z M9.82156359,2.42749125 L9.89050434,1.87596527 C9.95305794,1.37553644 10.3784589,1 10.8827822,1 L13.1172178,1 C13.6215411,1 14.0469421,1.37553644 14.1094957,1.87596527 L14.1784364,2.42749125 C14.2453226,2.96258069 14.594285,3.42058792 15.0924312,3.62709401 L15.7328855,3.89259375 C16.2313156,4.09921748 16.8023149,4.02222552 17.2282184,3.69096722 L17.6671349,3.3495877 C18.0652236,3.03996316 18.6315719,3.07522273 18.9881823,3.43183314 L20.5681669,5.01181768 C20.9247773,5.36842808 20.9600368,5.93477638 20.6504123,6.33286507 L20.3090328,6.77178159 C19.9777745,7.19768512 19.9007825,7.76868444 20.1074062,8.26711449 L20.372906,8.90756876 C20.5794121,9.40571503 21.0374193,9.75467741 21.5725087,9.82156359 L22.1240347,9.89050434 C22.6244636,9.95305794 23,10.3784589 23,10.8827822 L23,13.1172178 C23,13.6215411 22.6244636,14.0469421 22.1240347,14.1094957 L21.5725087,14.1784364 C21.0374193,14.2453226 20.5794121,14.594285 20.372906,15.0924312 L20.1074062,15.7328855 C19.9007825,16.2313156 19.9777745,16.8023149 20.3090328,17.2282184 L20.6504123,17.6671349 C20.9600368,18.0652236 20.9247773,18.6315719 20.5681669,18.9881823 L18.9881823,20.5681669 C18.6315719,20.9247773 18.0652236,20.9600368 17.6671349,20.6504123 L17.2282184,20.3090328 C16.8023149,19.9777745 16.2313156,19.9007825 15.7328855,20.1074062 L15.0924312,20.372906 C14.594285,20.5794121 14.2453226,21.0374193 14.1784364,21.5725087 L14.1094957,22.1240347 C14.0469421,22.6244636 13.6215411,23 13.1172178,23 L10.8827822,23 C10.3784589,23 9.95305794,22.6244636 9.89050434,22.1240347 L9.82156359,21.5725087 C9.75467741,21.0374193 9.40571503,20.5794121 8.90756876,20.372906 L8.26711449,20.1074062 C7.76868444,19.9007825 7.19768512,19.9777745 6.77178159,20.3090328 L6.33286507,20.6504123 C5.93477638,20.9600368 5.36842808,20.9247773 5.01181768,20.5681669 L3.43183314,18.9881823 C3.07522273,18.6315719 3.03996316,18.0652236 3.3495877,17.6671349 L3.69096722,17.2282184 C4.02222552,16.8023149 4.09921748,16.2313156 3.89259375,15.7328855 L3.62709401,15.0924312 C3.42058792,14.594285 2.96258069,14.2453226 2.42749125,14.1784364 L1.87596527,14.1094957 C1.37553644,14.0469421 1,13.6215411 1,13.1172178 L1,10.8827822 C1,10.3784589 1.37553644,9.95305794 1.87596527,9.89050434 L2.42749125,9.82156359 C2.96258069,9.75467741 3.42058792,9.40571503 3.62709401,8.90756876 L3.89259375,8.26711449 C4.09921748,7.76868444 4.02222552,7.19768512 3.69096722,6.77178159 L3.3495877,6.33286507 C3.03996316,5.93477638 3.07522273,5.36842808 3.43183314,5.01181768 L5.01181768,3.43183314 C5.36842808,3.07522273 5.93477638,3.03996316 6.33286507,3.3495877 L6.77178159,3.69096722 C7.19768512,4.02222552 7.76868444,4.09921748 8.26711449,3.89259375 L8.90756876,3.62709401 C9.40571503,3.42058792 9.75467741,2.96258069 9.82156359,2.42749125 Z M12,15.5 C13.9329966,15.5 15.5,13.9329966 15.5,12 C15.5,10.0670034 13.9329966,8.5 12,8.5 C10.0670034,8.5 8.5,10.0670034 8.5,12 C8.5,13.9329966 10.0670034,15.5 12,15.5 Z M12,16.5 C9.51471863,16.5 7.5,14.4852814 7.5,12 C7.5,9.51471863 9.51471863,7.5 12,7.5 C14.4852814,7.5 16.5,9.51471863 16.5,12 C16.5,14.4852814 14.4852814,16.5 12,16.5 Z"/>
</svg>
