<svg xmlns="http://www.w3.org/2000/svg" xmlns:xlink="http://www.w3.org/1999/xlink" width="24px" height="24px" viewBox="0 0 24 24" version="1.1">
  <path d="M3,21 L21.5,21 C21.7761424,21 22,21.2238576 22,21.5 C22,21.7761424 21.7761424,22 21.5,22 L2.5,22 C2.22385763,22 2,21.7761424 2,21.5 L2,2.5 C2,2.22385763 2.22385763,2 2.5,2 C2.77614237,2 3,2.22385763 3,2.5 L3,21 Z M5.5,8 L8.5,8 C8.77614237,8 9,8.22385763 9,8.5 L9,18.5 C9,18.7761424 8.77614237,19 8.5,19 L5.5,19 C5.22385763,19 5,18.7761424 5,18.5 L5,8.5 C5,8.22385763 5.22385763,8 5.5,8 Z M11.5,3 L14.5,3 C14.7761424,3 15,3.22385763 15,3.5 L15,18.5 C15,18.7761424 14.7761424,19 14.5,19 L11.5,19 C11.2238576,19 11,18.7761424 11,18.5 L11,3.5 C11,3.22385763 11.2238576,3 11.5,3 Z M17.5,12 L20.5,12 C20.7761424,12 21,12.2238576 21,12.5 L21,18.5 C21,18.7761424 20.7761424,19 20.5,19 L17.5,19 C17.2238576,19 17,18.7761424 17,18.5 L17,12.5 C17,12.2238576 17.2238576,12 17.5,12 Z"/>
</svg>
