<svg xmlns="http://www.w3.org/2000/svg" xmlns:xlink="http://www.w3.org/1999/xlink" width="24px" height="24px" viewBox="0 0 24 24" version="1.1">
  <path d="M12,23 C5.92486775,23 1,18.0751322 1,12 C1,5.92486775 5.92486775,1 12,1 C18.0751322,1 23,5.92486775 23,12 C23,18.0751322 18.0751322,23 12,23 Z M12,22 C17.5228475,22 22,17.5228475 22,12 C22,6.4771525 17.5228475,2 12,2 C6.4771525,2 2,6.4771525 2,12 C2,17.5228475 6.4771525,22 12,22 Z M12.5,16.5 C12.5,16.7761424 12.2761424,17 12,17 C11.7238576,17 11.5,16.7761424 11.5,16.5 L11.5,15.123655 C11.5,14.0831972 12.1444119,13.1515126 13.1179609,12.7844229 C13.1371983,12.7770459 13.1371983,12.7770459 13.1545663,12.7699192 C14.2629732,12.3072847 15,11.2217863 15,10 C15,8.34314575 13.6568542,7 12,7 C10.3431458,7 9,8.34314575 9,10 C9,10.2761424 8.77614237,10.5 8.5,10.5 C8.22385763,10.5 8,10.2761424 8,10 C8,7.790861 9.790861,6 12,6 C14.209139,6 16,7.790861 16,10 C16,11.628773 15.0173489,13.0760288 13.5397479,13.69276 C13.5056249,13.7067572 13.5056249,13.7067572 13.4707765,13.7201157 C12.8866472,13.9403696 12.5,14.4993803 12.5,15.123655 L12.5,16.5 Z M12,19 C11.7238576,19 11.5,18.7761424 11.5,18.5 C11.5,18.2238576 11.7238576,18 12,18 C12.2761424,18 12.5,18.2238576 12.5,18.5 C12.5,18.7761424 12.2761424,19 12,19 Z"/>
</svg>
