<svg xmlns="http://www.w3.org/2000/svg" xmlns:xlink="http://www.w3.org/1999/xlink" width="24px" height="24px" viewBox="0 0 24 24" version="1.1">
  <path d="M12,23 C5.92486775,23 1,18.0751322 1,12 C1,5.92486775 5.92486775,1 12,1 C18.0751322,1 23,5.92486775 23,12 C23,18.0751322 18.0751322,23 12,23 Z M12.5,16.5 L12.5,15.123655 C12.5,14.4993803 12.8866472,13.9403696 13.4707765,13.7201157 C13.5056249,13.7067572 13.5056249,13.7067572 13.5397479,13.69276 C15.0173489,13.0760288 16,11.628773 16,10 C16,7.790861 14.209139,6 12,6 C9.790861,6 8,7.790861 8,10 C8,10.2761424 8.22385763,10.5 8.5,10.5 C8.77614237,10.5 9,10.2761424 9,10 C9,8.34314575 10.3431458,7 12,7 C13.6568542,7 15,8.34314575 15,10 C15,11.2217863 14.2629732,12.3072847 13.1545663,12.7699192 C13.1371983,12.7770459 13.1371983,12.7770459 13.1179609,12.7844229 C12.1444119,13.1515126 11.5,14.0831972 11.5,15.123655 L11.5,16.5 C11.5,16.7761424 11.7238576,17 12,17 C12.2761424,17 12.5,16.7761424 12.5,16.5 Z M12,19 C12.2761424,19 12.5,18.7761424 12.5,18.5 C12.5,18.2238576 12.2761424,18 12,18 C11.7238576,18 11.5,18.2238576 11.5,18.5 C11.5,18.7761424 11.7238576,19 12,19 Z"/>
</svg>
