<svg xmlns="http://www.w3.org/2000/svg" xmlns:xlink="http://www.w3.org/1999/xlink" width="24px" height="24px" viewBox="0 0 24 24" version="1.1">
  <path d="M12.2642402,3.08974204 C12.2023512,3.03428417 12.1080677,3 12.0026846,3 C11.8980959,3 11.8029757,3.03458845 11.7400676,3.09069173 L2.30296081,11.5229434 L5.01064122,12.5304036 L5.05453923,13.1745037 L5.56539242,20.6700783 C5.57764547,20.8480867 5.73077379,20.9947152 5.88915731,20.9950009 L9.51907768,21 C9.65373313,21 9.77799259,20.8777449 9.77799259,20.76 L9.77799259,15.10625 C9.77799259,14.2157923 10.4638748,13.5 11.3756716,13.5 L12.5979191,13.5 C13.4882132,13.5 14.2224876,14.2184735 14.2224876,15.1075 L14.2224876,20.76125 C14.2224876,20.8981155 14.3228737,21 14.4471796,21 L18.1273667,21 C18.2811656,21 18.4330261,20.8562547 18.4462634,20.6738255 L19.027227,12.5320029 L19.6271807,12.306459 L21.7008904,11.5268782 L12.2642402,3.08974204 Z M12.0026846,2 C12.3388026,2 12.6749207,2.115 12.9315927,2.345 L22.6692384,11.05125 C23.1850268,11.5125 23.0860248,12.075 22.4529006,12.3125 L19.9790717,13.2425 L19.4437273,20.745 C19.3923929,21.4525 18.8044918,22 18.1273667,22 L14.4471796,22 C13.7651655,22 13.2224876,21.445 13.2224876,20.76125 L13.2224876,15.1075 C13.2224876,14.7775 12.9425929,14.5 12.5979191,14.5 L11.3756716,14.5 C11.0175531,14.5 10.7779926,14.7675 10.7779926,15.10625 L10.7779926,20.76 C10.7779926,21.435 10.2010918,22 9.52029992,22 L5.88778039,21.995 C5.19476606,21.99375 4.61542075,21.43125 4.5677531,20.73875 L4.05685365,13.2425 L1.55735754,12.3125 C0.909566367,12.07125 0.816675558,11.51 1.3300195,11.05125 L11.0737765,2.345 C11.3316707,2.115 11.6677888,2 12.0026846,2 Z"/>
</svg>
