<svg xmlns="http://www.w3.org/2000/svg" xmlns:xlink="http://www.w3.org/1999/xlink" width="24px" height="24px" viewBox="0 0 24 24" version="1.1">
  <path d="M12.0026846,2 C11.6677888,2 11.3316707,2.115 11.0737765,2.345 L1.3300195,11.05125 C0.816675558,11.51 0.909566367,12.07125 1.55735754,12.3125 L4.05685365,13.2425 L4.5677531,20.73875 C4.61542075,21.43125 5.19476606,21.99375 5.88778039,21.995 L9.51907768,22 L9.52029992,22 C10.2010918,22 10.7779926,21.435 10.7779926,20.76 L10.7779926,15.10625 C10.7779926,14.7675 11.0175531,14.5 11.3756716,14.5 L12.5979191,14.5 C12.9425929,14.5 13.2224876,14.7775 13.2224876,15.1075 L13.2224876,20.76125 C13.2224876,21.445 13.7651655,22 14.4471796,22 L18.1273667,22 C18.8044918,22 19.3923929,21.4525 19.4437273,20.745 L19.9790717,13.2425 L22.4529006,12.3125 C23.0860248,12.075 23.1850268,11.5125 22.6692384,11.05125 L12.9315927,2.345 C12.6749207,2.115 12.3388026,2 12.0026846,2 L12.0026846,2 Z"/>
</svg>
