<svg xmlns="http://www.w3.org/2000/svg" xmlns:xlink="http://www.w3.org/1999/xlink" width="24px" height="24px" viewBox="0 0 24 24" version="1.1">
  <path d="M11.5,3.5 L11.5,1.5 C11.5,1.22385763 11.7238576,1 12,1 C12.2761424,1 12.5,1.22385763 12.5,1.5 L12.5,3.5 C12.5,3.77614237 12.2761424,4 12,4 C11.7238576,4 11.5,3.77614237 11.5,3.5 Z M12,19 C8.13400675,19 5,15.8659932 5,12 C5,8.13400675 8.13400675,5 12,5 C15.8659932,5 19,8.13400675 19,12 C19,15.8659932 15.8659932,19 12,19 Z M12,18 C15.3137085,18 18,15.3137085 18,12 C18,8.6862915 15.3137085,6 12,6 C8.6862915,6 6,8.6862915 6,12 C6,15.3137085 8.6862915,18 12,18 Z M15.8169873,4.38878407 L16.8169873,2.65673326 C16.9550585,2.41758695 17.2608537,2.33564937 17.5,2.47372056 C17.7391463,2.61179175 17.8210839,2.91758695 17.6830127,3.15673326 L16.6830127,4.88878407 C16.5449415,5.12793038 16.2391463,5.20986796 16,5.07179677 C15.7608537,4.93372558 15.6789161,4.62793038 15.8169873,4.38878407 Z M19.1112159,7.3169873 L20.8432667,6.3169873 C21.0824131,6.17891611 21.3882083,6.26085369 21.5262794,6.5 C21.6643506,6.73914631 21.5824131,7.04494151 21.3432667,7.1830127 L19.6112159,8.1830127 C19.3720696,8.32108389 19.0662744,8.23914631 18.9282032,8 C18.790132,7.76085369 18.8720696,7.45505849 19.1112159,7.3169873 Z M20.5,11.5 L22.5,11.5 C22.7761424,11.5 23,11.7238576 23,12 C23,12.2761424 22.7761424,12.5 22.5,12.5 L20.5,12.5 C20.2238576,12.5 20,12.2761424 20,12 C20,11.7238576 20.2238576,11.5 20.5,11.5 Z M19.6112159,15.8169873 L21.3432667,16.8169873 C21.5824131,16.9550585 21.6643506,17.2608537 21.5262794,17.5 C21.3882083,17.7391463 21.0824131,17.8210839 20.8432667,17.6830127 L19.1112159,16.6830127 C18.8720696,16.5449415 18.790132,16.2391463 18.9282032,16 C19.0662744,15.7608537 19.3720696,15.6789161 19.6112159,15.8169873 Z M16.6830127,19.1112159 L17.6830127,20.8432667 C17.8210839,21.0824131 17.7391463,21.3882083 17.5,21.5262794 C17.2608537,21.6643506 16.9550585,21.5824131 16.8169873,21.3432667 L15.8169873,19.6112159 C15.6789161,19.3720696 15.7608537,19.0662744 16,18.9282032 C16.2391463,18.790132 16.5449415,18.8720696 16.6830127,19.1112159 Z M12.5,20.5 L12.5,22.5 C12.5,22.7761424 12.2761424,23 12,23 C11.7238576,23 11.5,22.7761424 11.5,22.5 L11.5,20.5 C11.5,20.2238576 11.7238576,20 12,20 C12.2761424,20 12.5,20.2238576 12.5,20.5 Z M8.1830127,19.6112159 L7.1830127,21.3432667 C7.04494151,21.5824131 6.73914631,21.6643506 6.5,21.5262794 C6.26085369,21.3882083 6.17891611,21.0824131 6.3169873,20.8432667 L7.3169873,19.1112159 C7.45505849,18.8720696 7.76085369,18.790132 8,18.9282032 C8.23914631,19.0662744 8.32108389,19.3720696 8.1830127,19.6112159 Z M4.88878407,16.6830127 L3.15673326,17.6830127 C2.91758695,17.8210839 2.61179175,17.7391463 2.47372056,17.5 C2.33564937,17.2608537 2.41758695,16.9550585 2.65673326,16.8169873 L4.38878407,15.8169873 C4.62793038,15.6789161 4.93372558,15.7608537 5.07179677,16 C5.20986796,16.2391463 5.12793038,16.5449415 4.88878407,16.6830127 Z M3.5,12.5 L1.5,12.5 C1.22385763,12.5 1,12.2761424 1,12 C1,11.7238576 1.22385763,11.5 1.5,11.5 L3.5,11.5 C3.77614237,11.5 4,11.7238576 4,12 C4,12.2761424 3.77614237,12.5 3.5,12.5 Z M4.38878407,8.1830127 L2.65673326,7.1830127 C2.41758695,7.04494151 2.33564937,6.73914631 2.47372056,6.5 C2.61179175,6.26085369 2.91758695,6.17891611 3.15673326,6.3169873 L4.88878407,7.3169873 C5.12793038,7.45505849 5.20986796,7.76085369 5.07179677,8 C4.93372558,8.23914631 4.62793038,8.32108389 4.38878407,8.1830127 Z M7.3169873,4.88878407 L6.3169873,3.15673326 C6.17891611,2.91758695 6.26085369,2.61179175 6.5,2.47372056 C6.73914631,2.33564937 7.04494151,2.41758695 7.1830127,2.65673326 L8.1830127,4.38878407 C8.32108389,4.62793038 8.23914631,4.93372558 8,5.07179677 C7.76085369,5.20986796 7.45505849,5.12793038 7.3169873,4.88878407 Z"/>
</svg>
