<svg xmlns="http://www.w3.org/2000/svg" xmlns:xlink="http://www.w3.org/1999/xlink" width="24px" height="24px" viewBox="0 0 24 24" version="1.1">
  <path d="M16,3 L8.17980904,10.820191 C7.73767714,11.2623229 7.44474119,11.8315529 7.34194761,12.4483143 L6.5,17.5 L11.5516857,16.6580524 C12.1684471,16.5552588 12.7376771,16.2623229 13.179809,15.820191 L21,8 L21,19 C21,20.1045695 20.1045695,21 19,21 L5,21 C3.8954305,21 3,20.1045695 3,19 L3,5 C3,3.8954305 3.8954305,3 5,3 L16,3 Z M11.7353932,14.4736555 C11.5209819,14.6855545 11.364488,14.7466433 10.9359056,14.8780783 C10.8695654,14.8984231 10.7986443,14.9191964 10.7236194,14.940367 C10.4885265,15.0067056 10.2575834,15.065219 10.0992652,15.1030509 L8.52085003,15.4802307 L8.89358064,13.900759 C8.93114764,13.7415662 8.98940713,13.5097304 9.05600777,13.2734912 C9.07946239,13.1902953 9.10249284,13.1121066 9.12508648,13.039506 C9.25162269,12.6329047 9.31695107,12.4699223 9.52378246,12.2630909 L20.2456357,1.53853771 C20.6837735,1.10028951 21.384304,1.11888325 21.8064385,1.54842362 L22.4379534,2.19101767 C22.852215,2.61254699 22.8696069,3.30432261 22.4356461,3.73965217 L11.7353932,14.4736555 Z"/>
</svg>
