<svg xmlns="http://www.w3.org/2000/svg" xmlns:xlink="http://www.w3.org/1999/xlink" width="24px" height="24px" viewBox="0 0 24 24" version="1.1">
  <path d="M12.0000218,1 C14.9874206,1 15.362019,1.01266272 16.5352859,1.06619549 C17.7061077,1.11959725 18.5057369,1.30556465 19.205418,1.57750759 C19.9287652,1.85857642 20.5422088,2.23470301 21.1537747,2.8462253 C21.765297,3.45779125 22.1414236,4.07123477 22.4225361,4.79458202 C22.6944353,5.49426307 22.8804027,6.29389232 22.9338045,7.46471407 C22.9873373,8.63798103 23,9.01257937 23,12.0000218 C23,14.9874206 22.9873373,15.362019 22.9338045,16.5352859 C22.8804027,17.7061077 22.6944353,18.5057369 22.4225361,19.205418 C22.1414236,19.9287652 21.765297,20.5422088 21.1537747,21.1537747 C20.5422088,21.765297 19.9287652,22.1414236 19.205418,22.4225361 C18.5057369,22.6944353 17.7061077,22.8804027 16.5352859,22.9338045 C15.362019,22.9873373 14.9874206,23 12.0000218,23 C9.01257937,23 8.63798103,22.9873373 7.46471407,22.9338045 C6.29389232,22.8804027 5.49426307,22.6944353 4.79458202,22.4225361 C4.07123477,22.1414236 3.45779125,21.765297 2.8462253,21.1537747 C2.23470301,20.5422088 1.85857642,19.9287652 1.57750759,19.205418 C1.30556465,18.5057369 1.11959725,17.7061077 1.06619549,16.5352859 C1.01266272,15.362019 1,14.9874206 1,12.0000218 C1,9.01257937 1.01266272,8.63798103 1.06619549,7.46471407 C1.11959725,6.29389232 1.30556465,5.49426307 1.57750759,4.79458202 C1.85857642,4.07123477 2.23470301,3.45779125 2.8462253,2.8462253 C3.45779125,2.23470301 4.07123477,1.85857642 4.79458202,1.57750759 C5.49426307,1.30556465 6.29389232,1.11959725 7.46471407,1.06619549 C8.63798103,1.01266272 9.01257937,1 12.0000218,1 Z M12.0000218,2.98197844 C9.06288095,2.98197844 8.71496166,2.99320024 7.55505606,3.04612169 C6.48256692,3.09502601 5.90012524,3.2742254 5.51251486,3.42486816 C4.9990632,3.62441524 4.63263014,3.86278012 4.24772696,4.24772696 C3.86278012,4.63263014 3.62441524,4.9990632 3.42486816,5.51251486 C3.2742254,5.90012524 3.09502601,6.48256692 3.04612169,7.55505606 C2.99320024,8.71496166 2.98197844,9.06288095 2.98197844,12.0000218 C2.98197844,14.9371191 2.99320024,15.2850383 3.04612169,16.4449439 C3.09502601,17.5174331 3.2742254,18.0998748 3.42486816,18.4874851 C3.62441524,19.0009368 3.86282379,19.3673699 4.24772696,19.752273 C4.63263014,20.1372199 4.9990632,20.3755848 5.51251486,20.5751318 C5.90012524,20.7257746 6.48256692,20.904974 7.55505606,20.9538783 C8.71483067,21.0067998 9.06266263,21.0180216 12.0000218,21.0180216 C14.9373374,21.0180216 15.285213,21.0067998 16.4449439,20.9538783 C17.5174331,20.904974 18.0998748,20.7257746 18.4874851,20.5751318 C19.0009368,20.3755848 19.3673699,20.1372199 19.752273,19.752273 C20.1372199,19.3673699 20.3755848,19.0009368 20.5751318,18.4874851 C20.7257746,18.0998748 20.904974,17.5174331 20.9538783,16.4449439 C21.0067998,15.2850383 21.0180216,14.9371191 21.0180216,12.0000218 C21.0180216,9.06288095 21.0067998,8.71496166 20.9538783,7.55505606 C20.904974,6.48256692 20.7257746,5.90012524 20.5751318,5.51251486 C20.3755848,4.9990632 20.1372199,4.63263014 19.752273,4.24772696 C19.3673699,3.86278012 19.0009368,3.62441524 18.4874851,3.42486816 C18.0998748,3.2742254 17.5174331,3.09502601 16.4449439,3.04612169 C15.2850383,2.99320024 14.9371191,2.98197844 12.0000218,2.98197844 Z M12.0000218,6.35135489 C15.1196806,6.35135489 17.6486451,8.88031939 17.6486451,12.0000218 C17.6486451,15.1196806 15.1196806,17.6486451 12.0000218,17.6486451 C8.88031939,17.6486451 6.35135489,15.1196806 6.35135489,12.0000218 C6.35135489,8.88031939 8.88031939,6.35135489 12.0000218,6.35135489 Z M12.0000218,15.6666667 C14.0250535,15.6666667 15.6666667,14.0250535 15.6666667,12.0000218 C15.6666667,9.97494646 14.0250535,8.33333333 12.0000218,8.33333333 C9.97494646,8.33333333 8.33333333,9.97494646 8.33333333,12.0000218 C8.33333333,14.0250535 9.97494646,15.6666667 12.0000218,15.6666667 Z M19.1918383,6.12818528 C19.1918383,6.85720892 18.6008384,7.44816519 17.8718147,7.44816519 C17.1428347,7.44816519 16.5518348,6.85720892 16.5518348,6.12818528 C16.5518348,5.39916164 17.1428347,4.8081617 17.8718147,4.8081617 C18.6008384,4.8081617 19.1918383,5.39916164 19.1918383,6.12818528 Z"/>
</svg>
