<svg height="20" viewBox="0 0 17 20" width="17" xmlns="http://www.w3.org/2000/svg"><path d="m16.2411394 6.55513917c-1.2204383-1.76267568-3.1140586-2.00350909-3.7787194-2.02225099-1.5896943-.16492872-3.13110124.94178046-3.94157075.94178046-.82561847 0-2.07256747-.92491275-3.41609111-.897737-1.72887538.02623866-3.34792078 1.01768516-4.23508192 2.55639514-1.83113088 3.13739402-.4658306 7.74883852 1.28860865 10.28461752.87769304 1.2435251 1.90308846 2.6304256 3.24566528 2.5807596 1.31322572-.0534144 1.80367339-.828392 3.38863362-.828392 1.57075813 0 2.03090783.828392 3.39999533.7974679 1.4088536-.0224903 2.2969615-1.2482106 3.1434098-2.5020437 1.0149805-1.4234472 1.4221089-2.8253414 1.4382046-2.8974977-.0331383-.0112451-2.7372282-1.0317416-2.7637389-4.1222808-.0236702-2.57794835 2.1322166-3.83178145 2.2306848-3.89081843z"/><path d="m12.2374282 0c-.9499791.04310539-2.137453.67082765-2.82178974 1.49072811-.60517186.7220153-1.14613216 1.90651552-1.00627413 3.0182754 1.06696724.08172064 2.16296157-.54959374 2.84729837-1.37398434.6561893-.83786104 1.1047905-1.97745981.9807655-3.13501917z"/></svg>