<svg xmlns="http://www.w3.org/2000/svg" xmlns:xlink="http://www.w3.org/1999/xlink" width="24px" height="24px" viewBox="0 0 24 24" version="1.1">
  <path d="M12,6.04955019 C12.9845,4.23447094 14.924625,3 17.15625,3 C20.383375,3 23,5.58153648 23,8.76538626 C23,8.87933743 22.99725,8.99193203 23,9.10452663 C23,16.5656147 13.177,21.712409 13.177,21.712409 C12.84975,21.9023276 12.42075,22 11.99175,22 C11.566875,22 11.14475,21.9050407 10.823,21.712409 C10.823,21.712409 1,16.5656147 1.009625,9.10452663 C1.00275,8.99193203 1,8.87933743 1,8.76538626 C1,5.58153648 3.616625,3 6.84375,3 C9.075375,3 11.0155,4.23447094 12,6.04955019 Z M21.9994217,8.87083781 C21.9998662,8.81556249 21.9998662,8.81556249 22,8.76538626 C22,6.1368658 19.8340897,4 17.15625,4 C15.3462017,4 13.7152686,4.98458044 12.8790217,6.52633203 L12,8.14694552 L11.1209783,6.52633203 C10.2847314,4.98458044 8.65379828,4 6.84375,4 C4.1659103,4 2,6.1368658 2,8.76538626 C2,8.86603036 2.0025023,8.95737384 2.00962417,9.10581666 C2.00584774,12.0332195 3.70613455,14.8641711 6.58682997,17.4677449 C7.617934,18.3996572 8.72657074,19.2331986 9.8349827,19.9542972 C10.2223349,20.2062966 10.5812023,20.4257836 10.9018941,20.6112131 C11.0907845,20.7204328 11.2224101,20.7927317 11.3366754,20.8544244 C11.4829607,20.9420054 11.7241374,21 11.99175,21 C12.2630339,21 12.5165574,20.9394931 12.712893,20.8266298 C12.7776672,20.7926912 12.9094359,20.7203143 13.0985258,20.6109812 C13.4195488,20.4253634 13.7787849,20.2056567 14.166534,19.9534083 C15.2760786,19.2315989 16.3858476,18.3972532 17.4180078,17.4644592 C20.2983254,14.8614303 21.9999361,12.0312117 22.0002902,9.12877964 C21.9984171,9.05184522 21.9984178,8.99480694 21.9994217,8.87083781 Z"/>
</svg>
