<svg xmlns="http://www.w3.org/2000/svg" xmlns:xlink="http://www.w3.org/1999/xlink" width="24px" height="24px" viewBox="0 0 24 24" version="1.1">
  <path d="M17.15625,3 C14.924625,3 12.9845,4.23447094 12,6.04955019 C11.0155,4.23447094 9.075375,3 6.84375,3 C3.616625,3 1,5.58153648 1,8.76538626 C1,8.87933743 1.00275,8.99193203 1.009625,9.10452663 L1,9.10452663 C1,16.5656147 10.823,21.712409 10.823,21.712409 C11.14475,21.9050407 11.566875,22 11.99175,22 C12.42075,22 12.84975,21.9023276 13.177,21.712409 C13.177,21.712409 23,16.5656147 23,9.10452663 L22.990375,9.10452663 C22.99725,8.99193203 23,8.87933743 23,8.76538626 C23,5.58153648 20.383375,3 17.15625,3 L17.15625,3 Z"/>
</svg>
