<svg xmlns="http://www.w3.org/2000/svg" xmlns:xlink="http://www.w3.org/1999/xlink" width="24px" height="24px" viewBox="0 0 24 24" version="1.1">
  <path d="M20,3 L20,0.503422737 C20,0.225390037 20.2319336,0 20.5,0 C20.7761424,0 21,0.232902527 21,0.503422737 L21,3 L23.4965773,3 C23.77461,3 24,3.23193359 24,3.5 C24,3.77614237 23.7670975,4 23.4965773,4 L21,4 L21,6.49657726 C21,6.77460996 20.7680664,7 20.5,7 C20.2238576,7 20,6.76709747 20,6.49657726 L20,4 L17.5034227,4 C17.22539,4 17,3.76806641 17,3.5 C17,3.22385763 17.2329025,3 17.5034227,3 L20,3 Z M2,3.5 C2,3.22385763 2.22563934,3 2.49374104,3 L14.506259,3 C14.7789446,3 15,3.23193359 15,3.5 C15,3.77614237 14.7743607,4 14.506259,4 L2.49374104,4 C2.22105539,4 2,3.76806641 2,3.5 Z M2,19.5 C2,19.2238576 2.22460938,19 2.49438477,19 L21.5056152,19 C21.7786564,19 22,19.2319336 22,19.5 C22,19.7761424 21.7753906,20 21.5056152,20 L2.49438477,20 C2.2213436,20 2,19.7680664 2,19.5 Z M2,11.5 C2,11.2238576 2.22460938,11 2.49438477,11 L21.5056152,11 C21.7786564,11 22,11.2319336 22,11.5 C22,11.7761424 21.7753906,12 21.5056152,12 L2.49438477,12 C2.2213436,12 2,11.7680664 2,11.5 Z"/>
</svg>
