<svg xmlns="http://www.w3.org/2000/svg" xmlns:xlink="http://www.w3.org/1999/xlink" width="24px" height="24px" viewBox="0 0 24 24" version="1.1">
  <path d="M2.4796956,11.6162774 L10.1107714,13.0037457 C10.5615335,13.0857025 10.9142975,13.4384665 10.9962543,13.8892286 L12.3837226,21.5203044 L19.6212808,4.37871919 L2.4796956,11.6162774 Z M0.54536178,11.3475139 L20.3661544,2.97873481 C20.6205504,2.87132315 20.9138535,2.99047754 21.0212652,3.24487358 C21.0737655,3.36921637 21.0737655,3.50950282 21.0212652,3.63384561 L12.6524861,23.4546382 C12.5450744,23.7090343 12.2517713,23.8281886 11.9973753,23.720777 C11.8419542,23.6551547 11.7301055,23.5155805 11.6999263,23.3495949 L10.0123844,14.0681141 C10.0049338,14.0271357 9.9728643,13.9950662 9.93188593,13.9876156 L0.65040508,12.3000737 C0.378716906,12.2506758 0.198514994,11.9903842 0.247912844,11.718696 C0.278092041,11.5527104 0.389940674,11.4131362 0.54536178,11.3475139 Z"/>
</svg>
