<svg xmlns="http://www.w3.org/2000/svg" xmlns:xlink="http://www.w3.org/1999/xlink" width="24px" height="24px" viewBox="0 0 24 24" version="1.1">
  <path d="M8,7 L8,5 C8,2.790861 9.790861,1 12,1 C14.209139,1 16,2.790861 16,5 L16,7 L18,7 C19.1045695,7 20,7.8954305 20,9 L20,19 C20,20.1045695 19.1045695,21 18,21 L6,21 C4.8954305,21 4,20.1045695 4,19 L4,9 C4,7.8954305 4.8954305,7 6,7 L8,7 Z M9,7 L15,7 L15,5 C15,3.34314575 13.6568542,2 12,2 C10.3431458,2 9,3.34314575 9,5 L9,7 Z M11,14.7324356 L11,17 L13,17 L13,14.7324356 C13.5978014,14.3866262 14,13.7402824 14,13 C14,11.8954305 13.1045695,11 12,11 C10.8954305,11 10,11.8954305 10,13 C10,13.7402824 10.4021986,14.3866262 11,14.7324356 Z"/>
</svg>
