<svg xmlns="http://www.w3.org/2000/svg" xmlns:xlink="http://www.w3.org/1999/xlink" width="24px" height="24px" viewBox="0 0 24 24" version="1.1">
  <path d="M20.1599957,12.5330869 L9.5,12.5330869 C9.22385763,12.5330869 9,12.3092292 9,12.0330869 C9,11.7569445 9.22385763,11.5330869 9.5,11.5330869 L20.2900162,11.5330869 L17.8641246,9.4339736 C17.6523114,9.25069258 17.6214067,8.93352197 17.7938543,8.7127991 C17.9555564,8.50582989 18.2544235,8.46913363 18.4613927,8.63083569 C18.4676491,8.63572375 18.4737822,8.64076772 18.4797861,8.64596285 L21.8166332,11.5333219 C21.9342792,11.6351205 21.9961158,11.7782234 21.9982973,11.9231633 C22.010945,12.0813284 21.9528246,12.2430051 21.8276682,12.3578048 L18.5693546,15.3464916 C18.3780162,15.5219966 18.0806308,15.5091612 17.9051258,15.3178228 C17.8986017,15.3107102 17.8922983,15.3033983 17.8862243,15.2958976 C17.7093946,15.0775311 17.732965,14.7592798 17.9400342,14.5693456 L20.1599957,12.5330869 Z M3,21 L17.5,21 C17.7761424,21 18,21.2238576 18,21.5 C18,21.7761424 17.7761424,22 17.5,22 L2.5,22 C2.22385763,22 2,21.7761424 2,21.5 L2,2.5 C2,2.22385763 2.22385763,2 2.5,2 L17.5,2 C17.7761424,2 18,2.22385763 18,2.5 C18,2.77614237 17.7761424,3 17.5,3 L3,3 L3,21 Z"/>
</svg>
