<svg xmlns="http://www.w3.org/2000/svg" xmlns:xlink="http://www.w3.org/1999/xlink" width="24px" height="24px" viewBox="0 0 24 24" version="1.1">
  <path d="M1.5,3 L22.5,3 C23.4,3 24,3.6 24,4.5 L24,7.5 L24,12 L24,19.5 C24,20.4 23.4,21 22.5,21 L1.5,21 C0.6,21 -4e-16,20.4 -4e-16,19.5 L-4e-16,12 L-4e-16,7.5 L-4e-16,4.5 C-4e-16,3.6 0.6,3 1.5,3 Z M1,4 L1,20 L23,20 L23,4 L1,4 Z M12,16 C9.790861,16 8,14.209139 8,12 C8,9.790861 9.790861,8 12,8 C14.209139,8 16,9.790861 16,12 C16,14.209139 14.209139,16 12,16 Z M12,15 C13.6568542,15 15,13.6568542 15,12 C15,10.3431458 13.6568542,9 12,9 C10.3431458,9 9,10.3431458 9,12 C9,13.6568542 10.3431458,15 12,15 Z"/>
</svg>
