<svg xmlns="http://www.w3.org/2000/svg" xmlns:xlink="http://www.w3.org/1999/xlink" width="24px" height="24px" viewBox="0 0 24 24" version="1.1">
  <path d="M2,4.5 C2,4.22385763 2.22460938,4 2.49438477,4 L21.5056152,4 C21.7786564,4 22,4.23193359 22,4.5 C22,4.77614237 21.7753906,5 21.5056152,5 L2.49438477,5 C2.2213436,5 2,4.76806641 2,4.5 Z M2,18.5 C2,18.2238576 2.22460938,18 2.49438477,18 L21.5056152,18 C21.7786564,18 22,18.2319336 22,18.5 C22,18.7761424 21.7753906,19 21.5056152,19 L2.49438477,19 C2.2213436,19 2,18.7680664 2,18.5 Z M2,11.5 C2,11.2238576 2.22460938,11 2.49438477,11 L21.5056152,11 C21.7786564,11 22,11.2319336 22,11.5 C22,11.7761424 21.7753906,12 21.5056152,12 L2.49438477,12 C2.2213436,12 2,11.7680664 2,11.5 Z"/>
</svg>
