<svg xmlns="http://www.w3.org/2000/svg" xmlns:xlink="http://www.w3.org/1999/xlink" width="24px" height="24px" viewBox="0 0 24 24" version="1.1">
  <path d="M20,4 L4,4 C4,5.65685425 2.65685425,7 1,7 L1,17 C2.65685425,17 4,18.3431458 4,20 L20,20 C20,18.3431458 21.3431458,17 23,17 L23,7 C21.3431458,7 20,5.65685425 20,4 Z M21,4 C21,5.1045695 21.8954305,6 23,6 L23,4.5 C23,4.22385763 22.7761424,4 22.5,4 L21,4 Z M1.375,3 L22.625,3 C23.45,3 24,3.6 24,4.5 L24,19.5 C24,20.4 23.45,21 22.625,21 L1.375,21 C0.55,21 0,20.4 0,19.5 L0,4.5 C0,3.6 0.55,3 1.375,3 Z M23,18 C21.8954305,18 21,18.8954305 21,20 L22.5,20 C22.7761424,20 23,19.7761424 23,19.5 L23,18 Z M1,18 L1,19.5 C1,19.7761424 1.22385763,20 1.5,20 L3,20 C3,18.8954305 2.1045695,18 1,18 Z M1,6 C2.1045695,6 3,5.1045695 3,4 L1.5,4 C1.22385763,4 1,4.22385763 1,4.5 L1,6 Z M12,17 C10.3431458,17 9,14.7614237 9,12 C9,9.23857625 10.3431458,7 12,7 C13.6568542,7 15,9.23857625 15,12 C15,14.7614237 13.6568542,17 12,17 Z M12,16 C12.9686004,16 14,14.2810007 14,12 C14,9.71899932 12.9686004,8 12,8 C11.0313996,8 10,9.71899932 10,12 C10,14.2810007 11.0313996,16 12,16 Z"/>
</svg>
