<svg xmlns="http://www.w3.org/2000/svg" xmlns:xlink="http://www.w3.org/1999/xlink" width="24px" height="24px" viewBox="0 0 24 24" version="1.1">
  <path d="M13.0362047,3.56644131 L12.1604077,3.08731818 C12.1119558,3.06081157 12.0941657,3.00004571 12.1206723,2.95159384 C12.129851,2.93481594 12.1436483,2.92102189 12.1604283,2.91184714 L13.0356389,2.43331237 C13.2035098,2.34152643 13.3415264,2.20350977 13.4333124,2.03563894 L13.9118471,1.16042834 C13.9383424,1.11197023 13.999104,1.09416578 14.0475621,1.12066099 C14.0643422,1.12983575 14.0781395,1.14362979 14.0873182,1.16040769 L14.5664413,2.03620466 C14.6581899,2.20391341 14.7960866,2.34181009 14.9637953,2.43355869 L15.8395923,2.91268182 C15.8880442,2.93918843 15.9058343,2.99995429 15.8793277,3.04840616 C15.870149,3.06518406 15.8563517,3.07897811 15.8395717,3.08815286 L14.9643611,3.56668763 C14.7964902,3.65847357 14.6584736,3.79649023 14.5666876,3.96436106 L14.0881529,4.83957166 C14.0616576,4.88802977 14.000896,4.90583422 13.9524379,4.87933901 C13.9356578,4.87016425 13.9218605,4.85637021 13.9126818,4.83959231 L13.4335587,3.96379534 C13.3418101,3.79608659 13.2039134,3.65818991 13.0362047,3.56644131 Z M15.9441013,10.0161633 L15.1604077,9.58742723 C15.1119558,9.56092062 15.0941657,9.50015476 15.1206723,9.45170289 C15.129851,9.43492499 15.1436483,9.42113095 15.1604283,9.41195619 L15.9438442,8.98361158 C15.9606313,8.97443299 15.974433,8.96063132 15.9836116,8.94384424 L16.4119562,8.16042834 C16.4384514,8.11197023 16.4992131,8.09416578 16.5476712,8.12066099 C16.5644512,8.12983575 16.5782485,8.14362979 16.5874272,8.16040769 L17.0161633,8.9441013 C17.0253382,8.96087218 17.0391278,8.97466185 17.0558987,8.98383671 L17.8395923,9.41257277 C17.8880442,9.43907938 17.9058343,9.49984524 17.8793277,9.54829711 C17.870149,9.56507501 17.8563517,9.57886905 17.8395717,9.58804381 L17.0561558,10.0163884 C17.0393687,10.025567 17.025567,10.0393687 17.0163884,10.0561558 L16.5880438,10.8395717 C16.5615486,10.8880298 16.5007869,10.9058342 16.4523288,10.879339 C16.4355488,10.8701643 16.4217515,10.8563702 16.4125728,10.8395923 L15.9838367,10.0558987 C15.9746618,10.0391278 15.9608722,10.0253382 15.9441013,10.0161633 Z M19.9441013,7.01616329 L19.1604077,6.58742723 C19.1119558,6.56092062 19.0941657,6.50015476 19.1206723,6.45170289 C19.129851,6.43492499 19.1436483,6.42113095 19.1604283,6.41195619 L19.9438442,5.98361158 C19.9606313,5.97443299 19.974433,5.96063132 19.9836116,5.94384424 L20.4119562,5.16042834 C20.4384514,5.11197023 20.4992131,5.09416578 20.5476712,5.12066099 C20.5644512,5.12983575 20.5782485,5.14362979 20.5874272,5.16040769 L21.0161633,5.9441013 C21.0253382,5.96087218 21.0391278,5.97466185 21.0558987,5.98383671 L21.8395923,6.41257277 C21.8880442,6.43907938 21.9058343,6.49984524 21.8793277,6.54829711 C21.870149,6.56507501 21.8563517,6.57886905 21.8395717,6.58804381 L21.0561558,7.01638842 C21.0393687,7.02556701 21.025567,7.03936868 21.0163884,7.05615576 L20.5880438,7.83957166 C20.5615486,7.88802977 20.5007869,7.90583422 20.4523288,7.87933901 C20.4355488,7.87016425 20.4217515,7.85637021 20.4125728,7.83959231 L19.9838367,7.0558987 C19.9746618,7.03912782 19.9608722,7.02533815 19.9441013,7.01616329 Z M7.89161666,6.55419167 C7.89161666,11.2785413 11.7214587,15.1083833 16.4458083,15.1083833 C17.7085559,15.1083833 18.9073987,14.8347747 19.986286,14.343608 C20.0858233,14.2982934 20.203249,14.3422495 20.2485636,14.4417868 C20.2718172,14.4928653 20.2723051,14.5514119 20.2499058,14.6028708 C20.2480318,14.6070555 20.2462283,14.6111809 20.2444513,14.6152276 C18.8521835,17.7857209 15.6846781,20 12,20 C7.02943725,20 3,15.9705627 3,11 C3,7.33214061 5.19411119,4.17674334 8.34141728,2.7747245 C8.34927327,2.77122493 8.35740331,2.76763398 8.36580741,2.76395166 C8.47250884,2.71721006 8.59690296,2.76580695 8.64365328,2.87250456 C8.66760035,2.92715863 8.66727763,2.98939846 8.64276509,3.04380127 C8.16016736,4.11487225 7.89161666,5.30317027 7.89161666,6.55419167 Z"/>
</svg>
