<svg xmlns="http://www.w3.org/2000/svg" xmlns:xlink="http://www.w3.org/1999/xlink" width="24px" height="24px" viewBox="0 0 24 24" version="1.1">
  <path d="M8,5 L8,3 C8,2.44771525 8.44771525,2 9,2 L15,2 C15.5522847,2 16,2.44771525 16,3 L16,5 L21.5,5 C22.4,5 23,5.53333333 23,6.33333333 L23,9 L23,13 L23,19.6666667 C23,20.4666667 22.4,21 21.5,21 L2.5,21 C1.6,21 1,20.4666667 1,19.6666667 L1,13 L1,9 L1,6.33333333 C1,5.53333333 1.6,5 2.5,5 L8,5 Z M9.25,2.99998636 C9.11192881,2.99998636 9,3.11191517 9,3.24998636 L9,5 L15,5 L15,3.24998636 C15,3.11191517 14.8880712,2.99998636 14.75,2.99998636 L9.25,2.99998636 Z"/>
</svg>
