<svg xmlns="http://www.w3.org/2000/svg" xmlns:xlink="http://www.w3.org/1999/xlink" width="24px" height="24px" viewBox="0 0 24 24" version="1.1">
  <path d="M5,3 L19,3 C20.1045695,3 21,3.8954305 21,5 L21,19.775467 C21,19.9182859 20.9389261,20.0542879 20.8321819,20.1491716 L19.0821819,21.7047272 C18.8927389,21.873121 18.6072611,21.873121 18.4178181,21.7047272 L16.5,20 L14.5821819,21.7047272 C14.3927389,21.873121 14.1072611,21.873121 13.9178181,21.7047272 L12,20 L10.0821819,21.7047272 C9.89273891,21.873121 9.60726109,21.873121 9.41781808,21.7047272 L7.5,20 L5.58218192,21.7047272 C5.39273891,21.873121 5.10726109,21.873121 4.91781808,21.7047272 L3.16781808,20.1491716 C3.0610739,20.0542879 3,19.9182859 3,19.775467 L3,5 C3,3.8954305 3.8954305,3 5,3 Z M12,13.5 C12.5522847,13.5 13,13.0522847 13,12.5 L13,8 C13,7.44771525 12.5522847,7 12,7 C11.4477153,7 11,7.44771525 11,8 L11,12.5 C11,13.0522847 11.4477153,13.5 12,13.5 Z M12,15 C11.4477153,15 11,15.4477153 11,16 C11,16.5522847 11.4477153,17 12,17 C12.5522847,17 13,16.5522847 13,16 C13,15.4477153 12.5522847,15 12,15 Z"/>
</svg>
