<svg xmlns="http://www.w3.org/2000/svg" xmlns:xlink="http://www.w3.org/1999/xlink" width="24px" height="24px" viewBox="0 0 24 24" version="1.1">
  <path d="M4,4 L18,4 C19.1045695,4 20,4.8954305 20,6 L20,20.775467 C20,20.9182859 19.9389261,21.0542879 19.8321819,21.1491716 L18.0821819,22.7047272 C17.8927389,22.873121 17.6072611,22.873121 17.4178181,22.7047272 L15.5,21 L13.5821819,22.7047272 C13.3927389,22.873121 13.1072611,22.873121 12.9178181,22.7047272 L11,21 L9.08218192,22.7047272 C8.89273891,22.873121 8.60726109,22.873121 8.41781808,22.7047272 L6.5,21 L4.58218192,22.7047272 C4.39273891,22.873121 4.10726109,22.873121 3.91781808,22.7047272 L2.16781808,21.1491716 C2.0610739,21.0542879 2,20.9182859 2,20.775467 L2,6 C2,4.8954305 2.8954305,4 4,4 Z M18,5 L4,5 C3.44771525,5 3,5.44771525 3,6 L3,20.5857864 L4.14285714,21.5857864 L6.09931912,19.8738822 C6.28783212,19.7089333 6.56931074,19.7089333 6.75782373,19.8738822 L8.71428571,21.5857864 L10.6707477,19.8738822 C10.8592607,19.7089333 11.1407393,19.7089333 11.3292523,19.8738822 L13.2857143,21.5857864 L15.2421763,19.8738822 C15.4306893,19.7089333 15.7121679,19.7089333 15.9006809,19.8738822 L17.8571429,21.5857864 L19,20.5857864 L19,6 C19,5.44771525 18.5522847,5 18,5 Z M21,19.7641132 L21,18.4607864 L22,17.5857864 L22,3 C22,2.44771525 21.5522847,2 21,2 L7,2 C6.44771525,2 6,2.44771525 6,3 L5,3 C5,1.8954305 5.8954305,1 7,1 L21,1 C22.1045695,1 23,1.8954305 23,3 L23,17.775467 C23,17.9182859 22.9389261,18.0542879 22.8321819,18.1491716 L21.0821819,19.7047272 C21.0564047,19.7276403 21.0288494,19.7474356 21,19.7641132 Z"/>
</svg>
