<svg xmlns="http://www.w3.org/2000/svg" xmlns:xlink="http://www.w3.org/1999/xlink" width="24px" height="24px" viewBox="0 0 24 24" version="1.1">
  <path d="M4.07379351,18.0481677 L3.61570888,17.580143 C2.48524754,16.0349793 2,13.8753187 2,11.3445289 C2,7.59861381 4.12657715,4.26613159 8.34154854,2.23527208 C9.58141191,1.63788053 10.9921747,1.27347872 12.5392531,1.10726405 C14.6637378,0.87901413 16.9052709,1.03001254 19.0872775,1.41837678 C19.9673099,1.57500928 20.639084,1.73332723 20.9576318,1.82510153 C22.7271988,2.21833781 23.2448914,4.0569289 21.8666187,5.34011383 C21.7511629,5.43516274 21.5254317,5.63792379 21.2265826,5.93624379 C20.7196384,6.44229067 20.2113238,7.02086143 19.7384729,7.65835426 C18.5856568,9.21256975 17.840854,10.8462556 17.6783179,12.4751705 C17.175118,17.5181727 14.2252894,20.1333918 9.4335927,20.1333918 C7.56341427,20.1333918 6.09790311,19.7007131 4.98077332,18.9209876 C4.8796048,20.0392383 4.88542474,21.2169916 4.9979466,22.4547321 C5.02294736,22.7297404 4.82027619,22.9729458 4.54526787,22.9979466 C4.27025956,23.0229474 4.02705415,22.8202762 4.0020534,22.5452679 C3.85763498,20.9566653 3.88171899,19.4573434 4.07379351,18.0481677 Z M5.13692639,17.7047303 L5.45818083,18.0329557 C6.43849233,18.753732 7.74963073,19.1333918 9.4335927,19.1333918 C13.7585362,19.1333918 16.2358325,16.8599331 16.6832592,12.3758818 C16.8602161,10.6024435 17.6402857,8.80853395 18.9352979,7.06261112 C19.4196627,6.4095953 19.9553824,5.79223142 20.5201026,5.22851085 C20.803299,4.94581575 21.0605758,4.70841226 21.1852099,4.60821072 C21.9651414,3.88208714 21.7360651,3.02248006 20.6807901,2.78601706 C20.3308684,2.68520391 19.6586362,2.53578583 18.9120465,2.40290412 C16.6858607,2.00667665 14.56628,1.89523966 12.6460762,2.1015421 C11.1726096,2.25984808 9.88105188,2.60353082 8.77561206,3.13615435 C4.99992647,4.95535697 3,7.89373604 3,11.3445289 C3,13.6760538 3.43301434,15.5161278 4.29228212,16.8029866 C5.30155406,12.1345644 8.30323718,8.53936441 13.2763932,6.0527864 C13.5233825,5.92929178 13.823719,6.02940395 13.9472136,6.2763932 C14.0707082,6.52338245 13.970596,6.82371897 13.7236068,6.9472136 C8.78253534,9.41774932 5.92838229,12.9899382 5.13692639,17.7047303 Z"/>
</svg>
