<svg xmlns="http://www.w3.org/2000/svg" xmlns:xlink="http://www.w3.org/1999/xlink" width="24px" height="24px" viewBox="0 0 24 24" version="1.1">
  <path d="M20.8,23 L3.2,23 C1.9856,23 1,22.0155 1,20.8 L1,3.2 C1,1.9856 1.9856,1 3.2,1 L20.8,1 C22.0155,1 23,1.9856 23,3.2 L23,20.8 C23,22.0155 22.0155,23 20.8,23 Z M11.841,11.892 L10.283,11.892 L10.283,8.744 L11.824,8.744 C12.422,8.744 12.888,8.876 13.22,9.143 C13.553,9.41 13.72,9.798 13.72,10.309 L13.72,10.342 C13.72,10.819 13.553,11.197 13.22,11.475 C12.888,11.753 12.427,11.892 11.841,11.892 Z M7,6 L7,17.85 L10.283,17.85 L10.283,14.464 L11.909,14.464 C12.643,14.464 13.323,14.374 13.948,14.194 C14.574,14.014 15.114,13.743 15.565,13.381 C16.016,13.021 16.37,12.574 16.623,12.043 C16.877,11.513 17.004,10.899 17.004,10.2 L17.004,10.164 C17.004,9.51 16.888,8.923 16.657,8.404 C16.426,7.886 16.095,7.449 15.667,7.093 C15.238,6.738 14.719,6.466 14.11,6.28 C13.5,6.094 12.823,6 12.078,6 L7,6 Z"/>
</svg>
