<svg xmlns="http://www.w3.org/2000/svg" xmlns:xlink="http://www.w3.org/1999/xlink" width="24px" height="24px" viewBox="0 0 24 24" version="1.1">
  <path d="M20.4210526,22 C21.2924817,22 22,21.2924817 22,20.4210526 L22,3.57894737 C22,2.70751829 21.2924817,2 20.4210526,2 L3.57894737,2 C2.70751829,2 2,2.70751829 2,3.57894737 L2,20.4210526 C2,21.2924817 2.70751829,22 3.57894737,22 L20.4210526,22 Z M20.3809524,23 L3.61904762,23 C2.17318418,23 1,21.8268158 1,20.3809524 L1,3.61904762 C1,2.17318418 2.17318418,1 3.61904762,1 L20.3809524,1 C21.8268158,1 23,2.17318418 23,3.61904762 L23,20.3809524 C23,21.8268158 21.8268158,23 20.3809524,23 Z M12.474263,12.0639619 L10.8773894,12.0639619 C10.594357,12.0639619 10.364914,11.8345189 10.364914,11.5514865 L10.364914,8.32494088 C10.364914,8.04190849 10.594357,7.8124654 10.8773894,7.8124654 L12.4568389,7.8124654 C13.1794746,7.8124654 13.7685492,7.98045607 14.2082503,8.33407185 C14.6780421,8.71075174 14.9126213,9.25763429 14.9126213,9.93001406 L14.9126213,9.96281249 C14.9126213,10.5995807 14.6774482,11.1323344 14.2166795,11.5169993 C13.7757628,11.8862007 13.1874882,12.0639619 12.474263,12.0639619 Z M11.3898649,11.039011 L12.474263,11.039011 C12.9633053,11.039011 13.3195893,10.9313513 13.5592431,10.730678 C13.7807366,10.5457675 13.8876704,10.3035232 13.8876704,9.96281249 L13.8876704,9.93001406 C13.8876704,9.55421015 13.7808091,9.3050808 13.5665037,9.13324963 C13.3279867,8.94143025 12.9632525,8.83741635 12.4568389,8.83741635 L11.3898649,8.83741635 L11.3898649,11.039011 Z M8.02495095,6.02495095 L8.02495095,17.1456687 L10.364914,17.1456687 L10.364914,14.1876603 C10.364914,13.9046279 10.594357,13.6751848 10.8773894,13.6751848 L12.5439597,13.6751848 C13.2486801,13.6751848 13.8974744,13.5894905 14.4914895,13.4196387 C15.0715995,13.2519072 15.5638429,13.0043021 15.9714729,12.677116 C16.3740218,12.3557909 16.6875502,11.9598835 16.9132715,11.4861378 C17.1391047,11.0140221 17.2536093,10.4599821 17.2536093,9.81726946 L17.2536093,9.78037122 C17.2536093,9.17996354 17.1488646,8.64922678 16.9425679,8.18662172 C16.7367374,7.72616468 16.4464244,7.34149994 16.0690064,7.02757064 C15.6825812,6.7078016 15.2096128,6.46072856 14.6504077,6.28965572 C14.073897,6.1138672 13.4298485,6.02495095 12.7171764,6.02495095 L8.02495095,6.02495095 Z M11.3898649,14.7001358 L11.3898649,17.6581442 C11.3898649,17.9411766 11.1604218,18.1706197 10.8773894,18.1706197 L7.51247547,18.1706197 C7.22944309,18.1706197 7,17.9411766 7,17.6581442 L7,5.51247547 C7,5.22944309 7.22944309,5 7.51247547,5 L12.7171764,5 C13.5277129,5 14.272133,5.10277338 14.9497954,5.3094051 C15.6347849,5.51895781 16.2282582,5.82898122 16.7234418,6.23875064 C17.2229038,6.65419097 17.6088198,7.16552973 17.8784716,7.76875982 C18.1457946,8.36821133 18.2785602,9.04092893 18.2785602,9.78037122 L18.2785602,9.81726946 C18.2785602,10.6069258 18.1329138,11.3116482 17.838224,11.9277109 C17.5462231,12.5405666 17.1350793,13.0597376 16.6119692,13.4772953 C16.0961576,13.8913171 15.4823144,14.2000884 14.7747265,14.4046762 C14.084851,14.6019409 13.3414148,14.7001358 12.5439597,14.7001358 L11.3898649,14.7001358 Z"/>
</svg>
