<svg xmlns="http://www.w3.org/2000/svg" xmlns:xlink="http://www.w3.org/1999/xlink" width="24px" height="24px" viewBox="0 0 24 24" version="1.1">
  <path d="M19.8,22 L2.2,22 C0.9856,22 0,21.0155 0,19.8 L0,2.2 C0,0.9856 0.9856,0 2.2,0 L19.8,0 C21.0155,0 22,0.9856 22,2.2 L22,19.8 C22,21.0155 21.0155,22 19.8,22 Z M10.841,10.892 L9.283,10.892 L9.283,7.744 L10.824,7.744 C11.422,7.744 11.888,7.876 12.22,8.143 C12.553,8.41 12.72,8.798 12.72,9.309 L12.72,9.342 C12.72,9.819 12.553,10.197 12.22,10.475 C11.888,10.753 11.427,10.892 10.841,10.892 Z M6,5 L6,16.85 L9.283,16.85 L9.283,13.464 L10.909,13.464 C11.643,13.464 12.323,13.374 12.948,13.194 C13.574,13.014 14.114,12.743 14.565,12.381 C15.016,12.021 15.37,11.574 15.623,11.043 C15.877,10.513 16.004,9.899 16.004,9.2 L16.004,9.164 C16.004,8.51 15.888,7.923 15.657,7.404 C15.426,6.886 15.095,6.449 14.667,6.093 C14.238,5.738 13.719,5.466 13.11,5.28 C12.5,5.094 11.823,5 11.078,5 L6,5 Z"/>
</svg>
