<svg xmlns="http://www.w3.org/2000/svg" xmlns:xlink="http://www.w3.org/1999/xlink" width="24px" height="24px" viewBox="0 0 24 24" version="1.1">
  <path d="M13.0788413,6.61844358 L3.42738604,16.2698988 L2.89705595,21.0428696 L7.67002673,20.5125395 L17.321482,10.8610843 L13.0788413,6.61844358 Z M13.0788413,5.20423002 L18.7356956,10.8610843 L8.25311368,21.3436662 C8.17283178,21.423948 8.06761738,21.4745167 7.95477605,21.4870546 L2.01360375,22.1471849 C1.90382238,22.1593828 1.80493862,22.0802758 1.79274069,21.9704944 C1.79165336,21.9607084 2.01169678,19.9655934 2.45287095,15.9851495 C2.46540888,15.8723082 2.51597753,15.7670938 2.59625943,15.6868119 L13.0788413,5.20423002 Z M20.1499091,8.03265714 L21.5641227,6.61844358 L17.321482,2.37580289 L15.9072684,3.79001645 L20.1499091,8.03265714 Z M16.6143752,1.66869611 C17.0048995,1.27817182 17.6380645,1.27817182 18.0285888,1.66869611 L22.2712295,5.9113368 C22.6617538,6.30186109 22.6617538,6.93502607 22.2712295,7.32555036 L20.1499091,9.4468707 L14.4930549,3.79001645 L16.6143752,1.66869611 Z"/>
</svg>
