<svg xmlns="http://www.w3.org/2000/svg" xmlns:xlink="http://www.w3.org/1999/xlink" width="24px" height="24px" viewBox="0 0 24 24" version="1.1">
  <path d="M15.0408216,2.82652251 C15.0138733,3.04724266 15,3.2720012 15,3.5 C15,3.67462575 15.0081382,3.84735072 15.0240561,4.01781633 C14.1843128,3.37913408 13.1364322,3 12,3 C9.23857625,3 7,5.23857625 7,8 C7,10.7614237 9.23857625,13 12,13 C14.7614237,13 17,10.7614237 17,8 C17,7.91185671 16.9977192,7.82424612 16.9932134,7.73722404 C17.2985328,7.99019461 17.6316435,8.21079659 17.987285,8.39376966 C17.8447569,10.5937974 16.5164871,12.4707091 14.6350782,13.3919025 C18.3199595,14.5185116 21,17.9462773 21,22 C21,22.2761424 20.7761424,22.5 20.5,22.5 C20.2238576,22.5 20,22.2761424 20,22 C20,17.581722 16.418278,14 12,14 C7.581722,14 4,17.581722 4,22 C4,22.2761424 3.77614237,22.5 3.5,22.5 C3.22385763,22.5 3,22.2761424 3,22 C3,17.9462773 5.68004048,14.5185116 9.3649218,13.3919025 C7.3721955,12.4162049 6,10.3683491 6,8 C6,4.6862915 8.6862915,2 12,2 C13.109754,2 14.149139,2.3012853 15.0408216,2.82652251 Z M20.9813714,3.98638821 L20.9677688,6.61274444 C20.9666075,6.82694444 20.7502154,7 20.4838867,7 L20.4818544,7 C20.2146547,6.99906667 19.9988433,6.8243 20.0000047,6.60947778 L20.0136163,3.9813759 L17.3872589,3.96777315 C17.1725147,3.96661183 16.9990704,3.7491532 17.0000037,3.48185425 C17.0009371,3.21532953 17.174848,3 17.3888922,3 L17.3905256,3 L20.0186286,3.01361179 L20.0322312,0.387255556 C20.0333925,0.173055556 20.2497846,0 20.5161133,0 L20.5181456,0 C20.7853453,0.000933333333 21.0011567,0.1757 20.9999953,0.390522222 L20.9863837,3.0186241 L23.6127411,3.03222685 C23.8274853,3.03338817 24.0009296,3.2508468 23.9999963,3.51814575 C23.9990629,3.78467047 23.825152,4 23.6111078,4 L23.6094744,4 L20.9813714,3.98638821 Z"/>
</svg>
