<svg xmlns="http://www.w3.org/2000/svg" xmlns:xlink="http://www.w3.org/1999/xlink" width="24px" height="24px" viewBox="0 0 24 24" version="1.1">
  <path d="M8.16381413,13.8561749 C9.26555259,14.5793535 10.5836527,15 12,15 C13.4163473,15 14.7344474,14.5793535 15.8361859,13.8561749 C18.8881258,15.296323 21,18.4015342 21,22 C21,22.2761424 20.7761424,22.5 20.5,22.5 L3.5,22.5 C3.22385763,22.5 3,22.2761424 3,22 C3,18.4015342 5.11187417,15.296323 8.16381413,13.8561749 Z M12,14 C8.6862915,14 6,11.3137085 6,8 C6,4.6862915 8.6862915,2 12,2 C15.3137085,2 18,4.6862915 18,8 C18,11.3137085 15.3137085,14 12,14 Z"/>
</svg>
