<svg xmlns="http://www.w3.org/2000/svg" xmlns:xlink="http://www.w3.org/1999/xlink" width="24px" height="24px" viewBox="0 0 24 24" version="1.1">
  <path d="M18,15.7777778 L18,4 L6,4 L6,15.6 L10,10 L13,13 L14.5,11.5 L18,15.7777778 Z M5,1 L19,1 C20.1045695,1 21,1.8954305 21,3 L21,21 C21,22.1045695 20.1045695,23 19,23 L5,23 C3.8954305,23 3,22.1045695 3,21 L3,3 C3,1.8954305 3.8954305,1 5,1 Z M5,2 C4.44771525,2 4,2.44771525 4,3 L4,21 C4,21.5522847 4.44771525,22 5,22 L19,22 C19.5522847,22 20,21.5522847 20,21 L20,3 C20,2.44771525 19.5522847,2 19,2 L5,2 Z M5.5,3 L18.5,3 C18.7761424,3 19,3.22385763 19,3.5 L19,16.5 C19,16.7761424 18.7761424,17 18.5,17 L5.5,17 C5.22385763,17 5,16.7761424 5,16.5 L5,3.5 C5,3.22385763 5.22385763,3 5.5,3 Z M10.1276048,11.5418184 L6.94318932,16 L16.8897572,16 L14.4257626,12.988451 L13,14.4142136 L10.1276048,11.5418184 Z M15,9 C13.8954305,9 13,8.1045695 13,7 C13,5.8954305 13.8954305,5 15,5 C16.1045695,5 17,5.8954305 17,7 C17,8.1045695 16.1045695,9 15,9 Z M15,8 C15.5522847,8 16,7.55228475 16,7 C16,6.44771525 15.5522847,6 15,6 C14.4477153,6 14,6.44771525 14,7 C14,7.55228475 14.4477153,8 15,8 Z"/>
</svg>
