<svg xmlns="http://www.w3.org/2000/svg" xmlns:xlink="http://www.w3.org/1999/xlink" width="24px" height="24px" viewBox="0 0 24 24" version="1.1">
  <path d="M5,1 L19,1 C20.1045695,1 21,1.8954305 21,3 L21,21 C21,22.1045695 20.1045695,23 19,23 L5,23 C3.8954305,23 3,22.1045695 3,21 L3,3 C3,1.8954305 3.8954305,1 5,1 Z M5,2 C4.44771525,2 4,2.44771525 4,3 L4,21 C4,21.5522847 4.44771525,22 5,22 L19,22 C19.5522847,22 20,21.5522847 20,21 L20,3 C20,2.44771525 19.5522847,2 19,2 L5,2 Z M5.5,3 L18.5,3 C18.7761424,3 19,3.22385763 19,3.5 L19,16.5 C19,16.7761424 18.7761424,17 18.5,17 L5.5,17 C5.22385763,17 5,16.7761424 5,16.5 L5,3.5 C5,3.22385763 5.22385763,3 5.5,3 Z M6,4 L6,16 L18,16 L18,4 L6,4 Z M12,15 C11.7238576,15 11.5,14.7761424 11.5,14.5 C11.5,14.2238576 11.7238576,14 12,14 C12.2761424,14 12.5,14.2238576 12.5,14.5 C12.5,14.7761424 12.2761424,15 12,15 Z M13.1246165,10.8910957 C12.9618903,10.9758883 12.7556854,11.0408819 12.5,11.0925963 L12.5,12.5 C12.5,12.7761424 12.2761424,13 12,13 C11.7238576,13 11.5,12.7761424 11.5,12.5 L11.5,11.010054 C11.5,10.5758667 11.8099872,10.203578 12.2369936,10.1249388 C12.441488,10.0872783 12.5860246,10.0441259 12.6625135,10.0042695 C13.1696245,9.74002653 13.5,9.19448427 13.5,8.58333333 C13.5,7.70441919 12.8237576,7 12,7 C11.1762424,7 10.5,7.70441919 10.5,8.58333333 C10.5,8.85947571 10.2761424,9.08333333 10,9.08333333 C9.72385763,9.08333333 9.5,8.85947571 9.5,8.58333333 C9.5,7.16106102 10.6146186,6 12,6 C13.3853814,6 14.5,7.16106102 14.5,8.58333333 C14.5,9.56697357 13.9625361,10.4544767 13.1246165,10.8910957 Z"/>
</svg>
