<svg xmlns="http://www.w3.org/2000/svg" xmlns:xlink="http://www.w3.org/1999/xlink" width="24px" height="24px" viewBox="0 0 24 24" version="1.1">
  <path d="M11.9992787,1 C5.92457377,1 1,5.92457377 1,11.9992787 C1,16.659041 3.89922131,20.6426639 7.99086066,22.2453279 C7.8947459,21.3750656 7.80791803,20.0366721 8.02909016,19.0866148 C8.22889344,18.2282541 9.31879508,13.6192541 9.31879508,13.6192541 C9.31879508,13.6192541 8.98978689,12.9603361 8.98978689,11.9862049 C8.98978689,10.4567541 9.87627869,9.31491803 10.9800656,9.31491803 C11.9184918,9.31491803 12.3717459,10.0195492 12.3717459,10.8643852 C12.3717459,11.808041 11.7708934,13.2190164 11.4608197,14.5265738 C11.2016885,15.6214344 12.0098279,16.5142377 13.0896311,16.5142377 C15.0445656,16.5142377 16.5473279,14.4529098 16.5473279,11.4773197 C16.5473279,8.84381148 14.6549672,7.00239344 11.9528443,7.00239344 C8.8232541,7.00239344 6.98616393,9.34981148 6.98616393,11.7758525 C6.98616393,12.7211311 7.35033607,13.7349344 7.8047623,14.2859262 C7.89465574,14.3948443 7.90781967,14.4903279 7.88113115,14.6014098 C7.79754918,14.9489016 7.6119918,15.696 7.57556557,15.8488279 C7.52759836,16.0501639 7.41615574,16.0928115 7.20769672,15.9959754 C5.83395902,15.3564426 4.97505738,13.348041 4.97505738,11.7347377 C4.97505738,8.26504918 7.49604098,5.07865574 12.2427213,5.07865574 C16.0583689,5.07865574 19.0235902,7.79754918 19.0235902,11.4312459 C19.0235902,15.2220984 16.6334344,18.2728852 13.3159426,18.2728852 C12.2014262,18.2728852 11.153541,17.6938525 10.7948689,17.0098689 C10.7948689,17.0098689 10.2433361,19.1099672 10.109623,19.6245328 C9.86131148,20.58 9.19094262,21.7775574 8.74255738,22.5080656 C9.77168852,22.8267049 10.865377,22.9986475 11.9992787,22.9986475 C18.0740738,22.9986475 22.9986475,18.0740738 22.9986475,11.9992787 C22.9986475,5.92457377 18.0740738,1 11.9992787,1"/>
</svg>
