<svg xmlns="http://www.w3.org/2000/svg" xmlns:xlink="http://www.w3.org/1999/xlink" width="24px" height="24px" viewBox="0 0 24 24" version="1.1">
  <path d="M4.69340731,2.06840122 C5.02354288,1.937628 5.44645146,1.9903307 5.90665133,2.26144051 L16.7146973,8.62771149 L13.9847925,11.3567134 L4.69340731,2.06840122 Z M4.06537149,2.85443116 L13.2776296,12.0636424 L4.09446704,21.2437677 C4.03322052,21.0590343 4,20.8430262 4,20.5983852 L4,3.4013761 C4,3.19914983 4.02277327,3.01627737 4.06537149,2.85443116 Z M17.5248742,14.8956243 L14.6919554,12.0636424 L17.6041656,9.1523954 L20.5335623,10.8778295 C21.5821455,11.4952298 21.5821455,12.5053091 20.5335623,13.123487 L17.5248742,14.8956243 Z M16.6344224,15.419325 L5.90590127,21.7383208 C5.48912173,21.9838511 5.10292851,22.0505708 4.78862032,21.9637021 L13.9847925,12.7705714 L16.6344224,15.419325 Z"/>
</svg>
