<svg xmlns="http://www.w3.org/2000/svg" xmlns:xlink="http://www.w3.org/1999/xlink" width="24px" height="24px" viewBox="0 0 24 24" version="1.1">
  <path d="M20.9813666,3.98638819 L20.967764,6.61274444 C20.9666027,6.82694444 20.7502106,7 20.4838819,7 L20.4818496,7 C20.2146499,6.99906667 19.9988385,6.8243 19.9999998,6.60947778 L20.0136115,3.98137587 L17.3872589,3.96777315 C17.1725147,3.96661183 16.9990704,3.7491532 17.0000037,3.48185425 C17.0009371,3.21532953 17.174848,3 17.3888922,3 L17.3905256,3 L20.0186238,3.01361176 L20.0322264,0.387255556 C20.0333877,0.173055556 20.2497798,0 20.5161085,0 L20.5181408,0 C20.7853404,0.000933333333 21.0011518,0.1757 20.9999905,0.390522222 L20.9863789,3.01862408 L23.6127411,3.03222685 C23.8274853,3.03338817 24.0009296,3.2508468 23.9999963,3.51814575 C23.9990629,3.78467047 23.825152,4 23.6111078,4 L23.6094744,4 L20.9813666,3.98638819 Z M15,1.41406497 L15,2.45780228 C14.0529588,2.16035383 13.0452057,2 12,2 C6.4771525,2 2,6.4771525 2,12 C2,17.5228475 6.4771525,22 12,22 C17.5228475,22 22,17.5228475 22,12 C22,10.9547943 21.8396462,9.94704122 21.5421977,9 L22.585935,9 C22.8556657,9.95366359 23,10.9599762 23,12 C23,18.0751322 18.0751322,23 12,23 C5.92486775,23 1,18.0751322 1,12 C1,5.92486775 5.92486775,1 12,1 C13.0400238,1 14.0463364,1.14433432 15,1.41406497 Z M6.5,10 C5.67157288,10 5,9.32842712 5,8.5 C5,7.67157288 5.67157288,7 6.5,7 C7.32842712,7 8,7.67157288 8,8.5 C8,9.32842712 7.32842712,10 6.5,10 Z M17.5,10 C16.6715729,10 16,9.32842712 16,8.5 C16,7.67157288 16.6715729,7 17.5,7 C18.3284271,7 19,7.67157288 19,8.5 C19,9.32842712 18.3284271,10 17.5,10 Z M12,19 C9.17986632,19 6.81416272,17.0543536 6.17198981,14.4321613 C6.15293687,14.3543622 6.13502181,14.2654782 6.11824465,14.1655094 C6.10906603,14.1108174 6.10445287,14.0554568 6.10445287,14 C6.10445287,13.4477152 6.55216812,13 7.10445287,13 L16.8933186,13 C16.9479127,13 17.002415,13.0044707 17.0562792,13.0133674 C17.6011814,13.1033681 17.9699519,13.6180585 17.8799512,14.1629606 C17.8587554,14.291289 17.8358274,14.4033847 17.8111674,14.4992476 C17.1453649,17.0874702 14.7960301,19 12,19 Z M12,18 C14.2948495,18 16.2792417,16.4404799 16.8426979,14.2501155 C16.8594845,14.1848594 16.8766347,14.1010117 16.8933186,14 L7.10445286,14 C7.11736008,14.0769092 7.13047373,14.1419715 7.14328683,14.1942914 C7.68639196,16.411959 9.68408645,18 12,18 Z"/>
</svg>
