<svg xmlns="http://www.w3.org/2000/svg" xmlns:xlink="http://www.w3.org/1999/xlink" width="24px" height="24px" viewBox="0 0 24 24" version="1.1">
  <path d="M8,20 L3,20 L3,21 C3,21.5577216 3.44149667,22 3.991155,22 L6.50315044,22 C6.78361129,22 7,22.2238576 7,22.5 C7,22.7680664 6.77755288,23 6.50315044,23 L3.991155,23 C2.89147046,23 2,22.1122704 2,21 L2,2.89483338 C2,1.8483458 2.88967395,1 3.991155,1 L20.9975383,1 C21.5511826,1 22,1.4166841 22,1.94880879 L22,21.9906311 C22,22.5480902 21.5605417,23 20.9975383,23 L13.5002818,23 C13.2307258,23 13,22.7761424 13,22.5 C13,22.2319336 13.2240528,22.0000392 13.5004358,22.0000875 C13.5004358,22.0000875 21,22.0020444 21,21.9906311 L21,20 L12,20 L12,23.7375579 C12,24.0150436 11.8430634,24.0830536 11.6516266,23.8916168 L10,22.2399902 L8.34837341,23.8916168 C8.15597209,24.0840181 8,24.0148344 8,23.7375579 L8,20 Z M5,18.9997087 L21,18.9997087 L21,1.99970872 C20.9995696,1.99984243 8.78940833,1.99993623 5,1.99996212 L5,18.9997087 Z M4,18.9997087 L4,1.99996867 L3.8920395,1.99996933 C3.39879183,1.99996933 3,2.39734888 3,2.88982646 L3,18.9997087 L4,18.9997087 Z M17,10.9499909 L17,15.0010434 C17,15.5527519 16.5469637,16 16.0029699,16 L9.99703014,16 C9.4463856,16 9,15.5573397 9,15.0010434 L9,10.9499909 C7.85887984,10.7183558 7,9.70947896 7,8.5 C7,7.11928813 8.11928813,6 9.5,6 C9.72216622,6 9.93756391,6.02897956 10.1426191,6.08336478 C10.5299979,4.87483174 11.662835,4 13,4 C14.337165,4 15.4700021,4.87483174 15.8573809,6.08336478 C16.0624361,6.02897956 16.2778338,6 16.5,6 C17.8807119,6 19,7.11928813 19,8.5 C19,9.70947896 18.1411202,10.7183558 17,10.9499909 Z M11,7 L9.5,7 C8.67157288,7 8,7.67157288 8,8.5 C8,9.32842712 8.67157288,10 9.5,10 C9.67531771,10 9.84361054,9.96992289 10,9.91464715 L10,13 L16,13 L16,9.91464715 C16.1563895,9.96992289 16.3246823,10 16.5,10 C17.3284271,10 18,9.32842712 18,8.5 C18,7.67157288 17.3284271,7 16.5,7 L15,7 C15,5.8954305 14.1045695,5 13,5 C11.8954305,5 11,5.8954305 11,7 Z M10,15.0000001 L16.0029699,15.0000001 C15.9999617,15.0002659 16,14 16,14 L10,14 L10,15.0000001 Z"/>
</svg>
