<svg xmlns="http://www.w3.org/2000/svg" xmlns:xlink="http://www.w3.org/1999/xlink" width="24px" height="24px" viewBox="0 0 24 24" version="1.1">
  <path d="M19,2 L20,2 C21.1045695,2 22,2.8954305 22,4 L22,20 C22,21.1045695 21.1045695,22 20,22 L4,22 C2.8954305,22 2,21.1045695 2,20 L2,4 C2,2.8954305 2.8954305,2 4,2 L5,2 L5,3 L4,3 C3.44771525,3 3,3.44771525 3,4 L3,20 C3,20.5522847 3.44771525,21 4,21 L20,21 C20.5522847,21 21,20.5522847 21,20 L21,4 C21,3.44771525 20.5522847,3 20,3 L19,3 L19,2 Z M17.9333124,12 L18.8197787,12 C19.095921,12 19.3197787,12.2238576 19.3197787,12.5 C19.3197787,12.6042036 19.287222,12.7058035 19.2266588,12.7906003 L17.6984429,14.930312 C17.5379489,15.1550257 17.2256762,15.207086 17.0009625,15.0465919 C16.9560506,15.0145151 16.9167593,14.9752239 16.8846826,14.930312 L15.3564667,12.7906003 C15.1959726,12.5658865 15.2480329,12.2536139 15.4727466,12.0931198 C15.5575434,12.0325566 15.6591433,12 15.7633469,12 L16.9333124,12 C16.9333124,9.23857625 14.6947361,7 11.9333124,7 C10.6747996,7 9.52488543,7.46496582 8.64598341,8.23248387 C8.5558839,8.36384488 8.40468527,8.45001221 8.23336118,8.45001221 C7.95721881,8.45001221 7.73336118,8.22615458 7.73336118,7.95001221 C7.73336118,7.7900651 7.8084644,7.64765929 7.92532984,7.55613578 L7.91619623,7.54316519 C8.97973474,6.5839447 10.3883298,6 11.9333124,6 C15.2470209,6 17.9333124,8.6862915 17.9333124,12 Z M16,2 L16,3 L8,3 L8,2 L16,2 Z M6.5,1 C6.77614237,1 7,1.22385763 7,1.5 L7,3.5 C7,3.77614237 6.77614237,4 6.5,4 C6.22385763,4 6,3.77614237 6,3.5 L6,1.5 C6,1.22385763 6.22385763,1 6.5,1 Z M17.5,1 C17.7761424,1 18,1.22385763 18,1.5 L18,3.5 C18,3.77614237 17.7761424,4 17.5,4 C17.2238576,4 17,3.77614237 17,3.5 L17,1.5 C17,1.22385763 17.2238576,1 17.5,1 Z M14.6083673,17.3721434 C13.8029785,17.7739632 12.8945423,18 11.9333124,18 C8.70727836,18 6.07590003,15.4539765 5.93891569,12.2616677 L4.76334686,12.2616677 C4.65914328,12.2616677 4.55754335,12.2291111 4.4727466,12.1685479 C4.24803288,12.0080538 4.19597258,11.6957812 4.35646667,11.4710675 L5.88468257,9.33135578 C5.91675935,9.28644389 5.95605061,9.24715263 6.0009625,9.21507584 C6.22567622,9.05458175 6.53794886,9.10664205 6.69844295,9.33135578 L8.22665884,11.4710675 C8.28722202,11.5558642 8.31977865,11.6574642 8.31977865,11.7616677 C8.31977865,12.0378101 8.09592103,12.2616677 7.81977865,12.2616677 L6.94004165,12.2616677 C7.07614244,14.9014642 9.25965774,17 11.9333124,17 C12.7504176,17 13.5217439,16.8039974 14.2028402,16.4564435 L14.2054366,16.4601307 C14.2761784,16.4217943 14.3572079,16.4000244 14.4433221,16.4000244 C14.7194645,16.4000244 14.9433221,16.623882 14.9433221,16.9000244 C14.9433221,17.0478173 14.8791993,17.1806335 14.7772568,17.2721697 L14.7835468,17.281102 C14.7657855,17.2907081 14.7479702,17.3002271 14.7301016,17.3096587 C14.6929196,17.3357376 14.6520246,17.3568827 14.6083673,17.3721434 Z"/>
</svg>
