<svg xmlns="http://www.w3.org/2000/svg" xmlns:xlink="http://www.w3.org/1999/xlink" width="24px" height="24px" viewBox="0 0 24 24" version="1.1">
  <path d="M21.1002953,8.99007874 L7,8.99007874 C4.23857625,8.99007874 2,11.228655 2,13.9900787 C2,16.7515025 4.23857625,18.9900787 7,18.9900787 L8.5,18.9900787 C8.77614237,18.9900787 9,19.2139364 9,19.4900787 C9,19.7662211 8.77614237,19.9900787 8.5,19.9900787 L7,19.9900787 C3.6862915,19.9900787 1,17.3037872 1,13.9900787 C1,10.6763702 3.6862915,7.99007874 7,7.99007874 L21.0351959,7.99007874 L15.8880832,3.96871357 C15.6704801,3.79870335 15.6318984,3.48448062 15.8019086,3.26687746 C15.9719188,3.0492743 16.2861415,3.0106926 16.5037447,3.18070282 L22.7331659,8.04766002 C22.8918507,8.13146411 23,8.29814161 23,8.49007874 L22.9999839,8.49413721 C23.0013393,8.6038124 22.9667864,8.71467521 22.8940054,8.80783074 C22.8678463,8.84131284 22.8382729,8.87055655 22.8061626,8.89545417 L16.5974925,13.9231361 C16.3828896,14.0969181 16.0680414,14.0638263 15.8942593,13.8492233 C15.7204773,13.6346204 15.7535692,13.3197722 15.9681721,13.1459901 L21.1002953,8.99007874 Z"/>
</svg>
