<svg xmlns="http://www.w3.org/2000/svg" xmlns:xlink="http://www.w3.org/1999/xlink" width="24px" height="24px" viewBox="0 0 24 24" version="1.1">
  <path d="M12,23 C5.92486775,23 1,18.0751322 1,12 C1,5.92486775 5.92486775,1 12,1 C18.0751322,1 23,5.92486775 23,12 C23,18.0751322 18.0751322,23 12,23 Z M12,22 C17.5228475,22 22,17.5228475 22,12 C22,6.4771525 17.5228475,2 12,2 C6.4771525,2 2,6.4771525 2,12 C2,17.5228475 6.4771525,22 12,22 Z M12,6 C15.3137085,6 18,8.6862915 18,12 L19.3603556,12 C19.6352002,12 19.723608,12.1881752 19.571252,12.4014945 L17.6450041,15.0985055 C17.4866344,15.3202448 17.2238527,15.3118248 17.0714967,15.0985055 L15.1452488,12.4014945 C14.9868791,12.1797552 15.0733178,12 15.3561452,12 L17,12 C17,9.23857625 14.7614237,7 12,7 C9.23857625,7 7,9.23857625 7,12 C7,14.7614237 9.23857625,17 12,17 C12.8171052,17 13.5884316,16.8039974 14.2695279,16.4564435 C14.3402696,16.4181071 14.4238956,16.4000244 14.5100098,16.4000244 C14.7861521,16.4000244 15.0100098,16.623882 15.0100098,16.9000244 C15.0100098,17.0478173 14.9521768,17.1895658 14.8502344,17.281102 C14.7929688,17.3245392 14.7187123,17.3568827 14.6750549,17.3721434 C13.8696662,17.7739632 12.96123,18 12,18 C8.6862915,18 6,15.3137085 6,12 C6,8.6862915 8.6862915,6 12,6 Z"/>
</svg>
