<svg xmlns="http://www.w3.org/2000/svg" xmlns:xlink="http://www.w3.org/1999/xlink" width="24px" height="24px" viewBox="0 0 24 24" version="1.1">
  <path d="M20.8915495,13.4013437 L22.9748737,11.3180195 C23.1701359,11.1227573 23.4867184,11.1227573 23.6819805,11.3180195 C23.8772427,11.5132816 23.8772427,11.8298641 23.6819805,12.0251263 L20.8535534,14.8535534 C20.7559223,14.9511845 20.6279612,15 20.5,15 C20.3720388,15 20.2440777,14.9511845 20.1464466,14.8535534 L17.3180195,12.0251263 C17.1227573,11.8298641 17.1227573,11.5132816 17.3180195,11.3180195 C17.5132816,11.1227573 17.8298641,11.1227573 18.0251263,11.3180195 L19.9101424,13.2030357 C19.9693221,12.8106397 20,12.4089024 20,12 C20,7.581722 16.418278,4 12,4 C9.46241306,4 7.20077638,5.18148349 5.73517251,7.02436793 L5.07375287,6.25271168 C6.72461916,4.26540322 9.2145342,3 12,3 C16.9705627,3 21,7.02943725 21,12 C21,12.4766779 20.9629419,12.9447004 20.8915495,13.4013437 Z M4.08985756,10.7969643 C4.03067787,11.1893603 4,11.5910976 4,12 C4,16.418278 7.581722,20 12,20 C14.5375869,20 16.7992236,18.8185165 18.2648275,16.9756321 L18.9262471,17.7472883 C17.2753808,19.7345968 14.7854658,21 12,21 C7.02943725,21 3,16.9705627 3,12 C3,11.5233221 3.03705812,11.0552996 3.10845052,10.5986563 L1.02512627,12.6819805 C0.82986412,12.8772427 0.513281631,12.8772427 0.318019485,12.6819805 C0.122757339,12.4867184 0.122757339,12.1701359 0.318019485,11.9748737 L3.14644661,9.14644661 C3.34170876,8.95118446 3.65829124,8.95118446 3.85355339,9.14644661 L6.68198052,11.9748737 C6.87724266,12.1701359 6.87724266,12.4867184 6.68198052,12.6819805 C6.48671837,12.8772427 6.17013588,12.8772427 5.97487373,12.6819805 L4.08985756,10.7969643 Z"/>
</svg>
