<svg xmlns="http://www.w3.org/2000/svg" xmlns:xlink="http://www.w3.org/1999/xlink" width="24px" height="24px" viewBox="0 0 24 24" version="1.1">
  <path d="M12,1 C18.05,1 23,5.95 23,12 C23,18.05 18.05,23 12,23 C5.95,23 1,18.05 1,12 C1,5.95 5.95,1 12,1 Z M12,22 C17.5714286,22 22,17.5714286 22,12 C22,6.42857143 17.5714286,2 12,2 C6.42857143,2 2,6.42857143 2,12 C2,17.5714286 6.42857143,22 12,22 Z M14,10 C14,9.9 13.9,8.8 12.5,8.5 L12.5,11.5 C14.4,11.8 15,13.2 15,14 C15,14.8 14.4,16.3 12.5,16.5 L12.5,17 C12.5,17.3 12.3,17.5 12,17.5 C11.7,17.5 11.5,17.3 11.5,17 L11.5,16.5 C10.7,16.4 10.1,16.1 9.7,15.7 C9,15 9,14 9,14 C9,13.7 9.2,13.5 9.5,13.5 C9.8,13.5 10,13.7 10,14 C10,14.2 10.1,15.3 11.5,15.5 L11.5,12.5 C10.7,12.4 10.1,12.1 9.7,11.7 C9,11 9,10 9,10 C9,10 9,9 9.7,8.3 C10.2,7.8 10.8,7.6 11.5,7.5 L11.5,7 C11.5,6.7 11.7,6.5 12,6.5 C12.3,6.5 12.5,6.7 12.5,7 L12.5,7.5 C14.4,7.8 15,9.2 15,10 C15,10.3 14.8,10.5 14.5,10.5 C14.2,10.5 14,10.3 14,10 Z M14,14 C14,13.9 13.9,12.8 12.5,12.6 L12.5,15.5 C14,15.2 14,14.1 14,14 Z M10,10 C10,10.1 10.1,11.2 11.5,11.4 L11.5,8.5 C10.1,8.8 10,9.9 10,10 Z"/>
</svg>
