<svg xmlns="http://www.w3.org/2000/svg" xmlns:xlink="http://www.w3.org/1999/xlink" width="24px" height="24px" viewBox="0 0 24 24" version="1.1">
  <path d="M21,21 L21,17.5 C21,17.2238576 21.2238576,17 21.5,17 C21.7761424,17 22,17.2238576 22,17.5 L22,21.5 C22,21.7761424 21.7761424,22 21.5,22 L17.5,22 C17.2238576,22 17,21.7761424 17,21.5 C17,21.2238576 17.2238576,21 17.5,21 L21,21 Z M21,3 L17.5,3 C17.2238576,3 17,2.77614237 17,2.5 C17,2.22385763 17.2238576,2 17.5,2 L21.5,2 C21.7761424,2 22,2.22385763 22,2.5 L22,6.5 C22,6.77614237 21.7761424,7 21.5,7 C21.2238576,7 21,6.77614237 21,6.5 L21,3 Z M3,21 L6.5,21 C6.77614237,21 7,21.2238576 7,21.5 C7,21.7761424 6.77614237,22 6.5,22 L2.5,22 C2.22385763,22 2,21.7761424 2,21.5 L2,17.5 C2,17.2238576 2.22385763,17 2.5,17 C2.77614237,17 3,17.2238576 3,17.5 L3,21 Z M3,3 L3,6.5 C3,6.77614237 2.77614237,7 2.5,7 C2.22385763,7 2,6.77614237 2,6.5 C2,5.34244792 2,4.34244792 2,3.5 C2,3.23133681 2,2.89800347 2,2.5 C2,2.22385763 2.22385763,2 2.5,2 L6.5,2 C6.77614237,2 7,2.22385763 7,2.5 C7,2.77614237 6.77614237,3 6.5,3 L3,3 Z M0.75,11.25 L23.25,11.25 C23.6642136,11.25 24,11.5857864 24,12 C24,12.4142136 23.6642136,12.75 23.25,12.75 L0.75,12.75 C0.335786438,12.75 5.07265313e-17,12.4142136 0,12 C-5.07265313e-17,11.5857864 0.335786438,11.25 0.75,11.25 Z"/>
</svg>
