<svg xmlns="http://www.w3.org/2000/svg" xmlns:xlink="http://www.w3.org/1999/xlink" width="24px" height="24px" viewBox="0 0 24 24" version="1.1">
  <path d="M12.5,6 L18,6 C19.1045695,6 20,6.8954305 20,8 L20,20 C20,21.1045695 19.1045695,22 18,22 L6,22 C4.8954305,22 4,21.1045695 4,20 L4,8 C4,6.8954305 4.8954305,6 6,6 L11.5,6 L11.5,1.71032223 L9.22550034,3.98482189 C9.03395657,4.17636566 8.71467784,4.16764075 8.52512627,3.97808918 C8.32986412,3.78282703 8.3236414,3.47246726 8.51839356,3.27771511 L11.6531793,0.142929349 C11.7478157,0.0482930134 11.8736329,0.00254361031 12.0012121,3.70133936e-06 C12.1260861,-0.000481225 12.2505718,0.0466804176 12.3468207,0.142929349 L15.4816064,3.27771511 C15.6731502,3.46925888 15.6644253,3.78853761 15.4748737,3.97808918 C15.2796116,4.17335133 14.9692518,4.17957404 14.7744997,3.98482189 L12.5,1.71032223 L12.5,6 Z M12.5,6.00321545 L11.5,6.00321545 L12.5,6.00321545 L11.5,6.00321545 L11.5,13.5 C11.5,13.7761424 11.7238576,14 12,14 C12.2761424,14 12.5,13.7761424 12.5,13.5 L12.5,6.00321545 Z"/>
</svg>
