<svg width="24" height="24" viewBox="0 0 24 24" xmlns="http://www.w3.org/2000/svg">
<path fill-rule="evenodd" clip-rule="evenodd" d="M23.0003 5.52504C23.3241 5.54149 23.6572 5.55 24 5.55C23.9886 5.8886 23.971 6.2219 23.9475 6.54994C23.0457 19.1554 13.462 24 12 24C10.538 24 0.954312 19.1554 0.0524731 6.54995C0.0290038 6.22191 0.0114137 5.88861 0 5.55C0.344193 5.55 0.677327 5.54337 0.999914 5.53047C7.00584 5.29046 9.35493 2.88146 11.322 0.73619L11.4722 0.572178C11.6498 0.378134 11.8249 0.186795 12 0C12.0903 0.0903344 12.1819 0.182361 12.2748 0.275799L12.2751 0.276088C12.4156 0.41727 12.5592 0.56167 12.7067 0.708322C14.7698 2.75928 17.5904 5.25021 23.0003 5.52504ZM15.8044 4.48002C17.6281 5.55605 19.9228 6.36954 22.9468 6.52361C22.5166 12.3864 20.1341 16.4594 17.6638 19.0978C16.354 20.4967 15.0184 21.4928 13.9352 22.134C13.393 22.4549 12.9232 22.6815 12.5606 22.8247C12.2158 22.9608 12.0401 22.9925 12.0057 22.9987L12 22.9997L11.9943 22.9987C11.9599 22.9925 11.7842 22.9608 11.4394 22.8247C11.0768 22.6815 10.607 22.4549 10.0648 22.134C8.98163 21.4928 7.64601 20.4967 6.33622 19.0978C3.86668 16.4602 1.48488 12.3889 1.0536 6.52911C4.38152 6.39415 6.70736 5.61675 8.48984 4.5285C10.0142 3.59786 11.1086 2.45005 12.0294 1.44551C13.011 2.42038 14.2199 3.54519 15.8044 4.48002ZM12.3796 7.02421L12 6.58131L11.6204 7.02421L7.12037 12.2742L6.84146 12.5996L7.12037 12.925L11.6204 18.175L12 18.6179L12.3796 18.175L16.8796 12.925L17.1585 12.5996L16.8796 12.2742L12.3796 7.02421ZM12 17.0813L8.15854 12.5996L12 8.1179L15.8415 12.5996L12 17.0813Z"/>
</svg>
