<svg width="24" height="24" viewBox="0 0 24 24" xmlns="http://www.w3.org/2000/svg">
<path fill-rule="evenodd" clip-rule="evenodd" d="M12 24C13.5 24 23.55 18.9 24 5.55C17.5213 5.55 14.4972 2.50992 12.2751 0.276088C12.1821 0.182551 12.0904 0.0904276 12 0C11.8249 0.186795 11.6498 0.378134 11.4722 0.572178C9.36796 2.87126 6.91626 5.55 0 5.55C0.45 18.9 10.5 24 12 24ZM12.3796 7.02812L12 6.58522L11.6204 7.02812L7.12037 12.2781L6.84146 12.6035L7.12037 12.9289L11.6204 18.1789L12 18.6218L12.3796 18.1789L16.8796 12.9289L17.1585 12.6035L16.8796 12.2781L12.3796 7.02812ZM12 17.0852L8.15854 12.6035L12 8.12181L15.8415 12.6035L12 17.0852Z"/>
</svg>
