<svg xmlns="http://www.w3.org/2000/svg" xmlns:xlink="http://www.w3.org/1999/xlink" width="24px" height="24px" viewBox="0 0 24 24" version="1.1">
  <path d="M4.5170903,3.25042587 L17.5831921,11.1440011 C18.0559097,11.4295822 18.2076137,12.0443047 17.9220327,12.5170222 C17.8382167,12.6557615 17.7219313,12.7720468 17.5831921,12.8558628 L4.5170903,20.749438 C4.04437275,21.0350191 3.42965024,20.883315 3.14406915,20.4105975 C3.04981796,20.2545851 3,20.0757794 3,19.8935072 L3,4.10635672 C3,3.55407197 3.44771525,3.10635672 4,3.10635672 C4.1822722,3.10635672 4.3610779,3.15617469 4.5170903,3.25042587 Z M20.5,3 C20.7761424,3 21,3.22385763 21,3.5 L21,20.5 C21,20.7761424 20.7761424,21 20.5,21 C20.2238576,21 20,20.7761424 20,20.5 L20,3.5 C20,3.22385763 20.2238576,3 20.5,3 Z"/>
</svg>
