<svg xmlns="http://www.w3.org/2000/svg" xmlns:xlink="http://www.w3.org/1999/xlink" width="24px" height="24px" viewBox="0 0 24 24" version="1.1">
  <path d="M11.9974118,2.08694899 L9.4329142,7.35822311 C9.15113553,7.93517763 8.60530798,8.33764781 7.97218682,8.42976393 L2.21528502,9.27768787 L6.39230521,13.4066446 C6.84492798,13.8549586 7.05055083,14.4965754 6.94505339,15.1278399 L5.96201352,20.9396032 L11.0910017,18.2043634 C11.6586278,17.9029414 12.3361957,17.9029414 12.9053824,18.2051939 L18.0328089,20.9396026 L17.049443,15.1258943 C16.9442727,14.4965754 17.1498956,13.8549586 17.6032321,13.4059383 L21.7795381,9.27768827 L16.0243713,8.43001786 C15.3895156,8.33764781 14.843688,7.93517763 14.5612417,7.3568535 L11.9974118,2.08694899 Z M12.8424706,1.538125 L15.4604706,6.919375 C15.5976471,7.20025 15.8616471,7.3958125 16.1683529,7.4404375 L22.0229412,8.30275 C22.7942353,8.4169375 23.1009412,9.3776875 22.5431765,9.9289375 L18.3062353,14.117125 C18.0849412,14.3363125 17.984,14.6513125 18.0357647,14.9610625 L19.0361176,20.8751875 C19.1681176,21.6535 18.3618824,22.2480625 17.6721176,21.8805625 L12.4348235,19.0875625 C12.1604706,18.941875 11.8343529,18.941875 11.56,19.0875625 L6.32270588,21.8805625 C5.63294118,22.2480625 4.828,21.6548125 4.95870588,20.8751875 L5.95905882,14.9610625 C6.01082353,14.6513125 5.90988235,14.3363125 5.68858824,14.117125 L1.45164706,9.9289375 C0.893882353,9.3776875 1.20188235,8.4169375 1.97188235,8.30275 L7.82647059,7.4404375 C8.13317647,7.3958125 8.39717647,7.20025 8.53435294,6.919375 L11.1523529,1.538125 C11.5017647,0.8306875 12.4982353,0.8306875 12.8424706,1.538125 Z"/>
</svg>
