<svg xmlns="http://www.w3.org/2000/svg" xmlns:xlink="http://www.w3.org/1999/xlink" width="24px" height="24px" viewBox="0 0 24 24" version="1.1">
  <path d="M5.67363117,15 C5.24169105,14.0907446 5,13.0735973 5,12 C5,8.13400675 8.13400675,5 12,5 C15.8659932,5 19,8.13400675 19,12 C19,13.0735973 18.758309,14.0907446 18.3263688,15 L22.5,15 C22.7761424,15 23,15.2238576 23,15.5 C23,15.7761424 22.7761424,16 22.5,16 L1.5,16 C1.22385763,16 1,15.7761424 1,15.5 C1,15.2238576 1.22385763,15 1.5,15 L5.67363074,15 Z M11.5,3.5 L11.5,1.5 C11.5,1.22385763 11.7238576,1 12,1 C12.2761424,1 12.5,1.22385763 12.5,1.5 L12.5,3.5 C12.5,3.77614237 12.2761424,4 12,4 C11.7238576,4 11.5,3.77614237 11.5,3.5 Z M15.8169873,4.38878407 L16.8169873,2.65673326 C16.9550585,2.41758695 17.2608537,2.33564937 17.5,2.47372056 C17.7391463,2.61179175 17.8210839,2.91758695 17.6830127,3.15673326 L16.6830127,4.88878407 C16.5449415,5.12793038 16.2391463,5.20986796 16,5.07179677 C15.7608537,4.93372558 15.6789161,4.62793038 15.8169873,4.38878407 Z M19.1112159,7.3169873 L20.8432667,6.3169873 C21.0824131,6.17891611 21.3882083,6.26085369 21.5262794,6.5 C21.6643506,6.73914631 21.5824131,7.04494151 21.3432667,7.1830127 L19.6112159,8.1830127 C19.3720696,8.32108389 19.0662744,8.23914631 18.9282032,8 C18.790132,7.76085369 18.8720696,7.45505849 19.1112159,7.3169873 Z M20.5,11.5 L22.5,11.5 C22.7761424,11.5 23,11.7238576 23,12 C23,12.2761424 22.7761424,12.5 22.5,12.5 L20.5,12.5 C20.2238576,12.5 20,12.2761424 20,12 C20,11.7238576 20.2238576,11.5 20.5,11.5 Z M3.5,12.5 L1.5,12.5 C1.22385763,12.5 1,12.2761424 1,12 C1,11.7238576 1.22385763,11.5 1.5,11.5 L3.5,11.5 C3.77614237,11.5 4,11.7238576 4,12 C4,12.2761424 3.77614237,12.5 3.5,12.5 Z M20.5,19 L3.5,19 C3.22385763,19 3,18.7761424 3,18.5 C3,18.2238576 3.22385763,18 3.5,18 L20.5,18 C20.7761424,18 21,18.2238576 21,18.5 C21,18.7761424 20.7761424,19 20.5,19 Z M4.38878407,8.1830127 L2.65673326,7.1830127 C2.41758695,7.04494151 2.33564937,6.73914631 2.47372056,6.5 C2.61179175,6.26085369 2.91758695,6.17891611 3.15673326,6.3169873 L4.88878407,7.3169873 C5.12793038,7.45505849 5.20986796,7.76085369 5.07179677,8 C4.93372558,8.23914631 4.62793038,8.32108389 4.38878407,8.1830127 Z M7.3169873,4.88878407 L6.3169873,3.15673326 C6.17891611,2.91758695 6.26085369,2.61179175 6.5,2.47372056 C6.73914631,2.33564937 7.04494151,2.41758695 7.1830127,2.65673326 L8.1830127,4.38878407 C8.32108389,4.62793038 8.23914631,4.93372558 8,5.07179677 C7.76085369,5.20986796 7.45505849,5.12793038 7.3169873,4.88878407 Z"/>
</svg>
