<svg xmlns="http://www.w3.org/2000/svg" width="24" height="24" viewBox="0 0 24 24"><path class="b" d="M6.265,21.5H3a1.442,1.442,0,0,1-1.5-1.375v-8.25A1.442,1.442,0,0,1,3,10.5H6.407A4.268,4.268,0,0,0,9.846,6.775V2.138l.97-.029c.052,0,.094,0,.166,0,2.036,0,2.955.934,2.955,3.591V9.17h5.91a1.956,1.956,0,0,1,1.556.675,1.821,1.821,0,0,1,.341,1.554l-1.786,8.73A3.156,3.156,0,0,1,16.975,22.5H8.5A2.992,2.992,0,0,1,6.265,21.5ZM3,11.5a.477.477,0,0,0-.5.45v8.1a.477.477,0,0,0,.5.45H5a.5.5,0,0,0,.5-.5V12a.5.5,0,0,0-.5-.5Z"/></svg>