<svg width="24px" height="24px" viewBox="0 0 24 24" version="1.1" xmlns="http://www.w3.org/2000/svg" xmlns:xlink="http://www.w3.org/1999/xlink">
    <path d="M19.5470133,7.63585951 C19.7064539,7.62434532 19.8550656,7.68533208 19.9596231,7.79149442 C20.0756603,7.8940408 20.1449469,8.04578545 20.1378137,8.21105402 L19.9471588,12.6283503 C19.9359629,12.8877478 19.7166037,13.088955 19.4572062,13.0777591 C19.4475636,13.0773429 19.4379361,13.0766299 19.4283374,13.075621 C19.1488915,13.0462501 18.9405206,12.8045457 18.9526369,12.5238219 L19.0776174,9.62547405 L13.7668664,14.9367658 C13.5759434,15.1276888 13.2795766,15.1489025 13.0652216,15.0004068 L12.989049,14.9367658 L9.4934498,11.4411667 L3.24852613,17.6860903 C3.03373777,17.9008787 2.68549703,17.9008787 2.47070867,17.6860903 C2.27978568,17.4951674 2.25857202,17.1988005 2.40706767,16.9844456 L2.47070867,16.9082729 L9.10454107,10.2744405 C9.29546405,10.0835175 9.5918309,10.0623038 9.80618585,10.2107995 L9.88235853,10.2744405 L13.3779577,13.7700397 L18.4306174,8.71647405 L15.2677043,8.9462417 C14.9883305,8.96641699 14.7422041,8.7639964 14.7080684,8.4859829 C14.6760597,8.22529294 14.8614424,7.98801379 15.1221324,7.95600509 L15.145835,7.95369555 L19.5470133,7.63585951 Z"></path>
</svg>