<svg xmlns="http://www.w3.org/2000/svg" xmlns:xlink="http://www.w3.org/1999/xlink" width="24px" height="24px" viewBox="0 0 24 24" version="1.1">
  <path d="M7.91856,21 C16.22048,21 20.76128,14.0743224 20.76128,8.068406 C20.76128,7.87169407 20.76128,7.67586824 20.74808,7.48092849 C21.6314516,6.83754833 22.3939928,6.04092576 23,5.12836017 C22.1762136,5.49591177 21.3023298,5.736952 20.40752,5.84343461 C21.3497747,5.27543517 22.0549887,4.38207055 22.39192,3.32959795 C21.5058986,3.85899699 20.5365686,4.23209103 19.52576,4.43277971 C18.1266328,2.93475128 15.903433,2.56810356 14.1028034,3.53843152 C12.3021737,4.50875948 11.371922,6.57474729 11.83368,8.57790762 C8.20446825,8.39470815 4.82313869,6.66867062 2.5312,3.82935258 C1.33318803,5.90603218 1.94510934,8.56271958 3.92864,9.89640918 C3.21033226,9.8749725 2.50768585,9.67986052 1.88,9.32753955 C1.88,9.34614744 1.88,9.36564141 1.88,9.38513539 C1.88058796,11.5486059 3.39514131,13.4120015 5.5012,13.8403947 C4.83668524,14.0228761 4.13947092,14.0495512 3.46312,13.9183706 C4.05443418,15.7697868 5.74898561,17.0381012 7.68008,17.0746224 C6.08176683,18.3394552 4.10733237,19.0260824 2.07448,19.0240198 C1.71535514,19.0233256 1.35657958,19.0014312 1,18.9584492 C3.06415964,20.2922593 5.46592379,20.9997492 7.91856,20.9964556"/>
</svg>
