<svg xmlns="http://www.w3.org/2000/svg" xmlns:xlink="http://www.w3.org/1999/xlink" width="24px" height="24px" viewBox="0 0 24 24" version="1.1">
  <path d="M15.8376009,7.38755549 C14.7974181,6.52116494 13.4595713,6 12,6 C8.6862915,6 6,8.6862915 6,12 C6,15.3137085 8.6862915,18 12,18 C15.3137085,18 18,15.3137085 18,12 C18,10.5404287 17.4788351,9.2025819 16.6124445,8.16239908 C16.4145471,7.85051699 16.149483,7.58545294 15.8376009,7.38755549 Z M13.4723476,7.22030463 C12.6041912,7.61226942 12,8.48557651 12,9.5 C12,10.8807119 13.1192881,12 14.5,12 C15.5144235,12 16.3877306,11.3958088 16.7796954,10.5276524 C16.9229103,10.9931201 17,11.4875574 17,12 C17,14.7614237 14.7614237,17 12,17 C9.23857625,17 7,14.7614237 7,12 C7,9.23857625 9.23857625,7 12,7 C12.5124426,7 13.0068799,7.07708968 13.4723476,7.22030463 Z M12,21 C7.4283736,21 3.47508014,18.1691752 0.14011961,12.5075255 C-0.0443792737,12.194308 -0.0443790092,11.8056403 0.1401203,11.492423 L0.140142324,11.492436 C3.47509809,5.83081199 7.42838398,3 12,3 C16.5716264,3 20.5249199,5.83082484 23.8598804,11.4924745 C24.0443793,11.805692 24.044379,12.1943597 23.8598797,12.507577 L23.8598577,12.507564 C20.5249019,18.169188 16.571616,21 12,21 Z"/>
</svg>
