<svg xmlns="http://www.w3.org/2000/svg" xmlns:xlink="http://www.w3.org/1999/xlink" width="24px" height="24px" viewBox="0 0 24 24" version="1.1">
  <path d="M6.57529937,18.0546848 L6.2630667,18.5120863 C6.138172,18.7717358 5.96364682,19.0034618 5.74814332,19.1974149 L2.93656278,21.7172831 C2.45627225,22.3112751 1.59429624,22.4237328 0.966512315,21.9686401 L0.938019792,21.9468824 C0.316300144,21.4957924 0.159722437,20.6337151 0.630518426,19.9317747 L2.8068016,17.5395246 C3.25572039,17.0467266 3.56533946,16.4413779 3.70423563,15.786424 L4.23739319,13.2504595 C4.22925804,13.0128097 4.19270535,12.2238896 4.12914076,10.9176543 L2.76679268,12.5750428 C2.77000472,12.5713331 2.51264297,12.8793683 2.41592967,12.9872048 C2.20002409,13.2279419 2.00520413,13.4061991 1.79760158,13.5297728 C1.59545287,13.6501002 1.38694776,13.7134152 1.16764173,13.6954809 C0.450958089,13.6368723 -0.0901743983,12.9252334 0.00399405406,12.1846834 L0.0383128955,12.055805 C0.135442436,11.8221852 0.239467953,11.6017819 0.362185577,11.3663088 C0.498046664,11.1056158 1.10453035,10.04194 1.27033305,9.73701696 C2.07519419,8.25681986 3.17828575,6.89064675 4.29818476,6.18358143 C5.23707687,5.59079757 6.37325318,5.49856072 7.31325752,5.81897693 C8.26541891,6.14488452 8.96054394,6.86087841 9.44106861,7.83224237 C9.66370584,8.2822958 9.82604731,8.75874325 9.94116559,9.24014663 C9.97305742,9.3735124 10.0029711,9.51934544 10.0238754,9.63190414 L12.0103581,10.5661808 C12.717525,10.8991957 13.0292495,11.7372943 12.7120698,12.449966 C12.4124913,13.1274442 11.6469744,13.4640587 10.9431742,13.2307653 L10.3533394,13.0313386 L8.20811344,12.0404485 L8.0157024,12.7540274 C7.96745104,12.8828938 7.98463856,13.0301228 8.09441767,13.2024558 L11.4724342,20.0730665 C11.9333124,20.7653643 11.7113539,21.7037555 10.9861871,22.1184067 L10.7487396,22.252275 C10.083884,22.6327528 9.23740836,22.4244264 8.81761358,21.7675717 L6.57529937,18.0546848 Z M6.00764507,17.1147469 L5.7500975,16.6882924 C5.60734139,16.4519128 5.68323821,16.1445626 5.91961778,16.0018065 C6.15599736,15.8590504 6.46334756,15.9349472 6.60610367,16.1713268 L9.66686824,21.2397432 C9.79273726,21.4365999 10.0500724,21.4999328 10.254824,21.382771 L10.4924205,21.2488175 C10.7124387,21.1230077 10.77998,20.8374582 10.607649,20.5709998 L7.22981374,13.7006612 C6.97456109,13.3177822 6.91805432,12.8337431 7.06446488,12.4493734 L7.3966871,11.2086512 C7.47691404,10.9090344 7.8077542,10.7539963 8.08933837,10.8840614 L10.7207813,12.102968 L11.2582704,12.2817057 C11.4739129,12.3531861 11.7067285,12.250812 11.7979811,12.0444535 C11.8944504,11.8276953 11.7994119,11.5721758 11.5845408,11.47099 L9.42228056,10.4502083 C9.40191244,10.4428428 9.39278338,10.4395416 9.38335316,10.4355321 C9.25128229,10.3821369 9.14611681,10.2707837 9.09966391,10.131425 C9.09393239,10.1142304 9.02277451,9.6993233 8.96858673,9.47271999 C8.86973666,9.05934726 8.73097213,8.65209454 8.54474596,8.2756448 C8.17158678,7.52131644 7.66035782,6.9947395 6.99002007,6.76529461 C6.3251089,6.53864881 5.50326789,6.60536735 4.83204857,7.0291519 C3.88274841,7.62850704 2.87947617,8.87105444 2.1488564,10.2147164 C1.97461702,10.535155 1.37424447,11.5881129 1.24898334,11.8284665 C1.1525633,12.0134793 1.07007649,12.1858788 0.99353084,12.3643075 C0.999017649,12.533709 1.12779112,12.6888838 1.24914715,12.698808 C1.23381195,12.6975539 1.24773813,12.6933251 1.28611527,12.6704814 C1.38760801,12.6100687 1.51748027,12.4912376 1.67147133,12.3195358 C1.75403592,12.2274754 2.0034759,11.9289217 2.00252101,11.9302761 L4.17884373,9.28237404 C4.46911552,8.92920433 5.0419754,9.11861314 5.06450889,9.57520792 C5.18232076,11.9624225 5.23913574,13.1764818 5.23913574,13.3184056 C5.23913574,13.3787392 5.2284495,13.436577 5.20886649,13.4901293 L4.68266114,15.9930221 C4.50680709,16.8222526 4.11487698,17.5885309 3.54628157,18.2127031 L1.41757132,20.5438199 C1.2891057,20.7383026 1.33676584,21.0007073 1.53384324,21.1438377 L1.56210535,21.1654283 C1.75127496,21.3025164 2.01360617,21.2682914 2.21343446,21.0311184 L5.0793343,18.4539807 C5.19842413,18.3467999 5.29383395,18.2201194 5.39837931,18.0151396 L6.00764507,17.1147469 Z M9.96999444,2.60436667 C9.96999444,3.96662015 8.86702571,5.06958889 7.50477222,5.06958889 C6.14237525,5.06958889 5.03827222,3.96647698 5.03827222,2.60436667 C5.03827222,1.24225635 6.14237525,0.139144444 7.50477222,0.139144444 C8.86702571,0.139144444 9.96999444,1.24211318 9.96999444,2.60436667 Z M8.96999444,2.60436667 C8.96999444,1.79439793 8.31474096,1.13914444 7.50477222,1.13914444 C6.69445906,1.13914444 6.03827222,1.79474224 6.03827222,2.60436667 C6.03827222,3.41399109 6.69445906,4.06958889 7.50477222,4.06958889 C8.31474096,4.06958889 8.96999444,3.4143354 8.96999444,2.60436667 Z"/>
</svg>
