<svg xmlns="http://www.w3.org/2000/svg" xmlns:xlink="http://www.w3.org/1999/xlink" width="24px" height="24px" viewBox="0 0 24 24" version="1.1">
  <path d="M11.5752994,19.0546848 L11.2630667,19.5120863 C11.138172,19.7717358 10.9636468,20.0034618 10.7481433,20.1974149 L7.93656278,22.7172831 C7.45627225,23.3112751 6.59429624,23.4237328 5.96651231,22.9686401 L5.93801979,22.9468824 C5.31630014,22.4957924 5.15972244,21.6337151 5.63051843,20.9317747 L7.8068016,18.5395246 C8.25572039,18.0467266 8.56533946,17.4413779 8.70423563,16.786424 L9.23739319,14.2504595 C9.22925804,14.0128097 9.19270535,13.2238896 9.12914076,11.9176543 L7.76679268,13.5750428 C7.77000472,13.5713331 7.51264297,13.8793683 7.41592967,13.9872048 C7.20002409,14.2279419 7.00520413,14.4061991 6.79760158,14.5297728 C6.59545287,14.6501002 6.38694776,14.7134152 6.16764173,14.6954809 C5.45095809,14.6368723 4.9098256,13.9252334 5.00399405,13.1846834 L5.0383129,13.055805 C5.13544244,12.8221852 5.23946795,12.6017819 5.36218558,12.3663088 C5.49804666,12.1056158 6.10453035,11.04194 6.27033305,10.737017 C7.07519419,9.25681986 8.17828575,7.89064675 9.29818476,7.18358143 C10.2370769,6.59079757 11.3732532,6.49856072 12.3132575,6.81897693 C13.2654189,7.14488452 13.9605439,7.86087841 14.4410686,8.83224237 C14.6637058,9.2822958 14.8260473,9.75874325 14.9411656,10.2401466 C14.9730574,10.3735124 15.0029711,10.5193454 15.0238754,10.6319041 L17.0103581,11.5661808 C17.717525,11.8991957 18.0292495,12.7372943 17.7120698,13.449966 C17.4124913,14.1274442 16.6469744,14.4640587 15.9431742,14.2307653 L15.3533394,14.0313386 L13.2081134,13.0404485 L13.0157024,13.7540274 C12.967451,13.8828938 12.9846386,14.0301228 13.0944177,14.2024558 L16.4724342,21.0730665 C16.9333124,21.7653643 16.7113539,22.7037555 15.9861871,23.1184067 L15.7487396,23.252275 C15.083884,23.6327528 14.2374084,23.4244264 13.8176136,22.7675717 L11.5752994,19.0546848 Z M11.0076451,18.1147469 L10.7500975,17.6882924 C10.6073414,17.4519128 10.6832382,17.1445626 10.9196178,17.0018065 C11.1559974,16.8590504 11.4633476,16.9349472 11.6061037,17.1713268 L14.6668682,22.2397432 C14.7927373,22.4365999 15.0500724,22.4999328 15.254824,22.382771 L15.4924205,22.2488175 C15.7124387,22.1230077 15.77998,21.8374582 15.607649,21.5709998 L12.2298137,14.7006612 C11.9745611,14.3177822 11.9180543,13.8337431 12.0644649,13.4493734 L12.3966871,12.2086512 C12.476914,11.9090344 12.8077542,11.7539963 13.0893384,11.8840614 L15.7207813,13.102968 L16.2582704,13.2817057 C16.4739129,13.3531861 16.7067285,13.250812 16.7979811,13.0444535 C16.8944504,12.8276953 16.7994119,12.5721758 16.5845408,12.47099 L14.4222806,11.4502083 C14.4019124,11.4428428 14.3927834,11.4395416 14.3833532,11.4355321 C14.2512823,11.3821369 14.1461168,11.2707837 14.0996639,11.131425 C14.0939324,11.1142304 14.0227745,10.6993233 13.9685867,10.47272 C13.8697367,10.0593473 13.7309721,9.65209454 13.544746,9.2756448 C13.1715868,8.52131644 12.6603578,7.9947395 11.9900201,7.76529461 C11.3251089,7.53864881 10.5032679,7.60536735 9.83204857,8.0291519 C8.88274841,8.62850704 7.87947617,9.87105444 7.1488564,11.2147164 C6.97461702,11.535155 6.37424447,12.5881129 6.24898334,12.8284665 C6.1525633,13.0134793 6.07007649,13.1858788 5.99353084,13.3643075 C5.99901765,13.533709 6.12779112,13.6888838 6.24914715,13.698808 C6.23381195,13.6975539 6.24773813,13.6933251 6.28611527,13.6704814 C6.38760801,13.6100687 6.51748027,13.4912376 6.67147133,13.3195358 C6.75403592,13.2274754 7.0034759,12.9289217 7.00252101,12.9302761 L9.17884373,10.282374 C9.46911552,9.92920433 10.0419754,10.1186131 10.0645089,10.5752079 C10.1823208,12.9624225 10.2391357,14.1764818 10.2391357,14.3184056 C10.2391357,14.3787392 10.2284495,14.436577 10.2088665,14.4901293 L9.68266114,16.9930221 C9.50680709,17.8222526 9.11487698,18.5885309 8.54628157,19.2127031 L6.41757132,21.5438199 C6.2891057,21.7383026 6.33676584,22.0007073 6.53384324,22.1438377 L6.56210535,22.1654283 C6.75127496,22.3025164 7.01360617,22.2682914 7.21343446,22.0311184 L10.0793343,19.4539807 C10.1984241,19.3467999 10.2938339,19.2201194 10.3983793,19.0151396 L11.0076451,18.1147469 Z M14.9699944,3.60436667 C14.9699944,4.96662015 13.8670257,6.06958889 12.5047722,6.06958889 C11.1423752,6.06958889 10.0382722,4.96647698 10.0382722,3.60436667 C10.0382722,2.24225635 11.1423752,1.13914444 12.5047722,1.13914444 C13.8670257,1.13914444 14.9699944,2.24211318 14.9699944,3.60436667 Z M13.9699944,3.60436667 C13.9699944,2.79439793 13.314741,2.13914444 12.5047722,2.13914444 C11.6944591,2.13914444 11.0382722,2.79474224 11.0382722,3.60436667 C11.0382722,4.41399109 11.6944591,5.06958889 12.5047722,5.06958889 C13.314741,5.06958889 13.9699944,4.4143354 13.9699944,3.60436667 Z"/>
</svg>
