<svg xmlns="http://www.w3.org/2000/svg" xmlns:xlink="http://www.w3.org/1999/xlink" width="24px" height="24px" viewBox="0 0 24 24" version="1.1">
  <path d="M9.73700153,14.2349024 C9.72557661,13.9019623 9.66828166,12.6902793 9.56511667,10.5998535 L7.38879395,13.2477556 C7.12791443,13.549057 6.62655146,14.2313403 6.20839444,14.1971444 C5.79023743,14.1629486 5.43994141,13.7200623 5.5,13.2477556 C5.80845,12.5058594 6.15475117,11.9962636 6.70959473,10.9758667 C7.33826139,9.81970378 8.39294434,8.34643555 9.56511667,7.60636667 C10.4650309,7.03819212 11.4728389,7.06075556 12.1513389,7.29203333 C14.2456167,8.00886667 14.5561167,10.9196444 14.5740056,10.9733111 C14.5778389,10.9745889 14.5765611,10.9745889 14.5803944,10.9758667 L16.7973389,12.0185333 C17.2586167,12.2357556 17.4617833,12.7826444 17.2547833,13.2477556 C17.0592833,13.6898667 16.5596722,13.9083667 16.10095,13.7563111 L15.5630056,13.5774222 L12.8796722,12.3379778 L12.54745,13.5787 C12.4426722,13.8585333 12.4797278,14.1741444 12.6458389,14.4233111 L16.0562278,21.3501444 C16.3565056,21.8012 16.2121167,22.4132556 15.7406167,22.6828667 L15.5003944,22.8183111 C15.0672278,23.0662 14.5152278,22.9307556 14.2456167,22.5090889 L11.5214685,17.9983678 L11.59065,18.14535 L10.8124833,19.29535 C10.7153722,19.4972389 10.5799278,19.6761278 10.4138167,19.8256278 L7.54776111,22.4029056 C7.23470556,22.7900722 6.67248333,22.8629056 6.26870556,22.5702944 L6.23165,22.5421833 C5.82659444,22.2482944 5.72437222,21.6860722 6.00037222,21.2682389 L8.17642778,18.8762389 C8.68626111,18.3165722 9.03637222,17.6304056 9.19353889,16.8892944 L9.73700153,14.2349024 Z M14.2,4.09931752 C14.2,5.25953851 13.2609035,6.19863503 12.1006825,6.19863503 C10.9404615,6.19863503 10,5.25953851 10,4.09931752 C10,2.93909652 10.9404615,2 12.1006825,2 C13.2609035,2 14.2,2.93909652 14.2,4.09931752 Z"/>
</svg>
