<svg xmlns="http://www.w3.org/2000/svg" xmlns:xlink="http://www.w3.org/1999/xlink" width="24px" height="24px" viewBox="0 0 24 24" version="1.1">
  <path d="M13.7308526,2.99379095 L22.9964053,18.9979275 C23.5498347,19.9538509 23.2235487,21.1774232 22.2676253,21.7308526 C21.9630946,21.9071598 21.6174379,22 21.2655527,22 L2.73444728,22 C1.62987778,22 0.734447284,21.1045695 0.734447284,20 C0.734447284,19.6481148 0.827287471,19.3024581 1.00359471,18.9979275 L10.2691474,2.99379095 C10.8225768,2.03786747 12.0461491,1.71158154 13.0020725,2.26501092 C13.3044956,2.44009794 13.5557655,2.69136791 13.7308526,2.99379095 Z M12.8654263,3.49482722 C12.7778828,3.3436157 12.6522478,3.21798072 12.5010363,3.13043721 C12.0230745,2.85372251 11.4112884,3.01686548 11.1345737,3.49482722 L1.869021,19.4989637 C1.78086738,19.6512291 1.73444728,19.8240574 1.73444728,20 C1.73444728,20.5522847 2.18216253,21 2.73444728,21 L21.2655527,21 C21.4414953,21 21.6143236,20.9535799 21.766589,20.8654263 C22.2445507,20.5887116 22.4076937,19.9769255 22.130979,19.4989637 L12.8654263,3.49482722 Z M12,14.5 C11.4477153,14.5 11,14.0522847 11,13.5 L11,9 C11,8.44771525 11.4477153,8 12,8 C12.5522847,8 13,8.44771525 13,9 L13,13.5 C13,14.0522847 12.5522847,14.5 12,14.5 Z M12,16 C12.5522847,16 13,16.4477153 13,17 C13,17.5522847 12.5522847,18 12,18 C11.4477153,18 11,17.5522847 11,17 C11,16.4477153 11.4477153,16 12,16 Z"/>
</svg>
