<svg xmlns="http://www.w3.org/2000/svg" xmlns:xlink="http://www.w3.org/1999/xlink" width="24px" height="24px" viewBox="0 0 24 24" version="1.1">
  <path d="M19.2967286,3.29465641 C19.6878154,2.90355411 20.3187136,2.90036287 20.7119606,3.29360983 C21.1024849,3.68413412 21.0957418,4.32405502 20.7109422,4.70886997 L13.4106239,12.0095181 L20.7052868,19.2795982 C21.0898624,19.663034 21.0964172,20.3017962 20.7058929,20.6923205 C20.312646,21.0855674 19.6819323,21.0835124 19.2910732,20.6938117 L12.0011026,13.4284101 L4.71113193,20.6938117 C4.32027287,21.0835124 3.68955917,21.0855674 3.29631221,20.6923205 C2.90578792,20.3017962 2.91234274,19.663034 3.29691837,19.2795982 L10.5915813,12.0095181 L3.29126299,4.70886997 C2.90646332,4.32405502 2.89972025,3.68413412 3.29024455,3.29360983 C3.6834915,2.90036287 4.31438979,2.90355411 4.70547655,3.29465641 L12.0011026,10.5906121 L19.2967286,3.29465641 Z"/>
</svg>
