<svg xmlns="http://www.w3.org/2000/svg" xmlns:xlink="http://www.w3.org/1999/xlink" width="24px" height="24px" viewBox="0 0 24 24" version="1.1">
  <path d="M21.4502617,20.5991799 C21.6347056,20.8975893 21.6516831,21.2653696 21.4806409,21.4360312 C21.2615282,21.6546563 20.8888917,21.6546563 20.669779,21.4360312 L15.1605919,15.9391038 L14.8807941,16.1675199 C13.5668757,17.2401517 11.9019679,17.824649 10.1304174,17.824649 C5.84813163,17.824649 2.4,14.3841906 2.4,10.1123245 C2.4,5.8404584 5.84813163,2.4 10.1304174,2.4 C14.4127031,2.4 17.8608347,5.8404584 17.8608347,10.1123245 C17.8608347,11.8793878 17.2751975,13.5401264 16.2003618,14.8508911 L15.9703176,15.1314305 L21.4502617,20.5991799 Z M10.1304174,16.7525741 C13.7705915,16.7525741 16.7845845,13.7864839 16.7845845,10.1123245 C16.7845845,6.39667108 13.8534656,3.47207488 10.1304174,3.47207488 C6.40736906,3.47207488 3.47625016,6.39667108 3.47625016,10.1123245 C3.47625016,13.8279779 6.40736906,16.7525741 10.1304174,16.7525741 Z M14,10 C14,10.5522847 13.5522847,11 13,11 L7,11 C6.44771525,11 6,10.5522847 6,10 C6,9.44771525 6.44771525,9 7,9 L13,9 C13.5522847,9 14,9.44771525 14,10 Z"/>
</svg>
