<svg xmlns="http://www.w3.org/2000/svg" xmlns:xlink="http://www.w3.org/1999/xlink"><defs><style>
    .sprite-symbol-usage {display: none;}
    .sprite-symbol-usage:target {display: inline;}
  </style><symbol viewBox="0 0 24 24" id="checkboxBase">
    <!-- Generator: Sketch 47.1 (45422) - http://www.bohemiancoding.com/sketch -->
    <title>Checkbox</title>
    <desc>Created with Sketch.</desc>
    <defs></defs>
    <g id="checkboxBase_Page-1" stroke="none" stroke-width="1" fill="none" fill-rule="evenodd">
        <g id="checkboxBase_Checkbox" fill-rule="nonzero" fill="#757575">
            <path d="M3,5.99922997 L3,18.00077 C3,19.655997 4.34355018,21 5.99922997,21 L18.00077,21 C19.655997,21 21,19.6564498 21,18.00077 L21,5.99922997 C21,4.34400301 19.6564498,3 18.00077,3 L5.99922997,3 C4.34400301,3 3,4.34355018 3,5.99922997 Z M2,5.99922997 C2,3.79051625 3.79246765,2 5.99922997,2 L18.00077,2 C20.2094838,2 22,3.79246765 22,5.99922997 L22,18.00077 C22,20.2094838 20.2075324,22 18.00077,22 L5.99922997,22 C3.79051625,22 2,20.2075324 2,18.00077 L2,5.99922997 Z" id="checkboxBase_Rectangle-3" />
        </g>
    </g>
</symbol><symbol viewBox="0 0 24 24" id="checkboxChecked">
    <!-- Generator: Sketch 47.1 (45422) - http://www.bohemiancoding.com/sketch -->
    <title>CheckboxSelected</title>
    <desc>Created with Sketch.</desc>
    <defs></defs>
    <g id="checkboxChecked_Page-1" stroke="none" stroke-width="1" fill="none" fill-rule="evenodd">
        <g id="checkboxChecked_CheckboxSelected">
            <rect id="checkboxChecked_Rectangle-3" fill="#43B02A" x="2" y="2" width="20" height="20" rx="4" />
            <path d="M5.27129383,13.1171494 L10.0991238,16.9794134 C10.4003804,17.2198393 10.8368163,17.1831478 11.0926913,16.8954091 L18.8172193,8.20531512 C19.0827499,7.90598966 19.0557141,7.44831137 18.7573542,7.18278072 C18.4580287,6.91725007 18.0003504,6.94428592 17.7348198,7.24264581 L10.4670045,15.4190587 L6.17602917,11.9864716 C5.86415136,11.73639 5.4084042,11.787565 5.15832261,12.0994428 C4.90920658,12.4113206 4.95941601,12.8670678 5.27129383,13.1171494 L5.27129383,13.1171494 L5.27129383,13.1171494 Z" id="checkboxChecked_Shape" fill="#FFFFFF" />
        </g>
    </g>
</symbol><symbol viewBox="0 0 24 24" id="radioBase">
    <!-- Generator: Sketch 47.1 (45422) - http://www.bohemiancoding.com/sketch -->
    <title>Radio</title>
    <desc>Created with Sketch.</desc>
    <defs></defs>
    <g id="radioBase_Page-1" stroke="none" stroke-width="1" fill="none" fill-rule="evenodd">
        <g id="radioBase_Radio" fill-rule="nonzero" fill="#757575">
            <path d="M2,12 C2,17.5237031 6.47667235,22 12,22 C17.5237031,22 22,17.5233276 22,12 C22,6.47629686 17.5233276,2 12,2 C6.47629686,2 2,6.47667235 2,12 Z M1,12 C1,5.92486775 5.923532,1 12,1 C18.0751322,1 23,5.923532 23,12 C23,18.0751322 18.076468,23 12,23 C5.92486775,23 1,18.076468 1,12 Z" id="radioBase_Rectangle-2" />
        </g>
    </g>
</symbol><symbol viewBox="0 0 24 24" id="radioChecked">
    <!-- Generator: Sketch 47.1 (45422) - http://www.bohemiancoding.com/sketch -->
    <title>RadioSelected</title>
    <desc>Created with Sketch.</desc>
    <defs></defs>
    <g id="radioChecked_Page-1" stroke="none" stroke-width="1" fill="none" fill-rule="evenodd">
        <g id="radioChecked_RadioSelected" fill="#43B02A">
            <path d="M2,12 C2,17.5237031 6.47667235,22 12,22 C17.5237031,22 22,17.5233276 22,12 C22,6.47629686 17.5233276,2 12,2 C6.47629686,2 2,6.47667235 2,12 Z M1,12 C1,5.92486775 5.923532,1 12,1 C18.0751322,1 23,5.923532 23,12 C23,18.0751322 18.076468,23 12,23 C5.92486775,23 1,18.076468 1,12 Z" id="radioChecked_Combined-Shape" fill-rule="nonzero" />
            <circle id="radioChecked_Oval" cx="12" cy="12" r="7" />
        </g>
    </g>
</symbol></defs><use id="checkboxBase-usage" xlink:href="#checkboxBase" class="sprite-symbol-usage" /><use id="checkboxChecked-usage" xlink:href="#checkboxChecked" class="sprite-symbol-usage" /><use id="radioBase-usage" xlink:href="#radioBase" class="sprite-symbol-usage" /><use id="radioChecked-usage" xlink:href="#radioChecked" class="sprite-symbol-usage" /></svg>